%TF.GenerationSoftware,KiCad,Pcbnew,8.0.1*%
%TF.CreationDate,2024-04-10T11:13:06-07:00*%
%TF.ProjectId,TS3A5017-Mixer,54533341-3530-4313-972d-4d697865722e,rev?*%
%TF.SameCoordinates,Original*%
%TF.FileFunction,Copper,L2,Inr*%
%TF.FilePolarity,Positive*%
%FSLAX46Y46*%
G04 Gerber Fmt 4.6, Leading zero omitted, Abs format (unit mm)*
G04 Created by KiCad (PCBNEW 8.0.1) date 2024-04-10 11:13:06*
%MOMM*%
%LPD*%
G01*
G04 APERTURE LIST*
%TA.AperFunction,ComponentPad*%
%ADD10C,2.500000*%
%TD*%
%TA.AperFunction,ComponentPad*%
%ADD11R,1.700000X1.700000*%
%TD*%
%TA.AperFunction,ComponentPad*%
%ADD12O,1.700000X1.700000*%
%TD*%
%TA.AperFunction,ViaPad*%
%ADD13C,0.600000*%
%TD*%
G04 APERTURE END LIST*
D10*
%TO.N,GND*%
%TO.C,J3*%
X129281220Y-92455385D03*
X134361220Y-92455385D03*
X129281220Y-87375385D03*
X134361220Y-87375385D03*
%TD*%
D11*
%TO.N,/3.3V*%
%TO.C,J4*%
X132588000Y-104140000D03*
D12*
%TO.N,GND*%
X132588000Y-106680000D03*
%TD*%
D10*
%TO.N,GND*%
%TO.C,J1*%
X143961153Y-75615632D03*
X143961153Y-80695632D03*
X149041153Y-75615632D03*
X149041153Y-80695632D03*
%TD*%
%TO.N,GND*%
%TO.C,J2*%
X163129122Y-87396874D03*
X158049122Y-87396874D03*
X163129122Y-92476874D03*
X158049122Y-92476874D03*
%TD*%
D13*
%TO.N,/3.3V*%
X144780000Y-91440000D03*
X139446000Y-97536000D03*
X147320000Y-97536000D03*
%TO.N,GND*%
X153670000Y-107696000D03*
X153670000Y-87122000D03*
X153924000Y-89154000D03*
X153162000Y-94996000D03*
X147574000Y-84582000D03*
X141224000Y-85852000D03*
X142240000Y-84582000D03*
X145288000Y-97282000D03*
X153162000Y-97282000D03*
X147574000Y-94996000D03*
X139954000Y-94996000D03*
X148082000Y-99822000D03*
X162560000Y-100584000D03*
X148844000Y-91440000D03*
X143764000Y-89662000D03*
X140208000Y-99822000D03*
X145288000Y-94996000D03*
%TO.N,/Q-Pos*%
X143764000Y-86360000D03*
X150622000Y-86868000D03*
X143764000Y-93980000D03*
%TO.N,/I-Neg*%
X149352000Y-93980000D03*
X141732000Y-88900000D03*
X151130000Y-88900000D03*
%TO.N,/Q-Neg*%
X152146000Y-88138000D03*
X141732000Y-93980000D03*
X141478000Y-87122000D03*
%TO.N,/I-Pos*%
X152146000Y-87122000D03*
X142748000Y-86868000D03*
X151638000Y-93980000D03*
%TD*%
%TA.AperFunction,Conductor*%
%TO.N,GND*%
G36*
X142875251Y-74180185D02*
G01*
X142895893Y-74196819D01*
X143560591Y-74861517D01*
X143558527Y-74862372D01*
X143419309Y-74955394D01*
X143300915Y-75073788D01*
X143207893Y-75213006D01*
X143207038Y-75215069D01*
X142559028Y-74567059D01*
X142559027Y-74567059D01*
X142511181Y-74627057D01*
X142380036Y-74854205D01*
X142284211Y-75098361D01*
X142225846Y-75354081D01*
X142225845Y-75354086D01*
X142206246Y-75615627D01*
X142206246Y-75615636D01*
X142225845Y-75877177D01*
X142225846Y-75877182D01*
X142284211Y-76132902D01*
X142380036Y-76377058D01*
X142380035Y-76377058D01*
X142511180Y-76604205D01*
X142559027Y-76664203D01*
X143207037Y-76016193D01*
X143207893Y-76018258D01*
X143300915Y-76157476D01*
X143419309Y-76275870D01*
X143558527Y-76368892D01*
X143560590Y-76369746D01*
X142911983Y-77018352D01*
X143083699Y-77135425D01*
X143083703Y-77135427D01*
X143320007Y-77249226D01*
X143320011Y-77249227D01*
X143570647Y-77326539D01*
X143570653Y-77326541D01*
X143830001Y-77365631D01*
X143830010Y-77365632D01*
X144092296Y-77365632D01*
X144092304Y-77365631D01*
X144351652Y-77326541D01*
X144351658Y-77326539D01*
X144602296Y-77249227D01*
X144838598Y-77135430D01*
X144838600Y-77135429D01*
X145010321Y-77018352D01*
X144361715Y-76369746D01*
X144363779Y-76368892D01*
X144502997Y-76275870D01*
X144621391Y-76157476D01*
X144714413Y-76018258D01*
X144715267Y-76016193D01*
X145363278Y-76664204D01*
X145411124Y-76604205D01*
X145542269Y-76377058D01*
X145638094Y-76132902D01*
X145696459Y-75877182D01*
X145696460Y-75877177D01*
X145716060Y-75615636D01*
X145716060Y-75615627D01*
X145696460Y-75354086D01*
X145696459Y-75354081D01*
X145638094Y-75098361D01*
X145542269Y-74854205D01*
X145542270Y-74854205D01*
X145411125Y-74627058D01*
X145363277Y-74567059D01*
X144715267Y-75215069D01*
X144714413Y-75213006D01*
X144621391Y-75073788D01*
X144502997Y-74955394D01*
X144363779Y-74862372D01*
X144361715Y-74861517D01*
X145026412Y-74196819D01*
X145087735Y-74163334D01*
X145114093Y-74160500D01*
X147888212Y-74160500D01*
X147955251Y-74180185D01*
X147975893Y-74196819D01*
X148640591Y-74861517D01*
X148638527Y-74862372D01*
X148499309Y-74955394D01*
X148380915Y-75073788D01*
X148287893Y-75213006D01*
X148287038Y-75215069D01*
X147639028Y-74567059D01*
X147639027Y-74567059D01*
X147591181Y-74627057D01*
X147460036Y-74854205D01*
X147364211Y-75098361D01*
X147305846Y-75354081D01*
X147305845Y-75354086D01*
X147286246Y-75615627D01*
X147286246Y-75615636D01*
X147305845Y-75877177D01*
X147305846Y-75877182D01*
X147364211Y-76132902D01*
X147460036Y-76377058D01*
X147460035Y-76377058D01*
X147591180Y-76604205D01*
X147639027Y-76664203D01*
X148287037Y-76016193D01*
X148287893Y-76018258D01*
X148380915Y-76157476D01*
X148499309Y-76275870D01*
X148638527Y-76368892D01*
X148640590Y-76369746D01*
X147991983Y-77018352D01*
X148163699Y-77135425D01*
X148163703Y-77135427D01*
X148400007Y-77249226D01*
X148400011Y-77249227D01*
X148650647Y-77326539D01*
X148650653Y-77326541D01*
X148910001Y-77365631D01*
X148910010Y-77365632D01*
X149172296Y-77365632D01*
X149172304Y-77365631D01*
X149431652Y-77326541D01*
X149431658Y-77326539D01*
X149682296Y-77249227D01*
X149918598Y-77135430D01*
X149918600Y-77135429D01*
X150090321Y-77018352D01*
X149441715Y-76369746D01*
X149443779Y-76368892D01*
X149582997Y-76275870D01*
X149701391Y-76157476D01*
X149794413Y-76018258D01*
X149795267Y-76016193D01*
X150443278Y-76664204D01*
X150491124Y-76604205D01*
X150622269Y-76377058D01*
X150718094Y-76132902D01*
X150776459Y-75877182D01*
X150776460Y-75877177D01*
X150796060Y-75615636D01*
X150796060Y-75615627D01*
X150776460Y-75354086D01*
X150776459Y-75354081D01*
X150718094Y-75098361D01*
X150622269Y-74854205D01*
X150622270Y-74854205D01*
X150491125Y-74627058D01*
X150443277Y-74567059D01*
X149795267Y-75215069D01*
X149794413Y-75213006D01*
X149701391Y-75073788D01*
X149582997Y-74955394D01*
X149443779Y-74862372D01*
X149441715Y-74861517D01*
X150106412Y-74196819D01*
X150167735Y-74163334D01*
X150194093Y-74160500D01*
X164602500Y-74160500D01*
X164669539Y-74180185D01*
X164715294Y-74232989D01*
X164726500Y-74284500D01*
X164726500Y-86238768D01*
X164706815Y-86305807D01*
X164654011Y-86351562D01*
X164584853Y-86361506D01*
X164559399Y-86349881D01*
X164531247Y-86348300D01*
X163883236Y-86996311D01*
X163882382Y-86994248D01*
X163789360Y-86855030D01*
X163670966Y-86736636D01*
X163531748Y-86643614D01*
X163529684Y-86642759D01*
X164178290Y-85994152D01*
X164006576Y-85877080D01*
X164006567Y-85877075D01*
X163770264Y-85763278D01*
X163770266Y-85763278D01*
X163519627Y-85685966D01*
X163519621Y-85685964D01*
X163260273Y-85646874D01*
X162997970Y-85646874D01*
X162738622Y-85685964D01*
X162738616Y-85685966D01*
X162487980Y-85763278D01*
X162487976Y-85763279D01*
X162251669Y-85877079D01*
X162251661Y-85877084D01*
X162079952Y-85994151D01*
X162728560Y-86642759D01*
X162726496Y-86643614D01*
X162587278Y-86736636D01*
X162468884Y-86855030D01*
X162375862Y-86994248D01*
X162375007Y-86996311D01*
X161726996Y-86348301D01*
X161679150Y-86408299D01*
X161548005Y-86635447D01*
X161452180Y-86879603D01*
X161393815Y-87135323D01*
X161393814Y-87135328D01*
X161374215Y-87396869D01*
X161374215Y-87396878D01*
X161393814Y-87658419D01*
X161393815Y-87658424D01*
X161452180Y-87914144D01*
X161548005Y-88158300D01*
X161548004Y-88158300D01*
X161679149Y-88385447D01*
X161726996Y-88445445D01*
X162375006Y-87797435D01*
X162375862Y-87799500D01*
X162468884Y-87938718D01*
X162587278Y-88057112D01*
X162726496Y-88150134D01*
X162728559Y-88150988D01*
X162079952Y-88799594D01*
X162251668Y-88916667D01*
X162251672Y-88916669D01*
X162487976Y-89030468D01*
X162487980Y-89030469D01*
X162738616Y-89107781D01*
X162738622Y-89107783D01*
X162997970Y-89146873D01*
X162997979Y-89146874D01*
X163260265Y-89146874D01*
X163260273Y-89146873D01*
X163519621Y-89107783D01*
X163519627Y-89107781D01*
X163770265Y-89030469D01*
X164006567Y-88916672D01*
X164006569Y-88916671D01*
X164178290Y-88799594D01*
X163529684Y-88150988D01*
X163531748Y-88150134D01*
X163670966Y-88057112D01*
X163789360Y-87938718D01*
X163882382Y-87799500D01*
X163883236Y-87797435D01*
X164531247Y-88445446D01*
X164553212Y-88444212D01*
X164562739Y-88437526D01*
X164632550Y-88434674D01*
X164692821Y-88470018D01*
X164724415Y-88532337D01*
X164726500Y-88554978D01*
X164726500Y-91318768D01*
X164706815Y-91385807D01*
X164654011Y-91431562D01*
X164584853Y-91441506D01*
X164559399Y-91429881D01*
X164531247Y-91428300D01*
X163883236Y-92076311D01*
X163882382Y-92074248D01*
X163789360Y-91935030D01*
X163670966Y-91816636D01*
X163531748Y-91723614D01*
X163529684Y-91722759D01*
X164178290Y-91074152D01*
X164006576Y-90957080D01*
X164006567Y-90957075D01*
X163770264Y-90843278D01*
X163770266Y-90843278D01*
X163519627Y-90765966D01*
X163519621Y-90765964D01*
X163260273Y-90726874D01*
X162997970Y-90726874D01*
X162738622Y-90765964D01*
X162738616Y-90765966D01*
X162487980Y-90843278D01*
X162487976Y-90843279D01*
X162251669Y-90957079D01*
X162251661Y-90957084D01*
X162079952Y-91074151D01*
X162728560Y-91722759D01*
X162726496Y-91723614D01*
X162587278Y-91816636D01*
X162468884Y-91935030D01*
X162375862Y-92074248D01*
X162375007Y-92076311D01*
X161726996Y-91428301D01*
X161679150Y-91488299D01*
X161548005Y-91715447D01*
X161452180Y-91959603D01*
X161393815Y-92215323D01*
X161393814Y-92215328D01*
X161374215Y-92476869D01*
X161374215Y-92476878D01*
X161393814Y-92738419D01*
X161393815Y-92738424D01*
X161452180Y-92994144D01*
X161548005Y-93238300D01*
X161548004Y-93238300D01*
X161679149Y-93465447D01*
X161726996Y-93525445D01*
X162375006Y-92877435D01*
X162375862Y-92879500D01*
X162468884Y-93018718D01*
X162587278Y-93137112D01*
X162726496Y-93230134D01*
X162728559Y-93230988D01*
X162079952Y-93879594D01*
X162251668Y-93996667D01*
X162251672Y-93996669D01*
X162487976Y-94110468D01*
X162487980Y-94110469D01*
X162738616Y-94187781D01*
X162738622Y-94187783D01*
X162997970Y-94226873D01*
X162997979Y-94226874D01*
X163260265Y-94226874D01*
X163260273Y-94226873D01*
X163519621Y-94187783D01*
X163519627Y-94187781D01*
X163770265Y-94110469D01*
X164006567Y-93996672D01*
X164006569Y-93996671D01*
X164178290Y-93879594D01*
X163529684Y-93230988D01*
X163531748Y-93230134D01*
X163670966Y-93137112D01*
X163789360Y-93018718D01*
X163882382Y-92879500D01*
X163883236Y-92877435D01*
X164531247Y-93525446D01*
X164553212Y-93524212D01*
X164562739Y-93517526D01*
X164632550Y-93514674D01*
X164692821Y-93550018D01*
X164724415Y-93612337D01*
X164726500Y-93634978D01*
X164726500Y-115961500D01*
X164706815Y-116028539D01*
X164654011Y-116074294D01*
X164602500Y-116085500D01*
X128005500Y-116085500D01*
X127938461Y-116065815D01*
X127892706Y-116013011D01*
X127881500Y-115961500D01*
X127881500Y-112393738D01*
X158719499Y-112393738D01*
X158759743Y-112543927D01*
X158837480Y-112678571D01*
X158837482Y-112678573D01*
X158837483Y-112678575D01*
X158947425Y-112788517D01*
X158947426Y-112788518D01*
X158947428Y-112788519D01*
X159082072Y-112866256D01*
X159082073Y-112866256D01*
X159082076Y-112866258D01*
X159232259Y-112906500D01*
X159232262Y-112906500D01*
X159387738Y-112906500D01*
X159387741Y-112906500D01*
X159537924Y-112866258D01*
X159672575Y-112788517D01*
X159782517Y-112678575D01*
X159860258Y-112543924D01*
X159900500Y-112393741D01*
X159900500Y-112238259D01*
X159860258Y-112088076D01*
X159782517Y-111953425D01*
X159672575Y-111843483D01*
X159672573Y-111843482D01*
X159672571Y-111843480D01*
X159537927Y-111765743D01*
X159537928Y-111765743D01*
X159525611Y-111762442D01*
X159387741Y-111725500D01*
X159232259Y-111725500D01*
X159094388Y-111762442D01*
X159082072Y-111765743D01*
X158947428Y-111843480D01*
X158947422Y-111843485D01*
X158837485Y-111953422D01*
X158837480Y-111953428D01*
X158759743Y-112088072D01*
X158759742Y-112088076D01*
X158719500Y-112238259D01*
X158719500Y-112238261D01*
X158719500Y-112393738D01*
X158719499Y-112393738D01*
X127881500Y-112393738D01*
X127881500Y-105037870D01*
X131237500Y-105037870D01*
X131237501Y-105037876D01*
X131243908Y-105097483D01*
X131294202Y-105232328D01*
X131294206Y-105232335D01*
X131380452Y-105347544D01*
X131380455Y-105347547D01*
X131495664Y-105433793D01*
X131495671Y-105433797D01*
X131495674Y-105433798D01*
X131627598Y-105483002D01*
X131683531Y-105524873D01*
X131707949Y-105590337D01*
X131693098Y-105658610D01*
X131671947Y-105686865D01*
X131549886Y-105808926D01*
X131414400Y-106002420D01*
X131414399Y-106002422D01*
X131314570Y-106216507D01*
X131314567Y-106216513D01*
X131257364Y-106429999D01*
X131257364Y-106430000D01*
X132154988Y-106430000D01*
X132122075Y-106487007D01*
X132088000Y-106614174D01*
X132088000Y-106745826D01*
X132122075Y-106872993D01*
X132154988Y-106930000D01*
X131257364Y-106930000D01*
X131314567Y-107143486D01*
X131314570Y-107143492D01*
X131414399Y-107357578D01*
X131549894Y-107551082D01*
X131716917Y-107718105D01*
X131910421Y-107853600D01*
X132124507Y-107953429D01*
X132124516Y-107953433D01*
X132338000Y-108010634D01*
X132338000Y-107113012D01*
X132395007Y-107145925D01*
X132522174Y-107180000D01*
X132653826Y-107180000D01*
X132780993Y-107145925D01*
X132838000Y-107113012D01*
X132838000Y-108010633D01*
X133051483Y-107953433D01*
X133051492Y-107953429D01*
X133265578Y-107853600D01*
X133459082Y-107718105D01*
X133626105Y-107551082D01*
X133761600Y-107357578D01*
X133861429Y-107143492D01*
X133861432Y-107143486D01*
X133918636Y-106930000D01*
X133021012Y-106930000D01*
X133053925Y-106872993D01*
X133088000Y-106745826D01*
X133088000Y-106614174D01*
X133053925Y-106487007D01*
X133021012Y-106430000D01*
X133918636Y-106430000D01*
X133918635Y-106429999D01*
X133861432Y-106216513D01*
X133861429Y-106216507D01*
X133761600Y-106002422D01*
X133761599Y-106002420D01*
X133626113Y-105808926D01*
X133626108Y-105808920D01*
X133504053Y-105686865D01*
X133470568Y-105625542D01*
X133475552Y-105555850D01*
X133517424Y-105499917D01*
X133548400Y-105483002D01*
X133680331Y-105433796D01*
X133733842Y-105393738D01*
X158719499Y-105393738D01*
X158759743Y-105543927D01*
X158837480Y-105678571D01*
X158837482Y-105678573D01*
X158837483Y-105678575D01*
X158947425Y-105788517D01*
X158947426Y-105788518D01*
X158947428Y-105788519D01*
X159082072Y-105866256D01*
X159082073Y-105866256D01*
X159082076Y-105866258D01*
X159232259Y-105906500D01*
X159232262Y-105906500D01*
X159387738Y-105906500D01*
X159387741Y-105906500D01*
X159537924Y-105866258D01*
X159672575Y-105788517D01*
X159782517Y-105678575D01*
X159860258Y-105543924D01*
X159900500Y-105393741D01*
X159900500Y-105238259D01*
X159860258Y-105088076D01*
X159831273Y-105037873D01*
X159782519Y-104953428D01*
X159782514Y-104953422D01*
X159672577Y-104843485D01*
X159672571Y-104843480D01*
X159537927Y-104765743D01*
X159537928Y-104765743D01*
X159525611Y-104762442D01*
X159387741Y-104725500D01*
X159232259Y-104725500D01*
X159094388Y-104762442D01*
X159082072Y-104765743D01*
X158947428Y-104843480D01*
X158947422Y-104843485D01*
X158837485Y-104953422D01*
X158837480Y-104953428D01*
X158759743Y-105088072D01*
X158759742Y-105088076D01*
X158719500Y-105238259D01*
X158719500Y-105238261D01*
X158719500Y-105393738D01*
X158719499Y-105393738D01*
X133733842Y-105393738D01*
X133795546Y-105347546D01*
X133881796Y-105232331D01*
X133932091Y-105097483D01*
X133938500Y-105037873D01*
X133938499Y-103242128D01*
X133932091Y-103182517D01*
X133881796Y-103047669D01*
X133881795Y-103047668D01*
X133881793Y-103047664D01*
X133795547Y-102932455D01*
X133795544Y-102932452D01*
X133680335Y-102846206D01*
X133680328Y-102846202D01*
X133545482Y-102795908D01*
X133545483Y-102795908D01*
X133485883Y-102789501D01*
X133485881Y-102789500D01*
X133485873Y-102789500D01*
X133485864Y-102789500D01*
X131690129Y-102789500D01*
X131690123Y-102789501D01*
X131630516Y-102795908D01*
X131495671Y-102846202D01*
X131495664Y-102846206D01*
X131380455Y-102932452D01*
X131380452Y-102932455D01*
X131294206Y-103047664D01*
X131294202Y-103047671D01*
X131243908Y-103182517D01*
X131237501Y-103242116D01*
X131237501Y-103242123D01*
X131237500Y-103242135D01*
X131237500Y-105037870D01*
X127881500Y-105037870D01*
X127881500Y-97536003D01*
X138640435Y-97536003D01*
X138660630Y-97715249D01*
X138660631Y-97715254D01*
X138720211Y-97885523D01*
X138816184Y-98038262D01*
X138943738Y-98165816D01*
X139096478Y-98261789D01*
X139266745Y-98321368D01*
X139266750Y-98321369D01*
X139445996Y-98341565D01*
X139446000Y-98341565D01*
X139446004Y-98341565D01*
X139625249Y-98321369D01*
X139625252Y-98321368D01*
X139625255Y-98321368D01*
X139795522Y-98261789D01*
X139948262Y-98165816D01*
X140075816Y-98038262D01*
X140171789Y-97885522D01*
X140231368Y-97715255D01*
X140251565Y-97536003D01*
X146514435Y-97536003D01*
X146534630Y-97715249D01*
X146534631Y-97715254D01*
X146594211Y-97885523D01*
X146690184Y-98038262D01*
X146817738Y-98165816D01*
X146970478Y-98261789D01*
X147140745Y-98321368D01*
X147140750Y-98321369D01*
X147319996Y-98341565D01*
X147320000Y-98341565D01*
X147320004Y-98341565D01*
X147499249Y-98321369D01*
X147499252Y-98321368D01*
X147499255Y-98321368D01*
X147669522Y-98261789D01*
X147822262Y-98165816D01*
X147949816Y-98038262D01*
X148045789Y-97885522D01*
X148105368Y-97715255D01*
X148125565Y-97536000D01*
X148105368Y-97356745D01*
X148045789Y-97186478D01*
X147949816Y-97033738D01*
X147822262Y-96906184D01*
X147669523Y-96810211D01*
X147499254Y-96750631D01*
X147499249Y-96750630D01*
X147320004Y-96730435D01*
X147319996Y-96730435D01*
X147140750Y-96750630D01*
X147140745Y-96750631D01*
X146970476Y-96810211D01*
X146817737Y-96906184D01*
X146690184Y-97033737D01*
X146594211Y-97186476D01*
X146534631Y-97356745D01*
X146534630Y-97356750D01*
X146514435Y-97535996D01*
X146514435Y-97536003D01*
X140251565Y-97536003D01*
X140251565Y-97536000D01*
X140231368Y-97356745D01*
X140171789Y-97186478D01*
X140075816Y-97033738D01*
X139948262Y-96906184D01*
X139795523Y-96810211D01*
X139625254Y-96750631D01*
X139625249Y-96750630D01*
X139446004Y-96730435D01*
X139445996Y-96730435D01*
X139266750Y-96750630D01*
X139266745Y-96750631D01*
X139096476Y-96810211D01*
X138943737Y-96906184D01*
X138816184Y-97033737D01*
X138720211Y-97186476D01*
X138660631Y-97356745D01*
X138660630Y-97356750D01*
X138640435Y-97535996D01*
X138640435Y-97536003D01*
X127881500Y-97536003D01*
X127881500Y-93552914D01*
X127901185Y-93485875D01*
X127917819Y-93465233D01*
X128527105Y-92855946D01*
X128527960Y-92858011D01*
X128620982Y-92997229D01*
X128739376Y-93115623D01*
X128878594Y-93208645D01*
X128880657Y-93209499D01*
X128232050Y-93858105D01*
X128403766Y-93975178D01*
X128403770Y-93975180D01*
X128640074Y-94088979D01*
X128640078Y-94088980D01*
X128890714Y-94166292D01*
X128890720Y-94166294D01*
X129150068Y-94205384D01*
X129150077Y-94205385D01*
X129412363Y-94205385D01*
X129412371Y-94205384D01*
X129671719Y-94166294D01*
X129671725Y-94166292D01*
X129922363Y-94088980D01*
X130158665Y-93975183D01*
X130158667Y-93975182D01*
X130330388Y-93858105D01*
X129681782Y-93209499D01*
X129683846Y-93208645D01*
X129823064Y-93115623D01*
X129941458Y-92997229D01*
X130034480Y-92858011D01*
X130035334Y-92855946D01*
X130683345Y-93503957D01*
X130731191Y-93443958D01*
X130862336Y-93216811D01*
X130958161Y-92972655D01*
X131016526Y-92716935D01*
X131016527Y-92716930D01*
X131036127Y-92455389D01*
X132606313Y-92455389D01*
X132625912Y-92716930D01*
X132625913Y-92716935D01*
X132684278Y-92972655D01*
X132780103Y-93216811D01*
X132780102Y-93216811D01*
X132911247Y-93443958D01*
X132959094Y-93503956D01*
X133607104Y-92855946D01*
X133607960Y-92858011D01*
X133700982Y-92997229D01*
X133819376Y-93115623D01*
X133958594Y-93208645D01*
X133960657Y-93209499D01*
X133312050Y-93858105D01*
X133483766Y-93975178D01*
X133483770Y-93975180D01*
X133720074Y-94088979D01*
X133720078Y-94088980D01*
X133970714Y-94166292D01*
X133970720Y-94166294D01*
X134230068Y-94205384D01*
X134230077Y-94205385D01*
X134492363Y-94205385D01*
X134492371Y-94205384D01*
X134751719Y-94166294D01*
X134751725Y-94166292D01*
X135002363Y-94088980D01*
X135228656Y-93980003D01*
X140926435Y-93980003D01*
X140946630Y-94159249D01*
X140946631Y-94159254D01*
X141006211Y-94329523D01*
X141102184Y-94482262D01*
X141229738Y-94609816D01*
X141382478Y-94705789D01*
X141552745Y-94765368D01*
X141552750Y-94765369D01*
X141731996Y-94785565D01*
X141732000Y-94785565D01*
X141732004Y-94785565D01*
X141911249Y-94765369D01*
X141911252Y-94765368D01*
X141911255Y-94765368D01*
X142081522Y-94705789D01*
X142234262Y-94609816D01*
X142361816Y-94482262D01*
X142457789Y-94329522D01*
X142517368Y-94159255D01*
X142537565Y-93980003D01*
X142958435Y-93980003D01*
X142978630Y-94159249D01*
X142978631Y-94159254D01*
X143038211Y-94329523D01*
X143134184Y-94482262D01*
X143261738Y-94609816D01*
X143414478Y-94705789D01*
X143584745Y-94765368D01*
X143584750Y-94765369D01*
X143763996Y-94785565D01*
X143764000Y-94785565D01*
X143764004Y-94785565D01*
X143943249Y-94765369D01*
X143943252Y-94765368D01*
X143943255Y-94765368D01*
X144113522Y-94705789D01*
X144266262Y-94609816D01*
X144393816Y-94482262D01*
X144489789Y-94329522D01*
X144549368Y-94159255D01*
X144569565Y-93980003D01*
X148546435Y-93980003D01*
X148566630Y-94159249D01*
X148566631Y-94159254D01*
X148626211Y-94329523D01*
X148722184Y-94482262D01*
X148849738Y-94609816D01*
X149002478Y-94705789D01*
X149172745Y-94765368D01*
X149172750Y-94765369D01*
X149351996Y-94785565D01*
X149352000Y-94785565D01*
X149352004Y-94785565D01*
X149531249Y-94765369D01*
X149531252Y-94765368D01*
X149531255Y-94765368D01*
X149701522Y-94705789D01*
X149854262Y-94609816D01*
X149981816Y-94482262D01*
X150077789Y-94329522D01*
X150137368Y-94159255D01*
X150157565Y-93980003D01*
X150832435Y-93980003D01*
X150852630Y-94159249D01*
X150852631Y-94159254D01*
X150912211Y-94329523D01*
X151008184Y-94482262D01*
X151135738Y-94609816D01*
X151288478Y-94705789D01*
X151458745Y-94765368D01*
X151458750Y-94765369D01*
X151637996Y-94785565D01*
X151638000Y-94785565D01*
X151638004Y-94785565D01*
X151817249Y-94765369D01*
X151817252Y-94765368D01*
X151817255Y-94765368D01*
X151987522Y-94705789D01*
X152140262Y-94609816D01*
X152267816Y-94482262D01*
X152363789Y-94329522D01*
X152423368Y-94159255D01*
X152443565Y-93980000D01*
X152443022Y-93975183D01*
X152423369Y-93800750D01*
X152423368Y-93800745D01*
X152363789Y-93630478D01*
X152267816Y-93477738D01*
X152140262Y-93350184D01*
X151987523Y-93254211D01*
X151817254Y-93194631D01*
X151817249Y-93194630D01*
X151638004Y-93174435D01*
X151637996Y-93174435D01*
X151458750Y-93194630D01*
X151458745Y-93194631D01*
X151288476Y-93254211D01*
X151135737Y-93350184D01*
X151008184Y-93477737D01*
X150912211Y-93630476D01*
X150852631Y-93800745D01*
X150852630Y-93800750D01*
X150832435Y-93979996D01*
X150832435Y-93980003D01*
X150157565Y-93980003D01*
X150157565Y-93980000D01*
X150157022Y-93975183D01*
X150137369Y-93800750D01*
X150137368Y-93800745D01*
X150077789Y-93630478D01*
X149981816Y-93477738D01*
X149854262Y-93350184D01*
X149701523Y-93254211D01*
X149531254Y-93194631D01*
X149531249Y-93194630D01*
X149352004Y-93174435D01*
X149351996Y-93174435D01*
X149172750Y-93194630D01*
X149172745Y-93194631D01*
X149002476Y-93254211D01*
X148849737Y-93350184D01*
X148722184Y-93477737D01*
X148626211Y-93630476D01*
X148566631Y-93800745D01*
X148566630Y-93800750D01*
X148546435Y-93979996D01*
X148546435Y-93980003D01*
X144569565Y-93980003D01*
X144569565Y-93980000D01*
X144569022Y-93975183D01*
X144549369Y-93800750D01*
X144549368Y-93800745D01*
X144489789Y-93630478D01*
X144393816Y-93477738D01*
X144266262Y-93350184D01*
X144113523Y-93254211D01*
X143943254Y-93194631D01*
X143943249Y-93194630D01*
X143764004Y-93174435D01*
X143763996Y-93174435D01*
X143584750Y-93194630D01*
X143584745Y-93194631D01*
X143414476Y-93254211D01*
X143261737Y-93350184D01*
X143134184Y-93477737D01*
X143038211Y-93630476D01*
X142978631Y-93800745D01*
X142978630Y-93800750D01*
X142958435Y-93979996D01*
X142958435Y-93980003D01*
X142537565Y-93980003D01*
X142537565Y-93980000D01*
X142537022Y-93975183D01*
X142517369Y-93800750D01*
X142517368Y-93800745D01*
X142457789Y-93630478D01*
X142361816Y-93477738D01*
X142234262Y-93350184D01*
X142081523Y-93254211D01*
X141911254Y-93194631D01*
X141911249Y-93194630D01*
X141732004Y-93174435D01*
X141731996Y-93174435D01*
X141552750Y-93194630D01*
X141552745Y-93194631D01*
X141382476Y-93254211D01*
X141229737Y-93350184D01*
X141102184Y-93477737D01*
X141006211Y-93630476D01*
X140946631Y-93800745D01*
X140946630Y-93800750D01*
X140926435Y-93979996D01*
X140926435Y-93980003D01*
X135228656Y-93980003D01*
X135238665Y-93975183D01*
X135238667Y-93975182D01*
X135410388Y-93858105D01*
X134761782Y-93209499D01*
X134763846Y-93208645D01*
X134903064Y-93115623D01*
X135021458Y-92997229D01*
X135114480Y-92858011D01*
X135115334Y-92855946D01*
X135763345Y-93503957D01*
X135811191Y-93443958D01*
X135942336Y-93216811D01*
X136038161Y-92972655D01*
X136096526Y-92716935D01*
X136096527Y-92716930D01*
X136114517Y-92476878D01*
X156294215Y-92476878D01*
X156313814Y-92738419D01*
X156313815Y-92738424D01*
X156372180Y-92994144D01*
X156468005Y-93238300D01*
X156468004Y-93238300D01*
X156599149Y-93465447D01*
X156646996Y-93525445D01*
X157295006Y-92877435D01*
X157295862Y-92879500D01*
X157388884Y-93018718D01*
X157507278Y-93137112D01*
X157646496Y-93230134D01*
X157648559Y-93230988D01*
X156999952Y-93879594D01*
X157171668Y-93996667D01*
X157171672Y-93996669D01*
X157407976Y-94110468D01*
X157407980Y-94110469D01*
X157658616Y-94187781D01*
X157658622Y-94187783D01*
X157917970Y-94226873D01*
X157917979Y-94226874D01*
X158180265Y-94226874D01*
X158180273Y-94226873D01*
X158439621Y-94187783D01*
X158439627Y-94187781D01*
X158690265Y-94110469D01*
X158926567Y-93996672D01*
X158926569Y-93996671D01*
X159098290Y-93879594D01*
X158449684Y-93230988D01*
X158451748Y-93230134D01*
X158590966Y-93137112D01*
X158709360Y-93018718D01*
X158802382Y-92879500D01*
X158803236Y-92877435D01*
X159451247Y-93525446D01*
X159499093Y-93465447D01*
X159630238Y-93238300D01*
X159726063Y-92994144D01*
X159784428Y-92738424D01*
X159784429Y-92738419D01*
X159804029Y-92476878D01*
X159804029Y-92476869D01*
X159784429Y-92215328D01*
X159784428Y-92215323D01*
X159726063Y-91959603D01*
X159630238Y-91715447D01*
X159630239Y-91715447D01*
X159499094Y-91488300D01*
X159451246Y-91428301D01*
X158803236Y-92076311D01*
X158802382Y-92074248D01*
X158709360Y-91935030D01*
X158590966Y-91816636D01*
X158451748Y-91723614D01*
X158449684Y-91722759D01*
X159098290Y-91074152D01*
X158926576Y-90957080D01*
X158926567Y-90957075D01*
X158690264Y-90843278D01*
X158690266Y-90843278D01*
X158439627Y-90765966D01*
X158439621Y-90765964D01*
X158180273Y-90726874D01*
X157917970Y-90726874D01*
X157658622Y-90765964D01*
X157658616Y-90765966D01*
X157407980Y-90843278D01*
X157407976Y-90843279D01*
X157171669Y-90957079D01*
X157171661Y-90957084D01*
X156999952Y-91074151D01*
X157648560Y-91722759D01*
X157646496Y-91723614D01*
X157507278Y-91816636D01*
X157388884Y-91935030D01*
X157295862Y-92074248D01*
X157295007Y-92076311D01*
X156646996Y-91428301D01*
X156599150Y-91488299D01*
X156468005Y-91715447D01*
X156372180Y-91959603D01*
X156313815Y-92215323D01*
X156313814Y-92215328D01*
X156294215Y-92476869D01*
X156294215Y-92476878D01*
X136114517Y-92476878D01*
X136116127Y-92455389D01*
X136116127Y-92455380D01*
X136096527Y-92193839D01*
X136096526Y-92193834D01*
X136038161Y-91938114D01*
X135942336Y-91693958D01*
X135942337Y-91693958D01*
X135811192Y-91466811D01*
X135789813Y-91440003D01*
X143974435Y-91440003D01*
X143994630Y-91619249D01*
X143994631Y-91619254D01*
X144054211Y-91789523D01*
X144132137Y-91913541D01*
X144150184Y-91942262D01*
X144277738Y-92069816D01*
X144430478Y-92165789D01*
X144572038Y-92215323D01*
X144600745Y-92225368D01*
X144600750Y-92225369D01*
X144779996Y-92245565D01*
X144780000Y-92245565D01*
X144780004Y-92245565D01*
X144959249Y-92225369D01*
X144959252Y-92225368D01*
X144959255Y-92225368D01*
X145129522Y-92165789D01*
X145282262Y-92069816D01*
X145409816Y-91942262D01*
X145505789Y-91789522D01*
X145565368Y-91619255D01*
X145582544Y-91466811D01*
X145585565Y-91440003D01*
X145585565Y-91439996D01*
X145565369Y-91260750D01*
X145565368Y-91260745D01*
X145521401Y-91135094D01*
X145505789Y-91090478D01*
X145409816Y-90937738D01*
X145282262Y-90810184D01*
X145211890Y-90765966D01*
X145129523Y-90714211D01*
X144959254Y-90654631D01*
X144959249Y-90654630D01*
X144780004Y-90634435D01*
X144779996Y-90634435D01*
X144600750Y-90654630D01*
X144600745Y-90654631D01*
X144430476Y-90714211D01*
X144277737Y-90810184D01*
X144150184Y-90937737D01*
X144054211Y-91090476D01*
X143994631Y-91260745D01*
X143994630Y-91260750D01*
X143974435Y-91439996D01*
X143974435Y-91440003D01*
X135789813Y-91440003D01*
X135763344Y-91406812D01*
X135115334Y-92054822D01*
X135114480Y-92052759D01*
X135021458Y-91913541D01*
X134903064Y-91795147D01*
X134763846Y-91702125D01*
X134761782Y-91701270D01*
X135410388Y-91052663D01*
X135238674Y-90935591D01*
X135238665Y-90935586D01*
X135002362Y-90821789D01*
X135002364Y-90821789D01*
X134751725Y-90744477D01*
X134751719Y-90744475D01*
X134492371Y-90705385D01*
X134230068Y-90705385D01*
X133970720Y-90744475D01*
X133970714Y-90744477D01*
X133720078Y-90821789D01*
X133720074Y-90821790D01*
X133483767Y-90935590D01*
X133483759Y-90935595D01*
X133312050Y-91052662D01*
X133960658Y-91701270D01*
X133958594Y-91702125D01*
X133819376Y-91795147D01*
X133700982Y-91913541D01*
X133607960Y-92052759D01*
X133607105Y-92054822D01*
X132959095Y-91406812D01*
X132959094Y-91406812D01*
X132911248Y-91466810D01*
X132780103Y-91693958D01*
X132684278Y-91938114D01*
X132625913Y-92193834D01*
X132625912Y-92193839D01*
X132606313Y-92455380D01*
X132606313Y-92455389D01*
X131036127Y-92455389D01*
X131036127Y-92455380D01*
X131016527Y-92193839D01*
X131016526Y-92193834D01*
X130958161Y-91938114D01*
X130862336Y-91693958D01*
X130862337Y-91693958D01*
X130731192Y-91466811D01*
X130683344Y-91406812D01*
X130035334Y-92054822D01*
X130034480Y-92052759D01*
X129941458Y-91913541D01*
X129823064Y-91795147D01*
X129683846Y-91702125D01*
X129681782Y-91701270D01*
X130330388Y-91052663D01*
X130158674Y-90935591D01*
X130158665Y-90935586D01*
X129922362Y-90821789D01*
X129922364Y-90821789D01*
X129671725Y-90744477D01*
X129671719Y-90744475D01*
X129412371Y-90705385D01*
X129150068Y-90705385D01*
X128890720Y-90744475D01*
X128890714Y-90744477D01*
X128640078Y-90821789D01*
X128640074Y-90821790D01*
X128403767Y-90935590D01*
X128403759Y-90935595D01*
X128232050Y-91052662D01*
X128880658Y-91701270D01*
X128878594Y-91702125D01*
X128739376Y-91795147D01*
X128620982Y-91913541D01*
X128527960Y-92052759D01*
X128527105Y-92054823D01*
X127917819Y-91445537D01*
X127884334Y-91384214D01*
X127881500Y-91357856D01*
X127881500Y-90013807D01*
X130570720Y-90013807D01*
X130601510Y-90208211D01*
X130662337Y-90395414D01*
X130751696Y-90570790D01*
X130867392Y-90730031D01*
X131006574Y-90869213D01*
X131165815Y-90984909D01*
X131207988Y-91006397D01*
X131341190Y-91074267D01*
X131341192Y-91074267D01*
X131341195Y-91074269D01*
X131391075Y-91090476D01*
X131528393Y-91135094D01*
X131722798Y-91165885D01*
X131722803Y-91165885D01*
X131919642Y-91165885D01*
X132114046Y-91135094D01*
X132301245Y-91074269D01*
X132476625Y-90984909D01*
X132635866Y-90869213D01*
X132775048Y-90730031D01*
X132890744Y-90570790D01*
X132980104Y-90395410D01*
X133040929Y-90208211D01*
X133068316Y-90035296D01*
X159338622Y-90035296D01*
X159369412Y-90229700D01*
X159430239Y-90416903D01*
X159508649Y-90570790D01*
X159519598Y-90592279D01*
X159635294Y-90751520D01*
X159774476Y-90890702D01*
X159933717Y-91006398D01*
X160016577Y-91048617D01*
X160109092Y-91095756D01*
X160109094Y-91095756D01*
X160109097Y-91095758D01*
X160209439Y-91128361D01*
X160296295Y-91156583D01*
X160490700Y-91187374D01*
X160490705Y-91187374D01*
X160687544Y-91187374D01*
X160881948Y-91156583D01*
X161069147Y-91095758D01*
X161244527Y-91006398D01*
X161403768Y-90890702D01*
X161542950Y-90751520D01*
X161658646Y-90592279D01*
X161748006Y-90416899D01*
X161808831Y-90229700D01*
X161839622Y-90035296D01*
X161839622Y-89838451D01*
X161808831Y-89644047D01*
X161780609Y-89557191D01*
X161748006Y-89456849D01*
X161748004Y-89456846D01*
X161748004Y-89456844D01*
X161658645Y-89281468D01*
X161643033Y-89259980D01*
X161542950Y-89122228D01*
X161403768Y-88983046D01*
X161244527Y-88867350D01*
X161237536Y-88863788D01*
X161069151Y-88777991D01*
X160881948Y-88717164D01*
X160687544Y-88686374D01*
X160687539Y-88686374D01*
X160490705Y-88686374D01*
X160490700Y-88686374D01*
X160296295Y-88717164D01*
X160109092Y-88777991D01*
X159933716Y-88867350D01*
X159865833Y-88916671D01*
X159774476Y-88983046D01*
X159774474Y-88983048D01*
X159774473Y-88983048D01*
X159635296Y-89122225D01*
X159635296Y-89122226D01*
X159635294Y-89122228D01*
X159617388Y-89146874D01*
X159519598Y-89281468D01*
X159430239Y-89456844D01*
X159369412Y-89644047D01*
X159338622Y-89838451D01*
X159338622Y-90035296D01*
X133068316Y-90035296D01*
X133068317Y-90035291D01*
X133071720Y-90013807D01*
X133071720Y-89816962D01*
X133040929Y-89622558D01*
X132987086Y-89456849D01*
X132980104Y-89435360D01*
X132980102Y-89435357D01*
X132980102Y-89435355D01*
X132901693Y-89281469D01*
X132890744Y-89259980D01*
X132775048Y-89100739D01*
X132635866Y-88961557D01*
X132476625Y-88845861D01*
X132301249Y-88756502D01*
X132114046Y-88695675D01*
X131919642Y-88664885D01*
X131919637Y-88664885D01*
X131722803Y-88664885D01*
X131722798Y-88664885D01*
X131528393Y-88695675D01*
X131341190Y-88756502D01*
X131165814Y-88845861D01*
X131097931Y-88895182D01*
X131006574Y-88961557D01*
X131006572Y-88961559D01*
X131006571Y-88961559D01*
X130867394Y-89100736D01*
X130867394Y-89100737D01*
X130867392Y-89100739D01*
X130849486Y-89125385D01*
X130751696Y-89259979D01*
X130662337Y-89435355D01*
X130601510Y-89622558D01*
X130570720Y-89816962D01*
X130570720Y-90013807D01*
X127881500Y-90013807D01*
X127881500Y-88472914D01*
X127901185Y-88405875D01*
X127917819Y-88385233D01*
X128527105Y-87775946D01*
X128527960Y-87778011D01*
X128620982Y-87917229D01*
X128739376Y-88035623D01*
X128878594Y-88128645D01*
X128880657Y-88129499D01*
X128232050Y-88778105D01*
X128403766Y-88895178D01*
X128403770Y-88895180D01*
X128640074Y-89008979D01*
X128640078Y-89008980D01*
X128890714Y-89086292D01*
X128890720Y-89086294D01*
X129150068Y-89125384D01*
X129150077Y-89125385D01*
X129412363Y-89125385D01*
X129412371Y-89125384D01*
X129671719Y-89086294D01*
X129671725Y-89086292D01*
X129922363Y-89008980D01*
X130158665Y-88895183D01*
X130158667Y-88895182D01*
X130330388Y-88778105D01*
X129681782Y-88129499D01*
X129683846Y-88128645D01*
X129823064Y-88035623D01*
X129941458Y-87917229D01*
X130034480Y-87778011D01*
X130035334Y-87775946D01*
X130683345Y-88423957D01*
X130731191Y-88363958D01*
X130862336Y-88136811D01*
X130958161Y-87892655D01*
X131016526Y-87636935D01*
X131016527Y-87636930D01*
X131036127Y-87375389D01*
X132606313Y-87375389D01*
X132625912Y-87636930D01*
X132625913Y-87636935D01*
X132684278Y-87892655D01*
X132780103Y-88136811D01*
X132780102Y-88136811D01*
X132911247Y-88363958D01*
X132959094Y-88423956D01*
X133607104Y-87775946D01*
X133607960Y-87778011D01*
X133700982Y-87917229D01*
X133819376Y-88035623D01*
X133958594Y-88128645D01*
X133960657Y-88129499D01*
X133312050Y-88778105D01*
X133483766Y-88895178D01*
X133483770Y-88895180D01*
X133720074Y-89008979D01*
X133720078Y-89008980D01*
X133970714Y-89086292D01*
X133970720Y-89086294D01*
X134230068Y-89125384D01*
X134230077Y-89125385D01*
X134492363Y-89125385D01*
X134492371Y-89125384D01*
X134751719Y-89086294D01*
X134751725Y-89086292D01*
X135002363Y-89008980D01*
X135238665Y-88895183D01*
X135238667Y-88895182D01*
X135410388Y-88778105D01*
X134761782Y-88129499D01*
X134763846Y-88128645D01*
X134903064Y-88035623D01*
X135021458Y-87917229D01*
X135114480Y-87778011D01*
X135115334Y-87775946D01*
X135763345Y-88423957D01*
X135811191Y-88363958D01*
X135942336Y-88136811D01*
X136038161Y-87892655D01*
X136096526Y-87636935D01*
X136096527Y-87636930D01*
X136116127Y-87375389D01*
X136116127Y-87375380D01*
X136097139Y-87122003D01*
X140672435Y-87122003D01*
X140692630Y-87301249D01*
X140692631Y-87301254D01*
X140752211Y-87471523D01*
X140847593Y-87623321D01*
X140848184Y-87624262D01*
X140975738Y-87751816D01*
X141128478Y-87847789D01*
X141246032Y-87888923D01*
X141298745Y-87907368D01*
X141298750Y-87907369D01*
X141375841Y-87916054D01*
X141399064Y-87918671D01*
X141463479Y-87945737D01*
X141503034Y-88003331D01*
X141505173Y-88073168D01*
X141469215Y-88133075D01*
X141426139Y-88158932D01*
X141382478Y-88174210D01*
X141229737Y-88270184D01*
X141102184Y-88397737D01*
X141006211Y-88550476D01*
X140946631Y-88720745D01*
X140946630Y-88720750D01*
X140926435Y-88899996D01*
X140926435Y-88900003D01*
X140946630Y-89079249D01*
X140946631Y-89079254D01*
X141006211Y-89249523D01*
X141102184Y-89402262D01*
X141229738Y-89529816D01*
X141382478Y-89625789D01*
X141552745Y-89685368D01*
X141552750Y-89685369D01*
X141731996Y-89705565D01*
X141732000Y-89705565D01*
X141732004Y-89705565D01*
X141911249Y-89685369D01*
X141911252Y-89685368D01*
X141911255Y-89685368D01*
X142081522Y-89625789D01*
X142234262Y-89529816D01*
X142361816Y-89402262D01*
X142457789Y-89249522D01*
X142517368Y-89079255D01*
X142517369Y-89079249D01*
X142537565Y-88900003D01*
X142537565Y-88899996D01*
X142517369Y-88720750D01*
X142517368Y-88720745D01*
X142489206Y-88640262D01*
X142457789Y-88550478D01*
X142361816Y-88397738D01*
X142234262Y-88270184D01*
X142081523Y-88174211D01*
X141911254Y-88114631D01*
X141911249Y-88114630D01*
X141810934Y-88103328D01*
X141746520Y-88076262D01*
X141706964Y-88018667D01*
X141704827Y-87948830D01*
X141740785Y-87888923D01*
X141783863Y-87863066D01*
X141789811Y-87860984D01*
X141827522Y-87847789D01*
X141980262Y-87751816D01*
X142107816Y-87624262D01*
X142137847Y-87576466D01*
X142190178Y-87530179D01*
X142259232Y-87519529D01*
X142308812Y-87537448D01*
X142398475Y-87593788D01*
X142568745Y-87653368D01*
X142568750Y-87653369D01*
X142747996Y-87673565D01*
X142748000Y-87673565D01*
X142748004Y-87673565D01*
X142927249Y-87653369D01*
X142927252Y-87653368D01*
X142927255Y-87653368D01*
X143097522Y-87593789D01*
X143250262Y-87497816D01*
X143377816Y-87370262D01*
X143473789Y-87217522D01*
X143473793Y-87217509D01*
X143474275Y-87216510D01*
X143474769Y-87215962D01*
X143477494Y-87211626D01*
X143478252Y-87212102D01*
X143521090Y-87164643D01*
X143588514Y-87146319D01*
X143599883Y-87147073D01*
X143659032Y-87153738D01*
X143763997Y-87165565D01*
X143764000Y-87165565D01*
X143764004Y-87165565D01*
X143943249Y-87145369D01*
X143943252Y-87145368D01*
X143943255Y-87145368D01*
X144113522Y-87085789D01*
X144266262Y-86989816D01*
X144388075Y-86868003D01*
X149816435Y-86868003D01*
X149836630Y-87047249D01*
X149836631Y-87047254D01*
X149896211Y-87217523D01*
X149942799Y-87291667D01*
X149992184Y-87370262D01*
X150119738Y-87497816D01*
X150272478Y-87593789D01*
X150395768Y-87636930D01*
X150442745Y-87653368D01*
X150442750Y-87653369D01*
X150621996Y-87673565D01*
X150622000Y-87673565D01*
X150622004Y-87673565D01*
X150801249Y-87653369D01*
X150801252Y-87653368D01*
X150801255Y-87653368D01*
X150971522Y-87593789D01*
X151124262Y-87497816D01*
X151210771Y-87411306D01*
X151272090Y-87377824D01*
X151341782Y-87382808D01*
X151397716Y-87424679D01*
X151415489Y-87458032D01*
X151420208Y-87471518D01*
X151478336Y-87564028D01*
X151497336Y-87631265D01*
X151478336Y-87695972D01*
X151420210Y-87788478D01*
X151360630Y-87958750D01*
X151356526Y-87995175D01*
X151329458Y-88059588D01*
X151271862Y-88099142D01*
X151219424Y-88104509D01*
X151130005Y-88094435D01*
X151129996Y-88094435D01*
X150950750Y-88114630D01*
X150950745Y-88114631D01*
X150780476Y-88174211D01*
X150627737Y-88270184D01*
X150500184Y-88397737D01*
X150404211Y-88550476D01*
X150344631Y-88720745D01*
X150344630Y-88720750D01*
X150324435Y-88899996D01*
X150324435Y-88900003D01*
X150344630Y-89079249D01*
X150344631Y-89079254D01*
X150404211Y-89249523D01*
X150500184Y-89402262D01*
X150627738Y-89529816D01*
X150780478Y-89625789D01*
X150950745Y-89685368D01*
X150950750Y-89685369D01*
X151129996Y-89705565D01*
X151130000Y-89705565D01*
X151130004Y-89705565D01*
X151309249Y-89685369D01*
X151309252Y-89685368D01*
X151309255Y-89685368D01*
X151479522Y-89625789D01*
X151632262Y-89529816D01*
X151759816Y-89402262D01*
X151855789Y-89249522D01*
X151915368Y-89079255D01*
X151919472Y-89042825D01*
X151946536Y-88978414D01*
X152004130Y-88938858D01*
X152056574Y-88933489D01*
X152115190Y-88940093D01*
X152145998Y-88943565D01*
X152146000Y-88943565D01*
X152146004Y-88943565D01*
X152325249Y-88923369D01*
X152325252Y-88923368D01*
X152325255Y-88923368D01*
X152495522Y-88863789D01*
X152648262Y-88767816D01*
X152775816Y-88640262D01*
X152871789Y-88487522D01*
X152931368Y-88317255D01*
X152941719Y-88225385D01*
X152951565Y-88138003D01*
X152951565Y-88137996D01*
X152931369Y-87958750D01*
X152931368Y-87958745D01*
X152871788Y-87788475D01*
X152813664Y-87695973D01*
X152794663Y-87628736D01*
X152813664Y-87564027D01*
X152871788Y-87471524D01*
X152875847Y-87459924D01*
X152897908Y-87396878D01*
X156294215Y-87396878D01*
X156313814Y-87658419D01*
X156313815Y-87658424D01*
X156372180Y-87914144D01*
X156468005Y-88158300D01*
X156468004Y-88158300D01*
X156599149Y-88385447D01*
X156646996Y-88445445D01*
X157295006Y-87797435D01*
X157295862Y-87799500D01*
X157388884Y-87938718D01*
X157507278Y-88057112D01*
X157646496Y-88150134D01*
X157648559Y-88150988D01*
X156999952Y-88799594D01*
X157171668Y-88916667D01*
X157171672Y-88916669D01*
X157407976Y-89030468D01*
X157407980Y-89030469D01*
X157658616Y-89107781D01*
X157658622Y-89107783D01*
X157917970Y-89146873D01*
X157917979Y-89146874D01*
X158180265Y-89146874D01*
X158180273Y-89146873D01*
X158439621Y-89107783D01*
X158439627Y-89107781D01*
X158690265Y-89030469D01*
X158926567Y-88916672D01*
X158926569Y-88916671D01*
X159098290Y-88799594D01*
X158449684Y-88150988D01*
X158451748Y-88150134D01*
X158590966Y-88057112D01*
X158709360Y-87938718D01*
X158802382Y-87799500D01*
X158803236Y-87797435D01*
X159451247Y-88445446D01*
X159499093Y-88385447D01*
X159630238Y-88158300D01*
X159726063Y-87914144D01*
X159784428Y-87658424D01*
X159784429Y-87658419D01*
X159804029Y-87396878D01*
X159804029Y-87396869D01*
X159784429Y-87135328D01*
X159784428Y-87135323D01*
X159726063Y-86879603D01*
X159630238Y-86635447D01*
X159630239Y-86635447D01*
X159499094Y-86408300D01*
X159451246Y-86348301D01*
X158803236Y-86996311D01*
X158802382Y-86994248D01*
X158709360Y-86855030D01*
X158590966Y-86736636D01*
X158451748Y-86643614D01*
X158449684Y-86642759D01*
X159098290Y-85994152D01*
X158926576Y-85877080D01*
X158926567Y-85877075D01*
X158690264Y-85763278D01*
X158690266Y-85763278D01*
X158439627Y-85685966D01*
X158439621Y-85685964D01*
X158180273Y-85646874D01*
X157917970Y-85646874D01*
X157658622Y-85685964D01*
X157658616Y-85685966D01*
X157407980Y-85763278D01*
X157407976Y-85763279D01*
X157171669Y-85877079D01*
X157171661Y-85877084D01*
X156999952Y-85994151D01*
X157648560Y-86642759D01*
X157646496Y-86643614D01*
X157507278Y-86736636D01*
X157388884Y-86855030D01*
X157295862Y-86994248D01*
X157295007Y-86996311D01*
X156646996Y-86348301D01*
X156599150Y-86408299D01*
X156468005Y-86635447D01*
X156372180Y-86879603D01*
X156313815Y-87135323D01*
X156313814Y-87135328D01*
X156294215Y-87396869D01*
X156294215Y-87396878D01*
X152897908Y-87396878D01*
X152931368Y-87301255D01*
X152931369Y-87301249D01*
X152951565Y-87122003D01*
X152951565Y-87121996D01*
X152931369Y-86942750D01*
X152931368Y-86942745D01*
X152905215Y-86868003D01*
X152871789Y-86772478D01*
X152775816Y-86619738D01*
X152648262Y-86492184D01*
X152613703Y-86470469D01*
X152495523Y-86396211D01*
X152325254Y-86336631D01*
X152325249Y-86336630D01*
X152146004Y-86316435D01*
X152145996Y-86316435D01*
X151966750Y-86336630D01*
X151966745Y-86336631D01*
X151796476Y-86396211D01*
X151643739Y-86492183D01*
X151557231Y-86578691D01*
X151495907Y-86612175D01*
X151426216Y-86607191D01*
X151370282Y-86565319D01*
X151352509Y-86531964D01*
X151347790Y-86518480D01*
X151347789Y-86518478D01*
X151251816Y-86365738D01*
X151124262Y-86238184D01*
X150971523Y-86142211D01*
X150801254Y-86082631D01*
X150801249Y-86082630D01*
X150622004Y-86062435D01*
X150621996Y-86062435D01*
X150442750Y-86082630D01*
X150442745Y-86082631D01*
X150272476Y-86142211D01*
X150119737Y-86238184D01*
X149992184Y-86365737D01*
X149896211Y-86518476D01*
X149836631Y-86688745D01*
X149836630Y-86688750D01*
X149816435Y-86867996D01*
X149816435Y-86868003D01*
X144388075Y-86868003D01*
X144393816Y-86862262D01*
X144489789Y-86709522D01*
X144549368Y-86539255D01*
X144549369Y-86539249D01*
X144569565Y-86360003D01*
X144569565Y-86359996D01*
X144549369Y-86180750D01*
X144549368Y-86180745D01*
X144514439Y-86080925D01*
X144489789Y-86010478D01*
X144393816Y-85857738D01*
X144266262Y-85730184D01*
X144195890Y-85685966D01*
X144113523Y-85634211D01*
X143943254Y-85574631D01*
X143943249Y-85574630D01*
X143764004Y-85554435D01*
X143763996Y-85554435D01*
X143584750Y-85574630D01*
X143584745Y-85574631D01*
X143414476Y-85634211D01*
X143261737Y-85730184D01*
X143134184Y-85857737D01*
X143038209Y-86010479D01*
X143037715Y-86011507D01*
X143037218Y-86012056D01*
X143034506Y-86016374D01*
X143033749Y-86015898D01*
X142990892Y-86063367D01*
X142923465Y-86081679D01*
X142912112Y-86080925D01*
X142748004Y-86062435D01*
X142747996Y-86062435D01*
X142568750Y-86082630D01*
X142568745Y-86082631D01*
X142398476Y-86142211D01*
X142245737Y-86238184D01*
X142118182Y-86365739D01*
X142088153Y-86413531D01*
X142035818Y-86459822D01*
X141966765Y-86470469D01*
X141917188Y-86452552D01*
X141827523Y-86396211D01*
X141657254Y-86336631D01*
X141657249Y-86336630D01*
X141478004Y-86316435D01*
X141477996Y-86316435D01*
X141298750Y-86336630D01*
X141298745Y-86336631D01*
X141128476Y-86396211D01*
X140975737Y-86492184D01*
X140848184Y-86619737D01*
X140752211Y-86772476D01*
X140692631Y-86942745D01*
X140692630Y-86942750D01*
X140672435Y-87121996D01*
X140672435Y-87122003D01*
X136097139Y-87122003D01*
X136096527Y-87113839D01*
X136096526Y-87113834D01*
X136038161Y-86858114D01*
X135942336Y-86613958D01*
X135942337Y-86613958D01*
X135811192Y-86386811D01*
X135763344Y-86326812D01*
X135115334Y-86974822D01*
X135114480Y-86972759D01*
X135021458Y-86833541D01*
X134903064Y-86715147D01*
X134763846Y-86622125D01*
X134761782Y-86621270D01*
X135410388Y-85972663D01*
X135238674Y-85855591D01*
X135238665Y-85855586D01*
X135002362Y-85741789D01*
X135002364Y-85741789D01*
X134751725Y-85664477D01*
X134751719Y-85664475D01*
X134492371Y-85625385D01*
X134230068Y-85625385D01*
X133970720Y-85664475D01*
X133970714Y-85664477D01*
X133720078Y-85741789D01*
X133720074Y-85741790D01*
X133483767Y-85855590D01*
X133483759Y-85855595D01*
X133312050Y-85972662D01*
X133960658Y-86621270D01*
X133958594Y-86622125D01*
X133819376Y-86715147D01*
X133700982Y-86833541D01*
X133607960Y-86972759D01*
X133607105Y-86974822D01*
X132959095Y-86326812D01*
X132959094Y-86326812D01*
X132911248Y-86386810D01*
X132780103Y-86613958D01*
X132684278Y-86858114D01*
X132625913Y-87113834D01*
X132625912Y-87113839D01*
X132606313Y-87375380D01*
X132606313Y-87375389D01*
X131036127Y-87375389D01*
X131036127Y-87375380D01*
X131016527Y-87113839D01*
X131016526Y-87113834D01*
X130958161Y-86858114D01*
X130862336Y-86613958D01*
X130862337Y-86613958D01*
X130731192Y-86386811D01*
X130683344Y-86326812D01*
X130035334Y-86974822D01*
X130034480Y-86972759D01*
X129941458Y-86833541D01*
X129823064Y-86715147D01*
X129683846Y-86622125D01*
X129681782Y-86621270D01*
X130330388Y-85972663D01*
X130158674Y-85855591D01*
X130158665Y-85855586D01*
X129922362Y-85741789D01*
X129922364Y-85741789D01*
X129671725Y-85664477D01*
X129671719Y-85664475D01*
X129412371Y-85625385D01*
X129150068Y-85625385D01*
X128890720Y-85664475D01*
X128890714Y-85664477D01*
X128640078Y-85741789D01*
X128640074Y-85741790D01*
X128403767Y-85855590D01*
X128403759Y-85855595D01*
X128232050Y-85972662D01*
X128880658Y-86621270D01*
X128878594Y-86622125D01*
X128739376Y-86715147D01*
X128620982Y-86833541D01*
X128527960Y-86972759D01*
X128527105Y-86974823D01*
X127917819Y-86365537D01*
X127884334Y-86304214D01*
X127881500Y-86277856D01*
X127881500Y-80695636D01*
X142206246Y-80695636D01*
X142225845Y-80957177D01*
X142225846Y-80957182D01*
X142284211Y-81212902D01*
X142380036Y-81457058D01*
X142380035Y-81457058D01*
X142511180Y-81684205D01*
X142559027Y-81744203D01*
X143207037Y-81096193D01*
X143207893Y-81098258D01*
X143300915Y-81237476D01*
X143419309Y-81355870D01*
X143558527Y-81448892D01*
X143560590Y-81449746D01*
X142911983Y-82098352D01*
X143083699Y-82215425D01*
X143083703Y-82215427D01*
X143320007Y-82329226D01*
X143320011Y-82329227D01*
X143570647Y-82406539D01*
X143570653Y-82406541D01*
X143830001Y-82445631D01*
X143830010Y-82445632D01*
X144092296Y-82445632D01*
X144092304Y-82445631D01*
X144351652Y-82406541D01*
X144351658Y-82406539D01*
X144602296Y-82329227D01*
X144838598Y-82215430D01*
X144838600Y-82215429D01*
X145010321Y-82098352D01*
X144361715Y-81449746D01*
X144363779Y-81448892D01*
X144502997Y-81355870D01*
X144621391Y-81237476D01*
X144714413Y-81098258D01*
X144715267Y-81096193D01*
X145363278Y-81744204D01*
X145411124Y-81684205D01*
X145542269Y-81457058D01*
X145638094Y-81212902D01*
X145696459Y-80957182D01*
X145696460Y-80957177D01*
X145716060Y-80695636D01*
X147286246Y-80695636D01*
X147305845Y-80957177D01*
X147305846Y-80957182D01*
X147364211Y-81212902D01*
X147460036Y-81457058D01*
X147460035Y-81457058D01*
X147591180Y-81684205D01*
X147639027Y-81744203D01*
X148287037Y-81096193D01*
X148287893Y-81098258D01*
X148380915Y-81237476D01*
X148499309Y-81355870D01*
X148638527Y-81448892D01*
X148640590Y-81449746D01*
X147991983Y-82098352D01*
X148163699Y-82215425D01*
X148163703Y-82215427D01*
X148400007Y-82329226D01*
X148400011Y-82329227D01*
X148650647Y-82406539D01*
X148650653Y-82406541D01*
X148910001Y-82445631D01*
X148910010Y-82445632D01*
X149172296Y-82445632D01*
X149172304Y-82445631D01*
X149431652Y-82406541D01*
X149431658Y-82406539D01*
X149682296Y-82329227D01*
X149918598Y-82215430D01*
X149918600Y-82215429D01*
X150090321Y-82098352D01*
X149441715Y-81449746D01*
X149443779Y-81448892D01*
X149582997Y-81355870D01*
X149701391Y-81237476D01*
X149794413Y-81098258D01*
X149795267Y-81096193D01*
X150443278Y-81744204D01*
X150491124Y-81684205D01*
X150622269Y-81457058D01*
X150718094Y-81212902D01*
X150776459Y-80957182D01*
X150776460Y-80957177D01*
X150796060Y-80695636D01*
X150796060Y-80695627D01*
X150776460Y-80434086D01*
X150776459Y-80434081D01*
X150718094Y-80178361D01*
X150622269Y-79934205D01*
X150622270Y-79934205D01*
X150491125Y-79707058D01*
X150443277Y-79647059D01*
X149795267Y-80295069D01*
X149794413Y-80293006D01*
X149701391Y-80153788D01*
X149582997Y-80035394D01*
X149443779Y-79942372D01*
X149441715Y-79941517D01*
X150090321Y-79292910D01*
X149918607Y-79175838D01*
X149918598Y-79175833D01*
X149682295Y-79062036D01*
X149682297Y-79062036D01*
X149431658Y-78984724D01*
X149431652Y-78984722D01*
X149172304Y-78945632D01*
X148910001Y-78945632D01*
X148650653Y-78984722D01*
X148650647Y-78984724D01*
X148400011Y-79062036D01*
X148400007Y-79062037D01*
X148163700Y-79175837D01*
X148163692Y-79175842D01*
X147991983Y-79292909D01*
X148640591Y-79941517D01*
X148638527Y-79942372D01*
X148499309Y-80035394D01*
X148380915Y-80153788D01*
X148287893Y-80293006D01*
X148287038Y-80295069D01*
X147639028Y-79647059D01*
X147639027Y-79647059D01*
X147591181Y-79707057D01*
X147460036Y-79934205D01*
X147364211Y-80178361D01*
X147305846Y-80434081D01*
X147305845Y-80434086D01*
X147286246Y-80695627D01*
X147286246Y-80695636D01*
X145716060Y-80695636D01*
X145716060Y-80695627D01*
X145696460Y-80434086D01*
X145696459Y-80434081D01*
X145638094Y-80178361D01*
X145542269Y-79934205D01*
X145542270Y-79934205D01*
X145411125Y-79707058D01*
X145363277Y-79647059D01*
X144715267Y-80295069D01*
X144714413Y-80293006D01*
X144621391Y-80153788D01*
X144502997Y-80035394D01*
X144363779Y-79942372D01*
X144361715Y-79941517D01*
X145010321Y-79292910D01*
X144838607Y-79175838D01*
X144838598Y-79175833D01*
X144602295Y-79062036D01*
X144602297Y-79062036D01*
X144351658Y-78984724D01*
X144351652Y-78984722D01*
X144092304Y-78945632D01*
X143830001Y-78945632D01*
X143570653Y-78984722D01*
X143570647Y-78984724D01*
X143320011Y-79062036D01*
X143320007Y-79062037D01*
X143083700Y-79175837D01*
X143083692Y-79175842D01*
X142911983Y-79292909D01*
X143560591Y-79941517D01*
X143558527Y-79942372D01*
X143419309Y-80035394D01*
X143300915Y-80153788D01*
X143207893Y-80293006D01*
X143207038Y-80295069D01*
X142559028Y-79647059D01*
X142559027Y-79647059D01*
X142511181Y-79707057D01*
X142380036Y-79934205D01*
X142284211Y-80178361D01*
X142225846Y-80434081D01*
X142225845Y-80434086D01*
X142206246Y-80695627D01*
X142206246Y-80695636D01*
X127881500Y-80695636D01*
X127881500Y-78254054D01*
X145250653Y-78254054D01*
X145281443Y-78448458D01*
X145342270Y-78635661D01*
X145431629Y-78811037D01*
X145547325Y-78970278D01*
X145686507Y-79109460D01*
X145845748Y-79225156D01*
X145928608Y-79267375D01*
X146021123Y-79314514D01*
X146021125Y-79314514D01*
X146021128Y-79314516D01*
X146121470Y-79347119D01*
X146208326Y-79375341D01*
X146402731Y-79406132D01*
X146402736Y-79406132D01*
X146599575Y-79406132D01*
X146793979Y-79375341D01*
X146981178Y-79314516D01*
X147156558Y-79225156D01*
X147315799Y-79109460D01*
X147454981Y-78970278D01*
X147570677Y-78811037D01*
X147660037Y-78635657D01*
X147720862Y-78448458D01*
X147751653Y-78254054D01*
X147751653Y-78057209D01*
X147720862Y-77862805D01*
X147660035Y-77675602D01*
X147570676Y-77500226D01*
X147454981Y-77340986D01*
X147315799Y-77201804D01*
X147156558Y-77086108D01*
X146981182Y-76996749D01*
X146793979Y-76935922D01*
X146599575Y-76905132D01*
X146599570Y-76905132D01*
X146402736Y-76905132D01*
X146402731Y-76905132D01*
X146208326Y-76935922D01*
X146021123Y-76996749D01*
X145845747Y-77086108D01*
X145777864Y-77135429D01*
X145686507Y-77201804D01*
X145686505Y-77201806D01*
X145686504Y-77201806D01*
X145547327Y-77340983D01*
X145547327Y-77340984D01*
X145547325Y-77340986D01*
X145529419Y-77365632D01*
X145431629Y-77500226D01*
X145342270Y-77675602D01*
X145281443Y-77862805D01*
X145250653Y-78057209D01*
X145250653Y-78254054D01*
X127881500Y-78254054D01*
X127881500Y-74284500D01*
X127901185Y-74217461D01*
X127953989Y-74171706D01*
X128005500Y-74160500D01*
X142808212Y-74160500D01*
X142875251Y-74180185D01*
G37*
%TD.AperFunction*%
%TD*%
M02*
