%TF.GenerationSoftware,KiCad,Pcbnew,8.0.1*%
%TF.CreationDate,2024-03-25T18:19:42-05:00*%
%TF.ProjectId,TS3A5017-Mixer,54533341-3530-4313-972d-4d697865722e,rev?*%
%TF.SameCoordinates,Original*%
%TF.FileFunction,Legend,Top*%
%TF.FilePolarity,Positive*%
%FSLAX46Y46*%
G04 Gerber Fmt 4.6, Leading zero omitted, Abs format (unit mm)*
G04 Created by KiCad (PCBNEW 8.0.1) date 2024-03-25 18:19:42*
%MOMM*%
%LPD*%
G01*
G04 APERTURE LIST*
%ADD10C,0.300000*%
%ADD11C,0.150000*%
%ADD12C,0.127000*%
%ADD13C,0.120000*%
G04 APERTURE END LIST*
D10*
G36*
X153305906Y-109771060D02*
G01*
X153417910Y-109824943D01*
X153521419Y-109925903D01*
X153574960Y-110080680D01*
X153576375Y-110270339D01*
X152373728Y-110272606D01*
X152372395Y-110093938D01*
X152424296Y-109932169D01*
X152522529Y-109831457D01*
X152625434Y-109778027D01*
X152876782Y-109712809D01*
X153054995Y-109710700D01*
X153305906Y-109771060D01*
G37*
G36*
X154041495Y-113879584D02*
G01*
X151908161Y-113879584D01*
X151908161Y-112848632D01*
X152074828Y-112848632D01*
X152077360Y-113062622D01*
X152076006Y-113081678D01*
X152077672Y-113089006D01*
X152077710Y-113092181D01*
X152079227Y-113095843D01*
X152082526Y-113110351D01*
X152149139Y-113302911D01*
X152149139Y-113306466D01*
X152156597Y-113324473D01*
X152165943Y-113351488D01*
X152169473Y-113355558D01*
X152171536Y-113360538D01*
X152190191Y-113383269D01*
X152334774Y-113524294D01*
X152347146Y-113538559D01*
X152353498Y-113542557D01*
X152355778Y-113544781D01*
X152359440Y-113546297D01*
X152372032Y-113554224D01*
X152507439Y-113619366D01*
X152517900Y-113627117D01*
X152539854Y-113634960D01*
X152542352Y-113636162D01*
X152543432Y-113636238D01*
X152545591Y-113637010D01*
X152823559Y-113703878D01*
X152838421Y-113710035D01*
X152856586Y-113711823D01*
X152860394Y-113712740D01*
X152862581Y-113712414D01*
X152867685Y-113712917D01*
X153074042Y-113710475D01*
X153089262Y-113712740D01*
X153107232Y-113710082D01*
X153111235Y-113710035D01*
X153113279Y-113709187D01*
X153118351Y-113708438D01*
X153392971Y-113637180D01*
X153407304Y-113636162D01*
X153429224Y-113627773D01*
X153431756Y-113627117D01*
X153432626Y-113626472D01*
X153434767Y-113625653D01*
X153577310Y-113551642D01*
X153593877Y-113544781D01*
X153599647Y-113540045D01*
X153602510Y-113538559D01*
X153605106Y-113535565D01*
X153616608Y-113526126D01*
X153742353Y-113397208D01*
X153745367Y-113395702D01*
X153757757Y-113381416D01*
X153778121Y-113360539D01*
X153780183Y-113355559D01*
X153783715Y-113351488D01*
X153795703Y-113324637D01*
X153864561Y-113110007D01*
X153871946Y-113092181D01*
X153872683Y-113084692D01*
X153873651Y-113081677D01*
X153873369Y-113077722D01*
X153874828Y-113062917D01*
X153872413Y-112918709D01*
X153873651Y-112901300D01*
X153872000Y-112894040D01*
X153871946Y-112890796D01*
X153870430Y-112887138D01*
X153867131Y-112872626D01*
X153800517Y-112680059D01*
X153800517Y-112676510D01*
X153793067Y-112658525D01*
X153783715Y-112631489D01*
X153780181Y-112627414D01*
X153778120Y-112622438D01*
X153759465Y-112599707D01*
X153665328Y-112509647D01*
X153665307Y-112509626D01*
X153611235Y-112487228D01*
X153581971Y-112484346D01*
X153052707Y-112487228D01*
X152998635Y-112509626D01*
X152957251Y-112551010D01*
X152934853Y-112605082D01*
X152931971Y-112634346D01*
X152934853Y-112949324D01*
X152957251Y-113003396D01*
X152998635Y-113044780D01*
X153052707Y-113067178D01*
X153111235Y-113067178D01*
X153165307Y-113044780D01*
X153206691Y-113003396D01*
X153229089Y-112949324D01*
X153231971Y-112920060D01*
X153230721Y-112783536D01*
X153519337Y-112781964D01*
X153521888Y-112784404D01*
X153575133Y-112938324D01*
X153576728Y-113033551D01*
X153525359Y-113193666D01*
X153427127Y-113294375D01*
X153324220Y-113347806D01*
X153072873Y-113413024D01*
X152894660Y-113415133D01*
X152643749Y-113354773D01*
X152531745Y-113300890D01*
X152428236Y-113199929D01*
X152374615Y-113044923D01*
X152372747Y-112887120D01*
X152440931Y-112745393D01*
X152445079Y-112687013D01*
X152426571Y-112631490D01*
X152388225Y-112587275D01*
X152335876Y-112561100D01*
X152277495Y-112556952D01*
X152221973Y-112575460D01*
X152177758Y-112613806D01*
X152162093Y-112638692D01*
X152102184Y-112763219D01*
X152100108Y-112765296D01*
X152093431Y-112781413D01*
X152080154Y-112809013D01*
X152079771Y-112814390D01*
X152077710Y-112819368D01*
X152074828Y-112848632D01*
X151908161Y-112848632D01*
X151908161Y-111981012D01*
X152075194Y-111981012D01*
X152077710Y-112000803D01*
X152077710Y-112020753D01*
X152081369Y-112029586D01*
X152082575Y-112039072D01*
X152092473Y-112056394D01*
X152100108Y-112074825D01*
X152106868Y-112081585D01*
X152111613Y-112089888D01*
X152127384Y-112102101D01*
X152141492Y-112116209D01*
X152150327Y-112119868D01*
X152157887Y-112125723D01*
X152177131Y-112130971D01*
X152195564Y-112138607D01*
X152210530Y-112140080D01*
X152214351Y-112141123D01*
X152217302Y-112140747D01*
X152224828Y-112141489D01*
X153754092Y-112138607D01*
X153808164Y-112116209D01*
X153849548Y-112074825D01*
X153871946Y-112020753D01*
X153871946Y-111962225D01*
X153849548Y-111908153D01*
X153808164Y-111866769D01*
X153754092Y-111844371D01*
X153724828Y-111841489D01*
X152784711Y-111843260D01*
X153790189Y-111266511D01*
X153808164Y-111259066D01*
X153814882Y-111252347D01*
X153823227Y-111247561D01*
X153835442Y-111231787D01*
X153849548Y-111217682D01*
X153853206Y-111208848D01*
X153859063Y-111201287D01*
X153864312Y-111182038D01*
X153871946Y-111163610D01*
X153871946Y-111154048D01*
X153874462Y-111144823D01*
X153871946Y-111125031D01*
X153871946Y-111105082D01*
X153868286Y-111096248D01*
X153867081Y-111086763D01*
X153857182Y-111069440D01*
X153849548Y-111051010D01*
X153842787Y-111044249D01*
X153838043Y-111035947D01*
X153822271Y-111023733D01*
X153808164Y-111009626D01*
X153799328Y-111005966D01*
X153791769Y-111000112D01*
X153772524Y-110994863D01*
X153754092Y-110987228D01*
X153739127Y-110985754D01*
X153735306Y-110984712D01*
X153732354Y-110985087D01*
X153724828Y-110984346D01*
X152195564Y-110987228D01*
X152141492Y-111009626D01*
X152100108Y-111051010D01*
X152077710Y-111105082D01*
X152077710Y-111163610D01*
X152100108Y-111217682D01*
X152141492Y-111259066D01*
X152195564Y-111281464D01*
X152224828Y-111284346D01*
X153164943Y-111282574D01*
X152159466Y-111859323D01*
X152141492Y-111866769D01*
X152134773Y-111873487D01*
X152126429Y-111878274D01*
X152114215Y-111894045D01*
X152100108Y-111908153D01*
X152096448Y-111916988D01*
X152090594Y-111924548D01*
X152085345Y-111943792D01*
X152077710Y-111962225D01*
X152077710Y-111971787D01*
X152075194Y-111981012D01*
X151908161Y-111981012D01*
X151908161Y-110062917D01*
X152074828Y-110062917D01*
X152077710Y-110449324D01*
X152100108Y-110503396D01*
X152141492Y-110544780D01*
X152195564Y-110567178D01*
X152224828Y-110570060D01*
X153754092Y-110567178D01*
X153808164Y-110544780D01*
X153849548Y-110503396D01*
X153871946Y-110449324D01*
X153874828Y-110420060D01*
X153872178Y-110064867D01*
X153873651Y-110044157D01*
X153871969Y-110036760D01*
X153871946Y-110033653D01*
X153870430Y-110029995D01*
X153867131Y-110015483D01*
X153800518Y-109822919D01*
X153800518Y-109819368D01*
X153793063Y-109801371D01*
X153783715Y-109774346D01*
X153780183Y-109770274D01*
X153778121Y-109765295D01*
X153759466Y-109742565D01*
X153614883Y-109601542D01*
X153602510Y-109587275D01*
X153596154Y-109583274D01*
X153593877Y-109581053D01*
X153590217Y-109579537D01*
X153577624Y-109571610D01*
X153442216Y-109506467D01*
X153431756Y-109498717D01*
X153409801Y-109490873D01*
X153407304Y-109489672D01*
X153406223Y-109489595D01*
X153404065Y-109488824D01*
X153126096Y-109421955D01*
X153111235Y-109415799D01*
X153093069Y-109414010D01*
X153089262Y-109413094D01*
X153087074Y-109413419D01*
X153081971Y-109412917D01*
X152875613Y-109415358D01*
X152860394Y-109413094D01*
X152842423Y-109415751D01*
X152838421Y-109415799D01*
X152836376Y-109416646D01*
X152831305Y-109417396D01*
X152556684Y-109488653D01*
X152542352Y-109489672D01*
X152520428Y-109498060D01*
X152517900Y-109498717D01*
X152517030Y-109499361D01*
X152514888Y-109500181D01*
X152372348Y-109574189D01*
X152355778Y-109581053D01*
X152350006Y-109585789D01*
X152347146Y-109587275D01*
X152344550Y-109590267D01*
X152333048Y-109599708D01*
X152207304Y-109728624D01*
X152204290Y-109730132D01*
X152191896Y-109744421D01*
X152171536Y-109765296D01*
X152169473Y-109770275D01*
X152165943Y-109774346D01*
X152153954Y-109801197D01*
X152085097Y-110015818D01*
X152077710Y-110033653D01*
X152076972Y-110041144D01*
X152076006Y-110044156D01*
X152076286Y-110048105D01*
X152074828Y-110062917D01*
X151908161Y-110062917D01*
X151908161Y-109246250D01*
X154041495Y-109246250D01*
X154041495Y-113879584D01*
G37*
X151073685Y-114269489D02*
X151002257Y-114412346D01*
X151002257Y-114412346D02*
X150859400Y-114555203D01*
X150859400Y-114555203D02*
X150645114Y-114769489D01*
X150645114Y-114769489D02*
X150573685Y-114912346D01*
X150573685Y-114912346D02*
X150573685Y-115055203D01*
X150930828Y-114983774D02*
X150859400Y-115126632D01*
X150859400Y-115126632D02*
X150716542Y-115269489D01*
X150716542Y-115269489D02*
X150430828Y-115340917D01*
X150430828Y-115340917D02*
X149930828Y-115340917D01*
X149930828Y-115340917D02*
X149645114Y-115269489D01*
X149645114Y-115269489D02*
X149502257Y-115126632D01*
X149502257Y-115126632D02*
X149430828Y-114983774D01*
X149430828Y-114983774D02*
X149430828Y-114698060D01*
X149430828Y-114698060D02*
X149502257Y-114555203D01*
X149502257Y-114555203D02*
X149645114Y-114412346D01*
X149645114Y-114412346D02*
X149930828Y-114340917D01*
X149930828Y-114340917D02*
X150430828Y-114340917D01*
X150430828Y-114340917D02*
X150716542Y-114412346D01*
X150716542Y-114412346D02*
X150859400Y-114555203D01*
X150859400Y-114555203D02*
X150930828Y-114698060D01*
X150930828Y-114698060D02*
X150930828Y-114983774D01*
X151073685Y-114055203D02*
X151073685Y-112912345D01*
X150930828Y-112555203D02*
X149430828Y-112555203D01*
X149430828Y-112555203D02*
X149430828Y-111983774D01*
X149430828Y-111983774D02*
X149502257Y-111840917D01*
X149502257Y-111840917D02*
X149573685Y-111769488D01*
X149573685Y-111769488D02*
X149716542Y-111698060D01*
X149716542Y-111698060D02*
X149930828Y-111698060D01*
X149930828Y-111698060D02*
X150073685Y-111769488D01*
X150073685Y-111769488D02*
X150145114Y-111840917D01*
X150145114Y-111840917D02*
X150216542Y-111983774D01*
X150216542Y-111983774D02*
X150216542Y-112555203D01*
X150930828Y-110840917D02*
X150859400Y-110983774D01*
X150859400Y-110983774D02*
X150787971Y-111055203D01*
X150787971Y-111055203D02*
X150645114Y-111126631D01*
X150645114Y-111126631D02*
X150216542Y-111126631D01*
X150216542Y-111126631D02*
X150073685Y-111055203D01*
X150073685Y-111055203D02*
X150002257Y-110983774D01*
X150002257Y-110983774D02*
X149930828Y-110840917D01*
X149930828Y-110840917D02*
X149930828Y-110626631D01*
X149930828Y-110626631D02*
X150002257Y-110483774D01*
X150002257Y-110483774D02*
X150073685Y-110412346D01*
X150073685Y-110412346D02*
X150216542Y-110340917D01*
X150216542Y-110340917D02*
X150645114Y-110340917D01*
X150645114Y-110340917D02*
X150787971Y-110412346D01*
X150787971Y-110412346D02*
X150859400Y-110483774D01*
X150859400Y-110483774D02*
X150930828Y-110626631D01*
X150930828Y-110626631D02*
X150930828Y-110840917D01*
X150859400Y-109769488D02*
X150930828Y-109626631D01*
X150930828Y-109626631D02*
X150930828Y-109340917D01*
X150930828Y-109340917D02*
X150859400Y-109198060D01*
X150859400Y-109198060D02*
X150716542Y-109126631D01*
X150716542Y-109126631D02*
X150645114Y-109126631D01*
X150645114Y-109126631D02*
X150502257Y-109198060D01*
X150502257Y-109198060D02*
X150430828Y-109340917D01*
X150430828Y-109340917D02*
X150430828Y-109555203D01*
X150430828Y-109555203D02*
X150359400Y-109698060D01*
X150359400Y-109698060D02*
X150216542Y-109769488D01*
X150216542Y-109769488D02*
X150145114Y-109769488D01*
X150145114Y-109769488D02*
X150002257Y-109698060D01*
X150002257Y-109698060D02*
X149930828Y-109555203D01*
X149930828Y-109555203D02*
X149930828Y-109340917D01*
X149930828Y-109340917D02*
X150002257Y-109198060D01*
G36*
X147982740Y-114887478D02*
G01*
X147993706Y-114898174D01*
X147886991Y-115006756D01*
X147871668Y-115020046D01*
X147867637Y-115026449D01*
X147865446Y-115028679D01*
X147863930Y-115032338D01*
X147856003Y-115044932D01*
X147796096Y-115169456D01*
X147794018Y-115171535D01*
X147787336Y-115187666D01*
X147774065Y-115215252D01*
X147773683Y-115220626D01*
X147771620Y-115225607D01*
X147768738Y-115254871D01*
X147771620Y-115426992D01*
X147794018Y-115481064D01*
X147830079Y-115517125D01*
X147767012Y-115533490D01*
X147304316Y-115536009D01*
X147069021Y-115479406D01*
X146972994Y-115385742D01*
X146925589Y-115294440D01*
X146923622Y-115079444D01*
X146966479Y-114990360D01*
X147063614Y-114890773D01*
X147284750Y-114833393D01*
X147747444Y-114830874D01*
X147982740Y-114887478D01*
G37*
G36*
X148128139Y-115287439D02*
G01*
X148085282Y-115376526D01*
X148068668Y-115393559D01*
X148066979Y-115292691D01*
X148109240Y-115204844D01*
X148127216Y-115186554D01*
X148128139Y-115287439D01*
G37*
G36*
X147595483Y-111249963D02*
G01*
X147529636Y-111250279D01*
X147459253Y-111216419D01*
X147425589Y-111151583D01*
X147423622Y-110936586D01*
X147457188Y-110866813D01*
X147511577Y-110838574D01*
X147595483Y-111249963D01*
G37*
G36*
X148126172Y-109572442D02*
G01*
X148128139Y-109787439D01*
X148085028Y-109877052D01*
X148048037Y-109915717D01*
X147958487Y-109962212D01*
X147600853Y-109964463D01*
X147510841Y-109921160D01*
X147472179Y-109884172D01*
X147425589Y-109794440D01*
X147423622Y-109579444D01*
X147439062Y-109547349D01*
X148112333Y-109545789D01*
X148126172Y-109572442D01*
G37*
G36*
X149092548Y-116000109D02*
G01*
X146459214Y-116000109D01*
X146459214Y-115040585D01*
X146625881Y-115040585D01*
X146628289Y-115303844D01*
X146627059Y-115307537D01*
X146628510Y-115327966D01*
X146628763Y-115355563D01*
X146630824Y-115360540D01*
X146631207Y-115365918D01*
X146641717Y-115393381D01*
X146715726Y-115535923D01*
X146722589Y-115552492D01*
X146727324Y-115558262D01*
X146728811Y-115561125D01*
X146731804Y-115563721D01*
X146741244Y-115575223D01*
X146874526Y-115705225D01*
X146879070Y-115712798D01*
X146892467Y-115722724D01*
X146906831Y-115736735D01*
X146917136Y-115741003D01*
X146926096Y-115747642D01*
X146953787Y-115757535D01*
X147231755Y-115824403D01*
X147246617Y-115830560D01*
X147264782Y-115832348D01*
X147268590Y-115833265D01*
X147270777Y-115832939D01*
X147275881Y-115833442D01*
X147766412Y-115830770D01*
X147783172Y-115833265D01*
X147801321Y-115830580D01*
X147805145Y-115830560D01*
X147807189Y-115829712D01*
X147812261Y-115828963D01*
X148081384Y-115759132D01*
X148090857Y-115759132D01*
X148106742Y-115752552D01*
X148125666Y-115747642D01*
X148134626Y-115741002D01*
X148144930Y-115736735D01*
X148167661Y-115718080D01*
X148308687Y-115573496D01*
X148322953Y-115561124D01*
X148326951Y-115554771D01*
X148329174Y-115552493D01*
X148330691Y-115548830D01*
X148338617Y-115536238D01*
X148398523Y-115411712D01*
X148400601Y-115409635D01*
X148407279Y-115393512D01*
X148420555Y-115365917D01*
X148420936Y-115360541D01*
X148422999Y-115355563D01*
X148425881Y-115326299D01*
X148423472Y-115063039D01*
X148424703Y-115059347D01*
X148423251Y-115038918D01*
X148422999Y-115011321D01*
X148420936Y-115006342D01*
X148420555Y-115000967D01*
X148410045Y-114973504D01*
X148385734Y-114926681D01*
X148451550Y-114859203D01*
X148465809Y-114846838D01*
X148469806Y-114840487D01*
X148472031Y-114838207D01*
X148473548Y-114834543D01*
X148481474Y-114821953D01*
X148563412Y-114651632D01*
X148567560Y-114593252D01*
X148549052Y-114537729D01*
X148520134Y-114504387D01*
X148543458Y-114481064D01*
X148565856Y-114426992D01*
X148568738Y-114397728D01*
X148565856Y-113225606D01*
X148543458Y-113171534D01*
X148502074Y-113130150D01*
X148448002Y-113107752D01*
X148389474Y-113107752D01*
X148335402Y-113130150D01*
X148294018Y-113171534D01*
X148271620Y-113225606D01*
X148268738Y-113254870D01*
X148271620Y-114426992D01*
X148294018Y-114481064D01*
X148317783Y-114504829D01*
X148300239Y-114520046D01*
X148284574Y-114544932D01*
X148228139Y-114662240D01*
X148203611Y-114687386D01*
X148177236Y-114661660D01*
X148172692Y-114654087D01*
X148159291Y-114644157D01*
X148144930Y-114630150D01*
X148134626Y-114625882D01*
X148125666Y-114619243D01*
X148097975Y-114609350D01*
X147820007Y-114542480D01*
X147805145Y-114536324D01*
X147786979Y-114534535D01*
X147783172Y-114533619D01*
X147780984Y-114533944D01*
X147775881Y-114533442D01*
X147285348Y-114536113D01*
X147268589Y-114533619D01*
X147250439Y-114536303D01*
X147246617Y-114536324D01*
X147244572Y-114537170D01*
X147239500Y-114537921D01*
X146970376Y-114607753D01*
X146960904Y-114607753D01*
X146945018Y-114614332D01*
X146926095Y-114619243D01*
X146917134Y-114625882D01*
X146906831Y-114630150D01*
X146884101Y-114648805D01*
X146743079Y-114793385D01*
X146728811Y-114805760D01*
X146724810Y-114812115D01*
X146722589Y-114814393D01*
X146721073Y-114818052D01*
X146713146Y-114830646D01*
X146653239Y-114955170D01*
X146651161Y-114957249D01*
X146644479Y-114973380D01*
X146631208Y-115000966D01*
X146630826Y-115006340D01*
X146628763Y-115011321D01*
X146625881Y-115040585D01*
X146459214Y-115040585D01*
X146459214Y-112887251D01*
X146626247Y-112887251D01*
X146628763Y-112907042D01*
X146628763Y-112926992D01*
X146632422Y-112935825D01*
X146633628Y-112945311D01*
X146643526Y-112962633D01*
X146651161Y-112981064D01*
X146657921Y-112987824D01*
X146662666Y-112996127D01*
X146678437Y-113008340D01*
X146692545Y-113022448D01*
X146701380Y-113026107D01*
X146708940Y-113031962D01*
X146728184Y-113037210D01*
X146746617Y-113044846D01*
X146761583Y-113046319D01*
X146765404Y-113047362D01*
X146768355Y-113046986D01*
X146775881Y-113047728D01*
X148305145Y-113044846D01*
X148359217Y-113022448D01*
X148400601Y-112981064D01*
X148422999Y-112926992D01*
X148422999Y-112868464D01*
X148400601Y-112814392D01*
X148359217Y-112773008D01*
X148305145Y-112750610D01*
X148275881Y-112747728D01*
X147335764Y-112749499D01*
X148341242Y-112172750D01*
X148359217Y-112165305D01*
X148365935Y-112158586D01*
X148374280Y-112153800D01*
X148386495Y-112138026D01*
X148400601Y-112123921D01*
X148404259Y-112115087D01*
X148410116Y-112107526D01*
X148415365Y-112088277D01*
X148422999Y-112069849D01*
X148422999Y-112060287D01*
X148425515Y-112051062D01*
X148422999Y-112031270D01*
X148422999Y-112011321D01*
X148419339Y-112002487D01*
X148418134Y-111993002D01*
X148408235Y-111975679D01*
X148400601Y-111957249D01*
X148393840Y-111950488D01*
X148389096Y-111942186D01*
X148373324Y-111929972D01*
X148359217Y-111915865D01*
X148350381Y-111912205D01*
X148342822Y-111906351D01*
X148323577Y-111901102D01*
X148305145Y-111893467D01*
X148290180Y-111891993D01*
X148286359Y-111890951D01*
X148283407Y-111891326D01*
X148275881Y-111890585D01*
X146746617Y-111893467D01*
X146692545Y-111915865D01*
X146651161Y-111957249D01*
X146628763Y-112011321D01*
X146628763Y-112069849D01*
X146651161Y-112123921D01*
X146692545Y-112165305D01*
X146746617Y-112187703D01*
X146775881Y-112190585D01*
X147715996Y-112188813D01*
X146710519Y-112765562D01*
X146692545Y-112773008D01*
X146685826Y-112779726D01*
X146677482Y-112784513D01*
X146665268Y-112800284D01*
X146651161Y-112814392D01*
X146647501Y-112823227D01*
X146641647Y-112830787D01*
X146636398Y-112850031D01*
X146628763Y-112868464D01*
X146628763Y-112878026D01*
X146626247Y-112887251D01*
X146459214Y-112887251D01*
X146459214Y-110897727D01*
X147125881Y-110897727D01*
X147128289Y-111160988D01*
X147127059Y-111164681D01*
X147128510Y-111185104D01*
X147128763Y-111212706D01*
X147130826Y-111217686D01*
X147131208Y-111223061D01*
X147141717Y-111250524D01*
X147212273Y-111386415D01*
X147216996Y-111400583D01*
X147223557Y-111408148D01*
X147228811Y-111418267D01*
X147243022Y-111430591D01*
X147255343Y-111444798D01*
X147270150Y-111454119D01*
X147273026Y-111456613D01*
X147275334Y-111457382D01*
X147280228Y-111460463D01*
X147404753Y-111520369D01*
X147406831Y-111522447D01*
X147422953Y-111529125D01*
X147450549Y-111542401D01*
X147455924Y-111542782D01*
X147460903Y-111544845D01*
X147490167Y-111547727D01*
X147769264Y-111546387D01*
X147776038Y-111547728D01*
X147783068Y-111546321D01*
X148038475Y-111545096D01*
X148042833Y-111546549D01*
X148065074Y-111544968D01*
X148090859Y-111544845D01*
X148095837Y-111542782D01*
X148101213Y-111542401D01*
X148128676Y-111531891D01*
X148264565Y-111461337D01*
X148278737Y-111456613D01*
X148286304Y-111450050D01*
X148296420Y-111444798D01*
X148308744Y-111430588D01*
X148322952Y-111418266D01*
X148332271Y-111403461D01*
X148334767Y-111400584D01*
X148335537Y-111398273D01*
X148338617Y-111393381D01*
X148398523Y-111268855D01*
X148400601Y-111266778D01*
X148407279Y-111250655D01*
X148420555Y-111223060D01*
X148420936Y-111217684D01*
X148422999Y-111212706D01*
X148425881Y-111183442D01*
X148423472Y-110920181D01*
X148424703Y-110916489D01*
X148423251Y-110896060D01*
X148422999Y-110868463D01*
X148420936Y-110863484D01*
X148420555Y-110858109D01*
X148410045Y-110830646D01*
X148322952Y-110662903D01*
X148278737Y-110624556D01*
X148223215Y-110606048D01*
X148164835Y-110610196D01*
X148112486Y-110636371D01*
X148074139Y-110680586D01*
X148055631Y-110736108D01*
X148059779Y-110794488D01*
X148070289Y-110821952D01*
X148126172Y-110929584D01*
X148128139Y-111144582D01*
X148094573Y-111214355D01*
X148030006Y-111247878D01*
X147898533Y-111248509D01*
X147780142Y-110668039D01*
X147780142Y-110654178D01*
X147774572Y-110640732D01*
X147771546Y-110625894D01*
X147763367Y-110613682D01*
X147757744Y-110600106D01*
X147747241Y-110589603D01*
X147738978Y-110577265D01*
X147726752Y-110569114D01*
X147716360Y-110558722D01*
X147702639Y-110553038D01*
X147690282Y-110544800D01*
X147675865Y-110541948D01*
X147662288Y-110536324D01*
X147633024Y-110533442D01*
X147632879Y-110533444D01*
X147632867Y-110533442D01*
X147632852Y-110533444D01*
X147511499Y-110535476D01*
X147508929Y-110534620D01*
X147492359Y-110535797D01*
X147460903Y-110536324D01*
X147455924Y-110538386D01*
X147450549Y-110538768D01*
X147423086Y-110549278D01*
X147287196Y-110619832D01*
X147273026Y-110624556D01*
X147265458Y-110631118D01*
X147255343Y-110636371D01*
X147243022Y-110650577D01*
X147228811Y-110662902D01*
X147219488Y-110677712D01*
X147216996Y-110680586D01*
X147216226Y-110682893D01*
X147213146Y-110687788D01*
X147153239Y-110812312D01*
X147151161Y-110814391D01*
X147144479Y-110830522D01*
X147131208Y-110858108D01*
X147130826Y-110863482D01*
X147128763Y-110868463D01*
X147125881Y-110897727D01*
X146459214Y-110897727D01*
X146459214Y-109540585D01*
X147125881Y-109540585D01*
X147128289Y-109803845D01*
X147127059Y-109807538D01*
X147128510Y-109827961D01*
X147128763Y-109855563D01*
X147130826Y-109860543D01*
X147131208Y-109865918D01*
X147141717Y-109893381D01*
X147215728Y-110035927D01*
X147222589Y-110052490D01*
X147227323Y-110058259D01*
X147228811Y-110061124D01*
X147231805Y-110063721D01*
X147241243Y-110075221D01*
X147316396Y-110147122D01*
X147326771Y-110159084D01*
X147332994Y-110163001D01*
X147335402Y-110165305D01*
X147339061Y-110166820D01*
X147351656Y-110174749D01*
X147476181Y-110234655D01*
X147478259Y-110236733D01*
X147494381Y-110243411D01*
X147521977Y-110256687D01*
X147527352Y-110257068D01*
X147532331Y-110259131D01*
X147561595Y-110262013D01*
X147967278Y-110259459D01*
X147971405Y-110260835D01*
X147993050Y-110259297D01*
X148019431Y-110259131D01*
X148024409Y-110257068D01*
X148029785Y-110256687D01*
X148057249Y-110246177D01*
X148199790Y-110172168D01*
X148216359Y-110165306D01*
X148222129Y-110160570D01*
X148224992Y-110159084D01*
X148227588Y-110156090D01*
X148239090Y-110146651D01*
X148310991Y-110071495D01*
X148322952Y-110061123D01*
X148326869Y-110054899D01*
X148329174Y-110052491D01*
X148330690Y-110048829D01*
X148338617Y-110036238D01*
X148398523Y-109911712D01*
X148400601Y-109909635D01*
X148407279Y-109893512D01*
X148420555Y-109865917D01*
X148420936Y-109860541D01*
X148422999Y-109855563D01*
X148425881Y-109826299D01*
X148423472Y-109563039D01*
X148424703Y-109559347D01*
X148423688Y-109545067D01*
X148450344Y-109545006D01*
X148540920Y-109588580D01*
X148579584Y-109625570D01*
X148626259Y-109715468D01*
X148627961Y-109859239D01*
X148559779Y-110000967D01*
X148555631Y-110059347D01*
X148574139Y-110114869D01*
X148612486Y-110159084D01*
X148664835Y-110185259D01*
X148723215Y-110189407D01*
X148778737Y-110170899D01*
X148822952Y-110132552D01*
X148838617Y-110107667D01*
X148898523Y-109983141D01*
X148900601Y-109981064D01*
X148907279Y-109964941D01*
X148920555Y-109937346D01*
X148920936Y-109931970D01*
X148922999Y-109926992D01*
X148925881Y-109897728D01*
X148923606Y-109705494D01*
X148924703Y-109702204D01*
X148923340Y-109683025D01*
X148922999Y-109654178D01*
X148920936Y-109649199D01*
X148920555Y-109643824D01*
X148910045Y-109616361D01*
X148836039Y-109473823D01*
X148829174Y-109457250D01*
X148824436Y-109451477D01*
X148822952Y-109448618D01*
X148819960Y-109446023D01*
X148810519Y-109434519D01*
X148735368Y-109362621D01*
X148724992Y-109350657D01*
X148718766Y-109346738D01*
X148716359Y-109344435D01*
X148712699Y-109342919D01*
X148700106Y-109334992D01*
X148575580Y-109275085D01*
X148573503Y-109273008D01*
X148557380Y-109266329D01*
X148529785Y-109253054D01*
X148524409Y-109252672D01*
X148519431Y-109250610D01*
X148490167Y-109247728D01*
X147349181Y-109250372D01*
X147328549Y-109248906D01*
X147323974Y-109250430D01*
X147246617Y-109250610D01*
X147192545Y-109273008D01*
X147151161Y-109314392D01*
X147128763Y-109368464D01*
X147128763Y-109426992D01*
X147146228Y-109469156D01*
X147144479Y-109473380D01*
X147131208Y-109500966D01*
X147130826Y-109506340D01*
X147128763Y-109511321D01*
X147125881Y-109540585D01*
X146459214Y-109540585D01*
X146459214Y-109081061D01*
X149092548Y-109081061D01*
X149092548Y-116000109D01*
G37*
X145850828Y-114507489D02*
X144350828Y-114507489D01*
X145993685Y-114150346D02*
X145993685Y-113007488D01*
X145850828Y-112650346D02*
X144350828Y-112650346D01*
X144350828Y-112650346D02*
X144350828Y-112078917D01*
X144350828Y-112078917D02*
X144422257Y-111936060D01*
X144422257Y-111936060D02*
X144493685Y-111864631D01*
X144493685Y-111864631D02*
X144636542Y-111793203D01*
X144636542Y-111793203D02*
X144850828Y-111793203D01*
X144850828Y-111793203D02*
X144993685Y-111864631D01*
X144993685Y-111864631D02*
X145065114Y-111936060D01*
X145065114Y-111936060D02*
X145136542Y-112078917D01*
X145136542Y-112078917D02*
X145136542Y-112650346D01*
X145850828Y-110936060D02*
X145779400Y-111078917D01*
X145779400Y-111078917D02*
X145707971Y-111150346D01*
X145707971Y-111150346D02*
X145565114Y-111221774D01*
X145565114Y-111221774D02*
X145136542Y-111221774D01*
X145136542Y-111221774D02*
X144993685Y-111150346D01*
X144993685Y-111150346D02*
X144922257Y-111078917D01*
X144922257Y-111078917D02*
X144850828Y-110936060D01*
X144850828Y-110936060D02*
X144850828Y-110721774D01*
X144850828Y-110721774D02*
X144922257Y-110578917D01*
X144922257Y-110578917D02*
X144993685Y-110507489D01*
X144993685Y-110507489D02*
X145136542Y-110436060D01*
X145136542Y-110436060D02*
X145565114Y-110436060D01*
X145565114Y-110436060D02*
X145707971Y-110507489D01*
X145707971Y-110507489D02*
X145779400Y-110578917D01*
X145779400Y-110578917D02*
X145850828Y-110721774D01*
X145850828Y-110721774D02*
X145850828Y-110936060D01*
X145779400Y-109864631D02*
X145850828Y-109721774D01*
X145850828Y-109721774D02*
X145850828Y-109436060D01*
X145850828Y-109436060D02*
X145779400Y-109293203D01*
X145779400Y-109293203D02*
X145636542Y-109221774D01*
X145636542Y-109221774D02*
X145565114Y-109221774D01*
X145565114Y-109221774D02*
X145422257Y-109293203D01*
X145422257Y-109293203D02*
X145350828Y-109436060D01*
X145350828Y-109436060D02*
X145350828Y-109650346D01*
X145350828Y-109650346D02*
X145279400Y-109793203D01*
X145279400Y-109793203D02*
X145136542Y-109864631D01*
X145136542Y-109864631D02*
X145065114Y-109864631D01*
X145065114Y-109864631D02*
X144922257Y-109793203D01*
X144922257Y-109793203D02*
X144850828Y-109650346D01*
X144850828Y-109650346D02*
X144850828Y-109436060D01*
X144850828Y-109436060D02*
X144922257Y-109293203D01*
G36*
X142630430Y-111256581D02*
G01*
X142564583Y-111256897D01*
X142494200Y-111223037D01*
X142460536Y-111158201D01*
X142458569Y-110943204D01*
X142492135Y-110873431D01*
X142546524Y-110845192D01*
X142630430Y-111256581D01*
G37*
G36*
X143161119Y-109579060D02*
G01*
X143163086Y-109794057D01*
X143119975Y-109883670D01*
X143082984Y-109922335D01*
X142993434Y-109968830D01*
X142635800Y-109971081D01*
X142545788Y-109927778D01*
X142507126Y-109890790D01*
X142460536Y-109801058D01*
X142458569Y-109586062D01*
X142474009Y-109553967D01*
X143147280Y-109552407D01*
X143161119Y-109579060D01*
G37*
G36*
X144127495Y-115078156D02*
G01*
X141494527Y-115078156D01*
X141494527Y-114790753D01*
X141663710Y-114790753D01*
X141686108Y-114844825D01*
X141727492Y-114886209D01*
X141781564Y-114908607D01*
X141810828Y-114911489D01*
X143340092Y-114908607D01*
X143394164Y-114886209D01*
X143435548Y-114844825D01*
X143457946Y-114790753D01*
X143457946Y-114732225D01*
X143435548Y-114678153D01*
X143394164Y-114636769D01*
X143340092Y-114614371D01*
X143310828Y-114611489D01*
X141781564Y-114614371D01*
X141727492Y-114636769D01*
X141686108Y-114678153D01*
X141663710Y-114732225D01*
X141663710Y-114790753D01*
X141494527Y-114790753D01*
X141494527Y-113261488D01*
X143303685Y-113261488D01*
X143306567Y-114433610D01*
X143328965Y-114487682D01*
X143370349Y-114529066D01*
X143424421Y-114551464D01*
X143482949Y-114551464D01*
X143537021Y-114529066D01*
X143578405Y-114487682D01*
X143600803Y-114433610D01*
X143603685Y-114404346D01*
X143600803Y-113232224D01*
X143578405Y-113178152D01*
X143537021Y-113136768D01*
X143482949Y-113114370D01*
X143424421Y-113114370D01*
X143370349Y-113136768D01*
X143328965Y-113178152D01*
X143306567Y-113232224D01*
X143303685Y-113261488D01*
X141494527Y-113261488D01*
X141494527Y-112893869D01*
X141661194Y-112893869D01*
X141663710Y-112913660D01*
X141663710Y-112933610D01*
X141667369Y-112942443D01*
X141668575Y-112951929D01*
X141678473Y-112969251D01*
X141686108Y-112987682D01*
X141692868Y-112994442D01*
X141697613Y-113002745D01*
X141713384Y-113014958D01*
X141727492Y-113029066D01*
X141736327Y-113032725D01*
X141743887Y-113038580D01*
X141763131Y-113043828D01*
X141781564Y-113051464D01*
X141796530Y-113052937D01*
X141800351Y-113053980D01*
X141803302Y-113053604D01*
X141810828Y-113054346D01*
X143340092Y-113051464D01*
X143394164Y-113029066D01*
X143435548Y-112987682D01*
X143457946Y-112933610D01*
X143457946Y-112875082D01*
X143435548Y-112821010D01*
X143394164Y-112779626D01*
X143340092Y-112757228D01*
X143310828Y-112754346D01*
X142370711Y-112756117D01*
X143376189Y-112179368D01*
X143394164Y-112171923D01*
X143400882Y-112165204D01*
X143409227Y-112160418D01*
X143421442Y-112144644D01*
X143435548Y-112130539D01*
X143439206Y-112121705D01*
X143445063Y-112114144D01*
X143450312Y-112094895D01*
X143457946Y-112076467D01*
X143457946Y-112066905D01*
X143460462Y-112057680D01*
X143457946Y-112037888D01*
X143457946Y-112017939D01*
X143454286Y-112009105D01*
X143453081Y-111999620D01*
X143443182Y-111982297D01*
X143435548Y-111963867D01*
X143428787Y-111957106D01*
X143424043Y-111948804D01*
X143408271Y-111936590D01*
X143394164Y-111922483D01*
X143385328Y-111918823D01*
X143377769Y-111912969D01*
X143358524Y-111907720D01*
X143340092Y-111900085D01*
X143325127Y-111898611D01*
X143321306Y-111897569D01*
X143318354Y-111897944D01*
X143310828Y-111897203D01*
X141781564Y-111900085D01*
X141727492Y-111922483D01*
X141686108Y-111963867D01*
X141663710Y-112017939D01*
X141663710Y-112076467D01*
X141686108Y-112130539D01*
X141727492Y-112171923D01*
X141781564Y-112194321D01*
X141810828Y-112197203D01*
X142750943Y-112195431D01*
X141745466Y-112772180D01*
X141727492Y-112779626D01*
X141720773Y-112786344D01*
X141712429Y-112791131D01*
X141700215Y-112806902D01*
X141686108Y-112821010D01*
X141682448Y-112829845D01*
X141676594Y-112837405D01*
X141671345Y-112856649D01*
X141663710Y-112875082D01*
X141663710Y-112884644D01*
X141661194Y-112893869D01*
X141494527Y-112893869D01*
X141494527Y-110904345D01*
X142160828Y-110904345D01*
X142163236Y-111167606D01*
X142162006Y-111171299D01*
X142163457Y-111191722D01*
X142163710Y-111219324D01*
X142165773Y-111224304D01*
X142166155Y-111229679D01*
X142176664Y-111257142D01*
X142247220Y-111393033D01*
X142251943Y-111407201D01*
X142258504Y-111414766D01*
X142263758Y-111424885D01*
X142277969Y-111437209D01*
X142290290Y-111451416D01*
X142305097Y-111460737D01*
X142307973Y-111463231D01*
X142310281Y-111464000D01*
X142315175Y-111467081D01*
X142439700Y-111526987D01*
X142441778Y-111529065D01*
X142457900Y-111535743D01*
X142485496Y-111549019D01*
X142490871Y-111549400D01*
X142495850Y-111551463D01*
X142525114Y-111554345D01*
X142804211Y-111553005D01*
X142810985Y-111554346D01*
X142818015Y-111552939D01*
X143073422Y-111551714D01*
X143077780Y-111553167D01*
X143100021Y-111551586D01*
X143125806Y-111551463D01*
X143130784Y-111549400D01*
X143136160Y-111549019D01*
X143163623Y-111538509D01*
X143299512Y-111467955D01*
X143313684Y-111463231D01*
X143321251Y-111456668D01*
X143331367Y-111451416D01*
X143343691Y-111437206D01*
X143357899Y-111424884D01*
X143367218Y-111410079D01*
X143369714Y-111407202D01*
X143370484Y-111404891D01*
X143373564Y-111399999D01*
X143433470Y-111275473D01*
X143435548Y-111273396D01*
X143442226Y-111257273D01*
X143455502Y-111229678D01*
X143455883Y-111224302D01*
X143457946Y-111219324D01*
X143460828Y-111190060D01*
X143458419Y-110926799D01*
X143459650Y-110923107D01*
X143458198Y-110902678D01*
X143457946Y-110875081D01*
X143455883Y-110870102D01*
X143455502Y-110864727D01*
X143444992Y-110837264D01*
X143357899Y-110669521D01*
X143313684Y-110631174D01*
X143258162Y-110612666D01*
X143199782Y-110616814D01*
X143147433Y-110642989D01*
X143109086Y-110687204D01*
X143090578Y-110742726D01*
X143094726Y-110801106D01*
X143105236Y-110828570D01*
X143161119Y-110936202D01*
X143163086Y-111151200D01*
X143129520Y-111220973D01*
X143064953Y-111254496D01*
X142933480Y-111255127D01*
X142815089Y-110674657D01*
X142815089Y-110660796D01*
X142809519Y-110647350D01*
X142806493Y-110632512D01*
X142798314Y-110620300D01*
X142792691Y-110606724D01*
X142782188Y-110596221D01*
X142773925Y-110583883D01*
X142761699Y-110575732D01*
X142751307Y-110565340D01*
X142737586Y-110559656D01*
X142725229Y-110551418D01*
X142710812Y-110548566D01*
X142697235Y-110542942D01*
X142667971Y-110540060D01*
X142667826Y-110540062D01*
X142667814Y-110540060D01*
X142667799Y-110540062D01*
X142546446Y-110542094D01*
X142543876Y-110541238D01*
X142527306Y-110542415D01*
X142495850Y-110542942D01*
X142490871Y-110545004D01*
X142485496Y-110545386D01*
X142458033Y-110555896D01*
X142322143Y-110626450D01*
X142307973Y-110631174D01*
X142300405Y-110637736D01*
X142290290Y-110642989D01*
X142277969Y-110657195D01*
X142263758Y-110669520D01*
X142254435Y-110684330D01*
X142251943Y-110687204D01*
X142251173Y-110689511D01*
X142248093Y-110694406D01*
X142188186Y-110818930D01*
X142186108Y-110821009D01*
X142179426Y-110837140D01*
X142166155Y-110864726D01*
X142165773Y-110870100D01*
X142163710Y-110875081D01*
X142160828Y-110904345D01*
X141494527Y-110904345D01*
X141494527Y-109547203D01*
X142160828Y-109547203D01*
X142163236Y-109810463D01*
X142162006Y-109814156D01*
X142163457Y-109834579D01*
X142163710Y-109862181D01*
X142165773Y-109867161D01*
X142166155Y-109872536D01*
X142176664Y-109899999D01*
X142250675Y-110042545D01*
X142257536Y-110059108D01*
X142262270Y-110064877D01*
X142263758Y-110067742D01*
X142266752Y-110070339D01*
X142276190Y-110081839D01*
X142351343Y-110153740D01*
X142361718Y-110165702D01*
X142367941Y-110169619D01*
X142370349Y-110171923D01*
X142374008Y-110173438D01*
X142386603Y-110181367D01*
X142511128Y-110241273D01*
X142513206Y-110243351D01*
X142529328Y-110250029D01*
X142556924Y-110263305D01*
X142562299Y-110263686D01*
X142567278Y-110265749D01*
X142596542Y-110268631D01*
X143002225Y-110266077D01*
X143006352Y-110267453D01*
X143027997Y-110265915D01*
X143054378Y-110265749D01*
X143059356Y-110263686D01*
X143064732Y-110263305D01*
X143092196Y-110252795D01*
X143234737Y-110178786D01*
X143251306Y-110171924D01*
X143257076Y-110167188D01*
X143259939Y-110165702D01*
X143262535Y-110162708D01*
X143274037Y-110153269D01*
X143345938Y-110078113D01*
X143357899Y-110067741D01*
X143361816Y-110061517D01*
X143364121Y-110059109D01*
X143365637Y-110055447D01*
X143373564Y-110042856D01*
X143433470Y-109918330D01*
X143435548Y-109916253D01*
X143442226Y-109900130D01*
X143455502Y-109872535D01*
X143455883Y-109867159D01*
X143457946Y-109862181D01*
X143460828Y-109832917D01*
X143458419Y-109569657D01*
X143459650Y-109565965D01*
X143458635Y-109551685D01*
X143485291Y-109551624D01*
X143575867Y-109595198D01*
X143614531Y-109632188D01*
X143661206Y-109722086D01*
X143662908Y-109865857D01*
X143594726Y-110007585D01*
X143590578Y-110065965D01*
X143609086Y-110121487D01*
X143647433Y-110165702D01*
X143699782Y-110191877D01*
X143758162Y-110196025D01*
X143813684Y-110177517D01*
X143857899Y-110139170D01*
X143873564Y-110114285D01*
X143933470Y-109989759D01*
X143935548Y-109987682D01*
X143942226Y-109971559D01*
X143955502Y-109943964D01*
X143955883Y-109938588D01*
X143957946Y-109933610D01*
X143960828Y-109904346D01*
X143958553Y-109712112D01*
X143959650Y-109708822D01*
X143958287Y-109689643D01*
X143957946Y-109660796D01*
X143955883Y-109655817D01*
X143955502Y-109650442D01*
X143944992Y-109622979D01*
X143870986Y-109480441D01*
X143864121Y-109463868D01*
X143859383Y-109458095D01*
X143857899Y-109455236D01*
X143854907Y-109452641D01*
X143845466Y-109441137D01*
X143770315Y-109369239D01*
X143759939Y-109357275D01*
X143753713Y-109353356D01*
X143751306Y-109351053D01*
X143747646Y-109349537D01*
X143735053Y-109341610D01*
X143610527Y-109281703D01*
X143608450Y-109279626D01*
X143592327Y-109272947D01*
X143564732Y-109259672D01*
X143559356Y-109259290D01*
X143554378Y-109257228D01*
X143525114Y-109254346D01*
X142384128Y-109256990D01*
X142363496Y-109255524D01*
X142358921Y-109257048D01*
X142281564Y-109257228D01*
X142227492Y-109279626D01*
X142186108Y-109321010D01*
X142163710Y-109375082D01*
X142163710Y-109433610D01*
X142181175Y-109475774D01*
X142179426Y-109479998D01*
X142166155Y-109507584D01*
X142165773Y-109512958D01*
X142163710Y-109517939D01*
X142160828Y-109547203D01*
X141494527Y-109547203D01*
X141494527Y-109087679D01*
X144127495Y-109087679D01*
X144127495Y-115078156D01*
G37*
X139524828Y-113634346D02*
X139524828Y-112705774D01*
X139524828Y-112705774D02*
X140096257Y-113205774D01*
X140096257Y-113205774D02*
X140096257Y-112991489D01*
X140096257Y-112991489D02*
X140167685Y-112848632D01*
X140167685Y-112848632D02*
X140239114Y-112777203D01*
X140239114Y-112777203D02*
X140381971Y-112705774D01*
X140381971Y-112705774D02*
X140739114Y-112705774D01*
X140739114Y-112705774D02*
X140881971Y-112777203D01*
X140881971Y-112777203D02*
X140953400Y-112848632D01*
X140953400Y-112848632D02*
X141024828Y-112991489D01*
X141024828Y-112991489D02*
X141024828Y-113420060D01*
X141024828Y-113420060D02*
X140953400Y-113562917D01*
X140953400Y-113562917D02*
X140881971Y-113634346D01*
X140881971Y-112062918D02*
X140953400Y-111991489D01*
X140953400Y-111991489D02*
X141024828Y-112062918D01*
X141024828Y-112062918D02*
X140953400Y-112134346D01*
X140953400Y-112134346D02*
X140881971Y-112062918D01*
X140881971Y-112062918D02*
X141024828Y-112062918D01*
X139524828Y-111491489D02*
X139524828Y-110562917D01*
X139524828Y-110562917D02*
X140096257Y-111062917D01*
X140096257Y-111062917D02*
X140096257Y-110848632D01*
X140096257Y-110848632D02*
X140167685Y-110705775D01*
X140167685Y-110705775D02*
X140239114Y-110634346D01*
X140239114Y-110634346D02*
X140381971Y-110562917D01*
X140381971Y-110562917D02*
X140739114Y-110562917D01*
X140739114Y-110562917D02*
X140881971Y-110634346D01*
X140881971Y-110634346D02*
X140953400Y-110705775D01*
X140953400Y-110705775D02*
X141024828Y-110848632D01*
X141024828Y-110848632D02*
X141024828Y-111277203D01*
X141024828Y-111277203D02*
X140953400Y-111420060D01*
X140953400Y-111420060D02*
X140881971Y-111491489D01*
X139524828Y-110134346D02*
X141024828Y-109634346D01*
X141024828Y-109634346D02*
X139524828Y-109134346D01*
D11*
X136430000Y-76839866D02*
X135963333Y-76173200D01*
X135630000Y-76839866D02*
X135630000Y-75439866D01*
X135630000Y-75439866D02*
X136163333Y-75439866D01*
X136163333Y-75439866D02*
X136296667Y-75506533D01*
X136296667Y-75506533D02*
X136363333Y-75573200D01*
X136363333Y-75573200D02*
X136430000Y-75706533D01*
X136430000Y-75706533D02*
X136430000Y-75906533D01*
X136430000Y-75906533D02*
X136363333Y-76039866D01*
X136363333Y-76039866D02*
X136296667Y-76106533D01*
X136296667Y-76106533D02*
X136163333Y-76173200D01*
X136163333Y-76173200D02*
X135630000Y-76173200D01*
X137496667Y-76106533D02*
X137030000Y-76106533D01*
X137030000Y-76839866D02*
X137030000Y-75439866D01*
X137030000Y-75439866D02*
X137696667Y-75439866D01*
X138230000Y-76306533D02*
X139296667Y-76306533D01*
X139963333Y-76839866D02*
X139963333Y-75439866D01*
X140630000Y-75906533D02*
X140630000Y-76839866D01*
X140630000Y-76039866D02*
X140696667Y-75973200D01*
X140696667Y-75973200D02*
X140830000Y-75906533D01*
X140830000Y-75906533D02*
X141030000Y-75906533D01*
X141030000Y-75906533D02*
X141163333Y-75973200D01*
X141163333Y-75973200D02*
X141230000Y-76106533D01*
X141230000Y-76106533D02*
X141230000Y-76839866D01*
X158266000Y-85088533D02*
X158199333Y-85155200D01*
X158199333Y-85155200D02*
X157999333Y-85221866D01*
X157999333Y-85221866D02*
X157866000Y-85221866D01*
X157866000Y-85221866D02*
X157666000Y-85155200D01*
X157666000Y-85155200D02*
X157532667Y-85021866D01*
X157532667Y-85021866D02*
X157466000Y-84888533D01*
X157466000Y-84888533D02*
X157399333Y-84621866D01*
X157399333Y-84621866D02*
X157399333Y-84421866D01*
X157399333Y-84421866D02*
X157466000Y-84155200D01*
X157466000Y-84155200D02*
X157532667Y-84021866D01*
X157532667Y-84021866D02*
X157666000Y-83888533D01*
X157666000Y-83888533D02*
X157866000Y-83821866D01*
X157866000Y-83821866D02*
X157999333Y-83821866D01*
X157999333Y-83821866D02*
X158199333Y-83888533D01*
X158199333Y-83888533D02*
X158266000Y-83955200D01*
X159532667Y-85221866D02*
X158866000Y-85221866D01*
X158866000Y-85221866D02*
X158866000Y-83821866D01*
X159999333Y-85221866D02*
X159999333Y-83821866D01*
X160799333Y-85221866D02*
X160199333Y-84421866D01*
X160799333Y-83821866D02*
X159999333Y-84621866D01*
X161666000Y-83821866D02*
X161799333Y-83821866D01*
X161799333Y-83821866D02*
X161932666Y-83888533D01*
X161932666Y-83888533D02*
X161999333Y-83955200D01*
X161999333Y-83955200D02*
X162066000Y-84088533D01*
X162066000Y-84088533D02*
X162132666Y-84355200D01*
X162132666Y-84355200D02*
X162132666Y-84688533D01*
X162132666Y-84688533D02*
X162066000Y-84955200D01*
X162066000Y-84955200D02*
X161999333Y-85088533D01*
X161999333Y-85088533D02*
X161932666Y-85155200D01*
X161932666Y-85155200D02*
X161799333Y-85221866D01*
X161799333Y-85221866D02*
X161666000Y-85221866D01*
X161666000Y-85221866D02*
X161532666Y-85155200D01*
X161532666Y-85155200D02*
X161466000Y-85088533D01*
X161466000Y-85088533D02*
X161399333Y-84955200D01*
X161399333Y-84955200D02*
X161332666Y-84688533D01*
X161332666Y-84688533D02*
X161332666Y-84355200D01*
X161332666Y-84355200D02*
X161399333Y-84088533D01*
X161399333Y-84088533D02*
X161466000Y-83955200D01*
X161466000Y-83955200D02*
X161532666Y-83888533D01*
X161532666Y-83888533D02*
X161666000Y-83821866D01*
X131088000Y-84580533D02*
X131021333Y-84647200D01*
X131021333Y-84647200D02*
X130821333Y-84713866D01*
X130821333Y-84713866D02*
X130688000Y-84713866D01*
X130688000Y-84713866D02*
X130488000Y-84647200D01*
X130488000Y-84647200D02*
X130354667Y-84513866D01*
X130354667Y-84513866D02*
X130288000Y-84380533D01*
X130288000Y-84380533D02*
X130221333Y-84113866D01*
X130221333Y-84113866D02*
X130221333Y-83913866D01*
X130221333Y-83913866D02*
X130288000Y-83647200D01*
X130288000Y-83647200D02*
X130354667Y-83513866D01*
X130354667Y-83513866D02*
X130488000Y-83380533D01*
X130488000Y-83380533D02*
X130688000Y-83313866D01*
X130688000Y-83313866D02*
X130821333Y-83313866D01*
X130821333Y-83313866D02*
X131021333Y-83380533D01*
X131021333Y-83380533D02*
X131088000Y-83447200D01*
X132354667Y-84713866D02*
X131688000Y-84713866D01*
X131688000Y-84713866D02*
X131688000Y-83313866D01*
X132821333Y-84713866D02*
X132821333Y-83313866D01*
X133621333Y-84713866D02*
X133021333Y-83913866D01*
X133621333Y-83313866D02*
X132821333Y-84113866D01*
X134954666Y-84713866D02*
X134154666Y-84713866D01*
X134554666Y-84713866D02*
X134554666Y-83313866D01*
X134554666Y-83313866D02*
X134421333Y-83513866D01*
X134421333Y-83513866D02*
X134288000Y-83647200D01*
X134288000Y-83647200D02*
X134154666Y-83713866D01*
X137332819Y-107521333D02*
X138047104Y-107521333D01*
X138047104Y-107521333D02*
X138189961Y-107568952D01*
X138189961Y-107568952D02*
X138285200Y-107664190D01*
X138285200Y-107664190D02*
X138332819Y-107807047D01*
X138332819Y-107807047D02*
X138332819Y-107902285D01*
X137666152Y-106616571D02*
X138332819Y-106616571D01*
X137285200Y-106854666D02*
X137999485Y-107092761D01*
X137999485Y-107092761D02*
X137999485Y-106473714D01*
X154355580Y-100037666D02*
X154403200Y-100085285D01*
X154403200Y-100085285D02*
X154450819Y-100228142D01*
X154450819Y-100228142D02*
X154450819Y-100323380D01*
X154450819Y-100323380D02*
X154403200Y-100466237D01*
X154403200Y-100466237D02*
X154307961Y-100561475D01*
X154307961Y-100561475D02*
X154212723Y-100609094D01*
X154212723Y-100609094D02*
X154022247Y-100656713D01*
X154022247Y-100656713D02*
X153879390Y-100656713D01*
X153879390Y-100656713D02*
X153688914Y-100609094D01*
X153688914Y-100609094D02*
X153593676Y-100561475D01*
X153593676Y-100561475D02*
X153498438Y-100466237D01*
X153498438Y-100466237D02*
X153450819Y-100323380D01*
X153450819Y-100323380D02*
X153450819Y-100228142D01*
X153450819Y-100228142D02*
X153498438Y-100085285D01*
X153498438Y-100085285D02*
X153546057Y-100037666D01*
X153450819Y-99132904D02*
X153450819Y-99609094D01*
X153450819Y-99609094D02*
X153927009Y-99656713D01*
X153927009Y-99656713D02*
X153879390Y-99609094D01*
X153879390Y-99609094D02*
X153831771Y-99513856D01*
X153831771Y-99513856D02*
X153831771Y-99275761D01*
X153831771Y-99275761D02*
X153879390Y-99180523D01*
X153879390Y-99180523D02*
X153927009Y-99132904D01*
X153927009Y-99132904D02*
X154022247Y-99085285D01*
X154022247Y-99085285D02*
X154260342Y-99085285D01*
X154260342Y-99085285D02*
X154355580Y-99132904D01*
X154355580Y-99132904D02*
X154403200Y-99180523D01*
X154403200Y-99180523D02*
X154450819Y-99275761D01*
X154450819Y-99275761D02*
X154450819Y-99513856D01*
X154450819Y-99513856D02*
X154403200Y-99609094D01*
X154403200Y-99609094D02*
X154355580Y-99656713D01*
X150714912Y-100037666D02*
X150762532Y-100085285D01*
X150762532Y-100085285D02*
X150810151Y-100228142D01*
X150810151Y-100228142D02*
X150810151Y-100323380D01*
X150810151Y-100323380D02*
X150762532Y-100466237D01*
X150762532Y-100466237D02*
X150667293Y-100561475D01*
X150667293Y-100561475D02*
X150572055Y-100609094D01*
X150572055Y-100609094D02*
X150381579Y-100656713D01*
X150381579Y-100656713D02*
X150238722Y-100656713D01*
X150238722Y-100656713D02*
X150048246Y-100609094D01*
X150048246Y-100609094D02*
X149953008Y-100561475D01*
X149953008Y-100561475D02*
X149857770Y-100466237D01*
X149857770Y-100466237D02*
X149810151Y-100323380D01*
X149810151Y-100323380D02*
X149810151Y-100228142D01*
X149810151Y-100228142D02*
X149857770Y-100085285D01*
X149857770Y-100085285D02*
X149905389Y-100037666D01*
X150143484Y-99180523D02*
X150810151Y-99180523D01*
X149762532Y-99418618D02*
X150476817Y-99656713D01*
X150476817Y-99656713D02*
X150476817Y-99037666D01*
X143433580Y-99988666D02*
X143481200Y-100036285D01*
X143481200Y-100036285D02*
X143528819Y-100179142D01*
X143528819Y-100179142D02*
X143528819Y-100274380D01*
X143528819Y-100274380D02*
X143481200Y-100417237D01*
X143481200Y-100417237D02*
X143385961Y-100512475D01*
X143385961Y-100512475D02*
X143290723Y-100560094D01*
X143290723Y-100560094D02*
X143100247Y-100607713D01*
X143100247Y-100607713D02*
X142957390Y-100607713D01*
X142957390Y-100607713D02*
X142766914Y-100560094D01*
X142766914Y-100560094D02*
X142671676Y-100512475D01*
X142671676Y-100512475D02*
X142576438Y-100417237D01*
X142576438Y-100417237D02*
X142528819Y-100274380D01*
X142528819Y-100274380D02*
X142528819Y-100179142D01*
X142528819Y-100179142D02*
X142576438Y-100036285D01*
X142576438Y-100036285D02*
X142624057Y-99988666D01*
X142528819Y-99655332D02*
X142528819Y-99036285D01*
X142528819Y-99036285D02*
X142909771Y-99369618D01*
X142909771Y-99369618D02*
X142909771Y-99226761D01*
X142909771Y-99226761D02*
X142957390Y-99131523D01*
X142957390Y-99131523D02*
X143005009Y-99083904D01*
X143005009Y-99083904D02*
X143100247Y-99036285D01*
X143100247Y-99036285D02*
X143338342Y-99036285D01*
X143338342Y-99036285D02*
X143433580Y-99083904D01*
X143433580Y-99083904D02*
X143481200Y-99131523D01*
X143481200Y-99131523D02*
X143528819Y-99226761D01*
X143528819Y-99226761D02*
X143528819Y-99512475D01*
X143528819Y-99512475D02*
X143481200Y-99607713D01*
X143481200Y-99607713D02*
X143433580Y-99655332D01*
X147074246Y-99988666D02*
X147121866Y-100036285D01*
X147121866Y-100036285D02*
X147169485Y-100179142D01*
X147169485Y-100179142D02*
X147169485Y-100274380D01*
X147169485Y-100274380D02*
X147121866Y-100417237D01*
X147121866Y-100417237D02*
X147026627Y-100512475D01*
X147026627Y-100512475D02*
X146931389Y-100560094D01*
X146931389Y-100560094D02*
X146740913Y-100607713D01*
X146740913Y-100607713D02*
X146598056Y-100607713D01*
X146598056Y-100607713D02*
X146407580Y-100560094D01*
X146407580Y-100560094D02*
X146312342Y-100512475D01*
X146312342Y-100512475D02*
X146217104Y-100417237D01*
X146217104Y-100417237D02*
X146169485Y-100274380D01*
X146169485Y-100274380D02*
X146169485Y-100179142D01*
X146169485Y-100179142D02*
X146217104Y-100036285D01*
X146217104Y-100036285D02*
X146264723Y-99988666D01*
X146264723Y-99607713D02*
X146217104Y-99560094D01*
X146217104Y-99560094D02*
X146169485Y-99464856D01*
X146169485Y-99464856D02*
X146169485Y-99226761D01*
X146169485Y-99226761D02*
X146217104Y-99131523D01*
X146217104Y-99131523D02*
X146264723Y-99083904D01*
X146264723Y-99083904D02*
X146359961Y-99036285D01*
X146359961Y-99036285D02*
X146455199Y-99036285D01*
X146455199Y-99036285D02*
X146598056Y-99083904D01*
X146598056Y-99083904D02*
X147169485Y-99655332D01*
X147169485Y-99655332D02*
X147169485Y-99036285D01*
D12*
%TO.C,J1*%
X150058000Y-80508000D02*
X150058000Y-77988000D01*
X150058000Y-67648000D02*
X150058000Y-75428000D01*
X145298000Y-82748000D02*
X147818000Y-82748000D01*
X143058000Y-77988000D02*
X143058000Y-80508000D01*
X143058000Y-75428000D02*
X143058000Y-67648000D01*
X143058000Y-67648000D02*
X150058000Y-67648000D01*
%TO.C,J2*%
X158252000Y-93416000D02*
X160772000Y-93416000D01*
X171112000Y-93416000D02*
X163332000Y-93416000D01*
X156012000Y-88656000D02*
X156012000Y-91176000D01*
X160772000Y-86416000D02*
X158252000Y-86416000D01*
X163332000Y-86416000D02*
X171112000Y-86416000D01*
X171112000Y-86416000D02*
X171112000Y-93416000D01*
%TO.C,J3*%
X134610000Y-86416000D02*
X132090000Y-86416000D01*
X121750000Y-86416000D02*
X129530000Y-86416000D01*
X136850000Y-91176000D02*
X136850000Y-88656000D01*
X132090000Y-93416000D02*
X134610000Y-93416000D01*
X129530000Y-93416000D02*
X121750000Y-93416000D01*
X121750000Y-93416000D02*
X121750000Y-86416000D01*
D13*
%TO.C,J4*%
X138878000Y-108518000D02*
X138878000Y-107188000D01*
X140208000Y-108518000D02*
X138878000Y-108518000D01*
X141478000Y-108518000D02*
X154238000Y-108518000D01*
X141478000Y-108518000D02*
X141478000Y-105858000D01*
X154238000Y-108518000D02*
X154238000Y-105858000D01*
X141478000Y-105858000D02*
X154238000Y-105858000D01*
%TO.C,U1*%
X148887000Y-90311000D02*
X148407000Y-90311000D01*
X148647000Y-89981000D01*
X148887000Y-90311000D01*
G36*
X148887000Y-90311000D02*
G01*
X148407000Y-90311000D01*
X148647000Y-89981000D01*
X148887000Y-90311000D01*
G37*
X144927000Y-85761000D02*
X144927000Y-86221000D01*
X144927000Y-89981000D02*
X144927000Y-89521000D01*
X145637000Y-85761000D02*
X144927000Y-85761000D01*
X145637000Y-89981000D02*
X144927000Y-89981000D01*
X146437000Y-85761000D02*
X147137000Y-85761000D01*
X146437000Y-89981000D02*
X147137000Y-89981000D01*
X147937000Y-85761000D02*
X148647000Y-85761000D01*
X147937000Y-89981000D02*
X148347000Y-89981000D01*
X148647000Y-85761000D02*
X148647000Y-86221000D01*
X148647000Y-89521000D02*
X148647000Y-89741000D01*
%TO.C,C1*%
X146658420Y-91950000D02*
X146939580Y-91950000D01*
X146658420Y-90930000D02*
X146939580Y-90930000D01*
%TO.C,C5*%
X151236000Y-99159748D02*
X151236000Y-100582252D01*
X153056000Y-99159748D02*
X153056000Y-100582252D01*
%TO.C,C4*%
X149415332Y-99159748D02*
X149415332Y-100582252D01*
X147595332Y-99159748D02*
X147595332Y-100582252D01*
%TO.C,C3*%
X140314000Y-99110748D02*
X140314000Y-100533252D01*
X142134000Y-99110748D02*
X142134000Y-100533252D01*
%TO.C,C2*%
X145774666Y-99110748D02*
X145774666Y-100533252D01*
X143954666Y-99110748D02*
X143954666Y-100533252D01*
%TD*%
M02*
