%TF.GenerationSoftware,KiCad,Pcbnew,8.0.1*%
%TF.CreationDate,2024-04-10T11:13:06-07:00*%
%TF.ProjectId,TS3A5017-Mixer,54533341-3530-4313-972d-4d697865722e,rev?*%
%TF.SameCoordinates,Original*%
%TF.FileFunction,Legend,Top*%
%TF.FilePolarity,Positive*%
%FSLAX46Y46*%
G04 Gerber Fmt 4.6, Leading zero omitted, Abs format (unit mm)*
G04 Created by KiCad (PCBNEW 8.0.1) date 2024-04-10 11:13:06*
%MOMM*%
%LPD*%
G01*
G04 APERTURE LIST*
%ADD10C,0.150000*%
%ADD11C,0.000000*%
%ADD12C,0.120000*%
%ADD13C,0.127000*%
%ADD14C,0.200000*%
G04 APERTURE END LIST*
D10*
X145688207Y-83689819D02*
X145354874Y-83213628D01*
X145116779Y-83689819D02*
X145116779Y-82689819D01*
X145116779Y-82689819D02*
X145497731Y-82689819D01*
X145497731Y-82689819D02*
X145592969Y-82737438D01*
X145592969Y-82737438D02*
X145640588Y-82785057D01*
X145640588Y-82785057D02*
X145688207Y-82880295D01*
X145688207Y-82880295D02*
X145688207Y-83023152D01*
X145688207Y-83023152D02*
X145640588Y-83118390D01*
X145640588Y-83118390D02*
X145592969Y-83166009D01*
X145592969Y-83166009D02*
X145497731Y-83213628D01*
X145497731Y-83213628D02*
X145116779Y-83213628D01*
X146450112Y-83166009D02*
X146116779Y-83166009D01*
X146116779Y-83689819D02*
X146116779Y-82689819D01*
X146116779Y-82689819D02*
X146592969Y-82689819D01*
X146973922Y-83308866D02*
X147735827Y-83308866D01*
X148212017Y-83689819D02*
X148212017Y-82689819D01*
X148688207Y-83689819D02*
X148688207Y-82689819D01*
X148688207Y-82689819D02*
X149259635Y-83689819D01*
X149259635Y-83689819D02*
X149259635Y-82689819D01*
X135734588Y-106105438D02*
X135639350Y-106057819D01*
X135639350Y-106057819D02*
X135496493Y-106057819D01*
X135496493Y-106057819D02*
X135353636Y-106105438D01*
X135353636Y-106105438D02*
X135258398Y-106200676D01*
X135258398Y-106200676D02*
X135210779Y-106295914D01*
X135210779Y-106295914D02*
X135163160Y-106486390D01*
X135163160Y-106486390D02*
X135163160Y-106629247D01*
X135163160Y-106629247D02*
X135210779Y-106819723D01*
X135210779Y-106819723D02*
X135258398Y-106914961D01*
X135258398Y-106914961D02*
X135353636Y-107010200D01*
X135353636Y-107010200D02*
X135496493Y-107057819D01*
X135496493Y-107057819D02*
X135591731Y-107057819D01*
X135591731Y-107057819D02*
X135734588Y-107010200D01*
X135734588Y-107010200D02*
X135782207Y-106962580D01*
X135782207Y-106962580D02*
X135782207Y-106629247D01*
X135782207Y-106629247D02*
X135591731Y-106629247D01*
X136210779Y-107057819D02*
X136210779Y-106057819D01*
X136210779Y-106057819D02*
X136782207Y-107057819D01*
X136782207Y-107057819D02*
X136782207Y-106057819D01*
X137258398Y-107057819D02*
X137258398Y-106057819D01*
X137258398Y-106057819D02*
X137496493Y-106057819D01*
X137496493Y-106057819D02*
X137639350Y-106105438D01*
X137639350Y-106105438D02*
X137734588Y-106200676D01*
X137734588Y-106200676D02*
X137782207Y-106295914D01*
X137782207Y-106295914D02*
X137829826Y-106486390D01*
X137829826Y-106486390D02*
X137829826Y-106629247D01*
X137829826Y-106629247D02*
X137782207Y-106819723D01*
X137782207Y-106819723D02*
X137734588Y-106914961D01*
X137734588Y-106914961D02*
X137639350Y-107010200D01*
X137639350Y-107010200D02*
X137496493Y-107057819D01*
X137496493Y-107057819D02*
X137258398Y-107057819D01*
X137442580Y-90785792D02*
X137490200Y-90833411D01*
X137490200Y-90833411D02*
X137537819Y-90976268D01*
X137537819Y-90976268D02*
X137537819Y-91071506D01*
X137537819Y-91071506D02*
X137490200Y-91214363D01*
X137490200Y-91214363D02*
X137394961Y-91309601D01*
X137394961Y-91309601D02*
X137299723Y-91357220D01*
X137299723Y-91357220D02*
X137109247Y-91404839D01*
X137109247Y-91404839D02*
X136966390Y-91404839D01*
X136966390Y-91404839D02*
X136775914Y-91357220D01*
X136775914Y-91357220D02*
X136680676Y-91309601D01*
X136680676Y-91309601D02*
X136585438Y-91214363D01*
X136585438Y-91214363D02*
X136537819Y-91071506D01*
X136537819Y-91071506D02*
X136537819Y-90976268D01*
X136537819Y-90976268D02*
X136585438Y-90833411D01*
X136585438Y-90833411D02*
X136633057Y-90785792D01*
X137537819Y-89881030D02*
X137537819Y-90357220D01*
X137537819Y-90357220D02*
X136537819Y-90357220D01*
X137537819Y-89547696D02*
X136537819Y-89547696D01*
X137537819Y-88976268D02*
X136966390Y-89404839D01*
X136537819Y-88976268D02*
X137109247Y-89547696D01*
X137537819Y-88023887D02*
X137537819Y-88595315D01*
X137537819Y-88309601D02*
X136537819Y-88309601D01*
X136537819Y-88309601D02*
X136680676Y-88404839D01*
X136680676Y-88404839D02*
X136775914Y-88500077D01*
X136775914Y-88500077D02*
X136823533Y-88595315D01*
X154911419Y-88792207D02*
X154863800Y-88744588D01*
X154863800Y-88744588D02*
X154816180Y-88601731D01*
X154816180Y-88601731D02*
X154816180Y-88506493D01*
X154816180Y-88506493D02*
X154863800Y-88363636D01*
X154863800Y-88363636D02*
X154959038Y-88268398D01*
X154959038Y-88268398D02*
X155054276Y-88220779D01*
X155054276Y-88220779D02*
X155244752Y-88173160D01*
X155244752Y-88173160D02*
X155387609Y-88173160D01*
X155387609Y-88173160D02*
X155578085Y-88220779D01*
X155578085Y-88220779D02*
X155673323Y-88268398D01*
X155673323Y-88268398D02*
X155768561Y-88363636D01*
X155768561Y-88363636D02*
X155816180Y-88506493D01*
X155816180Y-88506493D02*
X155816180Y-88601731D01*
X155816180Y-88601731D02*
X155768561Y-88744588D01*
X155768561Y-88744588D02*
X155720942Y-88792207D01*
X154816180Y-89696969D02*
X154816180Y-89220779D01*
X154816180Y-89220779D02*
X155816180Y-89220779D01*
X154816180Y-90030303D02*
X155816180Y-90030303D01*
X154816180Y-90601731D02*
X155387609Y-90173160D01*
X155816180Y-90601731D02*
X155244752Y-90030303D01*
X155816180Y-91220779D02*
X155816180Y-91316017D01*
X155816180Y-91316017D02*
X155768561Y-91411255D01*
X155768561Y-91411255D02*
X155720942Y-91458874D01*
X155720942Y-91458874D02*
X155625704Y-91506493D01*
X155625704Y-91506493D02*
X155435228Y-91554112D01*
X155435228Y-91554112D02*
X155197133Y-91554112D01*
X155197133Y-91554112D02*
X155006657Y-91506493D01*
X155006657Y-91506493D02*
X154911419Y-91458874D01*
X154911419Y-91458874D02*
X154863800Y-91411255D01*
X154863800Y-91411255D02*
X154816180Y-91316017D01*
X154816180Y-91316017D02*
X154816180Y-91220779D01*
X154816180Y-91220779D02*
X154863800Y-91125541D01*
X154863800Y-91125541D02*
X154911419Y-91077922D01*
X154911419Y-91077922D02*
X155006657Y-91030303D01*
X155006657Y-91030303D02*
X155197133Y-90982684D01*
X155197133Y-90982684D02*
X155435228Y-90982684D01*
X155435228Y-90982684D02*
X155625704Y-91030303D01*
X155625704Y-91030303D02*
X155720942Y-91077922D01*
X155720942Y-91077922D02*
X155768561Y-91125541D01*
X155768561Y-91125541D02*
X155816180Y-91220779D01*
X128736969Y-113135006D02*
X128927445Y-113668340D01*
X128927445Y-113668340D02*
X129117922Y-113135006D01*
X129575065Y-112868340D02*
X129651255Y-112868340D01*
X129651255Y-112868340D02*
X129727446Y-112906435D01*
X129727446Y-112906435D02*
X129765541Y-112944530D01*
X129765541Y-112944530D02*
X129803636Y-113020721D01*
X129803636Y-113020721D02*
X129841731Y-113173102D01*
X129841731Y-113173102D02*
X129841731Y-113363578D01*
X129841731Y-113363578D02*
X129803636Y-113515959D01*
X129803636Y-113515959D02*
X129765541Y-113592149D01*
X129765541Y-113592149D02*
X129727446Y-113630245D01*
X129727446Y-113630245D02*
X129651255Y-113668340D01*
X129651255Y-113668340D02*
X129575065Y-113668340D01*
X129575065Y-113668340D02*
X129498874Y-113630245D01*
X129498874Y-113630245D02*
X129460779Y-113592149D01*
X129460779Y-113592149D02*
X129422684Y-113515959D01*
X129422684Y-113515959D02*
X129384588Y-113363578D01*
X129384588Y-113363578D02*
X129384588Y-113173102D01*
X129384588Y-113173102D02*
X129422684Y-113020721D01*
X129422684Y-113020721D02*
X129460779Y-112944530D01*
X129460779Y-112944530D02*
X129498874Y-112906435D01*
X129498874Y-112906435D02*
X129575065Y-112868340D01*
X130184589Y-113592149D02*
X130222684Y-113630245D01*
X130222684Y-113630245D02*
X130184589Y-113668340D01*
X130184589Y-113668340D02*
X130146493Y-113630245D01*
X130146493Y-113630245D02*
X130184589Y-113592149D01*
X130184589Y-113592149D02*
X130184589Y-113668340D01*
X130527445Y-112944530D02*
X130565541Y-112906435D01*
X130565541Y-112906435D02*
X130641731Y-112868340D01*
X130641731Y-112868340D02*
X130832207Y-112868340D01*
X130832207Y-112868340D02*
X130908398Y-112906435D01*
X130908398Y-112906435D02*
X130946493Y-112944530D01*
X130946493Y-112944530D02*
X130984588Y-113020721D01*
X130984588Y-113020721D02*
X130984588Y-113096911D01*
X130984588Y-113096911D02*
X130946493Y-113211197D01*
X130946493Y-113211197D02*
X130489350Y-113668340D01*
X130489350Y-113668340D02*
X130984588Y-113668340D01*
X131822684Y-112868340D02*
X132279827Y-112868340D01*
X132051255Y-113668340D02*
X132051255Y-112868340D01*
X132889351Y-113668340D02*
X132889351Y-113249292D01*
X132889351Y-113249292D02*
X132851256Y-113173102D01*
X132851256Y-113173102D02*
X132775065Y-113135006D01*
X132775065Y-113135006D02*
X132622684Y-113135006D01*
X132622684Y-113135006D02*
X132546494Y-113173102D01*
X132889351Y-113630245D02*
X132813160Y-113668340D01*
X132813160Y-113668340D02*
X132622684Y-113668340D01*
X132622684Y-113668340D02*
X132546494Y-113630245D01*
X132546494Y-113630245D02*
X132508398Y-113554054D01*
X132508398Y-113554054D02*
X132508398Y-113477864D01*
X132508398Y-113477864D02*
X132546494Y-113401673D01*
X132546494Y-113401673D02*
X132622684Y-113363578D01*
X132622684Y-113363578D02*
X132813160Y-113363578D01*
X132813160Y-113363578D02*
X132889351Y-113325483D01*
X133194113Y-113135006D02*
X133384589Y-113668340D01*
X133575066Y-113135006D02*
X133384589Y-113668340D01*
X133384589Y-113668340D02*
X133308399Y-113858816D01*
X133308399Y-113858816D02*
X133270304Y-113896911D01*
X133270304Y-113896911D02*
X133194113Y-113935006D01*
X133994113Y-113668340D02*
X133917923Y-113630245D01*
X133917923Y-113630245D02*
X133879828Y-113554054D01*
X133879828Y-113554054D02*
X133879828Y-112868340D01*
X134413161Y-113668340D02*
X134336971Y-113630245D01*
X134336971Y-113630245D02*
X134298876Y-113592149D01*
X134298876Y-113592149D02*
X134260780Y-113515959D01*
X134260780Y-113515959D02*
X134260780Y-113287387D01*
X134260780Y-113287387D02*
X134298876Y-113211197D01*
X134298876Y-113211197D02*
X134336971Y-113173102D01*
X134336971Y-113173102D02*
X134413161Y-113135006D01*
X134413161Y-113135006D02*
X134527447Y-113135006D01*
X134527447Y-113135006D02*
X134603638Y-113173102D01*
X134603638Y-113173102D02*
X134641733Y-113211197D01*
X134641733Y-113211197D02*
X134679828Y-113287387D01*
X134679828Y-113287387D02*
X134679828Y-113515959D01*
X134679828Y-113515959D02*
X134641733Y-113592149D01*
X134641733Y-113592149D02*
X134603638Y-113630245D01*
X134603638Y-113630245D02*
X134527447Y-113668340D01*
X134527447Y-113668340D02*
X134413161Y-113668340D01*
X135327448Y-113630245D02*
X135251257Y-113668340D01*
X135251257Y-113668340D02*
X135098876Y-113668340D01*
X135098876Y-113668340D02*
X135022686Y-113630245D01*
X135022686Y-113630245D02*
X134984590Y-113554054D01*
X134984590Y-113554054D02*
X134984590Y-113249292D01*
X134984590Y-113249292D02*
X135022686Y-113173102D01*
X135022686Y-113173102D02*
X135098876Y-113135006D01*
X135098876Y-113135006D02*
X135251257Y-113135006D01*
X135251257Y-113135006D02*
X135327448Y-113173102D01*
X135327448Y-113173102D02*
X135365543Y-113249292D01*
X135365543Y-113249292D02*
X135365543Y-113325483D01*
X135365543Y-113325483D02*
X134984590Y-113401673D01*
X136317924Y-113668340D02*
X136317924Y-112868340D01*
X136317924Y-112868340D02*
X136584590Y-113439768D01*
X136584590Y-113439768D02*
X136851257Y-112868340D01*
X136851257Y-112868340D02*
X136851257Y-113668340D01*
X137232210Y-113668340D02*
X137232210Y-113135006D01*
X137232210Y-112868340D02*
X137194114Y-112906435D01*
X137194114Y-112906435D02*
X137232210Y-112944530D01*
X137232210Y-112944530D02*
X137270305Y-112906435D01*
X137270305Y-112906435D02*
X137232210Y-112868340D01*
X137232210Y-112868340D02*
X137232210Y-112944530D01*
X137536971Y-113668340D02*
X137956019Y-113135006D01*
X137536971Y-113135006D02*
X137956019Y-113668340D01*
X138565543Y-113630245D02*
X138489352Y-113668340D01*
X138489352Y-113668340D02*
X138336971Y-113668340D01*
X138336971Y-113668340D02*
X138260781Y-113630245D01*
X138260781Y-113630245D02*
X138222685Y-113554054D01*
X138222685Y-113554054D02*
X138222685Y-113249292D01*
X138222685Y-113249292D02*
X138260781Y-113173102D01*
X138260781Y-113173102D02*
X138336971Y-113135006D01*
X138336971Y-113135006D02*
X138489352Y-113135006D01*
X138489352Y-113135006D02*
X138565543Y-113173102D01*
X138565543Y-113173102D02*
X138603638Y-113249292D01*
X138603638Y-113249292D02*
X138603638Y-113325483D01*
X138603638Y-113325483D02*
X138222685Y-113401673D01*
X138946495Y-113668340D02*
X138946495Y-113135006D01*
X138946495Y-113287387D02*
X138984590Y-113211197D01*
X138984590Y-113211197D02*
X139022685Y-113173102D01*
X139022685Y-113173102D02*
X139098876Y-113135006D01*
X139098876Y-113135006D02*
X139175066Y-113135006D01*
X140051257Y-113363578D02*
X140660781Y-113363578D01*
X140356019Y-113668340D02*
X140356019Y-113058816D01*
X141613161Y-113439768D02*
X141994114Y-113439768D01*
X141536971Y-113668340D02*
X141803638Y-112868340D01*
X141803638Y-112868340D02*
X142070304Y-113668340D01*
X142336971Y-113668340D02*
X142336971Y-113135006D01*
X142336971Y-113211197D02*
X142375066Y-113173102D01*
X142375066Y-113173102D02*
X142451256Y-113135006D01*
X142451256Y-113135006D02*
X142565542Y-113135006D01*
X142565542Y-113135006D02*
X142641733Y-113173102D01*
X142641733Y-113173102D02*
X142679828Y-113249292D01*
X142679828Y-113249292D02*
X142679828Y-113668340D01*
X142679828Y-113249292D02*
X142717923Y-113173102D01*
X142717923Y-113173102D02*
X142794114Y-113135006D01*
X142794114Y-113135006D02*
X142908399Y-113135006D01*
X142908399Y-113135006D02*
X142984590Y-113173102D01*
X142984590Y-113173102D02*
X143022685Y-113249292D01*
X143022685Y-113249292D02*
X143022685Y-113668340D01*
X143403638Y-113135006D02*
X143403638Y-113935006D01*
X143403638Y-113173102D02*
X143479828Y-113135006D01*
X143479828Y-113135006D02*
X143632209Y-113135006D01*
X143632209Y-113135006D02*
X143708400Y-113173102D01*
X143708400Y-113173102D02*
X143746495Y-113211197D01*
X143746495Y-113211197D02*
X143784590Y-113287387D01*
X143784590Y-113287387D02*
X143784590Y-113515959D01*
X143784590Y-113515959D02*
X143746495Y-113592149D01*
X143746495Y-113592149D02*
X143708400Y-113630245D01*
X143708400Y-113630245D02*
X143632209Y-113668340D01*
X143632209Y-113668340D02*
X143479828Y-113668340D01*
X143479828Y-113668340D02*
X143403638Y-113630245D01*
X144889353Y-112868340D02*
X144965543Y-112868340D01*
X144965543Y-112868340D02*
X145041734Y-112906435D01*
X145041734Y-112906435D02*
X145079829Y-112944530D01*
X145079829Y-112944530D02*
X145117924Y-113020721D01*
X145117924Y-113020721D02*
X145156019Y-113173102D01*
X145156019Y-113173102D02*
X145156019Y-113363578D01*
X145156019Y-113363578D02*
X145117924Y-113515959D01*
X145117924Y-113515959D02*
X145079829Y-113592149D01*
X145079829Y-113592149D02*
X145041734Y-113630245D01*
X145041734Y-113630245D02*
X144965543Y-113668340D01*
X144965543Y-113668340D02*
X144889353Y-113668340D01*
X144889353Y-113668340D02*
X144813162Y-113630245D01*
X144813162Y-113630245D02*
X144775067Y-113592149D01*
X144775067Y-113592149D02*
X144736972Y-113515959D01*
X144736972Y-113515959D02*
X144698876Y-113363578D01*
X144698876Y-113363578D02*
X144698876Y-113173102D01*
X144698876Y-113173102D02*
X144736972Y-113020721D01*
X144736972Y-113020721D02*
X144775067Y-112944530D01*
X144775067Y-112944530D02*
X144813162Y-112906435D01*
X144813162Y-112906435D02*
X144889353Y-112868340D01*
X145841734Y-113135006D02*
X145841734Y-113668340D01*
X145651258Y-112830245D02*
X145460781Y-113401673D01*
X145460781Y-113401673D02*
X145956020Y-113401673D01*
X146832210Y-112830245D02*
X146146496Y-113858816D01*
X147251258Y-112868340D02*
X147327448Y-112868340D01*
X147327448Y-112868340D02*
X147403639Y-112906435D01*
X147403639Y-112906435D02*
X147441734Y-112944530D01*
X147441734Y-112944530D02*
X147479829Y-113020721D01*
X147479829Y-113020721D02*
X147517924Y-113173102D01*
X147517924Y-113173102D02*
X147517924Y-113363578D01*
X147517924Y-113363578D02*
X147479829Y-113515959D01*
X147479829Y-113515959D02*
X147441734Y-113592149D01*
X147441734Y-113592149D02*
X147403639Y-113630245D01*
X147403639Y-113630245D02*
X147327448Y-113668340D01*
X147327448Y-113668340D02*
X147251258Y-113668340D01*
X147251258Y-113668340D02*
X147175067Y-113630245D01*
X147175067Y-113630245D02*
X147136972Y-113592149D01*
X147136972Y-113592149D02*
X147098877Y-113515959D01*
X147098877Y-113515959D02*
X147060781Y-113363578D01*
X147060781Y-113363578D02*
X147060781Y-113173102D01*
X147060781Y-113173102D02*
X147098877Y-113020721D01*
X147098877Y-113020721D02*
X147136972Y-112944530D01*
X147136972Y-112944530D02*
X147175067Y-112906435D01*
X147175067Y-112906435D02*
X147251258Y-112868340D01*
X148203639Y-113135006D02*
X148203639Y-113668340D01*
X148013163Y-112830245D02*
X147822686Y-113401673D01*
X147822686Y-113401673D02*
X148317925Y-113401673D01*
X149194115Y-112830245D02*
X148508401Y-113858816D01*
X149422686Y-112944530D02*
X149460782Y-112906435D01*
X149460782Y-112906435D02*
X149536972Y-112868340D01*
X149536972Y-112868340D02*
X149727448Y-112868340D01*
X149727448Y-112868340D02*
X149803639Y-112906435D01*
X149803639Y-112906435D02*
X149841734Y-112944530D01*
X149841734Y-112944530D02*
X149879829Y-113020721D01*
X149879829Y-113020721D02*
X149879829Y-113096911D01*
X149879829Y-113096911D02*
X149841734Y-113211197D01*
X149841734Y-113211197D02*
X149384591Y-113668340D01*
X149384591Y-113668340D02*
X149879829Y-113668340D01*
X150565544Y-113135006D02*
X150565544Y-113668340D01*
X150375068Y-112830245D02*
X150184591Y-113401673D01*
X150184591Y-113401673D02*
X150679830Y-113401673D01*
X128813160Y-114537247D02*
X129079826Y-114537247D01*
X129194112Y-114956295D02*
X128813160Y-114956295D01*
X128813160Y-114956295D02*
X128813160Y-114156295D01*
X128813160Y-114156295D02*
X129194112Y-114156295D01*
X129536970Y-114956295D02*
X129536970Y-114422961D01*
X129536970Y-114575342D02*
X129575065Y-114499152D01*
X129575065Y-114499152D02*
X129613160Y-114461057D01*
X129613160Y-114461057D02*
X129689351Y-114422961D01*
X129689351Y-114422961D02*
X129765541Y-114422961D01*
X130032208Y-114956295D02*
X130032208Y-114422961D01*
X130032208Y-114156295D02*
X129994112Y-114194390D01*
X129994112Y-114194390D02*
X130032208Y-114232485D01*
X130032208Y-114232485D02*
X130070303Y-114194390D01*
X130070303Y-114194390D02*
X130032208Y-114156295D01*
X130032208Y-114156295D02*
X130032208Y-114232485D01*
X130756017Y-114918200D02*
X130679826Y-114956295D01*
X130679826Y-114956295D02*
X130527445Y-114956295D01*
X130527445Y-114956295D02*
X130451255Y-114918200D01*
X130451255Y-114918200D02*
X130413160Y-114880104D01*
X130413160Y-114880104D02*
X130375064Y-114803914D01*
X130375064Y-114803914D02*
X130375064Y-114575342D01*
X130375064Y-114575342D02*
X130413160Y-114499152D01*
X130413160Y-114499152D02*
X130451255Y-114461057D01*
X130451255Y-114461057D02*
X130527445Y-114422961D01*
X130527445Y-114422961D02*
X130679826Y-114422961D01*
X130679826Y-114422961D02*
X130756017Y-114461057D01*
X131708398Y-114956295D02*
X131708398Y-114156295D01*
X131708398Y-114156295D02*
X131898874Y-114156295D01*
X131898874Y-114156295D02*
X132013160Y-114194390D01*
X132013160Y-114194390D02*
X132089350Y-114270580D01*
X132089350Y-114270580D02*
X132127445Y-114346771D01*
X132127445Y-114346771D02*
X132165541Y-114499152D01*
X132165541Y-114499152D02*
X132165541Y-114613438D01*
X132165541Y-114613438D02*
X132127445Y-114765819D01*
X132127445Y-114765819D02*
X132089350Y-114842009D01*
X132089350Y-114842009D02*
X132013160Y-114918200D01*
X132013160Y-114918200D02*
X131898874Y-114956295D01*
X131898874Y-114956295D02*
X131708398Y-114956295D01*
X132432207Y-114422961D02*
X132622683Y-114956295D01*
X132813160Y-114422961D02*
X132622683Y-114956295D01*
X132622683Y-114956295D02*
X132546493Y-115146771D01*
X132546493Y-115146771D02*
X132508398Y-115184866D01*
X132508398Y-115184866D02*
X132432207Y-115222961D01*
X133117922Y-114422961D02*
X133117922Y-114956295D01*
X133117922Y-114499152D02*
X133156017Y-114461057D01*
X133156017Y-114461057D02*
X133232207Y-114422961D01*
X133232207Y-114422961D02*
X133346493Y-114422961D01*
X133346493Y-114422961D02*
X133422684Y-114461057D01*
X133422684Y-114461057D02*
X133460779Y-114537247D01*
X133460779Y-114537247D02*
X133460779Y-114956295D01*
X133956017Y-114956295D02*
X133879827Y-114918200D01*
X133879827Y-114918200D02*
X133841732Y-114880104D01*
X133841732Y-114880104D02*
X133803636Y-114803914D01*
X133803636Y-114803914D02*
X133803636Y-114575342D01*
X133803636Y-114575342D02*
X133841732Y-114499152D01*
X133841732Y-114499152D02*
X133879827Y-114461057D01*
X133879827Y-114461057D02*
X133956017Y-114422961D01*
X133956017Y-114422961D02*
X134070303Y-114422961D01*
X134070303Y-114422961D02*
X134146494Y-114461057D01*
X134146494Y-114461057D02*
X134184589Y-114499152D01*
X134184589Y-114499152D02*
X134222684Y-114575342D01*
X134222684Y-114575342D02*
X134222684Y-114803914D01*
X134222684Y-114803914D02*
X134184589Y-114880104D01*
X134184589Y-114880104D02*
X134146494Y-114918200D01*
X134146494Y-114918200D02*
X134070303Y-114956295D01*
X134070303Y-114956295D02*
X133956017Y-114956295D01*
X134489351Y-114422961D02*
X134641732Y-114956295D01*
X134641732Y-114956295D02*
X134794113Y-114575342D01*
X134794113Y-114575342D02*
X134946494Y-114956295D01*
X134946494Y-114956295D02*
X135098875Y-114422961D01*
X135365541Y-114918200D02*
X135441732Y-114956295D01*
X135441732Y-114956295D02*
X135594113Y-114956295D01*
X135594113Y-114956295D02*
X135670303Y-114918200D01*
X135670303Y-114918200D02*
X135708399Y-114842009D01*
X135708399Y-114842009D02*
X135708399Y-114803914D01*
X135708399Y-114803914D02*
X135670303Y-114727723D01*
X135670303Y-114727723D02*
X135594113Y-114689628D01*
X135594113Y-114689628D02*
X135479827Y-114689628D01*
X135479827Y-114689628D02*
X135403637Y-114651533D01*
X135403637Y-114651533D02*
X135365541Y-114575342D01*
X135365541Y-114575342D02*
X135365541Y-114537247D01*
X135365541Y-114537247D02*
X135403637Y-114461057D01*
X135403637Y-114461057D02*
X135479827Y-114422961D01*
X135479827Y-114422961D02*
X135594113Y-114422961D01*
X135594113Y-114422961D02*
X135670303Y-114461057D01*
X136051256Y-114956295D02*
X136051256Y-114156295D01*
X136127446Y-114651533D02*
X136356018Y-114956295D01*
X136356018Y-114422961D02*
X136051256Y-114727723D01*
X136698875Y-114956295D02*
X136698875Y-114422961D01*
X136698875Y-114156295D02*
X136660779Y-114194390D01*
X136660779Y-114194390D02*
X136698875Y-114232485D01*
X136698875Y-114232485D02*
X136736970Y-114194390D01*
X136736970Y-114194390D02*
X136698875Y-114156295D01*
X136698875Y-114156295D02*
X136698875Y-114232485D01*
X135115541Y-103517819D02*
X135734588Y-103517819D01*
X135734588Y-103517819D02*
X135401255Y-103898771D01*
X135401255Y-103898771D02*
X135544112Y-103898771D01*
X135544112Y-103898771D02*
X135639350Y-103946390D01*
X135639350Y-103946390D02*
X135686969Y-103994009D01*
X135686969Y-103994009D02*
X135734588Y-104089247D01*
X135734588Y-104089247D02*
X135734588Y-104327342D01*
X135734588Y-104327342D02*
X135686969Y-104422580D01*
X135686969Y-104422580D02*
X135639350Y-104470200D01*
X135639350Y-104470200D02*
X135544112Y-104517819D01*
X135544112Y-104517819D02*
X135258398Y-104517819D01*
X135258398Y-104517819D02*
X135163160Y-104470200D01*
X135163160Y-104470200D02*
X135115541Y-104422580D01*
X136163160Y-104422580D02*
X136210779Y-104470200D01*
X136210779Y-104470200D02*
X136163160Y-104517819D01*
X136163160Y-104517819D02*
X136115541Y-104470200D01*
X136115541Y-104470200D02*
X136163160Y-104422580D01*
X136163160Y-104422580D02*
X136163160Y-104517819D01*
X136544112Y-103517819D02*
X137163159Y-103517819D01*
X137163159Y-103517819D02*
X136829826Y-103898771D01*
X136829826Y-103898771D02*
X136972683Y-103898771D01*
X136972683Y-103898771D02*
X137067921Y-103946390D01*
X137067921Y-103946390D02*
X137115540Y-103994009D01*
X137115540Y-103994009D02*
X137163159Y-104089247D01*
X137163159Y-104089247D02*
X137163159Y-104327342D01*
X137163159Y-104327342D02*
X137115540Y-104422580D01*
X137115540Y-104422580D02*
X137067921Y-104470200D01*
X137067921Y-104470200D02*
X136972683Y-104517819D01*
X136972683Y-104517819D02*
X136686969Y-104517819D01*
X136686969Y-104517819D02*
X136591731Y-104470200D01*
X136591731Y-104470200D02*
X136544112Y-104422580D01*
X137448874Y-103517819D02*
X137782207Y-104517819D01*
X137782207Y-104517819D02*
X138115540Y-103517819D01*
X131487886Y-94570204D02*
X131487886Y-95284489D01*
X131487886Y-95284489D02*
X131440267Y-95427346D01*
X131440267Y-95427346D02*
X131345029Y-95522585D01*
X131345029Y-95522585D02*
X131202172Y-95570204D01*
X131202172Y-95570204D02*
X131106934Y-95570204D01*
X131868839Y-94570204D02*
X132487886Y-94570204D01*
X132487886Y-94570204D02*
X132154553Y-94951156D01*
X132154553Y-94951156D02*
X132297410Y-94951156D01*
X132297410Y-94951156D02*
X132392648Y-94998775D01*
X132392648Y-94998775D02*
X132440267Y-95046394D01*
X132440267Y-95046394D02*
X132487886Y-95141632D01*
X132487886Y-95141632D02*
X132487886Y-95379727D01*
X132487886Y-95379727D02*
X132440267Y-95474965D01*
X132440267Y-95474965D02*
X132392648Y-95522585D01*
X132392648Y-95522585D02*
X132297410Y-95570204D01*
X132297410Y-95570204D02*
X132011696Y-95570204D01*
X132011696Y-95570204D02*
X131916458Y-95522585D01*
X131916458Y-95522585D02*
X131868839Y-95474965D01*
X132254666Y-101264819D02*
X132254666Y-101979104D01*
X132254666Y-101979104D02*
X132207047Y-102121961D01*
X132207047Y-102121961D02*
X132111809Y-102217200D01*
X132111809Y-102217200D02*
X131968952Y-102264819D01*
X131968952Y-102264819D02*
X131873714Y-102264819D01*
X133159428Y-101598152D02*
X133159428Y-102264819D01*
X132921333Y-101217200D02*
X132683238Y-101931485D01*
X132683238Y-101931485D02*
X133302285Y-101931485D01*
X140755972Y-78488965D02*
X141470257Y-78488965D01*
X141470257Y-78488965D02*
X141613114Y-78536584D01*
X141613114Y-78536584D02*
X141708353Y-78631822D01*
X141708353Y-78631822D02*
X141755972Y-78774679D01*
X141755972Y-78774679D02*
X141755972Y-78869917D01*
X141755972Y-77488965D02*
X141755972Y-78060393D01*
X141755972Y-77774679D02*
X140755972Y-77774679D01*
X140755972Y-77774679D02*
X140898829Y-77869917D01*
X140898829Y-77869917D02*
X140994067Y-77965155D01*
X140994067Y-77965155D02*
X141041686Y-78060393D01*
X160255788Y-84191693D02*
X160255788Y-84905978D01*
X160255788Y-84905978D02*
X160208169Y-85048835D01*
X160208169Y-85048835D02*
X160112931Y-85144074D01*
X160112931Y-85144074D02*
X159970074Y-85191693D01*
X159970074Y-85191693D02*
X159874836Y-85191693D01*
X160684360Y-84286931D02*
X160731979Y-84239312D01*
X160731979Y-84239312D02*
X160827217Y-84191693D01*
X160827217Y-84191693D02*
X161065312Y-84191693D01*
X161065312Y-84191693D02*
X161160550Y-84239312D01*
X161160550Y-84239312D02*
X161208169Y-84286931D01*
X161208169Y-84286931D02*
X161255788Y-84382169D01*
X161255788Y-84382169D02*
X161255788Y-84477407D01*
X161255788Y-84477407D02*
X161208169Y-84620264D01*
X161208169Y-84620264D02*
X160636741Y-85191693D01*
X160636741Y-85191693D02*
X161255788Y-85191693D01*
X152379819Y-113324333D02*
X153094104Y-113324333D01*
X153094104Y-113324333D02*
X153236961Y-113371952D01*
X153236961Y-113371952D02*
X153332200Y-113467190D01*
X153332200Y-113467190D02*
X153379819Y-113610047D01*
X153379819Y-113610047D02*
X153379819Y-113705285D01*
X152379819Y-112371952D02*
X152379819Y-112848142D01*
X152379819Y-112848142D02*
X152856009Y-112895761D01*
X152856009Y-112895761D02*
X152808390Y-112848142D01*
X152808390Y-112848142D02*
X152760771Y-112752904D01*
X152760771Y-112752904D02*
X152760771Y-112514809D01*
X152760771Y-112514809D02*
X152808390Y-112419571D01*
X152808390Y-112419571D02*
X152856009Y-112371952D01*
X152856009Y-112371952D02*
X152951247Y-112324333D01*
X152951247Y-112324333D02*
X153189342Y-112324333D01*
X153189342Y-112324333D02*
X153284580Y-112371952D01*
X153284580Y-112371952D02*
X153332200Y-112419571D01*
X153332200Y-112419571D02*
X153379819Y-112514809D01*
X153379819Y-112514809D02*
X153379819Y-112752904D01*
X153379819Y-112752904D02*
X153332200Y-112848142D01*
X153332200Y-112848142D02*
X153284580Y-112895761D01*
D11*
%TO.C,G\u002A\u002A\u002A*%
G36*
X130853755Y-83358854D02*
G01*
X130889164Y-83359160D01*
X130961185Y-83359963D01*
X131019851Y-83360929D01*
X131066814Y-83362306D01*
X131103725Y-83364344D01*
X131132238Y-83367292D01*
X131154003Y-83371399D01*
X131170673Y-83376915D01*
X131183899Y-83384089D01*
X131195335Y-83393169D01*
X131206630Y-83404406D01*
X131209549Y-83407498D01*
X131229135Y-83432881D01*
X131243034Y-83462632D01*
X131252197Y-83499857D01*
X131257576Y-83547658D01*
X131258770Y-83568068D01*
X131259306Y-83632126D01*
X131253892Y-83684310D01*
X131242172Y-83726669D01*
X131225987Y-83758018D01*
X131214780Y-83776353D01*
X131211657Y-83787512D01*
X131215740Y-83796358D01*
X131218487Y-83799563D01*
X131238777Y-83831487D01*
X131253677Y-83875145D01*
X131262785Y-83928118D01*
X131265698Y-83987985D01*
X131262014Y-84052327D01*
X131261399Y-84057797D01*
X131251950Y-84112461D01*
X131237247Y-84154717D01*
X131216205Y-84186577D01*
X131187737Y-84210049D01*
X131175448Y-84216840D01*
X131137591Y-84235704D01*
X130863304Y-84235505D01*
X130790705Y-84235386D01*
X130731608Y-84235102D01*
X130684506Y-84234591D01*
X130647893Y-84233788D01*
X130620263Y-84232629D01*
X130600111Y-84231051D01*
X130585930Y-84228991D01*
X130576215Y-84226384D01*
X130569459Y-84223167D01*
X130569302Y-84223070D01*
X130559688Y-84217070D01*
X130551583Y-84211155D01*
X130544861Y-84204066D01*
X130539391Y-84194544D01*
X130535044Y-84181329D01*
X130531692Y-84163162D01*
X130529205Y-84138785D01*
X130527455Y-84106937D01*
X130526643Y-84078127D01*
X130682812Y-84078127D01*
X130880226Y-84078127D01*
X130942572Y-84077979D01*
X130991545Y-84077481D01*
X131028779Y-84076551D01*
X131055906Y-84075107D01*
X131074559Y-84073066D01*
X131086371Y-84070347D01*
X131092205Y-84067476D01*
X131098967Y-84060785D01*
X131103270Y-84050575D01*
X131105646Y-84033724D01*
X131106628Y-84007110D01*
X131106771Y-83981972D01*
X131106633Y-83946186D01*
X131104944Y-83919476D01*
X131099790Y-83900515D01*
X131089258Y-83887977D01*
X131071434Y-83880535D01*
X131044407Y-83876864D01*
X131006261Y-83875637D01*
X130955085Y-83875527D01*
X130953216Y-83875527D01*
X130902771Y-83875189D01*
X130865451Y-83874082D01*
X130839387Y-83872067D01*
X130822709Y-83869004D01*
X130814099Y-83865179D01*
X130804616Y-83850623D01*
X130798322Y-83826316D01*
X130795548Y-83797239D01*
X130796625Y-83768372D01*
X130801883Y-83744698D01*
X130805605Y-83737210D01*
X130810358Y-83730621D01*
X130816192Y-83725796D01*
X130825371Y-83722408D01*
X130840160Y-83720132D01*
X130862824Y-83718640D01*
X130895625Y-83717606D01*
X130940829Y-83716703D01*
X130948800Y-83716559D01*
X131001260Y-83715572D01*
X131040608Y-83713954D01*
X131068725Y-83710505D01*
X131087496Y-83704023D01*
X131098804Y-83693305D01*
X131104532Y-83677150D01*
X131106562Y-83654355D01*
X131106779Y-83623719D01*
X131106771Y-83615740D01*
X131106863Y-83587443D01*
X131106097Y-83565021D01*
X131102914Y-83547794D01*
X131095754Y-83535078D01*
X131083056Y-83526193D01*
X131063261Y-83520455D01*
X131034807Y-83517184D01*
X130996134Y-83515697D01*
X130945684Y-83515313D01*
X130881894Y-83515349D01*
X130877077Y-83515350D01*
X130682812Y-83515350D01*
X130682812Y-83796738D01*
X130682812Y-84078127D01*
X130526643Y-84078127D01*
X130526312Y-84066360D01*
X130525648Y-84015794D01*
X130525333Y-83953980D01*
X130525238Y-83879659D01*
X130525235Y-83792954D01*
X130525235Y-83416301D01*
X130550074Y-83391462D01*
X130578637Y-83370413D01*
X130608228Y-83361633D01*
X130623745Y-83360497D01*
X130652193Y-83359606D01*
X130691494Y-83358978D01*
X130739572Y-83358631D01*
X130794351Y-83358583D01*
X130853755Y-83358854D01*
G37*
G36*
X131731461Y-83358561D02*
G01*
X131799303Y-83359019D01*
X131826200Y-83359234D01*
X131902738Y-83359921D01*
X131965832Y-83360745D01*
X132017042Y-83361917D01*
X132057930Y-83363649D01*
X132090060Y-83366154D01*
X132114991Y-83369641D01*
X132134287Y-83374324D01*
X132149509Y-83380413D01*
X132162220Y-83388121D01*
X132173980Y-83397658D01*
X132184882Y-83407827D01*
X132209251Y-83440322D01*
X132227840Y-83483728D01*
X132240379Y-83534999D01*
X132246599Y-83591086D01*
X132246231Y-83648943D01*
X132239005Y-83705521D01*
X132224651Y-83757773D01*
X132217397Y-83775583D01*
X132194853Y-83811225D01*
X132163919Y-83840528D01*
X132128691Y-83860042D01*
X132111380Y-83864933D01*
X132094447Y-83868908D01*
X132086167Y-83872418D01*
X132086003Y-83872803D01*
X132089631Y-83879864D01*
X132099835Y-83898088D01*
X132115593Y-83925695D01*
X132135887Y-83960904D01*
X132159694Y-84001937D01*
X132180293Y-84037260D01*
X132213118Y-84094298D01*
X132239041Y-84141216D01*
X132257745Y-84177401D01*
X132268914Y-84202241D01*
X132272233Y-84215123D01*
X132272213Y-84215280D01*
X132270261Y-84222835D01*
X132265119Y-84227799D01*
X132253994Y-84230841D01*
X132234094Y-84232627D01*
X132202623Y-84233823D01*
X132193466Y-84234085D01*
X132153893Y-84234482D01*
X132127410Y-84232956D01*
X132112201Y-84229348D01*
X132108133Y-84226581D01*
X132102126Y-84217634D01*
X132089869Y-84197454D01*
X132072450Y-84167900D01*
X132050956Y-84130834D01*
X132026474Y-84088113D01*
X132003771Y-84048112D01*
X131908365Y-83879279D01*
X131794584Y-83877208D01*
X131680803Y-83875136D01*
X131680803Y-84046416D01*
X131680533Y-84107679D01*
X131679687Y-84155036D01*
X131678209Y-84189579D01*
X131676046Y-84212400D01*
X131673143Y-84224591D01*
X131671799Y-84226700D01*
X131659131Y-84231574D01*
X131634176Y-84234688D01*
X131602015Y-84235704D01*
X131567958Y-84234550D01*
X131543703Y-84231314D01*
X131532230Y-84226700D01*
X131529594Y-84216721D01*
X131527376Y-84193950D01*
X131525578Y-84160596D01*
X131524199Y-84118869D01*
X131523239Y-84070978D01*
X131522698Y-84019131D01*
X131522576Y-83965540D01*
X131522874Y-83912412D01*
X131523591Y-83861957D01*
X131524727Y-83816385D01*
X131526282Y-83777905D01*
X131528256Y-83748726D01*
X131530650Y-83731057D01*
X131532230Y-83726954D01*
X131539318Y-83724282D01*
X131555383Y-83722133D01*
X131581475Y-83720472D01*
X131618638Y-83719261D01*
X131667920Y-83718463D01*
X131730368Y-83718041D01*
X131787003Y-83717950D01*
X131868542Y-83717678D01*
X131935120Y-83716863D01*
X131986773Y-83715503D01*
X132023536Y-83713597D01*
X132045446Y-83711144D01*
X132051059Y-83709617D01*
X132071958Y-83693174D01*
X132084575Y-83666037D01*
X132089420Y-83627040D01*
X132089503Y-83621612D01*
X132085867Y-83578645D01*
X132074699Y-83546569D01*
X132056458Y-83526566D01*
X132051376Y-83523827D01*
X132038042Y-83521084D01*
X132011095Y-83518888D01*
X131970240Y-83517227D01*
X131915184Y-83516094D01*
X131845633Y-83515478D01*
X131787003Y-83515350D01*
X131713899Y-83515188D01*
X131654752Y-83514678D01*
X131608516Y-83513783D01*
X131574144Y-83512466D01*
X131550590Y-83510690D01*
X131536806Y-83508417D01*
X131532230Y-83506346D01*
X131526553Y-83492764D01*
X131523431Y-83469192D01*
X131522754Y-83440403D01*
X131524411Y-83411177D01*
X131528289Y-83386289D01*
X131534278Y-83370515D01*
X131535432Y-83369150D01*
X131539857Y-83365976D01*
X131547099Y-83363431D01*
X131558616Y-83361464D01*
X131575871Y-83360025D01*
X131600322Y-83359066D01*
X131633431Y-83358535D01*
X131676657Y-83358383D01*
X131731461Y-83358561D01*
G37*
G36*
X133029869Y-83359516D02*
G01*
X133081613Y-83362140D01*
X133123462Y-83366679D01*
X133157098Y-83373287D01*
X133184203Y-83382122D01*
X133196364Y-83387693D01*
X133234124Y-83414926D01*
X133266214Y-83454192D01*
X133290738Y-83502996D01*
X133296274Y-83518928D01*
X133301031Y-83534844D01*
X133304782Y-83550239D01*
X133307646Y-83567100D01*
X133309742Y-83587414D01*
X133311189Y-83613169D01*
X133312105Y-83646351D01*
X133312609Y-83688947D01*
X133312820Y-83742945D01*
X133312857Y-83796738D01*
X133312731Y-83864089D01*
X133312298Y-83918294D01*
X133311470Y-83961214D01*
X133310162Y-83994709D01*
X133308288Y-84020639D01*
X133305761Y-84040864D01*
X133302495Y-84057244D01*
X133300437Y-84064998D01*
X133279057Y-84121358D01*
X133250476Y-84165165D01*
X133213617Y-84197569D01*
X133167401Y-84219717D01*
X133150447Y-84224829D01*
X133128891Y-84228357D01*
X133095166Y-84231192D01*
X133052028Y-84233330D01*
X133002234Y-84234768D01*
X132948541Y-84235501D01*
X132893707Y-84235525D01*
X132840487Y-84234837D01*
X132791640Y-84233433D01*
X132749922Y-84231309D01*
X132718090Y-84228460D01*
X132700851Y-84225463D01*
X132649667Y-84205279D01*
X132608654Y-84174667D01*
X132576961Y-84132789D01*
X132554544Y-84081302D01*
X132550489Y-84067799D01*
X132547259Y-84053513D01*
X132544760Y-84036625D01*
X132542901Y-84015313D01*
X132541589Y-83987758D01*
X132540733Y-83952138D01*
X132540240Y-83906633D01*
X132540019Y-83849423D01*
X132539988Y-83808966D01*
X132692733Y-83808966D01*
X132693157Y-83862206D01*
X132694302Y-83912446D01*
X132696169Y-83957126D01*
X132698760Y-83993688D01*
X132702078Y-84019575D01*
X132704777Y-84029838D01*
X132711741Y-84044153D01*
X132720453Y-84055319D01*
X132732708Y-84063697D01*
X132750302Y-84069647D01*
X132775031Y-84073532D01*
X132808691Y-84075712D01*
X132853078Y-84076547D01*
X132909988Y-84076400D01*
X132935207Y-84076162D01*
X132989979Y-84075544D01*
X133031771Y-84074851D01*
X133062611Y-84073871D01*
X133084527Y-84072395D01*
X133099545Y-84070210D01*
X133109694Y-84067105D01*
X133117000Y-84062871D01*
X133123491Y-84057295D01*
X133124365Y-84056476D01*
X133134694Y-84044636D01*
X133142872Y-84029572D01*
X133149096Y-84009616D01*
X133153565Y-83983100D01*
X133156476Y-83948353D01*
X133158026Y-83903707D01*
X133158413Y-83847494D01*
X133157834Y-83778044D01*
X133157784Y-83774227D01*
X133156857Y-83704787D01*
X133155187Y-83648895D01*
X133151372Y-83605107D01*
X133144007Y-83571978D01*
X133131690Y-83548063D01*
X133113018Y-83531917D01*
X133086586Y-83522097D01*
X133050991Y-83517157D01*
X133004830Y-83515653D01*
X132946700Y-83516141D01*
X132907657Y-83516756D01*
X132850589Y-83517764D01*
X132806569Y-83519215D01*
X132773637Y-83521624D01*
X132749833Y-83525503D01*
X132733198Y-83531366D01*
X132721771Y-83539724D01*
X132713595Y-83551091D01*
X132706708Y-83565980D01*
X132705181Y-83569756D01*
X132701332Y-83587281D01*
X132698191Y-83617155D01*
X132695757Y-83656819D01*
X132694035Y-83703714D01*
X132693026Y-83755282D01*
X132692733Y-83808966D01*
X132539988Y-83808966D01*
X132539976Y-83792987D01*
X132540016Y-83725758D01*
X132540205Y-83671751D01*
X132540647Y-83629182D01*
X132541445Y-83596265D01*
X132542702Y-83571216D01*
X132544522Y-83552250D01*
X132547009Y-83537582D01*
X132550266Y-83525426D01*
X132554396Y-83513998D01*
X132556445Y-83508915D01*
X132579427Y-83461273D01*
X132604669Y-83426195D01*
X132630957Y-83403207D01*
X132650232Y-83390852D01*
X132669155Y-83381215D01*
X132689972Y-83373915D01*
X132714926Y-83368574D01*
X132746263Y-83364812D01*
X132786226Y-83362249D01*
X132837061Y-83360505D01*
X132889975Y-83359392D01*
X132966550Y-83358652D01*
X133029869Y-83359516D01*
G37*
G36*
X133634341Y-83356803D02*
G01*
X133649954Y-83357565D01*
X133660749Y-83357772D01*
X133683958Y-83357789D01*
X133701897Y-83358977D01*
X133715242Y-83363048D01*
X133724672Y-83371711D01*
X133730865Y-83386675D01*
X133734497Y-83409651D01*
X133736248Y-83442349D01*
X133736795Y-83486477D01*
X133736816Y-83543747D01*
X133736815Y-83549653D01*
X133736815Y-83717950D01*
X133787465Y-83717771D01*
X133840390Y-83714919D01*
X133879354Y-83706796D01*
X133904314Y-83693411D01*
X133909413Y-83687918D01*
X133916554Y-83676847D01*
X133929772Y-83654838D01*
X133947809Y-83624045D01*
X133969407Y-83586623D01*
X133993307Y-83544726D01*
X134002770Y-83528013D01*
X134027144Y-83485179D01*
X134049651Y-83446203D01*
X134069050Y-83413188D01*
X134084100Y-83388240D01*
X134093557Y-83373463D01*
X134095468Y-83370904D01*
X134104040Y-83364297D01*
X134117951Y-83360275D01*
X134140466Y-83358285D01*
X134172928Y-83357772D01*
X134205735Y-83358231D01*
X134226634Y-83359979D01*
X134238708Y-83363570D01*
X134245038Y-83369561D01*
X134245788Y-83370904D01*
X134249781Y-83387465D01*
X134248859Y-83395291D01*
X134244414Y-83404180D01*
X134233648Y-83424008D01*
X134217736Y-83452709D01*
X134197849Y-83488219D01*
X134175161Y-83528473D01*
X134150844Y-83571406D01*
X134126071Y-83614954D01*
X134102016Y-83657051D01*
X134079850Y-83695634D01*
X134060747Y-83728636D01*
X134045881Y-83753995D01*
X134036422Y-83769644D01*
X134034670Y-83772351D01*
X134030009Y-83788487D01*
X134033249Y-83795843D01*
X134052497Y-83822950D01*
X134070144Y-83848867D01*
X134087855Y-83876253D01*
X134107294Y-83907770D01*
X134130125Y-83946079D01*
X134158012Y-83993840D01*
X134169890Y-84014346D01*
X134201368Y-84068839D01*
X134226065Y-84111888D01*
X134244744Y-84145019D01*
X134258169Y-84169761D01*
X134267103Y-84187641D01*
X134272309Y-84200188D01*
X134274552Y-84208929D01*
X134274594Y-84215391D01*
X134273210Y-84221072D01*
X134269679Y-84227840D01*
X134262336Y-84232139D01*
X134248264Y-84234518D01*
X134224545Y-84235522D01*
X134195198Y-84235704D01*
X134159698Y-84235246D01*
X134136095Y-84233551D01*
X134121296Y-84230141D01*
X134112210Y-84224538D01*
X134110322Y-84222573D01*
X134103439Y-84212488D01*
X134090391Y-84191341D01*
X134072374Y-84161148D01*
X134050583Y-84123925D01*
X134026213Y-84081689D01*
X134011327Y-84055616D01*
X133985809Y-84011337D01*
X133961877Y-83970911D01*
X133940782Y-83936362D01*
X133923772Y-83909715D01*
X133912096Y-83892992D01*
X133908285Y-83888659D01*
X133898102Y-83882453D01*
X133883182Y-83878494D01*
X133860399Y-83876342D01*
X133826630Y-83875561D01*
X133814773Y-83875527D01*
X133736815Y-83875527D01*
X133736815Y-84046611D01*
X133736545Y-84107841D01*
X133735697Y-84155165D01*
X133734217Y-84189674D01*
X133732050Y-84212462D01*
X133729142Y-84224619D01*
X133727811Y-84226700D01*
X133715143Y-84231574D01*
X133690188Y-84234688D01*
X133658026Y-84235704D01*
X133623970Y-84234550D01*
X133599715Y-84231314D01*
X133588242Y-84226700D01*
X133586190Y-84220837D01*
X133584443Y-84207093D01*
X133582983Y-84184598D01*
X133581793Y-84152487D01*
X133580853Y-84109892D01*
X133580146Y-84055946D01*
X133579654Y-83989780D01*
X133579358Y-83910528D01*
X133579241Y-83817322D01*
X133579238Y-83795502D01*
X133579147Y-83703071D01*
X133579013Y-83624525D01*
X133579045Y-83558746D01*
X133579451Y-83504613D01*
X133580440Y-83461008D01*
X133582220Y-83426811D01*
X133584999Y-83400901D01*
X133588987Y-83382160D01*
X133594391Y-83369469D01*
X133601420Y-83361707D01*
X133610282Y-83357755D01*
X133621186Y-83356494D01*
X133634341Y-83356803D01*
G37*
G36*
X134966630Y-83718076D02*
G01*
X135032864Y-83718476D01*
X135086076Y-83719178D01*
X135127255Y-83720212D01*
X135157393Y-83721607D01*
X135177481Y-83723392D01*
X135188510Y-83725596D01*
X135191031Y-83726954D01*
X135195920Y-83739558D01*
X135199052Y-83764096D01*
X135200035Y-83794062D01*
X135200177Y-83815362D01*
X135199646Y-83832593D01*
X135197008Y-83846187D01*
X135190831Y-83856572D01*
X135179680Y-83864179D01*
X135162122Y-83869436D01*
X135136723Y-83872775D01*
X135102050Y-83874623D01*
X135056668Y-83875411D01*
X134999144Y-83875570D01*
X134928233Y-83875527D01*
X134689784Y-83875527D01*
X134690208Y-83918673D01*
X134694537Y-83966175D01*
X134706744Y-84001812D01*
X134727244Y-84026739D01*
X134729715Y-84028650D01*
X134736466Y-84033174D01*
X134744320Y-84036767D01*
X134755033Y-84039559D01*
X134770362Y-84041683D01*
X134792064Y-84043271D01*
X134821893Y-84044454D01*
X134861608Y-84045365D01*
X134912963Y-84046136D01*
X134971764Y-84046831D01*
X135035148Y-84047578D01*
X135085182Y-84048326D01*
X135123520Y-84049201D01*
X135151818Y-84050331D01*
X135171733Y-84051846D01*
X135184919Y-84053872D01*
X135193032Y-84056537D01*
X135197729Y-84059970D01*
X135200665Y-84064298D01*
X135200787Y-84064523D01*
X135205009Y-84080470D01*
X135207095Y-84105607D01*
X135207247Y-84135912D01*
X135205669Y-84167360D01*
X135202563Y-84195929D01*
X135198132Y-84217596D01*
X135192578Y-84228337D01*
X135192532Y-84228367D01*
X135182184Y-84230239D01*
X135159120Y-84231780D01*
X135125630Y-84232992D01*
X135084001Y-84233876D01*
X135036523Y-84234432D01*
X134985482Y-84234664D01*
X134933168Y-84234571D01*
X134881870Y-84234156D01*
X134833875Y-84233420D01*
X134791471Y-84232364D01*
X134756948Y-84230989D01*
X134732594Y-84229298D01*
X134723551Y-84228080D01*
X134671217Y-84212785D01*
X134628670Y-84189084D01*
X134595076Y-84155879D01*
X134569597Y-84112070D01*
X134551398Y-84056561D01*
X134539644Y-83988251D01*
X134539392Y-83986084D01*
X134536095Y-83942003D01*
X134535059Y-83892043D01*
X134536453Y-83845187D01*
X134536679Y-83841788D01*
X134539345Y-83807216D01*
X134542302Y-83783926D01*
X134546653Y-83768219D01*
X134553503Y-83756393D01*
X134563954Y-83744746D01*
X134566321Y-83742365D01*
X134590735Y-83717950D01*
X134886381Y-83717950D01*
X134966630Y-83718076D01*
G37*
G36*
X135860115Y-83358154D02*
G01*
X135922588Y-83358874D01*
X135976408Y-83360051D01*
X136019981Y-83361642D01*
X136051711Y-83363599D01*
X136069820Y-83365839D01*
X136113885Y-83380627D01*
X136147452Y-83404732D01*
X136173060Y-83440036D01*
X136175071Y-83443845D01*
X136183228Y-83461153D01*
X136188869Y-83478119D01*
X136192572Y-83498283D01*
X136194914Y-83525186D01*
X136196474Y-83562368D01*
X136196923Y-83577760D01*
X136197250Y-83634971D01*
X136194446Y-83679785D01*
X136188111Y-83714559D01*
X136177847Y-83741654D01*
X136166094Y-83759953D01*
X136151318Y-83778738D01*
X136176548Y-83825257D01*
X136201778Y-83871775D01*
X136201778Y-83988083D01*
X136201637Y-84032891D01*
X136200955Y-84065782D01*
X136199344Y-84089847D01*
X136196416Y-84108175D01*
X136191782Y-84123856D01*
X136185053Y-84139979D01*
X136181809Y-84146989D01*
X136161692Y-84181302D01*
X136136916Y-84205799D01*
X136129843Y-84210771D01*
X136097847Y-84231953D01*
X135815898Y-84233947D01*
X135743302Y-84234432D01*
X135684169Y-84234715D01*
X135636959Y-84234727D01*
X135600128Y-84234403D01*
X135572135Y-84233676D01*
X135551436Y-84232478D01*
X135536491Y-84230743D01*
X135525755Y-84228403D01*
X135517688Y-84225393D01*
X135510746Y-84221646D01*
X135509111Y-84220651D01*
X135498891Y-84214140D01*
X135490292Y-84207393D01*
X135483174Y-84199130D01*
X135477398Y-84188071D01*
X135472823Y-84172938D01*
X135469309Y-84152450D01*
X135466716Y-84125328D01*
X135464904Y-84090293D01*
X135463734Y-84046064D01*
X135463065Y-83991363D01*
X135462756Y-83924910D01*
X135462669Y-83845425D01*
X135462665Y-83796238D01*
X135462676Y-83708800D01*
X135462819Y-83635109D01*
X135463262Y-83573902D01*
X135464168Y-83523919D01*
X135464523Y-83514661D01*
X135620242Y-83514661D01*
X135620242Y-83796394D01*
X135620242Y-84078127D01*
X135817420Y-84078127D01*
X135878671Y-84078008D01*
X135926674Y-84077586D01*
X135963187Y-84076765D01*
X135989969Y-84075450D01*
X136008778Y-84073545D01*
X136021372Y-84070952D01*
X136029509Y-84067577D01*
X136031276Y-84066446D01*
X136038941Y-84059882D01*
X136043822Y-84051031D01*
X136046537Y-84036686D01*
X136047708Y-84013639D01*
X136047953Y-83980153D01*
X136047789Y-83944842D01*
X136046016Y-83918527D01*
X136040711Y-83899886D01*
X136029952Y-83887597D01*
X136011816Y-83880339D01*
X135984380Y-83876790D01*
X135945723Y-83875626D01*
X135895797Y-83875527D01*
X135843819Y-83875362D01*
X135804946Y-83874197D01*
X135777273Y-83871028D01*
X135758897Y-83864850D01*
X135747916Y-83854660D01*
X135742425Y-83839452D01*
X135740521Y-83818223D01*
X135740301Y-83793480D01*
X135741644Y-83757314D01*
X135745589Y-83734475D01*
X135749829Y-83726888D01*
X135760669Y-83723904D01*
X135784381Y-83721190D01*
X135818829Y-83718904D01*
X135861879Y-83717205D01*
X135887881Y-83716589D01*
X135940718Y-83715494D01*
X135980427Y-83713664D01*
X136008883Y-83709934D01*
X136027959Y-83703135D01*
X136039531Y-83692101D01*
X136045471Y-83675665D01*
X136047654Y-83652660D01*
X136047954Y-83621920D01*
X136047953Y-83616921D01*
X136048177Y-83589104D01*
X136047804Y-83567116D01*
X136045261Y-83550257D01*
X136038976Y-83537825D01*
X136027378Y-83529121D01*
X136008895Y-83523444D01*
X135981954Y-83520094D01*
X135944985Y-83518370D01*
X135896415Y-83517572D01*
X135834673Y-83516999D01*
X135823456Y-83516881D01*
X135620242Y-83514661D01*
X135464523Y-83514661D01*
X135465703Y-83483898D01*
X135468034Y-83452577D01*
X135471325Y-83428697D01*
X135475743Y-83410994D01*
X135481453Y-83398209D01*
X135488621Y-83389079D01*
X135497412Y-83382344D01*
X135507991Y-83376742D01*
X135518373Y-83371993D01*
X135528033Y-83368121D01*
X135539254Y-83365034D01*
X135553760Y-83362643D01*
X135573279Y-83360860D01*
X135599535Y-83359594D01*
X135634254Y-83358757D01*
X135679162Y-83358260D01*
X135735985Y-83358013D01*
X135790582Y-83357937D01*
X135860115Y-83358154D01*
G37*
G36*
X136547917Y-83359320D02*
G01*
X136577778Y-83360831D01*
X136596268Y-83363349D01*
X136607022Y-83367992D01*
X136613677Y-83375879D01*
X136616051Y-83380283D01*
X136617995Y-83391545D01*
X136619744Y-83416097D01*
X136621293Y-83452225D01*
X136622637Y-83498214D01*
X136623770Y-83552349D01*
X136624689Y-83612914D01*
X136625388Y-83678194D01*
X136625863Y-83746475D01*
X136626108Y-83816040D01*
X136626119Y-83885175D01*
X136625891Y-83952165D01*
X136625419Y-84015295D01*
X136624699Y-84072848D01*
X136623724Y-84123112D01*
X136622491Y-84164369D01*
X136620995Y-84194905D01*
X136619230Y-84213005D01*
X136618419Y-84216457D01*
X136614051Y-84225890D01*
X136607529Y-84231556D01*
X136595472Y-84234363D01*
X136574498Y-84235220D01*
X136549010Y-84235112D01*
X136519087Y-84234401D01*
X136494500Y-84233035D01*
X136479481Y-84231274D01*
X136477539Y-84230735D01*
X136475272Y-84222532D01*
X136473285Y-84200956D01*
X136471577Y-84167636D01*
X136470146Y-84124202D01*
X136468989Y-84072286D01*
X136468104Y-84013519D01*
X136467489Y-83949529D01*
X136467142Y-83881949D01*
X136467060Y-83812408D01*
X136467241Y-83742538D01*
X136467684Y-83673968D01*
X136468385Y-83608330D01*
X136469343Y-83547253D01*
X136470556Y-83492369D01*
X136472021Y-83445308D01*
X136473736Y-83407700D01*
X136475699Y-83381176D01*
X136477908Y-83367367D01*
X136478704Y-83365866D01*
X136492852Y-83361172D01*
X136519548Y-83359046D01*
X136547917Y-83359320D01*
G37*
G36*
X137354354Y-83357941D02*
G01*
X137434959Y-83358440D01*
X137502293Y-83359264D01*
X137556006Y-83360404D01*
X137595748Y-83361854D01*
X137621167Y-83363606D01*
X137631725Y-83365540D01*
X137638998Y-83371350D01*
X137643375Y-83381426D01*
X137645552Y-83399114D01*
X137646224Y-83427761D01*
X137646239Y-83435324D01*
X137645103Y-83469981D01*
X137641904Y-83494572D01*
X137637235Y-83506346D01*
X137627958Y-83509898D01*
X137607528Y-83512510D01*
X137574914Y-83514244D01*
X137529084Y-83515161D01*
X137487161Y-83515350D01*
X137346091Y-83515350D01*
X137346091Y-83856279D01*
X137345930Y-83936226D01*
X137345461Y-84008506D01*
X137344708Y-84071957D01*
X137343695Y-84125417D01*
X137342445Y-84167723D01*
X137340983Y-84197715D01*
X137339331Y-84214229D01*
X137338773Y-84216457D01*
X137334386Y-84225879D01*
X137327791Y-84231585D01*
X137315618Y-84234504D01*
X137294495Y-84235567D01*
X137268989Y-84235704D01*
X137234115Y-84234574D01*
X137209402Y-84231389D01*
X137197518Y-84226700D01*
X137195274Y-84220482D01*
X137193397Y-84206078D01*
X137191863Y-84182553D01*
X137190649Y-84148977D01*
X137189731Y-84104416D01*
X137189086Y-84047938D01*
X137188692Y-83978610D01*
X137188524Y-83895501D01*
X137188514Y-83866523D01*
X137188514Y-83515350D01*
X137043693Y-83515350D01*
X136987009Y-83515000D01*
X136944273Y-83513908D01*
X136914438Y-83512014D01*
X136896459Y-83509257D01*
X136889867Y-83506346D01*
X136884294Y-83492910D01*
X136881184Y-83469462D01*
X136880441Y-83440775D01*
X136881967Y-83411625D01*
X136885665Y-83386785D01*
X136891438Y-83371031D01*
X136892654Y-83369564D01*
X136896792Y-83366808D01*
X136904051Y-83364511D01*
X136915697Y-83362632D01*
X136932996Y-83361130D01*
X136957212Y-83359965D01*
X136989611Y-83359097D01*
X137031458Y-83358485D01*
X137084019Y-83358088D01*
X137148560Y-83357866D01*
X137226344Y-83357779D01*
X137260828Y-83357772D01*
X137354354Y-83357941D01*
G37*
G36*
X135200221Y-83377020D02*
G01*
X135204469Y-83395725D01*
X135207109Y-83421852D01*
X135207539Y-83436561D01*
X135206171Y-83463547D01*
X135202687Y-83487248D01*
X135200221Y-83496102D01*
X135192903Y-83515350D01*
X134874346Y-83515350D01*
X134795853Y-83515297D01*
X134731025Y-83515105D01*
X134678521Y-83514727D01*
X134636998Y-83514115D01*
X134605115Y-83513221D01*
X134581531Y-83511997D01*
X134564903Y-83510395D01*
X134553890Y-83508367D01*
X134547149Y-83505866D01*
X134543998Y-83503558D01*
X134537408Y-83489173D01*
X134533338Y-83464875D01*
X134531962Y-83435574D01*
X134533453Y-83406180D01*
X134537985Y-83381603D01*
X134539525Y-83377020D01*
X134546843Y-83357772D01*
X134869873Y-83357772D01*
X135192903Y-83357772D01*
X135200221Y-83377020D01*
G37*
G36*
X137698765Y-75285432D02*
G01*
X137761707Y-75295723D01*
X137816398Y-75318337D01*
X137862146Y-75352732D01*
X137898258Y-75398364D01*
X137924041Y-75454693D01*
X137926995Y-75464098D01*
X137933847Y-75491326D01*
X137938191Y-75516554D01*
X137938980Y-75527155D01*
X137937878Y-75536746D01*
X137934623Y-75560465D01*
X137929322Y-75597603D01*
X137922080Y-75647450D01*
X137913003Y-75709298D01*
X137902197Y-75782438D01*
X137889768Y-75866161D01*
X137875822Y-75959757D01*
X137860464Y-76062519D01*
X137843801Y-76173736D01*
X137825938Y-76292701D01*
X137806982Y-76418704D01*
X137787038Y-76551036D01*
X137766212Y-76688988D01*
X137744610Y-76831852D01*
X137722338Y-76978918D01*
X137709145Y-77065926D01*
X137479213Y-78581672D01*
X137499013Y-78709235D01*
X137510626Y-78786383D01*
X137519716Y-78852939D01*
X137526690Y-78913031D01*
X137531956Y-78970787D01*
X137535921Y-79030332D01*
X137538991Y-79095794D01*
X137540099Y-79125690D01*
X137542187Y-79234499D01*
X137541160Y-79346192D01*
X137537195Y-79457532D01*
X137530472Y-79565281D01*
X137521170Y-79666204D01*
X137509467Y-79757063D01*
X137503046Y-79796173D01*
X137499448Y-79820159D01*
X137498093Y-79837577D01*
X137498914Y-79843790D01*
X137507211Y-79843825D01*
X137527546Y-79841429D01*
X137557214Y-79836990D01*
X137593511Y-79830892D01*
X137610065Y-79827932D01*
X137724663Y-79808539D01*
X137849825Y-79790000D01*
X137981106Y-79772923D01*
X138114064Y-79757912D01*
X138148840Y-79754375D01*
X138200850Y-79749540D01*
X138250480Y-79745710D01*
X138300546Y-79742777D01*
X138353864Y-79740632D01*
X138413251Y-79739165D01*
X138481523Y-79738267D01*
X138561496Y-79737829D01*
X138576697Y-79737792D01*
X138639751Y-79737831D01*
X138699103Y-79738191D01*
X138752817Y-79738834D01*
X138798957Y-79739726D01*
X138835587Y-79740829D01*
X138860772Y-79742109D01*
X138871665Y-79743292D01*
X138894751Y-79752253D01*
X138919880Y-79767929D01*
X138929747Y-79775992D01*
X138956696Y-79809347D01*
X138970542Y-79847202D01*
X138970993Y-79886775D01*
X138957757Y-79925286D01*
X138947110Y-79941724D01*
X138936401Y-79955341D01*
X138926008Y-79966222D01*
X138914194Y-79974657D01*
X138899224Y-79980934D01*
X138879361Y-79985340D01*
X138852869Y-79988166D01*
X138818012Y-79989698D01*
X138773054Y-79990226D01*
X138716259Y-79990037D01*
X138659238Y-79989547D01*
X138548046Y-79989252D01*
X138447346Y-79990746D01*
X138352701Y-79994277D01*
X138259677Y-80000095D01*
X138163835Y-80008447D01*
X138060741Y-80019582D01*
X138006416Y-80026107D01*
X137965021Y-80031554D01*
X137915640Y-80038605D01*
X137860375Y-80046907D01*
X137801328Y-80056112D01*
X137740600Y-80065867D01*
X137680291Y-80075821D01*
X137622502Y-80085625D01*
X137569335Y-80094927D01*
X137522890Y-80103375D01*
X137485269Y-80110620D01*
X137458573Y-80116311D01*
X137445909Y-80119710D01*
X137438719Y-80128372D01*
X137431209Y-80146407D01*
X137428661Y-80155185D01*
X137407382Y-80231132D01*
X137380304Y-80316422D01*
X137348815Y-80407229D01*
X137314306Y-80499722D01*
X137278167Y-80590073D01*
X137241789Y-80674455D01*
X137233546Y-80692590D01*
X137218926Y-80724978D01*
X137207234Y-80751983D01*
X137199579Y-80770957D01*
X137197074Y-80779250D01*
X137197147Y-80779388D01*
X137205014Y-80780714D01*
X137225748Y-80783450D01*
X137257298Y-80787347D01*
X137297615Y-80792156D01*
X137344650Y-80797626D01*
X137383610Y-80802071D01*
X137595015Y-80828990D01*
X137796631Y-80860727D01*
X137987877Y-80897123D01*
X138168169Y-80938018D01*
X138336926Y-80983253D01*
X138493566Y-81032668D01*
X138637505Y-81086106D01*
X138768163Y-81143405D01*
X138884956Y-81204407D01*
X138912007Y-81220270D01*
X138958007Y-81252450D01*
X138989427Y-81285366D01*
X139006696Y-81319869D01*
X139010241Y-81356808D01*
X139000718Y-81396437D01*
X138979367Y-81433273D01*
X138948445Y-81458954D01*
X138909442Y-81472465D01*
X138886141Y-81474346D01*
X138865035Y-81473408D01*
X138846475Y-81469563D01*
X138826223Y-81461256D01*
X138800041Y-81446938D01*
X138782089Y-81436248D01*
X138676160Y-81378109D01*
X138557400Y-81323963D01*
X138425597Y-81273751D01*
X138280535Y-81227418D01*
X138122001Y-81184906D01*
X137949779Y-81146161D01*
X137763656Y-81111124D01*
X137563417Y-81079740D01*
X137348848Y-81051952D01*
X137304821Y-81046891D01*
X137237226Y-81039345D01*
X137183015Y-81033516D01*
X137140668Y-81029340D01*
X137108668Y-81026753D01*
X137085496Y-81025693D01*
X137069635Y-81026095D01*
X137059566Y-81027895D01*
X137053770Y-81031030D01*
X137050730Y-81035437D01*
X137050412Y-81036218D01*
X137043178Y-81049937D01*
X137028585Y-81073681D01*
X137008085Y-81105330D01*
X136983131Y-81142762D01*
X136955177Y-81183855D01*
X136925676Y-81226490D01*
X136896081Y-81268543D01*
X136867846Y-81307895D01*
X136842423Y-81342423D01*
X136825019Y-81365234D01*
X136801772Y-81395355D01*
X136782275Y-81421289D01*
X136768209Y-81440749D01*
X136761253Y-81451448D01*
X136760803Y-81452635D01*
X136766401Y-81458859D01*
X136781785Y-81472441D01*
X136804840Y-81491600D01*
X136833450Y-81514552D01*
X136845220Y-81523805D01*
X136968354Y-81621897D01*
X137082293Y-81716377D01*
X137186574Y-81806795D01*
X137280736Y-81892697D01*
X137364317Y-81973631D01*
X137436855Y-82049144D01*
X137497889Y-82118783D01*
X137546956Y-82182096D01*
X137583596Y-82238631D01*
X137593776Y-82257474D01*
X137610863Y-82293569D01*
X137620153Y-82321201D01*
X137622140Y-82344414D01*
X137617315Y-82367257D01*
X137609499Y-82386634D01*
X137586219Y-82422769D01*
X137556144Y-82447091D01*
X137521581Y-82459718D01*
X137484841Y-82460766D01*
X137448232Y-82450354D01*
X137414063Y-82428597D01*
X137384643Y-82395613D01*
X137372253Y-82374589D01*
X137348180Y-82335194D01*
X137312324Y-82288247D01*
X137265437Y-82234447D01*
X137208268Y-82174496D01*
X137141571Y-82109095D01*
X137066096Y-82038943D01*
X136982594Y-81964741D01*
X136891817Y-81887190D01*
X136794516Y-81806991D01*
X136691443Y-81724844D01*
X136597941Y-81652553D01*
X136590091Y-81654005D01*
X136573969Y-81664601D01*
X136549026Y-81684782D01*
X136514710Y-81714988D01*
X136478411Y-81748274D01*
X136301909Y-81902490D01*
X136119155Y-82043167D01*
X135930296Y-82170233D01*
X135735484Y-82283614D01*
X135534865Y-82383236D01*
X135328590Y-82469025D01*
X135116807Y-82540907D01*
X134899665Y-82598810D01*
X134677314Y-82642659D01*
X134665293Y-82644604D01*
X134563887Y-82658754D01*
X134454300Y-82670323D01*
X134340258Y-82679126D01*
X134225487Y-82684978D01*
X134113717Y-82687693D01*
X134008674Y-82687086D01*
X133914085Y-82682972D01*
X133905648Y-82682383D01*
X133673417Y-82658350D01*
X133446643Y-82620345D01*
X133225472Y-82568434D01*
X133010050Y-82502681D01*
X132800522Y-82423152D01*
X132597034Y-82329911D01*
X132399732Y-82223022D01*
X132208760Y-82102551D01*
X132024266Y-81968562D01*
X131846393Y-81821120D01*
X131731531Y-81715353D01*
X131658153Y-81644957D01*
X131600427Y-81689090D01*
X131483153Y-81780516D01*
X131373384Y-81869653D01*
X131271764Y-81955885D01*
X131178936Y-82038598D01*
X131095543Y-82117174D01*
X131022229Y-82190998D01*
X130959637Y-82259455D01*
X130908410Y-82321929D01*
X130869191Y-82377803D01*
X130853960Y-82403670D01*
X130831581Y-82430458D01*
X130798986Y-82450777D01*
X130764610Y-82461207D01*
X130727863Y-82460299D01*
X130692755Y-82446751D01*
X130662171Y-82422878D01*
X130638994Y-82390995D01*
X130626107Y-82353417D01*
X130625508Y-82349528D01*
X130626519Y-82316729D01*
X130638051Y-82278516D01*
X130660415Y-82234438D01*
X130693924Y-82184041D01*
X130738890Y-82126873D01*
X130795625Y-82062482D01*
X130864441Y-81990414D01*
X130892652Y-81962086D01*
X130960421Y-81896819D01*
X131038358Y-81825474D01*
X131124046Y-81750148D01*
X131215068Y-81672936D01*
X131309007Y-81595937D01*
X131376904Y-81541953D01*
X131410020Y-81515907D01*
X131439189Y-81492836D01*
X131462271Y-81474443D01*
X131477127Y-81462430D01*
X131481445Y-81458769D01*
X131481268Y-81449206D01*
X131471504Y-81431807D01*
X131462840Y-81420254D01*
X131414746Y-81358352D01*
X131362456Y-81287455D01*
X131308938Y-81211756D01*
X131257159Y-81135446D01*
X131212425Y-81066430D01*
X131184671Y-81022444D01*
X131126962Y-81027466D01*
X130967808Y-81043022D01*
X130807740Y-81061940D01*
X130649969Y-81083746D01*
X130497705Y-81107964D01*
X130354156Y-81134119D01*
X130228839Y-81160317D01*
X130095751Y-81191948D01*
X129974855Y-81224610D01*
X129863332Y-81259329D01*
X129758368Y-81297130D01*
X129657144Y-81339039D01*
X129556846Y-81386082D01*
X129454655Y-81439285D01*
X129438441Y-81448162D01*
X129392785Y-81468037D01*
X129352364Y-81474100D01*
X129316319Y-81466257D01*
X129283793Y-81444410D01*
X129269460Y-81429255D01*
X129246523Y-81391715D01*
X129237498Y-81351692D01*
X129242458Y-81311598D01*
X129261476Y-81273841D01*
X129264581Y-81269741D01*
X129282484Y-81253084D01*
X129312529Y-81232205D01*
X129352774Y-81208074D01*
X129401282Y-81181663D01*
X129456113Y-81153942D01*
X129515327Y-81125883D01*
X129576985Y-81098456D01*
X129639148Y-81072634D01*
X129699877Y-81049386D01*
X129716728Y-81043340D01*
X129850892Y-80999589D01*
X129998191Y-80958236D01*
X130156887Y-80919649D01*
X130325247Y-80884198D01*
X130501532Y-80852251D01*
X130684009Y-80824177D01*
X130848033Y-80803003D01*
X130896844Y-80797369D01*
X130941674Y-80792399D01*
X130980003Y-80788356D01*
X131009312Y-80785504D01*
X131027080Y-80784104D01*
X131029998Y-80784006D01*
X131044923Y-80782740D01*
X131050493Y-80780004D01*
X131047372Y-80771595D01*
X131039366Y-80754341D01*
X131032562Y-80740610D01*
X131004629Y-80681916D01*
X130974375Y-80612077D01*
X130943105Y-80534513D01*
X130912124Y-80452641D01*
X130882738Y-80369880D01*
X130856251Y-80289648D01*
X130839964Y-80236236D01*
X130828355Y-80197934D01*
X130817575Y-80164849D01*
X130808547Y-80139630D01*
X130802191Y-80124928D01*
X130800346Y-80122375D01*
X130790393Y-80119245D01*
X130767923Y-80113973D01*
X130735203Y-80106996D01*
X130694499Y-80098754D01*
X130648080Y-80089683D01*
X130598211Y-80080223D01*
X130547161Y-80070810D01*
X130497194Y-80061884D01*
X130450580Y-80053882D01*
X130420183Y-80048910D01*
X130332715Y-80035975D01*
X130236820Y-80023507D01*
X130138434Y-80012194D01*
X130043495Y-80002724D01*
X129966609Y-79996394D01*
X129934823Y-79994586D01*
X129893716Y-79992978D01*
X129845318Y-79991583D01*
X129791659Y-79990415D01*
X129734769Y-79989490D01*
X129676678Y-79988821D01*
X129619417Y-79988422D01*
X129565016Y-79988308D01*
X129515505Y-79988493D01*
X129472914Y-79988991D01*
X129439273Y-79989816D01*
X129416612Y-79990983D01*
X129407010Y-79992474D01*
X129391237Y-79994639D01*
X129368354Y-79989106D01*
X129349778Y-79980829D01*
X133506297Y-79980829D01*
X133508593Y-79993531D01*
X133514902Y-80008588D01*
X133525936Y-80027018D01*
X133542407Y-80049837D01*
X133565025Y-80078062D01*
X133594504Y-80112710D01*
X133631556Y-80154799D01*
X133676891Y-80205345D01*
X133731223Y-80265365D01*
X133767134Y-80304914D01*
X133816940Y-80359563D01*
X133864351Y-80411244D01*
X133908286Y-80458802D01*
X133947662Y-80501079D01*
X133981396Y-80536919D01*
X134008405Y-80565166D01*
X134027608Y-80584665D01*
X134037922Y-80594258D01*
X134038294Y-80594538D01*
X134068241Y-80608391D01*
X134096003Y-80611421D01*
X134130312Y-80611421D01*
X134421518Y-80320653D01*
X134487777Y-80254457D01*
X134544137Y-80197940D01*
X134591320Y-80150182D01*
X134630050Y-80110261D01*
X134661051Y-80077255D01*
X134685045Y-80050244D01*
X134702755Y-80028306D01*
X134714906Y-80010521D01*
X134722220Y-79995966D01*
X134725421Y-79983721D01*
X134725232Y-79972864D01*
X134722377Y-79962474D01*
X134717577Y-79951631D01*
X134715139Y-79946685D01*
X134700610Y-79924173D01*
X134682972Y-79905265D01*
X134679854Y-79902806D01*
X134675568Y-79899860D01*
X134670634Y-79897313D01*
X134663993Y-79895137D01*
X134654585Y-79893302D01*
X134641354Y-79891778D01*
X134623238Y-79890538D01*
X134599180Y-79889552D01*
X134568121Y-79888791D01*
X134529001Y-79888225D01*
X134480762Y-79887826D01*
X134422345Y-79887565D01*
X134352692Y-79887412D01*
X134270742Y-79887339D01*
X134175438Y-79887316D01*
X134115752Y-79887315D01*
X134012495Y-79887322D01*
X133923186Y-79887363D01*
X133846768Y-79887468D01*
X133782180Y-79887665D01*
X133728364Y-79887983D01*
X133684260Y-79888451D01*
X133648811Y-79889099D01*
X133620957Y-79889956D01*
X133599640Y-79891050D01*
X133583800Y-79892411D01*
X133572378Y-79894068D01*
X133564316Y-79896049D01*
X133558555Y-79898385D01*
X133554036Y-79901103D01*
X133551649Y-79902806D01*
X133534218Y-79920039D01*
X133518556Y-79942541D01*
X133516364Y-79946685D01*
X133510894Y-79958423D01*
X133507301Y-79969465D01*
X133506297Y-79980829D01*
X129349778Y-79980829D01*
X129342828Y-79977732D01*
X129319124Y-79962371D01*
X129306397Y-79950675D01*
X129283306Y-79915266D01*
X129273285Y-79876930D01*
X129275805Y-79838543D01*
X129290336Y-79802976D01*
X129316349Y-79773103D01*
X129342186Y-79756589D01*
X129353834Y-79751418D01*
X129366218Y-79747368D01*
X129381421Y-79744242D01*
X129401530Y-79741845D01*
X129428628Y-79739980D01*
X129464800Y-79738450D01*
X129512130Y-79737059D01*
X129562403Y-79735846D01*
X129786796Y-79736531D01*
X130019962Y-79748629D01*
X130261014Y-79772063D01*
X130509066Y-79806760D01*
X130613933Y-79824463D01*
X130656104Y-79831769D01*
X130692845Y-79837823D01*
X130721743Y-79842252D01*
X130740381Y-79844684D01*
X130746367Y-79844889D01*
X130746609Y-79836689D01*
X130744647Y-79818258D01*
X130742088Y-79801022D01*
X130731598Y-79727504D01*
X130722227Y-79643743D01*
X130714209Y-79553462D01*
X130707776Y-79460384D01*
X130703158Y-79368229D01*
X130700589Y-79280721D01*
X130700300Y-79201581D01*
X130701631Y-79151953D01*
X130711477Y-78999497D01*
X130727507Y-78843724D01*
X130747494Y-78701731D01*
X130757684Y-78638541D01*
X131848957Y-78638541D01*
X131853013Y-78735650D01*
X131871813Y-78850361D01*
X131904083Y-78958976D01*
X131949548Y-79060906D01*
X132007930Y-79155565D01*
X132078954Y-79242365D01*
X132103117Y-79267212D01*
X132188788Y-79342618D01*
X132279504Y-79404149D01*
X132376392Y-79452415D01*
X132480581Y-79488029D01*
X132534243Y-79500962D01*
X132578589Y-79507876D01*
X132632877Y-79512635D01*
X132692183Y-79515128D01*
X132751583Y-79515247D01*
X132806152Y-79512881D01*
X132850352Y-79508021D01*
X132908000Y-79495538D01*
X132971801Y-79476530D01*
X133035623Y-79453093D01*
X133093335Y-79427321D01*
X133106505Y-79420537D01*
X133205901Y-79359455D01*
X133294560Y-79288090D01*
X133372016Y-79207070D01*
X133437800Y-79117022D01*
X133491444Y-79018576D01*
X133532482Y-78912360D01*
X133557534Y-78814286D01*
X133563558Y-78770680D01*
X133566946Y-78717005D01*
X133567752Y-78657955D01*
X133567111Y-78635696D01*
X134585210Y-78635696D01*
X134586940Y-78715767D01*
X134594316Y-78793302D01*
X134607196Y-78862938D01*
X134609452Y-78871836D01*
X134645534Y-78979954D01*
X134694591Y-79081265D01*
X134755796Y-79174766D01*
X134828321Y-79259455D01*
X134911338Y-79334329D01*
X135004018Y-79398384D01*
X135076224Y-79437222D01*
X135166997Y-79473214D01*
X135265412Y-79498711D01*
X135368071Y-79513385D01*
X135471578Y-79516907D01*
X135572535Y-79508949D01*
X135653384Y-79493022D01*
X135760103Y-79458136D01*
X135858790Y-79411473D01*
X135948948Y-79354118D01*
X136030081Y-79287151D01*
X136101691Y-79211655D01*
X136163283Y-79128712D01*
X136214359Y-79039404D01*
X136254424Y-78944812D01*
X136282979Y-78846020D01*
X136299529Y-78744109D01*
X136303577Y-78640160D01*
X136294626Y-78535257D01*
X136272179Y-78430481D01*
X136235740Y-78326914D01*
X136212083Y-78275851D01*
X136179027Y-78214638D01*
X136144740Y-78161598D01*
X136105413Y-78111401D01*
X136057238Y-78058719D01*
X136056062Y-78057504D01*
X135973602Y-77982780D01*
X135883941Y-77920572D01*
X135788359Y-77871014D01*
X135688133Y-77834239D01*
X135584539Y-77810379D01*
X135478857Y-77799567D01*
X135372363Y-77801937D01*
X135266336Y-77817622D01*
X135162052Y-77846753D01*
X135060790Y-77889465D01*
X134966462Y-77944128D01*
X134875232Y-78013576D01*
X134795405Y-78092622D01*
X134727411Y-78180629D01*
X134671680Y-78276959D01*
X134628641Y-78380974D01*
X134599260Y-78489418D01*
X134589269Y-78558458D01*
X134585210Y-78635696D01*
X133567111Y-78635696D01*
X133566032Y-78598226D01*
X133561840Y-78542511D01*
X133555233Y-78495505D01*
X133553694Y-78487876D01*
X133522517Y-78376858D01*
X133478648Y-78273148D01*
X133422897Y-78177522D01*
X133356077Y-78090759D01*
X133279000Y-78013634D01*
X133192478Y-77946923D01*
X133097323Y-77891405D01*
X132994347Y-77847855D01*
X132884362Y-77817050D01*
X132844429Y-77809434D01*
X132738209Y-77798859D01*
X132631213Y-77802148D01*
X132525270Y-77818723D01*
X132422211Y-77848006D01*
X132323866Y-77889418D01*
X132232064Y-77942382D01*
X132148636Y-78006319D01*
X132111973Y-78040867D01*
X132034779Y-78128501D01*
X131970442Y-78222231D01*
X131919326Y-78321078D01*
X131881797Y-78424064D01*
X131858219Y-78530211D01*
X131848957Y-78638541D01*
X130757684Y-78638541D01*
X130766855Y-78581672D01*
X130536547Y-77065926D01*
X130507768Y-76876347D01*
X130481231Y-76701168D01*
X130456875Y-76539962D01*
X130434637Y-76392298D01*
X130414455Y-76257749D01*
X130396266Y-76135886D01*
X130380007Y-76026280D01*
X130365617Y-75928503D01*
X130353033Y-75842125D01*
X130342193Y-75766718D01*
X130333034Y-75701853D01*
X130325494Y-75647103D01*
X130319510Y-75602037D01*
X130315020Y-75566227D01*
X130311963Y-75539245D01*
X130310274Y-75520662D01*
X130309892Y-75510049D01*
X130309961Y-75508910D01*
X130322354Y-75450934D01*
X130347715Y-75398785D01*
X130384618Y-75354475D01*
X130431639Y-75320016D01*
X130450568Y-75310500D01*
X130507130Y-75291561D01*
X130563139Y-75285024D01*
X130612955Y-75290722D01*
X130623997Y-75294355D01*
X130648283Y-75302999D01*
X130685020Y-75316359D01*
X130733415Y-75334138D01*
X130792673Y-75356042D01*
X130862003Y-75381775D01*
X130940610Y-75411039D01*
X131027702Y-75443540D01*
X131122484Y-75478982D01*
X131224164Y-75517069D01*
X131331949Y-75557505D01*
X131445044Y-75599994D01*
X131562657Y-75644241D01*
X131683994Y-75689949D01*
X131724832Y-75705346D01*
X132800618Y-76111040D01*
X132869145Y-76083957D01*
X133076107Y-76010150D01*
X133288512Y-75949952D01*
X133505173Y-75903508D01*
X133724906Y-75870960D01*
X133946528Y-75852454D01*
X134168852Y-75848133D01*
X134390694Y-75858142D01*
X134571055Y-75877094D01*
X134779420Y-75910885D01*
X134982089Y-75956492D01*
X135182450Y-76014785D01*
X135373833Y-76082739D01*
X135446332Y-76110681D01*
X136544409Y-75696393D01*
X137642487Y-75282106D01*
X137698765Y-75285432D01*
G37*
G36*
X135546728Y-78272876D02*
G01*
X135616098Y-78299711D01*
X135616490Y-78299906D01*
X135684162Y-78340311D01*
X135739359Y-78388431D01*
X135783070Y-78445348D01*
X135816283Y-78512147D01*
X135820633Y-78523670D01*
X135838866Y-78594538D01*
X135843358Y-78665990D01*
X135835037Y-78736332D01*
X135814834Y-78803872D01*
X135783678Y-78866917D01*
X135742497Y-78923776D01*
X135692222Y-78972756D01*
X135633781Y-79012163D01*
X135568105Y-79040306D01*
X135531704Y-79049864D01*
X135487864Y-79055682D01*
X135437789Y-79057169D01*
X135388366Y-79054412D01*
X135346480Y-79047501D01*
X135346357Y-79047471D01*
X135275334Y-79022162D01*
X135211062Y-78984321D01*
X135155039Y-78935474D01*
X135108763Y-78877146D01*
X135073733Y-78810863D01*
X135053994Y-78749731D01*
X135043491Y-78675743D01*
X135046546Y-78604636D01*
X135061905Y-78537415D01*
X135088034Y-78475741D01*
X135250060Y-78475741D01*
X135256442Y-78512703D01*
X135273739Y-78542386D01*
X135299175Y-78563661D01*
X135329974Y-78575398D01*
X135363360Y-78576466D01*
X135396557Y-78565735D01*
X135422929Y-78546120D01*
X135444645Y-78515412D01*
X135453463Y-78482215D01*
X135450562Y-78449247D01*
X135437118Y-78419229D01*
X135414308Y-78394881D01*
X135383310Y-78378922D01*
X135348427Y-78373989D01*
X135312712Y-78381394D01*
X135282765Y-78400758D01*
X135261213Y-78429366D01*
X135250679Y-78464501D01*
X135250060Y-78475741D01*
X135088034Y-78475741D01*
X135088313Y-78475083D01*
X135124514Y-78418644D01*
X135169255Y-78369102D01*
X135221279Y-78327459D01*
X135279331Y-78294721D01*
X135342158Y-78271889D01*
X135408503Y-78259969D01*
X135477111Y-78259964D01*
X135546728Y-78272876D01*
G37*
G36*
X132783306Y-78267276D02*
G01*
X132856240Y-78287060D01*
X132922650Y-78319637D01*
X132981328Y-78364264D01*
X133031065Y-78420201D01*
X133069520Y-78484355D01*
X133096346Y-78555773D01*
X133109093Y-78628085D01*
X133108485Y-78699727D01*
X133095248Y-78769135D01*
X133070106Y-78834747D01*
X133033785Y-78894998D01*
X132987011Y-78948325D01*
X132930507Y-78993164D01*
X132865000Y-79027952D01*
X132808584Y-79046983D01*
X132761932Y-79054830D01*
X132708082Y-79057171D01*
X132653764Y-79054098D01*
X132605705Y-79045703D01*
X132600006Y-79044150D01*
X132530365Y-79017138D01*
X132468200Y-78977820D01*
X132427520Y-78941848D01*
X132379275Y-78883822D01*
X132343918Y-78820166D01*
X132321265Y-78752620D01*
X132311128Y-78682924D01*
X132313324Y-78612817D01*
X132327666Y-78544039D01*
X132353969Y-78478329D01*
X132360958Y-78467152D01*
X132515756Y-78467152D01*
X132519316Y-78500344D01*
X132533407Y-78530134D01*
X132555812Y-78554376D01*
X132584313Y-78570922D01*
X132616691Y-78577625D01*
X132650730Y-78572340D01*
X132663497Y-78566814D01*
X132693336Y-78543757D01*
X132714100Y-78512130D01*
X132720656Y-78491113D01*
X132719610Y-78462281D01*
X132708624Y-78431263D01*
X132690446Y-78403889D01*
X132672168Y-78388288D01*
X132638227Y-78376241D01*
X132602275Y-78376684D01*
X132568223Y-78388438D01*
X132539979Y-78410322D01*
X132524946Y-78432705D01*
X132515756Y-78467152D01*
X132360958Y-78467152D01*
X132392049Y-78417427D01*
X132441718Y-78363072D01*
X132493483Y-78322942D01*
X132553635Y-78290287D01*
X132616804Y-78270157D01*
X132686556Y-78261511D01*
X132705057Y-78261024D01*
X132783306Y-78267276D01*
G37*
D12*
%TO.C,C1*%
X146658420Y-90930000D02*
X146939580Y-90930000D01*
X146658420Y-91950000D02*
X146939580Y-91950000D01*
%TO.C,U1*%
X144927000Y-85761000D02*
X144927000Y-86221000D01*
X144927000Y-89981000D02*
X144927000Y-89521000D01*
X145637000Y-85761000D02*
X144927000Y-85761000D01*
X145637000Y-89981000D02*
X144927000Y-89981000D01*
X146437000Y-85761000D02*
X147137000Y-85761000D01*
X146437000Y-89981000D02*
X147137000Y-89981000D01*
X147937000Y-85761000D02*
X148647000Y-85761000D01*
X147937000Y-89981000D02*
X148347000Y-89981000D01*
X148647000Y-85761000D02*
X148647000Y-86221000D01*
X148647000Y-89521000D02*
X148647000Y-89741000D01*
X148887000Y-90311000D02*
X148407000Y-90311000D01*
X148647000Y-89981000D01*
X148887000Y-90311000D01*
G36*
X148887000Y-90311000D02*
G01*
X148407000Y-90311000D01*
X148647000Y-89981000D01*
X148887000Y-90311000D01*
G37*
%TO.C,J3*%
X127721220Y-85815385D02*
X135921220Y-85815385D01*
X127721220Y-94015385D02*
X127721220Y-85815385D01*
X127721220Y-94015385D02*
X135921220Y-94015385D01*
X131821220Y-93515385D02*
X131321220Y-94015385D01*
X132321220Y-94015385D02*
X131821220Y-93515385D01*
X135921220Y-94015385D02*
X135921220Y-85815385D01*
%TO.C,J4*%
X131258000Y-102810000D02*
X132588000Y-102810000D01*
X131258000Y-104140000D02*
X131258000Y-102810000D01*
X131258000Y-105410000D02*
X131258000Y-108010000D01*
X131258000Y-105410000D02*
X133918000Y-105410000D01*
X131258000Y-108010000D02*
X133918000Y-108010000D01*
X133918000Y-105410000D02*
X133918000Y-108010000D01*
%TO.C,J1*%
X142401153Y-74055632D02*
X142401153Y-82255632D01*
X142401153Y-74055632D02*
X150601153Y-74055632D01*
X142401153Y-78655632D02*
X142901153Y-78155632D01*
X142401153Y-82255632D02*
X150601153Y-82255632D01*
X142901153Y-78155632D02*
X142401153Y-77655632D01*
X150601153Y-74055632D02*
X150601153Y-82255632D01*
%TO.C,J2*%
X156489122Y-85836874D02*
X156489122Y-94036874D01*
X160089122Y-85836874D02*
X160589122Y-86336874D01*
X160589122Y-86336874D02*
X161089122Y-85836874D01*
X164689122Y-85836874D02*
X156489122Y-85836874D01*
X164689122Y-85836874D02*
X164689122Y-94036874D01*
X164689122Y-94036874D02*
X156489122Y-94036874D01*
%TO.C,U2*%
X142657000Y-95722000D02*
X141857000Y-95722000D01*
X142657000Y-95722000D02*
X143457000Y-95722000D01*
X142657000Y-98842000D02*
X141857000Y-98842000D01*
X142657000Y-98842000D02*
X143457000Y-98842000D01*
X144197000Y-99122000D02*
X143717000Y-99122000D01*
X143957000Y-98792000D01*
X144197000Y-99122000D01*
G36*
X144197000Y-99122000D02*
G01*
X143717000Y-99122000D01*
X143957000Y-98792000D01*
X144197000Y-99122000D01*
G37*
D13*
%TO.C,J5*%
X156260000Y-101816000D02*
X160990000Y-101816000D01*
X156260000Y-102796000D02*
X156260000Y-101816000D01*
X156260000Y-115916000D02*
X156260000Y-111636000D01*
X162360000Y-103536000D02*
X162360000Y-115916000D01*
X162360000Y-115916000D02*
X156260000Y-115916000D01*
D14*
X164910000Y-102616000D02*
G75*
G02*
X164710000Y-102616000I-100000J0D01*
G01*
X164710000Y-102616000D02*
G75*
G02*
X164910000Y-102616000I100000J0D01*
G01*
D12*
%TO.C,U3*%
X150506500Y-95656000D02*
X149706500Y-95656000D01*
X150506500Y-95656000D02*
X151306500Y-95656000D01*
X150506500Y-98776000D02*
X149706500Y-98776000D01*
X150506500Y-98776000D02*
X151306500Y-98776000D01*
X152046500Y-99056000D02*
X151566500Y-99056000D01*
X151806500Y-98726000D01*
X152046500Y-99056000D01*
G36*
X152046500Y-99056000D02*
G01*
X151566500Y-99056000D01*
X151806500Y-98726000D01*
X152046500Y-99056000D01*
G37*
%TD*%
M02*
