%TF.GenerationSoftware,KiCad,Pcbnew,8.0.1*%
%TF.CreationDate,2024-04-10T11:13:06-07:00*%
%TF.ProjectId,TS3A5017-Mixer,54533341-3530-4313-972d-4d697865722e,rev?*%
%TF.SameCoordinates,Original*%
%TF.FileFunction,Soldermask,Top*%
%TF.FilePolarity,Negative*%
%FSLAX46Y46*%
G04 Gerber Fmt 4.6, Leading zero omitted, Abs format (unit mm)*
G04 Created by KiCad (PCBNEW 8.0.1) date 2024-04-10 11:13:06*
%MOMM*%
%LPD*%
G01*
G04 APERTURE LIST*
G04 Aperture macros list*
%AMRoundRect*
0 Rectangle with rounded corners*
0 $1 Rounding radius*
0 $2 $3 $4 $5 $6 $7 $8 $9 X,Y pos of 4 corners*
0 Add a 4 corners polygon primitive as box body*
4,1,4,$2,$3,$4,$5,$6,$7,$8,$9,$2,$3,0*
0 Add four circle primitives for the rounded corners*
1,1,$1+$1,$2,$3*
1,1,$1+$1,$4,$5*
1,1,$1+$1,$6,$7*
1,1,$1+$1,$8,$9*
0 Add four rect primitives between the rounded corners*
20,1,$1+$1,$2,$3,$4,$5,0*
20,1,$1+$1,$4,$5,$6,$7,0*
20,1,$1+$1,$6,$7,$8,$9,0*
20,1,$1+$1,$8,$9,$2,$3,0*%
%AMFreePoly0*
4,1,10,0.140000,-0.355000,0.121244,-0.425000,0.070000,-0.476244,0.000000,-0.495000,-0.070000,-0.476244,-0.121244,-0.425000,-0.140000,-0.355000,-0.140000,0.355000,0.140000,0.355000,0.140000,-0.355000,0.140000,-0.355000,$1*%
%AMFreePoly1*
4,1,10,0.425000,0.121244,0.476244,0.070000,0.495000,0.000000,0.476244,-0.070000,0.425000,-0.121244,0.355000,-0.140000,-0.355000,-0.140000,-0.355000,0.140000,0.355000,0.140000,0.425000,0.121244,0.425000,0.121244,$1*%
%AMFreePoly2*
4,1,10,0.070000,0.476244,0.121244,0.425000,0.140000,0.355000,0.140000,-0.355000,-0.140000,-0.355000,-0.140000,0.355000,-0.121244,0.425000,-0.070000,0.476244,0.000000,0.495000,0.070000,0.476244,0.070000,0.476244,$1*%
%AMFreePoly3*
4,1,10,0.355000,-0.140000,-0.355000,-0.140000,-0.425000,-0.121244,-0.476244,-0.070000,-0.495000,0.000000,-0.476244,0.070000,-0.425000,0.121244,-0.355000,0.140000,0.355000,0.140000,0.355000,-0.140000,0.355000,-0.140000,$1*%
G04 Aperture macros list end*
%ADD10RoundRect,0.100000X0.130000X0.100000X-0.130000X0.100000X-0.130000X-0.100000X0.130000X-0.100000X0*%
%ADD11RoundRect,0.100000X0.100000X-0.130000X0.100000X0.130000X-0.100000X0.130000X-0.100000X-0.130000X0*%
%ADD12RoundRect,0.100000X-0.130000X-0.100000X0.130000X-0.100000X0.130000X0.100000X-0.130000X0.100000X0*%
%ADD13RoundRect,0.225000X-0.225000X-0.250000X0.225000X-0.250000X0.225000X0.250000X-0.225000X0.250000X0*%
%ADD14FreePoly0,180.000000*%
%ADD15FreePoly1,180.000000*%
%ADD16FreePoly2,180.000000*%
%ADD17FreePoly3,180.000000*%
%ADD18R,2.050000X2.550000*%
%ADD19RoundRect,0.200100X0.949900X-0.949900X0.949900X0.949900X-0.949900X0.949900X-0.949900X-0.949900X0*%
%ADD20C,2.500000*%
%ADD21R,1.700000X1.700000*%
%ADD22O,1.700000X1.700000*%
%ADD23RoundRect,0.200100X-0.949900X-0.949900X0.949900X-0.949900X0.949900X0.949900X-0.949900X0.949900X0*%
%ADD24RoundRect,0.200100X-0.949900X0.949900X-0.949900X-0.949900X0.949900X-0.949900X0.949900X0.949900X0*%
%ADD25RoundRect,0.150000X0.512500X0.150000X-0.512500X0.150000X-0.512500X-0.150000X0.512500X-0.150000X0*%
%ADD26C,1.000000*%
%ADD27RoundRect,0.102000X1.250000X-0.600000X1.250000X0.600000X-1.250000X0.600000X-1.250000X-0.600000X0*%
G04 APERTURE END LIST*
D10*
%TO.C,C4*%
X142745808Y-85854731D03*
X142105808Y-85854731D03*
%TD*%
%TO.C,C5*%
X143760553Y-84705502D03*
X143120553Y-84705502D03*
%TD*%
D11*
%TO.C,C10*%
X147991000Y-98872000D03*
X147991000Y-98232000D03*
%TD*%
D10*
%TO.C,C9*%
X144501000Y-94996000D03*
X143861000Y-94996000D03*
%TD*%
D12*
%TO.C,C3*%
X153096000Y-88138000D03*
X153736000Y-88138000D03*
%TD*%
D13*
%TO.C,C1*%
X146024000Y-91440000D03*
X147574000Y-91440000D03*
%TD*%
D14*
%TO.C,U1*%
X147537000Y-89916000D03*
D15*
X148582000Y-89121000D03*
X148582000Y-88621000D03*
X148582000Y-88121000D03*
X148582000Y-87621000D03*
X148582000Y-87121000D03*
X148582000Y-86621000D03*
D16*
X147537000Y-85826000D03*
X146037000Y-85826000D03*
D17*
X144992000Y-86621000D03*
X144992000Y-87121000D03*
X144992000Y-87621000D03*
X144992000Y-88121000D03*
X144992000Y-88621000D03*
X144992000Y-89121000D03*
D14*
X146037000Y-89916000D03*
D18*
X146787000Y-87871000D03*
%TD*%
D19*
%TO.C,J3*%
X131821220Y-89915385D03*
D20*
X129281220Y-92455385D03*
X134361220Y-92455385D03*
X129281220Y-87375385D03*
X134361220Y-87375385D03*
%TD*%
D21*
%TO.C,J4*%
X132588000Y-104140000D03*
D22*
X132588000Y-106680000D03*
%TD*%
D10*
%TO.C,C14*%
X157709000Y-98298000D03*
X157069000Y-98298000D03*
%TD*%
D12*
%TO.C,C12*%
X148687000Y-94996000D03*
X149327000Y-94996000D03*
%TD*%
D11*
%TO.C,C6*%
X140117000Y-98806000D03*
X140117000Y-98166000D03*
%TD*%
D23*
%TO.C,J1*%
X146501153Y-78155632D03*
D20*
X143961153Y-75615632D03*
X143961153Y-80695632D03*
X149041153Y-75615632D03*
X149041153Y-80695632D03*
%TD*%
D24*
%TO.C,J2*%
X160589122Y-89936874D03*
D20*
X163129122Y-87396874D03*
X158049122Y-87396874D03*
X163129122Y-92476874D03*
X158049122Y-92476874D03*
%TD*%
D12*
%TO.C,R1*%
X142337000Y-100584000D03*
X142977000Y-100584000D03*
%TD*%
%TO.C,C8*%
X140879000Y-94996000D03*
X141519000Y-94996000D03*
%TD*%
D10*
%TO.C,C13*%
X150597000Y-100584000D03*
X149957000Y-100584000D03*
%TD*%
D25*
%TO.C,U2*%
X143794500Y-98232000D03*
X143794500Y-97282000D03*
X143794500Y-96332000D03*
X141519500Y-96332000D03*
X141519500Y-98232000D03*
%TD*%
D12*
%TO.C,C15*%
X152842000Y-103632000D03*
X153482000Y-103632000D03*
%TD*%
D10*
%TO.C,C11*%
X152375000Y-94996000D03*
X151735000Y-94996000D03*
%TD*%
D26*
%TO.C,J5*%
X159310000Y-112316000D03*
X159310000Y-105316000D03*
D27*
X162560000Y-102616000D03*
X156060000Y-103716000D03*
X156060000Y-107716000D03*
X156060000Y-110716000D03*
%TD*%
D25*
%TO.C,U3*%
X151644000Y-98166000D03*
X151644000Y-97216000D03*
X151644000Y-96266000D03*
X149369000Y-96266000D03*
X149369000Y-98166000D03*
%TD*%
D12*
%TO.C,C2*%
X152080000Y-89154000D03*
X152720000Y-89154000D03*
%TD*%
%TO.C,R2*%
X149957000Y-99568000D03*
X150597000Y-99568000D03*
%TD*%
D10*
%TO.C,C7*%
X142977000Y-99568000D03*
X142337000Y-99568000D03*
%TD*%
M02*
