%TF.GenerationSoftware,KiCad,Pcbnew,8.0.1*%
%TF.CreationDate,2024-04-10T11:13:06-07:00*%
%TF.ProjectId,TS3A5017-Mixer,54533341-3530-4313-972d-4d697865722e,rev?*%
%TF.SameCoordinates,Original*%
%TF.FileFunction,Copper,L1,Top*%
%TF.FilePolarity,Positive*%
%FSLAX46Y46*%
G04 Gerber Fmt 4.6, Leading zero omitted, Abs format (unit mm)*
G04 Created by KiCad (PCBNEW 8.0.1) date 2024-04-10 11:13:06*
%MOMM*%
%LPD*%
G01*
G04 APERTURE LIST*
G04 Aperture macros list*
%AMRoundRect*
0 Rectangle with rounded corners*
0 $1 Rounding radius*
0 $2 $3 $4 $5 $6 $7 $8 $9 X,Y pos of 4 corners*
0 Add a 4 corners polygon primitive as box body*
4,1,4,$2,$3,$4,$5,$6,$7,$8,$9,$2,$3,0*
0 Add four circle primitives for the rounded corners*
1,1,$1+$1,$2,$3*
1,1,$1+$1,$4,$5*
1,1,$1+$1,$6,$7*
1,1,$1+$1,$8,$9*
0 Add four rect primitives between the rounded corners*
20,1,$1+$1,$2,$3,$4,$5,0*
20,1,$1+$1,$4,$5,$6,$7,0*
20,1,$1+$1,$6,$7,$8,$9,0*
20,1,$1+$1,$8,$9,$2,$3,0*%
%AMFreePoly0*
4,1,10,0.140000,-0.355000,0.121244,-0.425000,0.070000,-0.476244,0.000000,-0.495000,-0.070000,-0.476244,-0.121244,-0.425000,-0.140000,-0.355000,-0.140000,0.355000,0.140000,0.355000,0.140000,-0.355000,0.140000,-0.355000,$1*%
%AMFreePoly1*
4,1,10,0.425000,0.121244,0.476244,0.070000,0.495000,0.000000,0.476244,-0.070000,0.425000,-0.121244,0.355000,-0.140000,-0.355000,-0.140000,-0.355000,0.140000,0.355000,0.140000,0.425000,0.121244,0.425000,0.121244,$1*%
%AMFreePoly2*
4,1,10,0.070000,0.476244,0.121244,0.425000,0.140000,0.355000,0.140000,-0.355000,-0.140000,-0.355000,-0.140000,0.355000,-0.121244,0.425000,-0.070000,0.476244,0.000000,0.495000,0.070000,0.476244,0.070000,0.476244,$1*%
%AMFreePoly3*
4,1,10,0.355000,-0.140000,-0.355000,-0.140000,-0.425000,-0.121244,-0.476244,-0.070000,-0.495000,0.000000,-0.476244,0.070000,-0.425000,0.121244,-0.355000,0.140000,0.355000,0.140000,0.355000,-0.140000,0.355000,-0.140000,$1*%
G04 Aperture macros list end*
%TA.AperFunction,SMDPad,CuDef*%
%ADD10RoundRect,0.100000X0.130000X0.100000X-0.130000X0.100000X-0.130000X-0.100000X0.130000X-0.100000X0*%
%TD*%
%TA.AperFunction,SMDPad,CuDef*%
%ADD11RoundRect,0.100000X0.100000X-0.130000X0.100000X0.130000X-0.100000X0.130000X-0.100000X-0.130000X0*%
%TD*%
%TA.AperFunction,SMDPad,CuDef*%
%ADD12RoundRect,0.100000X-0.130000X-0.100000X0.130000X-0.100000X0.130000X0.100000X-0.130000X0.100000X0*%
%TD*%
%TA.AperFunction,SMDPad,CuDef*%
%ADD13RoundRect,0.225000X-0.225000X-0.250000X0.225000X-0.250000X0.225000X0.250000X-0.225000X0.250000X0*%
%TD*%
%TA.AperFunction,SMDPad,CuDef*%
%ADD14FreePoly0,180.000000*%
%TD*%
%TA.AperFunction,SMDPad,CuDef*%
%ADD15FreePoly1,180.000000*%
%TD*%
%TA.AperFunction,SMDPad,CuDef*%
%ADD16FreePoly2,180.000000*%
%TD*%
%TA.AperFunction,SMDPad,CuDef*%
%ADD17FreePoly3,180.000000*%
%TD*%
%TA.AperFunction,SMDPad,CuDef*%
%ADD18R,2.050000X2.550000*%
%TD*%
%TA.AperFunction,ComponentPad*%
%ADD19RoundRect,0.200100X0.949900X-0.949900X0.949900X0.949900X-0.949900X0.949900X-0.949900X-0.949900X0*%
%TD*%
%TA.AperFunction,ComponentPad*%
%ADD20C,2.500000*%
%TD*%
%TA.AperFunction,ComponentPad*%
%ADD21R,1.700000X1.700000*%
%TD*%
%TA.AperFunction,ComponentPad*%
%ADD22O,1.700000X1.700000*%
%TD*%
%TA.AperFunction,ComponentPad*%
%ADD23RoundRect,0.200100X-0.949900X-0.949900X0.949900X-0.949900X0.949900X0.949900X-0.949900X0.949900X0*%
%TD*%
%TA.AperFunction,ComponentPad*%
%ADD24RoundRect,0.200100X-0.949900X0.949900X-0.949900X-0.949900X0.949900X-0.949900X0.949900X0.949900X0*%
%TD*%
%TA.AperFunction,SMDPad,CuDef*%
%ADD25RoundRect,0.150000X0.512500X0.150000X-0.512500X0.150000X-0.512500X-0.150000X0.512500X-0.150000X0*%
%TD*%
%TA.AperFunction,SMDPad,CuDef*%
%ADD26R,2.500000X1.200000*%
%TD*%
%TA.AperFunction,ViaPad*%
%ADD27C,0.600000*%
%TD*%
%TA.AperFunction,Conductor*%
%ADD28C,0.156464*%
%TD*%
%TA.AperFunction,Conductor*%
%ADD29C,0.200000*%
%TD*%
G04 APERTURE END LIST*
D10*
%TO.P,C4,1*%
%TO.N,/I-Pos*%
X142745808Y-85854731D03*
%TO.P,C4,2*%
%TO.N,GND*%
X142105808Y-85854731D03*
%TD*%
%TO.P,C5,1*%
%TO.N,/Q-Pos*%
X143760553Y-84705502D03*
%TO.P,C5,2*%
%TO.N,GND*%
X143120553Y-84705502D03*
%TD*%
D11*
%TO.P,C10,1*%
%TO.N,GND*%
X147991000Y-98872000D03*
%TO.P,C10,2*%
%TO.N,/3.3V*%
X147991000Y-98232000D03*
%TD*%
D10*
%TO.P,C9,1*%
%TO.N,GND*%
X144501000Y-94996000D03*
%TO.P,C9,2*%
%TO.N,/Q-Pos*%
X143861000Y-94996000D03*
%TD*%
D12*
%TO.P,C3,1*%
%TO.N,/Q-Neg*%
X153096000Y-88138000D03*
%TO.P,C3,2*%
%TO.N,GND*%
X153736000Y-88138000D03*
%TD*%
D13*
%TO.P,C1,1*%
%TO.N,/3.3V*%
X146024000Y-91440000D03*
%TO.P,C1,2*%
%TO.N,GND*%
X147574000Y-91440000D03*
%TD*%
D14*
%TO.P,U1,1,1~{EN}*%
%TO.N,GND*%
X147537000Y-89916000D03*
D15*
%TO.P,U1,2,IN2*%
%TO.N,CLK0*%
X148582000Y-89121000D03*
%TO.P,U1,3,1S4*%
%TO.N,/I-Neg*%
X148582000Y-88621000D03*
%TO.P,U1,4,1S3*%
%TO.N,/Q-Neg*%
X148582000Y-88121000D03*
%TO.P,U1,5,1S2*%
%TO.N,/I-Pos*%
X148582000Y-87621000D03*
%TO.P,U1,6,1S1*%
%TO.N,/Q-Pos*%
X148582000Y-87121000D03*
%TO.P,U1,7,1D*%
%TO.N,RF-In*%
X148582000Y-86621000D03*
D16*
%TO.P,U1,8,GND*%
%TO.N,GND*%
X147537000Y-85826000D03*
%TO.P,U1,9,2D*%
%TO.N,RF-In*%
X146037000Y-85826000D03*
D17*
%TO.P,U1,10,2S1*%
%TO.N,/Q-Pos*%
X144992000Y-86621000D03*
%TO.P,U1,11,2S2*%
%TO.N,/I-Pos*%
X144992000Y-87121000D03*
%TO.P,U1,12,2S3*%
%TO.N,/Q-Neg*%
X144992000Y-87621000D03*
%TO.P,U1,13,2S4*%
%TO.N,/I-Neg*%
X144992000Y-88121000D03*
%TO.P,U1,14,IN1*%
%TO.N,CLK1*%
X144992000Y-88621000D03*
%TO.P,U1,15,2~{EN}*%
%TO.N,GND*%
X144992000Y-89121000D03*
D14*
%TO.P,U1,16,V+*%
%TO.N,/3.3V*%
X146037000Y-89916000D03*
D18*
%TO.P,U1,17,GND*%
%TO.N,GND*%
X146787000Y-87871000D03*
%TD*%
D19*
%TO.P,J3,1,In*%
%TO.N,CLK1*%
X131821220Y-89915385D03*
D20*
%TO.P,J3,2,Ext*%
%TO.N,GND*%
X129281220Y-92455385D03*
X134361220Y-92455385D03*
X129281220Y-87375385D03*
X134361220Y-87375385D03*
%TD*%
D21*
%TO.P,J4,1,Pin_1*%
%TO.N,/3.3V*%
X132588000Y-104140000D03*
D22*
%TO.P,J4,2,Pin_2*%
%TO.N,GND*%
X132588000Y-106680000D03*
%TD*%
D10*
%TO.P,C14,1*%
%TO.N,Net-(C14-Pad1)*%
X157709000Y-98298000D03*
%TO.P,C14,2*%
%TO.N,Net-(U3-OUT)*%
X157069000Y-98298000D03*
%TD*%
D12*
%TO.P,C12,1*%
%TO.N,GND*%
X148687000Y-94996000D03*
%TO.P,C12,2*%
%TO.N,/I-Neg*%
X149327000Y-94996000D03*
%TD*%
D11*
%TO.P,C6,1*%
%TO.N,GND*%
X140117000Y-98806000D03*
%TO.P,C6,2*%
%TO.N,/3.3V*%
X140117000Y-98166000D03*
%TD*%
D23*
%TO.P,J1,1,In*%
%TO.N,RF-In*%
X146501153Y-78155632D03*
D20*
%TO.P,J1,2,Ext*%
%TO.N,GND*%
X143961153Y-75615632D03*
X143961153Y-80695632D03*
X149041153Y-75615632D03*
X149041153Y-80695632D03*
%TD*%
D24*
%TO.P,J2,1,In*%
%TO.N,CLK0*%
X160589122Y-89936874D03*
D20*
%TO.P,J2,2,Ext*%
%TO.N,GND*%
X163129122Y-87396874D03*
X158049122Y-87396874D03*
X163129122Y-92476874D03*
X158049122Y-92476874D03*
%TD*%
D12*
%TO.P,R1,1*%
%TO.N,/Q-Neg*%
X142337000Y-100584000D03*
%TO.P,R1,2*%
%TO.N,Net-(U2-OUT)*%
X142977000Y-100584000D03*
%TD*%
%TO.P,C8,1*%
%TO.N,GND*%
X140879000Y-94996000D03*
%TO.P,C8,2*%
%TO.N,/Q-Neg*%
X141519000Y-94996000D03*
%TD*%
D10*
%TO.P,C13,1*%
%TO.N,Net-(U3-OUT)*%
X150597000Y-100584000D03*
%TO.P,C13,2*%
%TO.N,/I-Neg*%
X149957000Y-100584000D03*
%TD*%
D25*
%TO.P,U2,1,OUT*%
%TO.N,Net-(U2-OUT)*%
X143794500Y-98232000D03*
%TO.P,U2,2,V-*%
%TO.N,GND*%
X143794500Y-97282000D03*
%TO.P,U2,3,IN+*%
%TO.N,/Q-Pos*%
X143794500Y-96332000D03*
%TO.P,U2,4,IN-*%
%TO.N,/Q-Neg*%
X141519500Y-96332000D03*
%TO.P,U2,5,V+*%
%TO.N,/3.3V*%
X141519500Y-98232000D03*
%TD*%
D12*
%TO.P,C15,1*%
%TO.N,Net-(U2-OUT)*%
X152842000Y-103632000D03*
%TO.P,C15,2*%
%TO.N,Net-(C15-Pad2)*%
X153482000Y-103632000D03*
%TD*%
D10*
%TO.P,C11,1*%
%TO.N,GND*%
X152375000Y-94996000D03*
%TO.P,C11,2*%
%TO.N,/I-Pos*%
X151735000Y-94996000D03*
%TD*%
D26*
%TO.P,J5,1*%
%TO.N,GND*%
X162560000Y-102616000D03*
%TO.P,J5,2*%
%TO.N,Net-(C15-Pad2)*%
X156060000Y-103716000D03*
%TO.P,J5,3*%
%TO.N,GND*%
X156060000Y-107716000D03*
%TO.P,J5,4*%
%TO.N,Net-(C14-Pad1)*%
X156060000Y-110716000D03*
%TD*%
D25*
%TO.P,U3,1,OUT*%
%TO.N,Net-(U3-OUT)*%
X151644000Y-98166000D03*
%TO.P,U3,2,V-*%
%TO.N,GND*%
X151644000Y-97216000D03*
%TO.P,U3,3,IN+*%
%TO.N,/I-Pos*%
X151644000Y-96266000D03*
%TO.P,U3,4,IN-*%
%TO.N,/I-Neg*%
X149369000Y-96266000D03*
%TO.P,U3,5,V+*%
%TO.N,/3.3V*%
X149369000Y-98166000D03*
%TD*%
D12*
%TO.P,C2,1*%
%TO.N,/I-Neg*%
X152080000Y-89154000D03*
%TO.P,C2,2*%
%TO.N,GND*%
X152720000Y-89154000D03*
%TD*%
%TO.P,R2,1*%
%TO.N,/I-Neg*%
X149957000Y-99568000D03*
%TO.P,R2,2*%
%TO.N,Net-(U3-OUT)*%
X150597000Y-99568000D03*
%TD*%
D10*
%TO.P,C7,1*%
%TO.N,Net-(U2-OUT)*%
X142977000Y-99568000D03*
%TO.P,C7,2*%
%TO.N,/Q-Neg*%
X142337000Y-99568000D03*
%TD*%
D27*
%TO.N,/3.3V*%
X144780000Y-91440000D03*
X139446000Y-97536000D03*
X147320000Y-97536000D03*
%TO.N,GND*%
X153670000Y-107696000D03*
X153670000Y-87122000D03*
X153924000Y-89154000D03*
X153162000Y-94996000D03*
X147574000Y-84582000D03*
X141224000Y-85852000D03*
X142240000Y-84582000D03*
X145288000Y-97282000D03*
X153162000Y-97282000D03*
X147574000Y-94996000D03*
X139954000Y-94996000D03*
X148082000Y-99822000D03*
X162560000Y-100584000D03*
X148844000Y-91440000D03*
X143764000Y-89662000D03*
X140208000Y-99822000D03*
X145288000Y-94996000D03*
%TO.N,/Q-Pos*%
X143764000Y-86360000D03*
X150622000Y-86868000D03*
X143764000Y-93980000D03*
%TO.N,/I-Neg*%
X149352000Y-93980000D03*
X141732000Y-88900000D03*
X151130000Y-88900000D03*
%TO.N,/Q-Neg*%
X152146000Y-88138000D03*
X141732000Y-93980000D03*
X141478000Y-87122000D03*
%TO.N,/I-Pos*%
X152146000Y-87122000D03*
X142748000Y-86868000D03*
X151638000Y-93980000D03*
%TD*%
D28*
%TO.N,/3.3V*%
X146024000Y-91440000D02*
X144780000Y-91440000D01*
X146024000Y-91440000D02*
X146024000Y-89929000D01*
X141519500Y-98232000D02*
X140183000Y-98232000D01*
X148057000Y-98166000D02*
X147991000Y-98232000D01*
X140076000Y-98166000D02*
X139446000Y-97536000D01*
X140183000Y-98232000D02*
X140117000Y-98166000D01*
X149369000Y-98166000D02*
X148057000Y-98166000D01*
X147991000Y-98207000D02*
X147320000Y-97536000D01*
X140117000Y-98166000D02*
X140076000Y-98166000D01*
X146024000Y-89929000D02*
X146037000Y-89916000D01*
X147991000Y-98232000D02*
X147991000Y-98207000D01*
%TO.N,GND*%
X147574000Y-91440000D02*
X147574000Y-89953000D01*
X140879000Y-94996000D02*
X139954000Y-94996000D01*
X147991000Y-98872000D02*
X147991000Y-99731000D01*
X144305000Y-89121000D02*
X143764000Y-89662000D01*
X148687000Y-94996000D02*
X147574000Y-94996000D01*
X147537000Y-85826000D02*
X146787000Y-86576000D01*
X153096000Y-97216000D02*
X153162000Y-97282000D01*
X143120553Y-84705502D02*
X142363502Y-84705502D01*
X151644000Y-97216000D02*
X153096000Y-97216000D01*
X152375000Y-94996000D02*
X153162000Y-94996000D01*
X147574000Y-89953000D02*
X147537000Y-89916000D01*
X142105808Y-85854731D02*
X141226731Y-85854731D01*
X153736000Y-88138000D02*
X153736000Y-87188000D01*
X147574000Y-91440000D02*
X148844000Y-91440000D01*
X144992000Y-89121000D02*
X145537000Y-89121000D01*
X162560000Y-102616000D02*
X162560000Y-100584000D01*
X143794500Y-97282000D02*
X145288000Y-97282000D01*
X144501000Y-94996000D02*
X145288000Y-94996000D01*
X141226731Y-85854731D02*
X141224000Y-85852000D01*
X147537000Y-85826000D02*
X147537000Y-84619000D01*
X142363502Y-84705502D02*
X142240000Y-84582000D01*
X140117000Y-99731000D02*
X140208000Y-99822000D01*
X153690000Y-107716000D02*
X153670000Y-107696000D01*
X147991000Y-99731000D02*
X148082000Y-99822000D01*
X146787000Y-86576000D02*
X146787000Y-87871000D01*
X152720000Y-89154000D02*
X153924000Y-89154000D01*
X156060000Y-107716000D02*
X153690000Y-107716000D01*
X140117000Y-98806000D02*
X140117000Y-99731000D01*
X144992000Y-89121000D02*
X144305000Y-89121000D01*
X153736000Y-87188000D02*
X153670000Y-87122000D01*
X147537000Y-84619000D02*
X147574000Y-84582000D01*
X145537000Y-89121000D02*
X146787000Y-87871000D01*
%TO.N,RF-In*%
X149606000Y-83566000D02*
X148844000Y-82804000D01*
X146501153Y-82296000D02*
X146501153Y-78155632D01*
X149345000Y-86621000D02*
X149606000Y-86360000D01*
X146037000Y-85826000D02*
X146037000Y-83325000D01*
X149606000Y-86360000D02*
X149606000Y-83566000D01*
X147009153Y-82804000D02*
X146501153Y-82296000D01*
X146501153Y-82860847D02*
X146501153Y-82296000D01*
X148844000Y-82804000D02*
X147009153Y-82804000D01*
X146037000Y-83325000D02*
X146501153Y-82860847D01*
X148582000Y-86621000D02*
X149345000Y-86621000D01*
%TO.N,CLK0*%
X149397874Y-89936874D02*
X160589122Y-89936874D01*
X148582000Y-89121000D02*
X149397874Y-89936874D01*
%TO.N,CLK1*%
X144992000Y-88621000D02*
X143535000Y-88621000D01*
X142240615Y-89915385D02*
X131821220Y-89915385D01*
X143535000Y-88621000D02*
X142240615Y-89915385D01*
%TO.N,/Q-Pos*%
X143760553Y-84705502D02*
X143760553Y-86356553D01*
X143861000Y-94996000D02*
X143861000Y-94077000D01*
X150369000Y-87121000D02*
X150622000Y-86868000D01*
X143794500Y-96332000D02*
X143794500Y-95062500D01*
D29*
X144025000Y-86621000D02*
X143764000Y-86360000D01*
D28*
X148582000Y-87121000D02*
X150369000Y-87121000D01*
X143861000Y-94077000D02*
X143764000Y-93980000D01*
X143760553Y-86356553D02*
X143764000Y-86360000D01*
X143794500Y-95062500D02*
X143861000Y-94996000D01*
D29*
X144992000Y-86621000D02*
X144025000Y-86621000D01*
D28*
%TO.N,/I-Neg*%
X142511000Y-88121000D02*
X141732000Y-88900000D01*
X147066000Y-96266000D02*
X146558000Y-96774000D01*
X146558000Y-96774000D02*
X146558000Y-100076000D01*
X150851000Y-88621000D02*
X151130000Y-88900000D01*
X144992000Y-88121000D02*
X142511000Y-88121000D01*
X149327000Y-94996000D02*
X149327000Y-94005000D01*
X149369000Y-96266000D02*
X149369000Y-95038000D01*
X149369000Y-96266000D02*
X147066000Y-96266000D01*
X146558000Y-100076000D02*
X147066000Y-100584000D01*
X149327000Y-94005000D02*
X149352000Y-93980000D01*
X147066000Y-100584000D02*
X149957000Y-100584000D01*
X149957000Y-100584000D02*
X149957000Y-99568000D01*
X149369000Y-95038000D02*
X149327000Y-94996000D01*
X148582000Y-88621000D02*
X150851000Y-88621000D01*
X151130000Y-88900000D02*
X151384000Y-89154000D01*
X151384000Y-89154000D02*
X152080000Y-89154000D01*
%TO.N,Net-(U2-OUT)*%
X142977000Y-101067000D02*
X142977000Y-100584000D01*
X145542000Y-103632000D02*
X142977000Y-101067000D01*
X145542000Y-103632000D02*
X152842000Y-103632000D01*
X142977000Y-99568000D02*
X142977000Y-99049500D01*
X142977000Y-99049500D02*
X143794500Y-98232000D01*
X142977000Y-100584000D02*
X142977000Y-99568000D01*
%TO.N,/Q-Neg*%
X141519500Y-96332000D02*
X141519500Y-94996500D01*
X141519500Y-96332000D02*
X138618000Y-96332000D01*
X144992000Y-87621000D02*
X141977000Y-87621000D01*
X141519500Y-94996500D02*
X141519000Y-94996000D01*
X138430000Y-96520000D02*
X138430000Y-99822000D01*
X141519000Y-94193000D02*
X141732000Y-93980000D01*
X148582000Y-88121000D02*
X152129000Y-88121000D01*
X152129000Y-88121000D02*
X152146000Y-88138000D01*
X152146000Y-88138000D02*
X153096000Y-88138000D01*
X138430000Y-99822000D02*
X139192000Y-100584000D01*
X142337000Y-100584000D02*
X142337000Y-99568000D01*
X141977000Y-87621000D02*
X141478000Y-87122000D01*
X138618000Y-96332000D02*
X138430000Y-96520000D01*
X139192000Y-100584000D02*
X142337000Y-100584000D01*
X141519000Y-94996000D02*
X141519000Y-94193000D01*
%TO.N,Net-(U3-OUT)*%
X150597000Y-99213000D02*
X150597000Y-99568000D01*
X151644000Y-98166000D02*
X150597000Y-99213000D01*
X156937000Y-98166000D02*
X157069000Y-98298000D01*
X150597000Y-100584000D02*
X150597000Y-99568000D01*
X151644000Y-98166000D02*
X156937000Y-98166000D01*
%TO.N,/I-Pos*%
X151892000Y-87376000D02*
X152146000Y-87122000D01*
X151644000Y-96266000D02*
X151644000Y-95087000D01*
X148582000Y-87621000D02*
X151647000Y-87621000D01*
X151735000Y-94996000D02*
X151735000Y-94077000D01*
D29*
X143001000Y-87121000D02*
X142748000Y-86868000D01*
D28*
X151644000Y-95087000D02*
X151735000Y-94996000D01*
D29*
X142748000Y-86868000D02*
X142748000Y-85856923D01*
X142748000Y-85856923D02*
X142745808Y-85854731D01*
X144992000Y-87121000D02*
X143001000Y-87121000D01*
D28*
X151735000Y-94077000D02*
X151638000Y-93980000D01*
X151647000Y-87621000D02*
X151892000Y-87376000D01*
%TO.N,Net-(C14-Pad1)*%
X157709000Y-98298000D02*
X157709000Y-109067000D01*
X157709000Y-109067000D02*
X156060000Y-110716000D01*
%TO.N,Net-(C15-Pad2)*%
X153482000Y-103632000D02*
X155976000Y-103632000D01*
X155976000Y-103632000D02*
X156060000Y-103716000D01*
%TD*%
M02*
