%TF.GenerationSoftware,KiCad,Pcbnew,8.0.1*%
%TF.CreationDate,2024-03-25T18:19:42-05:00*%
%TF.ProjectId,TS3A5017-Mixer,54533341-3530-4313-972d-4d697865722e,rev?*%
%TF.SameCoordinates,Original*%
%TF.FileFunction,Copper,L1,Top*%
%TF.FilePolarity,Positive*%
%FSLAX46Y46*%
G04 Gerber Fmt 4.6, Leading zero omitted, Abs format (unit mm)*
G04 Created by KiCad (PCBNEW 8.0.1) date 2024-03-25 18:19:42*
%MOMM*%
%LPD*%
G01*
G04 APERTURE LIST*
G04 Aperture macros list*
%AMRoundRect*
0 Rectangle with rounded corners*
0 $1 Rounding radius*
0 $2 $3 $4 $5 $6 $7 $8 $9 X,Y pos of 4 corners*
0 Add a 4 corners polygon primitive as box body*
4,1,4,$2,$3,$4,$5,$6,$7,$8,$9,$2,$3,0*
0 Add four circle primitives for the rounded corners*
1,1,$1+$1,$2,$3*
1,1,$1+$1,$4,$5*
1,1,$1+$1,$6,$7*
1,1,$1+$1,$8,$9*
0 Add four rect primitives between the rounded corners*
20,1,$1+$1,$2,$3,$4,$5,0*
20,1,$1+$1,$4,$5,$6,$7,0*
20,1,$1+$1,$6,$7,$8,$9,0*
20,1,$1+$1,$8,$9,$2,$3,0*%
%AMFreePoly0*
4,1,10,0.140000,-0.355000,0.121244,-0.425000,0.070000,-0.476244,0.000000,-0.495000,-0.070000,-0.476244,-0.121244,-0.425000,-0.140000,-0.355000,-0.140000,0.355000,0.140000,0.355000,0.140000,-0.355000,0.140000,-0.355000,$1*%
%AMFreePoly1*
4,1,10,0.355000,-0.140000,-0.355000,-0.140000,-0.425000,-0.121244,-0.476244,-0.070000,-0.495000,0.000000,-0.476244,0.070000,-0.425000,0.121244,-0.355000,0.140000,0.355000,0.140000,0.355000,-0.140000,0.355000,-0.140000,$1*%
%AMFreePoly2*
4,1,10,0.070000,0.476244,0.121244,0.425000,0.140000,0.355000,0.140000,-0.355000,-0.140000,-0.355000,-0.140000,0.355000,-0.121244,0.425000,-0.070000,0.476244,0.000000,0.495000,0.070000,0.476244,0.070000,0.476244,$1*%
%AMFreePoly3*
4,1,10,0.425000,0.121244,0.476244,0.070000,0.495000,0.000000,0.476244,-0.070000,0.425000,-0.121244,0.355000,-0.140000,-0.355000,-0.140000,-0.355000,0.140000,0.355000,0.140000,0.425000,0.121244,0.425000,0.121244,$1*%
G04 Aperture macros list end*
%TA.AperFunction,ComponentPad*%
%ADD10C,2.250000*%
%TD*%
%TA.AperFunction,ComponentPad*%
%ADD11C,2.550000*%
%TD*%
%TA.AperFunction,ComponentPad*%
%ADD12R,1.700000X1.700000*%
%TD*%
%TA.AperFunction,ComponentPad*%
%ADD13O,1.700000X1.700000*%
%TD*%
%TA.AperFunction,SMDPad,CuDef*%
%ADD14R,2.050000X2.550000*%
%TD*%
%TA.AperFunction,SMDPad,CuDef*%
%ADD15FreePoly0,180.000000*%
%TD*%
%TA.AperFunction,SMDPad,CuDef*%
%ADD16FreePoly1,180.000000*%
%TD*%
%TA.AperFunction,SMDPad,CuDef*%
%ADD17FreePoly2,180.000000*%
%TD*%
%TA.AperFunction,SMDPad,CuDef*%
%ADD18FreePoly3,180.000000*%
%TD*%
%TA.AperFunction,SMDPad,CuDef*%
%ADD19RoundRect,0.225000X-0.225000X-0.250000X0.225000X-0.250000X0.225000X0.250000X-0.225000X0.250000X0*%
%TD*%
%TA.AperFunction,SMDPad,CuDef*%
%ADD20RoundRect,0.250000X-0.650000X0.325000X-0.650000X-0.325000X0.650000X-0.325000X0.650000X0.325000X0*%
%TD*%
%TA.AperFunction,ViaPad*%
%ADD21C,0.600000*%
%TD*%
%TA.AperFunction,Conductor*%
%ADD22C,0.200000*%
%TD*%
G04 APERTURE END LIST*
D10*
%TO.P,J1,1,In*%
%TO.N,RF-In*%
X146558000Y-79248000D03*
D11*
%TO.P,J1,S1*%
%TO.N,N/C*%
X149098000Y-81788000D03*
%TO.P,J1,S2*%
X144018000Y-81788000D03*
%TO.P,J1,S3*%
X149098000Y-76708000D03*
%TO.P,J1,S4*%
X144018000Y-76708000D03*
%TD*%
D10*
%TO.P,J2,1,In*%
%TO.N,CLK0*%
X159512000Y-89916000D03*
D11*
%TO.P,J2,S1*%
%TO.N,N/C*%
X156972000Y-92456000D03*
%TO.P,J2,S2*%
X156972000Y-87376000D03*
%TO.P,J2,S3*%
X162052000Y-92456000D03*
%TO.P,J2,S4*%
X162052000Y-87376000D03*
%TD*%
D10*
%TO.P,J3,1,In*%
%TO.N,CLK1*%
X133350000Y-89916000D03*
D11*
%TO.P,J3,S1*%
%TO.N,N/C*%
X135890000Y-87376000D03*
%TO.P,J3,S2*%
X135890000Y-92456000D03*
%TO.P,J3,S3*%
X130810000Y-87376000D03*
%TO.P,J3,S4*%
X130810000Y-92456000D03*
%TD*%
D12*
%TO.P,J4,1,Pin_1*%
%TO.N,/3.3V*%
X140208000Y-107188000D03*
D13*
%TO.P,J4,2,Pin_2*%
%TO.N,Net-(J4-Pin_2)*%
X142748000Y-107188000D03*
%TO.P,J4,3,Pin_3*%
%TO.N,Net-(J4-Pin_3)*%
X145288000Y-107188000D03*
%TO.P,J4,4,Pin_4*%
%TO.N,Net-(J4-Pin_4)*%
X147828000Y-107188000D03*
%TO.P,J4,5,Pin_5*%
%TO.N,Net-(J4-Pin_5)*%
X150368000Y-107188000D03*
%TO.P,J4,6,Pin_6*%
%TO.N,GND*%
X152908000Y-107188000D03*
%TD*%
D14*
%TO.P,U1,17,GND*%
%TO.N,GND*%
X146787000Y-87871000D03*
D15*
%TO.P,U1,16,V+*%
%TO.N,/3.3V*%
X146037000Y-89916000D03*
D16*
%TO.P,U1,15,2~{EN}*%
%TO.N,GND*%
X144992000Y-89121000D03*
%TO.P,U1,14,IN1*%
%TO.N,CLK1*%
X144992000Y-88621000D03*
%TO.P,U1,13,2S4*%
%TO.N,Net-(J4-Pin_5)*%
X144992000Y-88121000D03*
%TO.P,U1,12,2S3*%
%TO.N,Net-(J4-Pin_4)*%
X144992000Y-87621000D03*
%TO.P,U1,11,2S2*%
%TO.N,Net-(J4-Pin_3)*%
X144992000Y-87121000D03*
%TO.P,U1,10,2S1*%
%TO.N,Net-(J4-Pin_2)*%
X144992000Y-86621000D03*
D17*
%TO.P,U1,9,2D*%
%TO.N,RF-In*%
X146037000Y-85826000D03*
%TO.P,U1,8,GND*%
%TO.N,GND*%
X147537000Y-85826000D03*
D18*
%TO.P,U1,7,1D*%
%TO.N,RF-In*%
X148582000Y-86621000D03*
%TO.P,U1,6,1S1*%
%TO.N,Net-(J4-Pin_2)*%
X148582000Y-87121000D03*
%TO.P,U1,5,1S2*%
%TO.N,Net-(J4-Pin_3)*%
X148582000Y-87621000D03*
%TO.P,U1,4,1S3*%
%TO.N,Net-(J4-Pin_4)*%
X148582000Y-88121000D03*
%TO.P,U1,3,1S4*%
%TO.N,Net-(J4-Pin_5)*%
X148582000Y-88621000D03*
%TO.P,U1,2,IN2*%
%TO.N,CLK0*%
X148582000Y-89121000D03*
D15*
%TO.P,U1,1,1~{EN}*%
%TO.N,GND*%
X147537000Y-89916000D03*
%TD*%
D19*
%TO.P,C1,2*%
%TO.N,GND*%
X147574000Y-91440000D03*
%TO.P,C1,1*%
%TO.N,/3.3V*%
X146024000Y-91440000D03*
%TD*%
D20*
%TO.P,C5,2*%
%TO.N,GND*%
X152146000Y-101346000D03*
%TO.P,C5,1*%
%TO.N,Net-(J4-Pin_2)*%
X152146000Y-98396000D03*
%TD*%
%TO.P,C4,1*%
%TO.N,Net-(J4-Pin_3)*%
X148505332Y-98396000D03*
%TO.P,C4,2*%
%TO.N,GND*%
X148505332Y-101346000D03*
%TD*%
%TO.P,C3,2*%
%TO.N,GND*%
X141224000Y-101297000D03*
%TO.P,C3,1*%
%TO.N,Net-(J4-Pin_4)*%
X141224000Y-98347000D03*
%TD*%
%TO.P,C2,1*%
%TO.N,Net-(J4-Pin_5)*%
X144864666Y-98347000D03*
%TO.P,C2,2*%
%TO.N,GND*%
X144864666Y-101297000D03*
%TD*%
D21*
%TO.N,GND*%
X146812000Y-101346000D03*
X146812000Y-87884000D03*
%TO.N,/3.3V*%
X144780000Y-91440000D03*
%TO.N,Net-(J4-Pin_5)*%
X143002000Y-95250000D03*
%TO.N,Net-(J4-Pin_4)*%
X150114000Y-94234000D03*
%TO.N,Net-(J4-Pin_3)*%
X149606000Y-96012000D03*
%TO.N,GND*%
X152146000Y-102616000D03*
X144780000Y-102616000D03*
X141224000Y-102616000D03*
X148590000Y-91440000D03*
X147828000Y-84836000D03*
X143764000Y-89916000D03*
%TO.N,CLK1*%
X142748000Y-89916000D03*
%TO.N,CLK0*%
X149860000Y-89916000D03*
%TD*%
D22*
%TO.N,GND*%
X148505332Y-101346000D02*
X152146000Y-101346000D01*
X144864666Y-101297000D02*
X148456332Y-101297000D01*
X148456332Y-101297000D02*
X148505332Y-101346000D01*
X141224000Y-101297000D02*
X144864666Y-101297000D01*
X148505332Y-101346000D02*
X146812000Y-101346000D01*
%TO.N,RF-In*%
X146037000Y-85826000D02*
X146037000Y-79769000D01*
X146037000Y-79769000D02*
X146558000Y-79248000D01*
%TO.N,Net-(J4-Pin_5)*%
X149413529Y-88621000D02*
X150622000Y-89829471D01*
X150622000Y-89829471D02*
X150622000Y-91272529D01*
X145796000Y-94488000D02*
X144864666Y-95419334D01*
X150622000Y-91272529D02*
X147406529Y-94488000D01*
X148582000Y-88621000D02*
X149413529Y-88621000D01*
X147406529Y-94488000D02*
X145796000Y-94488000D01*
X144864666Y-95419334D02*
X144864666Y-97282000D01*
%TO.N,/3.3V*%
X146024000Y-91440000D02*
X144780000Y-91440000D01*
%TO.N,Net-(J4-Pin_5)*%
X143002000Y-95250000D02*
X144526000Y-96774000D01*
%TO.N,Net-(J4-Pin_4)*%
X150114000Y-94234000D02*
X146812000Y-97536000D01*
%TO.N,Net-(J4-Pin_3)*%
X149606000Y-96012000D02*
X148844000Y-96774000D01*
%TO.N,Net-(J4-Pin_2)*%
X142748000Y-107188000D02*
X139192000Y-103632000D01*
X139192000Y-103632000D02*
X139192000Y-98640429D01*
%TO.N,GND*%
X152146000Y-101346000D02*
X152146000Y-102616000D01*
X144864666Y-102531334D02*
X144780000Y-102616000D01*
X144864666Y-101297000D02*
X144864666Y-102531334D01*
X141224000Y-101297000D02*
X141224000Y-102616000D01*
%TO.N,Net-(J4-Pin_2)*%
X139192000Y-98640429D02*
X140665571Y-100114000D01*
X140665571Y-100114000D02*
X150428000Y-100114000D01*
X150428000Y-100114000D02*
X152146000Y-98396000D01*
%TO.N,Net-(J4-Pin_3)*%
X139700000Y-98582744D02*
X140831256Y-99714000D01*
X147187332Y-99714000D02*
X148505332Y-98396000D01*
X140831256Y-99714000D02*
X147187332Y-99714000D01*
%TO.N,Net-(J4-Pin_4)*%
X148582000Y-88121000D02*
X149479215Y-88121000D01*
X142191000Y-99314000D02*
X141224000Y-98347000D01*
X149479215Y-88121000D02*
X151130000Y-89771785D01*
X151130000Y-89771785D02*
X151130000Y-93218000D01*
X146812000Y-97536000D02*
X146812000Y-98159410D01*
X151130000Y-93218000D02*
X150114000Y-94234000D01*
X146812000Y-98159410D02*
X145657410Y-99314000D01*
X145657410Y-99314000D02*
X142191000Y-99314000D01*
%TO.N,Net-(J4-Pin_5)*%
X144864666Y-98347000D02*
X144864666Y-97282000D01*
X144864666Y-97282000D02*
X144864666Y-97112666D01*
%TO.N,Net-(J4-Pin_2)*%
X152146000Y-98396000D02*
X152146000Y-98552000D01*
X139192000Y-98640429D02*
X139192000Y-96266000D01*
X139192000Y-96266000D02*
X140462000Y-94996000D01*
X140462000Y-94996000D02*
X140462000Y-88980942D01*
X140462000Y-88980942D02*
X142821942Y-86621000D01*
X142821942Y-86621000D02*
X144992000Y-86621000D01*
%TO.N,Net-(J4-Pin_3)*%
X144992000Y-87121000D02*
X142887628Y-87121000D01*
X142887628Y-87121000D02*
X140970000Y-89038628D01*
X140970000Y-89038628D02*
X140970000Y-95250000D01*
X140970000Y-95250000D02*
X139700000Y-96520000D01*
X139700000Y-96520000D02*
X139700000Y-98582744D01*
%TO.N,Net-(J4-Pin_4)*%
X144992000Y-87621000D02*
X142953314Y-87621000D01*
X141478000Y-96520000D02*
X141224000Y-96774000D01*
X142953314Y-87621000D02*
X141478000Y-89096314D01*
X141478000Y-89096314D02*
X141478000Y-96520000D01*
%TO.N,Net-(J4-Pin_5)*%
X144992000Y-88121000D02*
X143019000Y-88121000D01*
X141986000Y-94234000D02*
X143002000Y-95250000D01*
X143019000Y-88121000D02*
X141986000Y-89154000D01*
X141986000Y-89154000D02*
X141986000Y-94234000D01*
%TO.N,Net-(J4-Pin_3)*%
X148582000Y-87621000D02*
X149597000Y-87621000D01*
X149597000Y-87621000D02*
X151638000Y-89662000D01*
X151638000Y-89662000D02*
X151638000Y-93980000D01*
X151638000Y-93980000D02*
X149606000Y-96012000D01*
%TO.N,Net-(J4-Pin_2)*%
X148582000Y-87121000D02*
X149662686Y-87121000D01*
X152146000Y-89604314D02*
X152146000Y-96774000D01*
X149662686Y-87121000D02*
X152146000Y-89604314D01*
%TO.N,Net-(J4-Pin_3)*%
X148505332Y-97112668D02*
X148844000Y-96774000D01*
%TO.N,Net-(J4-Pin_2)*%
X152146000Y-98396000D02*
X152146000Y-96774000D01*
%TO.N,Net-(J4-Pin_3)*%
X148505332Y-98396000D02*
X148505332Y-97112668D01*
%TO.N,Net-(J4-Pin_5)*%
X144864666Y-97112666D02*
X144526000Y-96774000D01*
%TO.N,Net-(J4-Pin_4)*%
X141224000Y-98347000D02*
X141224000Y-96774000D01*
%TO.N,GND*%
X147574000Y-91440000D02*
X148590000Y-91440000D01*
%TO.N,CLK1*%
X144992000Y-88621000D02*
X143956471Y-88621000D01*
X143956471Y-88621000D02*
X142748000Y-89829471D01*
X142748000Y-89829471D02*
X142748000Y-89916000D01*
%TO.N,GND*%
X147537000Y-85127000D02*
X147828000Y-84836000D01*
X147537000Y-85826000D02*
X147537000Y-85127000D01*
X144305000Y-89121000D02*
X143764000Y-89662000D01*
X144992000Y-89121000D02*
X144305000Y-89121000D01*
%TO.N,CLK0*%
X149065000Y-89121000D02*
X149860000Y-89916000D01*
X148582000Y-89121000D02*
X149065000Y-89121000D01*
%TO.N,RF-In*%
X148582000Y-86621000D02*
X150107000Y-86621000D01*
X150107000Y-86621000D02*
X152146000Y-84582000D01*
X152146000Y-80264000D02*
X151130000Y-79248000D01*
X152146000Y-84582000D02*
X152146000Y-80264000D01*
X151130000Y-79248000D02*
X146558000Y-79248000D01*
%TO.N,GND*%
X147537000Y-91403000D02*
X147574000Y-91440000D01*
X147537000Y-89916000D02*
X147537000Y-91403000D01*
%TO.N,/3.3V*%
X146037000Y-91427000D02*
X146024000Y-91440000D01*
X146037000Y-89916000D02*
X146037000Y-91427000D01*
%TD*%
M02*
