%TF.GenerationSoftware,KiCad,Pcbnew,8.0.1*%
%TF.CreationDate,2024-04-10T11:13:06-07:00*%
%TF.ProjectId,TS3A5017-Mixer,54533341-3530-4313-972d-4d697865722e,rev?*%
%TF.SameCoordinates,Original*%
%TF.FileFunction,Copper,L4,Bot*%
%TF.FilePolarity,Positive*%
%FSLAX46Y46*%
G04 Gerber Fmt 4.6, Leading zero omitted, Abs format (unit mm)*
G04 Created by KiCad (PCBNEW 8.0.1) date 2024-04-10 11:13:06*
%MOMM*%
%LPD*%
G01*
G04 APERTURE LIST*
G04 Aperture macros list*
%AMRoundRect*
0 Rectangle with rounded corners*
0 $1 Rounding radius*
0 $2 $3 $4 $5 $6 $7 $8 $9 X,Y pos of 4 corners*
0 Add a 4 corners polygon primitive as box body*
4,1,4,$2,$3,$4,$5,$6,$7,$8,$9,$2,$3,0*
0 Add four circle primitives for the rounded corners*
1,1,$1+$1,$2,$3*
1,1,$1+$1,$4,$5*
1,1,$1+$1,$6,$7*
1,1,$1+$1,$8,$9*
0 Add four rect primitives between the rounded corners*
20,1,$1+$1,$2,$3,$4,$5,0*
20,1,$1+$1,$4,$5,$6,$7,0*
20,1,$1+$1,$6,$7,$8,$9,0*
20,1,$1+$1,$8,$9,$2,$3,0*%
G04 Aperture macros list end*
%TA.AperFunction,ComponentPad*%
%ADD10RoundRect,0.200100X0.949900X-0.949900X0.949900X0.949900X-0.949900X0.949900X-0.949900X-0.949900X0*%
%TD*%
%TA.AperFunction,ComponentPad*%
%ADD11C,2.500000*%
%TD*%
%TA.AperFunction,ComponentPad*%
%ADD12R,1.700000X1.700000*%
%TD*%
%TA.AperFunction,ComponentPad*%
%ADD13O,1.700000X1.700000*%
%TD*%
%TA.AperFunction,ComponentPad*%
%ADD14RoundRect,0.200100X-0.949900X-0.949900X0.949900X-0.949900X0.949900X0.949900X-0.949900X0.949900X0*%
%TD*%
%TA.AperFunction,ComponentPad*%
%ADD15RoundRect,0.200100X-0.949900X0.949900X-0.949900X-0.949900X0.949900X-0.949900X0.949900X0.949900X0*%
%TD*%
%TA.AperFunction,ViaPad*%
%ADD16C,0.600000*%
%TD*%
%TA.AperFunction,Conductor*%
%ADD17C,0.156464*%
%TD*%
%TA.AperFunction,Conductor*%
%ADD18C,0.200000*%
%TD*%
G04 APERTURE END LIST*
D10*
%TO.P,J3,1,In*%
%TO.N,CLK1*%
X131821220Y-89915385D03*
D11*
%TO.P,J3,2,Ext*%
%TO.N,GND*%
X129281220Y-92455385D03*
X134361220Y-92455385D03*
X129281220Y-87375385D03*
X134361220Y-87375385D03*
%TD*%
D12*
%TO.P,J4,1,Pin_1*%
%TO.N,/3.3V*%
X132588000Y-104140000D03*
D13*
%TO.P,J4,2,Pin_2*%
%TO.N,GND*%
X132588000Y-106680000D03*
%TD*%
D14*
%TO.P,J1,1,In*%
%TO.N,RF-In*%
X146501153Y-78155632D03*
D11*
%TO.P,J1,2,Ext*%
%TO.N,GND*%
X143961153Y-75615632D03*
X143961153Y-80695632D03*
X149041153Y-75615632D03*
X149041153Y-80695632D03*
%TD*%
D15*
%TO.P,J2,1,In*%
%TO.N,CLK0*%
X160589122Y-89936874D03*
D11*
%TO.P,J2,2,Ext*%
%TO.N,GND*%
X163129122Y-87396874D03*
X158049122Y-87396874D03*
X163129122Y-92476874D03*
X158049122Y-92476874D03*
%TD*%
D16*
%TO.N,/3.3V*%
X144780000Y-91440000D03*
X139446000Y-97536000D03*
X147320000Y-97536000D03*
%TO.N,GND*%
X153670000Y-107696000D03*
X153670000Y-87122000D03*
X153924000Y-89154000D03*
X153162000Y-94996000D03*
X147574000Y-84582000D03*
X141224000Y-85852000D03*
X142240000Y-84582000D03*
X145288000Y-97282000D03*
X153162000Y-97282000D03*
X147574000Y-94996000D03*
X139954000Y-94996000D03*
X148082000Y-99822000D03*
X162560000Y-100584000D03*
X148844000Y-91440000D03*
X143764000Y-89662000D03*
X140208000Y-99822000D03*
X145288000Y-94996000D03*
%TO.N,/Q-Pos*%
X143764000Y-86360000D03*
X150622000Y-86868000D03*
X143764000Y-93980000D03*
%TO.N,/I-Neg*%
X149352000Y-93980000D03*
X141732000Y-88900000D03*
X151130000Y-88900000D03*
%TO.N,/Q-Neg*%
X152146000Y-88138000D03*
X141732000Y-93980000D03*
X141478000Y-87122000D03*
%TO.N,/I-Pos*%
X152146000Y-87122000D03*
X142748000Y-86868000D03*
X151638000Y-93980000D03*
%TD*%
D17*
%TO.N,/Q-Pos*%
X143002000Y-94742000D02*
X143764000Y-93980000D01*
D18*
X143764000Y-86360000D02*
X144026000Y-86622000D01*
D17*
X141224000Y-94742000D02*
X143002000Y-94742000D01*
D18*
X150376000Y-86622000D02*
X150622000Y-86868000D01*
D17*
X140462000Y-86360000D02*
X139700000Y-87122000D01*
X139700000Y-93218000D02*
X141224000Y-94742000D01*
D18*
X144026000Y-86622000D02*
X150376000Y-86622000D01*
D17*
X143764000Y-86360000D02*
X140462000Y-86360000D01*
X139700000Y-87122000D02*
X139700000Y-93218000D01*
%TO.N,/I-Neg*%
X151130000Y-92202000D02*
X151130000Y-88900000D01*
X141986000Y-88646000D02*
X150876000Y-88646000D01*
X149352000Y-93980000D02*
X151130000Y-92202000D01*
X150876000Y-88646000D02*
X151130000Y-88900000D01*
X141732000Y-88900000D02*
X141986000Y-88646000D01*
%TO.N,/Q-Neg*%
X140716000Y-87884000D02*
X141478000Y-87122000D01*
X141646323Y-87122000D02*
X142662323Y-88138000D01*
X141732000Y-93980000D02*
X140716000Y-92964000D01*
X142662323Y-88138000D02*
X152146000Y-88138000D01*
X141478000Y-87122000D02*
X141646323Y-87122000D01*
X140716000Y-92964000D02*
X140716000Y-87884000D01*
D18*
%TO.N,/I-Pos*%
X142748000Y-86868000D02*
X143002000Y-86868000D01*
X143002000Y-86868000D02*
X143502000Y-87368000D01*
D17*
X152146000Y-87122000D02*
X153162000Y-88138000D01*
D18*
X143502000Y-87368000D02*
X151900000Y-87368000D01*
D17*
X153162000Y-88138000D02*
X153162000Y-92456000D01*
X153162000Y-92456000D02*
X151638000Y-93980000D01*
D18*
X151900000Y-87368000D02*
X152146000Y-87122000D01*
%TD*%
M02*
