M48
; DRILL file {KiCad 8.0.1} date 2024-04-12T11:36:52-0500
; FORMAT={-:-/ absolute / inch / decimal}
; #@! TF.CreationDate,2024-04-12T11:36:52-05:00
; #@! TF.GenerationSoftware,Kicad,Pcbnew,8.0.1
; #@! TF.FileFunction,Plated,1,4,PTH
FMAT,2
INCH
; #@! TA.AperFunction,Plated,PTH,ViaDrill
T1C0.0118
; #@! TA.AperFunction,Plated,PTH,ComponentDrill
T2C0.0394
; #@! TA.AperFunction,Plated,PTH,ComponentDrill
T3C0.0591
; #@! TA.AperFunction,Plated,PTH,ComponentDrill
T4C0.0669
%
G90
G05
T1
X5.49Y-3.84
X5.51Y-3.74
X5.52Y-3.93
X5.56Y-3.38
X5.57Y-3.43
X5.58Y-3.5
X5.58Y-3.7
X5.6Y-3.33
X5.62Y-3.42
X5.66Y-3.4
X5.66Y-3.53
X5.66Y-3.7
X5.7Y-3.6
X5.72Y-3.74
X5.72Y-3.83
X5.8Y-3.84
X5.81Y-3.33
X5.81Y-3.74
X5.83Y-3.93
X5.86Y-3.6
X5.88Y-3.7
X5.93Y-3.42
X5.95Y-3.5
X5.97Y-3.7
X5.99Y-3.43
X5.99Y-3.47
X6.03Y-3.74
X6.03Y-3.83
X6.05Y-3.43
X6.05Y-4.24
X6.06Y-3.51
X6.4Y-3.96
T2
X5.22Y-4.1
X5.22Y-4.2
T3
X5.1898Y-3.54
X5.7678Y-3.077
X6.3224Y-3.5408
T4
X5.0898Y-3.44
X5.0898Y-3.64
X5.2898Y-3.44
X5.2898Y-3.64
X5.6678Y-2.977
X5.6678Y-3.177
X5.8678Y-2.977
X5.8678Y-3.177
X6.2224Y-3.4408
X6.2224Y-3.6408
X6.4224Y-3.4408
X6.4224Y-3.6408
M30
