%TF.GenerationSoftware,KiCad,Pcbnew,8.0.1*%
%TF.CreationDate,2024-04-10T11:13:06-07:00*%
%TF.ProjectId,TS3A5017-Mixer,54533341-3530-4313-972d-4d697865722e,rev?*%
%TF.SameCoordinates,Original*%
%TF.FileFunction,Paste,Top*%
%TF.FilePolarity,Positive*%
%FSLAX46Y46*%
G04 Gerber Fmt 4.6, Leading zero omitted, Abs format (unit mm)*
G04 Created by KiCad (PCBNEW 8.0.1) date 2024-04-10 11:13:06*
%MOMM*%
%LPD*%
G01*
G04 APERTURE LIST*
G04 Aperture macros list*
%AMRoundRect*
0 Rectangle with rounded corners*
0 $1 Rounding radius*
0 $2 $3 $4 $5 $6 $7 $8 $9 X,Y pos of 4 corners*
0 Add a 4 corners polygon primitive as box body*
4,1,4,$2,$3,$4,$5,$6,$7,$8,$9,$2,$3,0*
0 Add four circle primitives for the rounded corners*
1,1,$1+$1,$2,$3*
1,1,$1+$1,$4,$5*
1,1,$1+$1,$6,$7*
1,1,$1+$1,$8,$9*
0 Add four rect primitives between the rounded corners*
20,1,$1+$1,$2,$3,$4,$5,0*
20,1,$1+$1,$4,$5,$6,$7,0*
20,1,$1+$1,$6,$7,$8,$9,0*
20,1,$1+$1,$8,$9,$2,$3,0*%
%AMFreePoly0*
4,1,10,0.115000,-0.351709,0.098830,-0.412057,0.057057,-0.453830,0.000000,-0.469118,-0.057057,-0.453830,-0.098830,-0.412057,-0.115000,-0.351709,-0.115000,0.330000,0.115000,0.330000,0.115000,-0.351709,0.115000,-0.351709,$1*%
%AMFreePoly1*
4,1,10,0.412057,0.098830,0.453830,0.057057,0.469118,0.000000,0.453830,-0.057057,0.412057,-0.098830,0.351710,-0.115000,-0.330000,-0.115000,-0.330000,0.115000,0.351710,0.115000,0.412057,0.098830,0.412057,0.098830,$1*%
%AMFreePoly2*
4,1,10,0.057057,0.453830,0.098830,0.412057,0.115000,0.351709,0.115000,-0.330000,-0.115000,-0.330000,-0.115000,0.351709,-0.098830,0.412057,-0.057057,0.453830,0.000000,0.469118,0.057057,0.453830,0.057057,0.453830,$1*%
%AMFreePoly3*
4,1,11,0.330000,-0.115000,-0.330000,-0.115000,-0.351710,-0.115000,-0.412057,-0.098830,-0.453830,-0.057057,-0.469118,0.000000,-0.453830,0.057057,-0.412057,0.098830,-0.351710,0.115000,0.330000,0.115000,0.330000,-0.115000,0.330000,-0.115000,$1*%
G04 Aperture macros list end*
%ADD10RoundRect,0.079500X0.079500X0.100500X-0.079500X0.100500X-0.079500X-0.100500X0.079500X-0.100500X0*%
%ADD11RoundRect,0.079500X0.100500X-0.079500X0.100500X0.079500X-0.100500X0.079500X-0.100500X-0.079500X0*%
%ADD12RoundRect,0.079500X-0.079500X-0.100500X0.079500X-0.100500X0.079500X0.100500X-0.079500X0.100500X0*%
%ADD13RoundRect,0.225000X-0.225000X-0.250000X0.225000X-0.250000X0.225000X0.250000X-0.225000X0.250000X0*%
%ADD14R,0.820000X1.070000*%
%ADD15FreePoly0,180.000000*%
%ADD16FreePoly1,180.000000*%
%ADD17FreePoly2,180.000000*%
%ADD18FreePoly3,180.000000*%
%ADD19RoundRect,0.150000X0.512500X0.150000X-0.512500X0.150000X-0.512500X-0.150000X0.512500X-0.150000X0*%
%ADD20R,2.500000X1.200000*%
G04 APERTURE END LIST*
D10*
%TO.C,C4*%
X142770808Y-85854731D03*
X142080808Y-85854731D03*
%TD*%
%TO.C,C5*%
X143785553Y-84705502D03*
X143095553Y-84705502D03*
%TD*%
D11*
%TO.C,C10*%
X147991000Y-98897000D03*
X147991000Y-98207000D03*
%TD*%
D10*
%TO.C,C9*%
X144526000Y-94996000D03*
X143836000Y-94996000D03*
%TD*%
D12*
%TO.C,C3*%
X153071000Y-88138000D03*
X153761000Y-88138000D03*
%TD*%
D13*
%TO.C,C1*%
X146024000Y-91440000D03*
X147574000Y-91440000D03*
%TD*%
D14*
%TO.C,U1*%
X147347000Y-88556000D03*
X147347000Y-87186000D03*
X146227000Y-88556000D03*
X146227000Y-87186000D03*
D15*
X147537000Y-89916000D03*
D16*
X148582000Y-89121000D03*
X148582000Y-88621000D03*
X148582000Y-88121000D03*
X148582000Y-87621000D03*
X148582000Y-87121000D03*
X148582000Y-86621000D03*
D17*
X147537000Y-85826000D03*
X146037000Y-85826000D03*
D18*
X144992000Y-86621000D03*
X144992000Y-87121000D03*
X144992000Y-87621000D03*
X144992000Y-88121000D03*
X144992000Y-88621000D03*
X144992000Y-89121000D03*
D15*
X146037000Y-89916000D03*
%TD*%
D10*
%TO.C,C14*%
X157734000Y-98298000D03*
X157044000Y-98298000D03*
%TD*%
D12*
%TO.C,C12*%
X148662000Y-94996000D03*
X149352000Y-94996000D03*
%TD*%
D11*
%TO.C,C6*%
X140117000Y-98831000D03*
X140117000Y-98141000D03*
%TD*%
D12*
%TO.C,R1*%
X142312000Y-100584000D03*
X143002000Y-100584000D03*
%TD*%
%TO.C,C8*%
X140854000Y-94996000D03*
X141544000Y-94996000D03*
%TD*%
D10*
%TO.C,C13*%
X150622000Y-100584000D03*
X149932000Y-100584000D03*
%TD*%
D19*
%TO.C,U2*%
X143794500Y-98232000D03*
X143794500Y-97282000D03*
X143794500Y-96332000D03*
X141519500Y-96332000D03*
X141519500Y-98232000D03*
%TD*%
D12*
%TO.C,C15*%
X152817000Y-103632000D03*
X153507000Y-103632000D03*
%TD*%
D10*
%TO.C,C11*%
X152400000Y-94996000D03*
X151710000Y-94996000D03*
%TD*%
D20*
%TO.C,J5*%
X162560000Y-102616000D03*
X156060000Y-103716000D03*
X156060000Y-107716000D03*
X156060000Y-110716000D03*
%TD*%
D19*
%TO.C,U3*%
X151644000Y-98166000D03*
X151644000Y-97216000D03*
X151644000Y-96266000D03*
X149369000Y-96266000D03*
X149369000Y-98166000D03*
%TD*%
D12*
%TO.C,C2*%
X152055000Y-89154000D03*
X152745000Y-89154000D03*
%TD*%
%TO.C,R2*%
X149932000Y-99568000D03*
X150622000Y-99568000D03*
%TD*%
D10*
%TO.C,C7*%
X143002000Y-99568000D03*
X142312000Y-99568000D03*
%TD*%
M02*
