M48
; DRILL file {KiCad 8.0.1} date 2024-03-25T18:19:32-0500
; FORMAT={-:-/ absolute / inch / decimal}
; #@! TF.CreationDate,2024-03-25T18:19:32-05:00
; #@! TF.GenerationSoftware,Kicad,Pcbnew,8.0.1
; #@! TF.FileFunction,Plated,1,2,PTH
FMAT,2
INCH
; #@! TA.AperFunction,Plated,PTH,ViaDrill
T1C0.0118
; #@! TA.AperFunction,Plated,PTH,ComponentDrill
T2C0.0394
; #@! TA.AperFunction,Plated,PTH,ComponentDrill
T3C0.0591
; #@! TA.AperFunction,Plated,PTH,ComponentDrill
T4C0.0669
%
G90
G05
T1
X5.56Y-4.04
X5.62Y-3.54
X5.63Y-3.75
X5.66Y-3.54
X5.7Y-3.6
X5.7Y-4.04
X5.78Y-3.46
X5.78Y-3.99
X5.82Y-3.34
X5.85Y-3.6
X5.89Y-3.78
X5.9Y-3.54
X5.91Y-3.71
X5.99Y-4.04
T2
X5.52Y-4.22
X5.62Y-4.22
X5.72Y-4.22
X5.82Y-4.22
X5.92Y-4.22
X6.02Y-4.22
T3
X5.25Y-3.54
X5.77Y-3.12
X6.28Y-3.54
T4
X5.15Y-3.44
X5.15Y-3.64
X5.35Y-3.44
X5.35Y-3.64
X5.67Y-3.02
X5.67Y-3.22
X5.87Y-3.02
X5.87Y-3.22
X6.18Y-3.44
X6.18Y-3.64
X6.38Y-3.44
X6.38Y-3.64
M30
