%TF.GenerationSoftware,KiCad,Pcbnew,8.0.1*%
%TF.CreationDate,2024-03-25T18:19:42-05:00*%
%TF.ProjectId,TS3A5017-Mixer,54533341-3530-4313-972d-4d697865722e,rev?*%
%TF.SameCoordinates,Original*%
%TF.FileFunction,Copper,L2,Bot*%
%TF.FilePolarity,Positive*%
%FSLAX46Y46*%
G04 Gerber Fmt 4.6, Leading zero omitted, Abs format (unit mm)*
G04 Created by KiCad (PCBNEW 8.0.1) date 2024-03-25 18:19:42*
%MOMM*%
%LPD*%
G01*
G04 APERTURE LIST*
%TA.AperFunction,ComponentPad*%
%ADD10C,2.250000*%
%TD*%
%TA.AperFunction,ComponentPad*%
%ADD11C,2.550000*%
%TD*%
%TA.AperFunction,ComponentPad*%
%ADD12R,1.700000X1.700000*%
%TD*%
%TA.AperFunction,ComponentPad*%
%ADD13O,1.700000X1.700000*%
%TD*%
%TA.AperFunction,ViaPad*%
%ADD14C,0.600000*%
%TD*%
%TA.AperFunction,Conductor*%
%ADD15C,0.200000*%
%TD*%
G04 APERTURE END LIST*
D10*
%TO.P,J1,1,In*%
%TO.N,RF-In*%
X146558000Y-79248000D03*
D11*
%TO.P,J1,S1*%
%TO.N,N/C*%
X149098000Y-81788000D03*
%TO.P,J1,S2*%
X144018000Y-81788000D03*
%TO.P,J1,S3*%
X149098000Y-76708000D03*
%TO.P,J1,S4*%
X144018000Y-76708000D03*
%TD*%
D10*
%TO.P,J2,1,In*%
%TO.N,CLK0*%
X159512000Y-89916000D03*
D11*
%TO.P,J2,S1*%
%TO.N,N/C*%
X156972000Y-92456000D03*
%TO.P,J2,S2*%
X156972000Y-87376000D03*
%TO.P,J2,S3*%
X162052000Y-92456000D03*
%TO.P,J2,S4*%
X162052000Y-87376000D03*
%TD*%
D10*
%TO.P,J3,1,In*%
%TO.N,CLK1*%
X133350000Y-89916000D03*
D11*
%TO.P,J3,S1*%
%TO.N,N/C*%
X135890000Y-87376000D03*
%TO.P,J3,S2*%
X135890000Y-92456000D03*
%TO.P,J3,S3*%
X130810000Y-87376000D03*
%TO.P,J3,S4*%
X130810000Y-92456000D03*
%TD*%
D12*
%TO.P,J4,1,Pin_1*%
%TO.N,/3.3V*%
X140208000Y-107188000D03*
D13*
%TO.P,J4,2,Pin_2*%
%TO.N,Net-(J4-Pin_2)*%
X142748000Y-107188000D03*
%TO.P,J4,3,Pin_3*%
%TO.N,Net-(J4-Pin_3)*%
X145288000Y-107188000D03*
%TO.P,J4,4,Pin_4*%
%TO.N,Net-(J4-Pin_4)*%
X147828000Y-107188000D03*
%TO.P,J4,5,Pin_5*%
%TO.N,Net-(J4-Pin_5)*%
X150368000Y-107188000D03*
%TO.P,J4,6,Pin_6*%
%TO.N,GND*%
X152908000Y-107188000D03*
%TD*%
D14*
%TO.N,GND*%
X146812000Y-101346000D03*
X146812000Y-87884000D03*
%TO.N,/3.3V*%
X144780000Y-91440000D03*
%TO.N,Net-(J4-Pin_5)*%
X143002000Y-95250000D03*
%TO.N,Net-(J4-Pin_4)*%
X150114000Y-94234000D03*
%TO.N,Net-(J4-Pin_3)*%
X149606000Y-96012000D03*
%TO.N,GND*%
X152146000Y-102616000D03*
X144780000Y-102616000D03*
X141224000Y-102616000D03*
X148590000Y-91440000D03*
X147828000Y-84836000D03*
X143764000Y-89916000D03*
%TO.N,CLK1*%
X142748000Y-89916000D03*
%TO.N,CLK0*%
X149860000Y-89916000D03*
%TD*%
D15*
%TO.N,/3.3V*%
X144780000Y-91440000D02*
X138684000Y-97536000D01*
X138684000Y-97536000D02*
X138684000Y-104140000D01*
X138684000Y-104140000D02*
X140208000Y-105664000D01*
X140208000Y-105664000D02*
X140208000Y-107188000D01*
%TO.N,Net-(J4-Pin_5)*%
X150368000Y-107188000D02*
X149098000Y-108458000D01*
X144931654Y-108458000D02*
X144018000Y-107544346D01*
X149098000Y-108458000D02*
X144931654Y-108458000D01*
X144018000Y-107544346D02*
X144018000Y-104902000D01*
X143002000Y-103886000D02*
X143002000Y-95250000D01*
X144018000Y-104902000D02*
X143002000Y-103886000D01*
%TO.N,Net-(J4-Pin_4)*%
X147828000Y-107188000D02*
X150206000Y-104810000D01*
X150206000Y-94326000D02*
X150114000Y-94234000D01*
X150206000Y-104810000D02*
X150206000Y-94326000D01*
%TO.N,Net-(J4-Pin_3)*%
X145288000Y-107188000D02*
X145288000Y-104815471D01*
X145288000Y-104815471D02*
X149606000Y-100497471D01*
X149606000Y-100497471D02*
X149606000Y-96012000D01*
%TO.N,CLK1*%
X133350000Y-89916000D02*
X142748000Y-89916000D01*
%TO.N,CLK0*%
X149860000Y-89916000D02*
X159512000Y-89916000D01*
%TD*%
%TA.AperFunction,Conductor*%
%TO.N,GND*%
G36*
X142124768Y-95046980D02*
G01*
X142180701Y-95088852D01*
X142205118Y-95154316D01*
X142204654Y-95177045D01*
X142196435Y-95249995D01*
X142196435Y-95250003D01*
X142216630Y-95429249D01*
X142216631Y-95429254D01*
X142276211Y-95599523D01*
X142372185Y-95752263D01*
X142374445Y-95755097D01*
X142375334Y-95757275D01*
X142375889Y-95758158D01*
X142375734Y-95758255D01*
X142400855Y-95819783D01*
X142401500Y-95832412D01*
X142401500Y-103799330D01*
X142401499Y-103799348D01*
X142401499Y-103965054D01*
X142401498Y-103965054D01*
X142442423Y-104117785D01*
X142471358Y-104167900D01*
X142471359Y-104167904D01*
X142471360Y-104167904D01*
X142521479Y-104254714D01*
X142521481Y-104254717D01*
X142640349Y-104373585D01*
X142640355Y-104373590D01*
X143381181Y-105114416D01*
X143414666Y-105175739D01*
X143417500Y-105202097D01*
X143417500Y-105815439D01*
X143397815Y-105882478D01*
X143345011Y-105928233D01*
X143275853Y-105938177D01*
X143241097Y-105927822D01*
X143231790Y-105923482D01*
X143211663Y-105914097D01*
X143211659Y-105914096D01*
X143211655Y-105914094D01*
X142983413Y-105852938D01*
X142983403Y-105852936D01*
X142748001Y-105832341D01*
X142747999Y-105832341D01*
X142512596Y-105852936D01*
X142512586Y-105852938D01*
X142284344Y-105914094D01*
X142284335Y-105914098D01*
X142070171Y-106013964D01*
X142070169Y-106013965D01*
X141876600Y-106149503D01*
X141754673Y-106271430D01*
X141693350Y-106304914D01*
X141623658Y-106299930D01*
X141567725Y-106258058D01*
X141550810Y-106227081D01*
X141501797Y-106095671D01*
X141501793Y-106095664D01*
X141415547Y-105980455D01*
X141415544Y-105980452D01*
X141300335Y-105894206D01*
X141300328Y-105894202D01*
X141165482Y-105843908D01*
X141165483Y-105843908D01*
X141105883Y-105837501D01*
X141105881Y-105837500D01*
X141105873Y-105837500D01*
X141105865Y-105837500D01*
X140932500Y-105837500D01*
X140865461Y-105817815D01*
X140819706Y-105765011D01*
X140808500Y-105713500D01*
X140808500Y-105584945D01*
X140808500Y-105584943D01*
X140767577Y-105432216D01*
X140767573Y-105432209D01*
X140688524Y-105295290D01*
X140688521Y-105295286D01*
X140688520Y-105295284D01*
X140576716Y-105183480D01*
X140576715Y-105183479D01*
X140572385Y-105179149D01*
X140572374Y-105179139D01*
X139320819Y-103927584D01*
X139287334Y-103866261D01*
X139284500Y-103839903D01*
X139284500Y-97836096D01*
X139304185Y-97769057D01*
X139320814Y-97748420D01*
X141993754Y-95075480D01*
X142055076Y-95041996D01*
X142124768Y-95046980D01*
G37*
%TD.AperFunction*%
%TA.AperFunction,Conductor*%
G36*
X164542539Y-74180185D02*
G01*
X164588294Y-74232989D01*
X164599500Y-74284500D01*
X164599500Y-115961500D01*
X164579815Y-116028539D01*
X164527011Y-116074294D01*
X164475500Y-116085500D01*
X127878500Y-116085500D01*
X127811461Y-116065815D01*
X127765706Y-116013011D01*
X127754500Y-115961500D01*
X127754500Y-104219054D01*
X138083498Y-104219054D01*
X138083499Y-104219057D01*
X138123012Y-104366521D01*
X138124423Y-104371784D01*
X138124424Y-104371788D01*
X138153114Y-104421481D01*
X138153115Y-104421481D01*
X138203477Y-104508712D01*
X138203481Y-104508717D01*
X138322349Y-104627585D01*
X138322355Y-104627590D01*
X139327435Y-105632670D01*
X139360920Y-105693993D01*
X139355936Y-105763685D01*
X139314064Y-105819618D01*
X139257965Y-105841690D01*
X139258068Y-105842124D01*
X139255051Y-105842836D01*
X139253010Y-105843640D01*
X139250519Y-105843907D01*
X139115671Y-105894202D01*
X139115664Y-105894206D01*
X139000455Y-105980452D01*
X139000452Y-105980455D01*
X138914206Y-106095664D01*
X138914202Y-106095671D01*
X138863908Y-106230517D01*
X138857501Y-106290116D01*
X138857500Y-106290135D01*
X138857500Y-108085870D01*
X138857501Y-108085876D01*
X138863908Y-108145483D01*
X138914202Y-108280328D01*
X138914206Y-108280335D01*
X139000452Y-108395544D01*
X139000455Y-108395547D01*
X139115664Y-108481793D01*
X139115671Y-108481797D01*
X139250517Y-108532091D01*
X139250516Y-108532091D01*
X139257444Y-108532835D01*
X139310127Y-108538500D01*
X141105872Y-108538499D01*
X141165483Y-108532091D01*
X141300331Y-108481796D01*
X141415546Y-108395546D01*
X141501796Y-108280331D01*
X141550810Y-108148916D01*
X141592681Y-108092984D01*
X141658145Y-108068566D01*
X141726418Y-108083417D01*
X141754673Y-108104569D01*
X141876599Y-108226495D01*
X141973384Y-108294265D01*
X142070165Y-108362032D01*
X142070167Y-108362033D01*
X142070170Y-108362035D01*
X142284337Y-108461903D01*
X142512592Y-108523063D01*
X142689034Y-108538500D01*
X142747999Y-108543659D01*
X142748000Y-108543659D01*
X142748001Y-108543659D01*
X142806966Y-108538500D01*
X142983408Y-108523063D01*
X143211663Y-108461903D01*
X143425830Y-108362035D01*
X143619401Y-108226495D01*
X143647477Y-108198417D01*
X143708797Y-108164934D01*
X143778489Y-108169918D01*
X143822838Y-108198419D01*
X144446793Y-108822374D01*
X144446803Y-108822385D01*
X144451133Y-108826715D01*
X144451134Y-108826716D01*
X144562938Y-108938520D01*
X144649749Y-108988639D01*
X144649751Y-108988641D01*
X144687805Y-109010611D01*
X144699869Y-109017577D01*
X144852597Y-109058501D01*
X144852600Y-109058501D01*
X145018307Y-109058501D01*
X145018323Y-109058500D01*
X149011331Y-109058500D01*
X149011347Y-109058501D01*
X149018943Y-109058501D01*
X149177054Y-109058501D01*
X149177057Y-109058501D01*
X149329785Y-109017577D01*
X149379904Y-108988639D01*
X149466716Y-108938520D01*
X149578520Y-108826716D01*
X149578520Y-108826714D01*
X149588728Y-108816507D01*
X149588730Y-108816504D01*
X149884470Y-108520763D01*
X149945791Y-108487280D01*
X150004238Y-108488670D01*
X150132592Y-108523063D01*
X150309034Y-108538500D01*
X150367999Y-108543659D01*
X150368000Y-108543659D01*
X150368001Y-108543659D01*
X150426966Y-108538500D01*
X150603408Y-108523063D01*
X150831663Y-108461903D01*
X151045830Y-108362035D01*
X151239401Y-108226495D01*
X151406495Y-108059401D01*
X151536730Y-107873405D01*
X151591307Y-107829781D01*
X151660805Y-107822587D01*
X151723160Y-107854110D01*
X151739879Y-107873405D01*
X151869890Y-108059078D01*
X152036917Y-108226105D01*
X152230421Y-108361600D01*
X152444507Y-108461429D01*
X152444516Y-108461433D01*
X152658000Y-108518634D01*
X152658000Y-107621012D01*
X152715007Y-107653925D01*
X152842174Y-107688000D01*
X152973826Y-107688000D01*
X153100993Y-107653925D01*
X153158000Y-107621012D01*
X153158000Y-108518633D01*
X153371483Y-108461433D01*
X153371492Y-108461429D01*
X153585578Y-108361600D01*
X153779082Y-108226105D01*
X153946105Y-108059082D01*
X154081600Y-107865578D01*
X154181429Y-107651492D01*
X154181432Y-107651486D01*
X154238636Y-107438000D01*
X153341012Y-107438000D01*
X153373925Y-107380993D01*
X153408000Y-107253826D01*
X153408000Y-107122174D01*
X153373925Y-106995007D01*
X153341012Y-106938000D01*
X154238636Y-106938000D01*
X154238635Y-106937999D01*
X154181432Y-106724513D01*
X154181429Y-106724507D01*
X154081600Y-106510422D01*
X154081599Y-106510420D01*
X153946113Y-106316926D01*
X153946108Y-106316920D01*
X153779082Y-106149894D01*
X153585578Y-106014399D01*
X153371492Y-105914570D01*
X153371486Y-105914567D01*
X153158000Y-105857364D01*
X153158000Y-106754988D01*
X153100993Y-106722075D01*
X152973826Y-106688000D01*
X152842174Y-106688000D01*
X152715007Y-106722075D01*
X152658000Y-106754988D01*
X152658000Y-105857364D01*
X152657999Y-105857364D01*
X152444513Y-105914567D01*
X152444507Y-105914570D01*
X152230422Y-106014399D01*
X152230420Y-106014400D01*
X152036926Y-106149886D01*
X152036920Y-106149891D01*
X151869891Y-106316920D01*
X151869890Y-106316922D01*
X151739880Y-106502595D01*
X151685303Y-106546219D01*
X151615804Y-106553412D01*
X151553450Y-106521890D01*
X151536730Y-106502594D01*
X151406494Y-106316597D01*
X151239402Y-106149506D01*
X151239395Y-106149501D01*
X151045834Y-106013967D01*
X151045830Y-106013965D01*
X151037499Y-106010080D01*
X150831663Y-105914097D01*
X150831659Y-105914096D01*
X150831655Y-105914094D01*
X150603413Y-105852938D01*
X150603403Y-105852936D01*
X150368001Y-105832341D01*
X150367998Y-105832341D01*
X150340153Y-105834777D01*
X150271653Y-105821010D01*
X150221470Y-105772395D01*
X150205537Y-105704366D01*
X150228913Y-105638523D01*
X150241659Y-105623574D01*
X150574713Y-105290521D01*
X150574716Y-105290520D01*
X150686520Y-105178716D01*
X150736639Y-105091904D01*
X150765577Y-105041785D01*
X150806501Y-104889057D01*
X150806501Y-104730943D01*
X150806501Y-104723348D01*
X150806500Y-104723330D01*
X150806500Y-94672225D01*
X150825507Y-94606252D01*
X150839788Y-94583524D01*
X150839789Y-94583522D01*
X150899368Y-94413255D01*
X150916722Y-94259233D01*
X150919565Y-94234003D01*
X150919565Y-94233996D01*
X150899369Y-94054750D01*
X150899368Y-94054745D01*
X150839788Y-93884476D01*
X150743815Y-93731737D01*
X150616262Y-93604184D01*
X150463523Y-93508211D01*
X150293254Y-93448631D01*
X150293249Y-93448630D01*
X150114004Y-93428435D01*
X150113996Y-93428435D01*
X149934750Y-93448630D01*
X149934745Y-93448631D01*
X149764476Y-93508211D01*
X149611737Y-93604184D01*
X149484184Y-93731737D01*
X149388211Y-93884476D01*
X149328631Y-94054745D01*
X149328630Y-94054750D01*
X149308435Y-94233996D01*
X149308435Y-94234003D01*
X149328630Y-94413249D01*
X149328631Y-94413254D01*
X149388211Y-94583523D01*
X149484184Y-94736262D01*
X149569181Y-94821259D01*
X149602666Y-94882582D01*
X149605500Y-94908940D01*
X149605500Y-95095677D01*
X149585815Y-95162716D01*
X149533011Y-95208471D01*
X149495384Y-95218897D01*
X149426750Y-95226630D01*
X149256478Y-95286210D01*
X149103737Y-95382184D01*
X148976184Y-95509737D01*
X148880211Y-95662476D01*
X148820631Y-95832745D01*
X148820630Y-95832750D01*
X148800435Y-96011996D01*
X148800435Y-96012003D01*
X148820630Y-96191249D01*
X148820631Y-96191254D01*
X148880211Y-96361523D01*
X148976185Y-96514263D01*
X148978445Y-96517097D01*
X148979334Y-96519275D01*
X148979889Y-96520158D01*
X148979734Y-96520255D01*
X149004855Y-96581783D01*
X149005500Y-96594412D01*
X149005500Y-100197373D01*
X148985815Y-100264412D01*
X148969181Y-100285054D01*
X144807481Y-104446753D01*
X144807480Y-104446755D01*
X144771707Y-104508716D01*
X144758053Y-104532365D01*
X144735406Y-104571589D01*
X144684837Y-104619803D01*
X144616230Y-104633024D01*
X144551366Y-104607055D01*
X144520632Y-104571584D01*
X144498522Y-104533287D01*
X144498521Y-104533286D01*
X144498520Y-104533284D01*
X144386716Y-104421480D01*
X144386715Y-104421479D01*
X144382385Y-104417149D01*
X144382374Y-104417139D01*
X143638819Y-103673584D01*
X143605334Y-103612261D01*
X143602500Y-103585903D01*
X143602500Y-95832412D01*
X143622185Y-95765373D01*
X143629555Y-95755097D01*
X143631810Y-95752267D01*
X143631816Y-95752262D01*
X143727789Y-95599522D01*
X143787368Y-95429255D01*
X143807565Y-95250000D01*
X143807564Y-95249995D01*
X143787369Y-95070750D01*
X143787368Y-95070745D01*
X143727788Y-94900476D01*
X143631815Y-94747737D01*
X143504262Y-94620184D01*
X143351523Y-94524211D01*
X143181254Y-94464631D01*
X143181249Y-94464630D01*
X143002004Y-94444435D01*
X143001995Y-94444435D01*
X142929043Y-94452654D01*
X142860222Y-94440599D01*
X142808843Y-94393250D01*
X142791219Y-94325639D01*
X142812946Y-94259233D01*
X142827473Y-94241761D01*
X144798535Y-92270698D01*
X144859856Y-92237215D01*
X144872311Y-92235163D01*
X144959255Y-92225368D01*
X145129522Y-92165789D01*
X145282262Y-92069816D01*
X145409816Y-91942262D01*
X145505789Y-91789522D01*
X145565368Y-91619255D01*
X145573563Y-91546525D01*
X145585565Y-91440003D01*
X145585565Y-91439996D01*
X145565369Y-91260750D01*
X145565368Y-91260745D01*
X145505788Y-91090476D01*
X145409815Y-90937737D01*
X145282262Y-90810184D01*
X145129523Y-90714211D01*
X144959254Y-90654631D01*
X144959249Y-90654630D01*
X144780004Y-90634435D01*
X144779996Y-90634435D01*
X144600750Y-90654630D01*
X144600745Y-90654631D01*
X144430476Y-90714211D01*
X144277737Y-90810184D01*
X144150184Y-90937737D01*
X144054210Y-91090478D01*
X143994630Y-91260750D01*
X143984837Y-91347668D01*
X143957770Y-91412082D01*
X143949298Y-91421465D01*
X138315286Y-97055478D01*
X138203481Y-97167282D01*
X138203479Y-97167285D01*
X138153361Y-97254094D01*
X138153359Y-97254096D01*
X138124425Y-97304209D01*
X138124424Y-97304210D01*
X138124423Y-97304215D01*
X138083499Y-97456943D01*
X138083499Y-97456945D01*
X138083499Y-97625046D01*
X138083500Y-97625059D01*
X138083500Y-104053330D01*
X138083499Y-104053348D01*
X138083499Y-104219054D01*
X138083498Y-104219054D01*
X127754500Y-104219054D01*
X127754500Y-92456004D01*
X129029521Y-92456004D01*
X129049405Y-92721357D01*
X129049405Y-92721359D01*
X129049407Y-92721367D01*
X129108623Y-92980805D01*
X129205844Y-93228521D01*
X129338899Y-93458980D01*
X129378160Y-93508211D01*
X129504820Y-93667037D01*
X129574551Y-93731737D01*
X129699890Y-93848035D01*
X129919761Y-93997940D01*
X130159514Y-94113399D01*
X130159515Y-94113399D01*
X130159518Y-94113401D01*
X130413806Y-94191839D01*
X130413807Y-94191839D01*
X130413810Y-94191840D01*
X130676937Y-94231499D01*
X130676942Y-94231499D01*
X130676945Y-94231500D01*
X130676946Y-94231500D01*
X130943054Y-94231500D01*
X130943055Y-94231500D01*
X130943062Y-94231499D01*
X131206189Y-94191840D01*
X131206190Y-94191839D01*
X131206194Y-94191839D01*
X131460482Y-94113401D01*
X131700240Y-93997940D01*
X131920110Y-93848035D01*
X132115183Y-93667033D01*
X132281101Y-93458980D01*
X132414156Y-93228521D01*
X132511377Y-92980805D01*
X132570593Y-92721367D01*
X132590479Y-92456000D01*
X132570593Y-92190633D01*
X132511377Y-91931195D01*
X132414156Y-91683479D01*
X132281101Y-91453020D01*
X132275704Y-91446253D01*
X132249297Y-91381567D01*
X132262054Y-91312872D01*
X132309925Y-91261978D01*
X132377712Y-91245045D01*
X132437443Y-91263215D01*
X132609757Y-91368809D01*
X132609760Y-91368811D01*
X132813060Y-91453020D01*
X132846140Y-91466722D01*
X133094930Y-91526452D01*
X133350000Y-91546526D01*
X133605070Y-91526452D01*
X133853860Y-91466722D01*
X134037191Y-91390784D01*
X134090239Y-91368811D01*
X134090240Y-91368810D01*
X134090243Y-91368809D01*
X134262557Y-91263214D01*
X134330001Y-91244970D01*
X134396604Y-91266086D01*
X134441218Y-91319858D01*
X134449678Y-91389213D01*
X134424298Y-91446248D01*
X134418901Y-91453015D01*
X134418901Y-91453016D01*
X134285844Y-91683478D01*
X134188625Y-91931189D01*
X134188620Y-91931206D01*
X134129405Y-92190640D01*
X134129405Y-92190642D01*
X134109521Y-92455995D01*
X134109521Y-92456004D01*
X134129405Y-92721357D01*
X134129405Y-92721359D01*
X134129407Y-92721367D01*
X134188623Y-92980805D01*
X134285844Y-93228521D01*
X134418899Y-93458980D01*
X134458160Y-93508211D01*
X134584820Y-93667037D01*
X134654551Y-93731737D01*
X134779890Y-93848035D01*
X134999761Y-93997940D01*
X135239514Y-94113399D01*
X135239515Y-94113399D01*
X135239518Y-94113401D01*
X135493806Y-94191839D01*
X135493807Y-94191839D01*
X135493810Y-94191840D01*
X135756937Y-94231499D01*
X135756942Y-94231499D01*
X135756945Y-94231500D01*
X135756946Y-94231500D01*
X136023054Y-94231500D01*
X136023055Y-94231500D01*
X136023062Y-94231499D01*
X136286189Y-94191840D01*
X136286190Y-94191839D01*
X136286194Y-94191839D01*
X136540482Y-94113401D01*
X136780240Y-93997940D01*
X137000110Y-93848035D01*
X137195183Y-93667033D01*
X137361101Y-93458980D01*
X137494156Y-93228521D01*
X137591377Y-92980805D01*
X137650593Y-92721367D01*
X137670479Y-92456000D01*
X137650593Y-92190633D01*
X137591377Y-91931195D01*
X137494156Y-91683479D01*
X137361101Y-91453020D01*
X137195183Y-91244967D01*
X137195182Y-91244966D01*
X137195179Y-91244962D01*
X137000110Y-91063965D01*
X136917631Y-91007732D01*
X136780240Y-90914060D01*
X136780236Y-90914058D01*
X136780233Y-90914056D01*
X136780232Y-90914055D01*
X136540484Y-90798600D01*
X136540486Y-90798600D01*
X136481834Y-90780508D01*
X136412075Y-90758990D01*
X136353817Y-90720420D01*
X136325659Y-90656476D01*
X136336543Y-90587459D01*
X136383012Y-90535282D01*
X136448626Y-90516500D01*
X142165588Y-90516500D01*
X142232627Y-90536185D01*
X142242903Y-90543555D01*
X142245736Y-90545814D01*
X142245738Y-90545816D01*
X142398478Y-90641789D01*
X142509108Y-90680500D01*
X142568745Y-90701368D01*
X142568750Y-90701369D01*
X142747996Y-90721565D01*
X142748000Y-90721565D01*
X142748004Y-90721565D01*
X142927249Y-90701369D01*
X142927252Y-90701368D01*
X142927255Y-90701368D01*
X143097522Y-90641789D01*
X143250262Y-90545816D01*
X143377816Y-90418262D01*
X143473789Y-90265522D01*
X143533368Y-90095255D01*
X143553565Y-89916003D01*
X149054435Y-89916003D01*
X149074630Y-90095249D01*
X149074631Y-90095254D01*
X149134211Y-90265523D01*
X149230184Y-90418262D01*
X149357738Y-90545816D01*
X149510478Y-90641789D01*
X149621108Y-90680500D01*
X149680745Y-90701368D01*
X149680750Y-90701369D01*
X149859996Y-90721565D01*
X149860000Y-90721565D01*
X149860004Y-90721565D01*
X150039249Y-90701369D01*
X150039252Y-90701368D01*
X150039255Y-90701368D01*
X150209522Y-90641789D01*
X150362262Y-90545816D01*
X150362267Y-90545810D01*
X150365097Y-90543555D01*
X150367275Y-90542665D01*
X150368158Y-90542111D01*
X150368255Y-90542265D01*
X150429783Y-90517145D01*
X150442412Y-90516500D01*
X156413374Y-90516500D01*
X156480413Y-90536185D01*
X156526168Y-90588989D01*
X156536112Y-90658147D01*
X156507087Y-90721703D01*
X156449924Y-90758990D01*
X156380165Y-90780508D01*
X156321514Y-90798600D01*
X156081769Y-90914055D01*
X156081760Y-90914060D01*
X155861892Y-91063963D01*
X155666820Y-91244962D01*
X155500899Y-91453020D01*
X155367844Y-91683478D01*
X155270625Y-91931189D01*
X155270620Y-91931206D01*
X155211405Y-92190640D01*
X155211405Y-92190642D01*
X155191521Y-92455995D01*
X155191521Y-92456004D01*
X155211405Y-92721357D01*
X155211405Y-92721359D01*
X155211407Y-92721367D01*
X155270623Y-92980805D01*
X155367844Y-93228521D01*
X155500899Y-93458980D01*
X155540160Y-93508211D01*
X155666820Y-93667037D01*
X155736551Y-93731737D01*
X155861890Y-93848035D01*
X156081761Y-93997940D01*
X156321514Y-94113399D01*
X156321515Y-94113399D01*
X156321518Y-94113401D01*
X156575806Y-94191839D01*
X156575807Y-94191839D01*
X156575810Y-94191840D01*
X156838937Y-94231499D01*
X156838942Y-94231499D01*
X156838945Y-94231500D01*
X156838946Y-94231500D01*
X157105054Y-94231500D01*
X157105055Y-94231500D01*
X157105062Y-94231499D01*
X157368189Y-94191840D01*
X157368190Y-94191839D01*
X157368194Y-94191839D01*
X157622482Y-94113401D01*
X157862240Y-93997940D01*
X158082110Y-93848035D01*
X158277183Y-93667033D01*
X158443101Y-93458980D01*
X158576156Y-93228521D01*
X158673377Y-92980805D01*
X158732593Y-92721367D01*
X158752479Y-92456000D01*
X158732593Y-92190633D01*
X158673377Y-91931195D01*
X158576156Y-91683479D01*
X158443101Y-91453020D01*
X158437704Y-91446253D01*
X158411297Y-91381567D01*
X158424054Y-91312872D01*
X158471925Y-91261978D01*
X158539712Y-91245045D01*
X158599443Y-91263215D01*
X158771757Y-91368809D01*
X158771760Y-91368811D01*
X158975060Y-91453020D01*
X159008140Y-91466722D01*
X159256930Y-91526452D01*
X159512000Y-91546526D01*
X159767070Y-91526452D01*
X160015860Y-91466722D01*
X160199191Y-91390784D01*
X160252239Y-91368811D01*
X160252240Y-91368810D01*
X160252243Y-91368809D01*
X160424557Y-91263214D01*
X160492001Y-91244970D01*
X160558604Y-91266086D01*
X160603218Y-91319858D01*
X160611678Y-91389213D01*
X160586298Y-91446248D01*
X160580901Y-91453015D01*
X160580901Y-91453016D01*
X160447844Y-91683478D01*
X160350625Y-91931189D01*
X160350620Y-91931206D01*
X160291405Y-92190640D01*
X160291405Y-92190642D01*
X160271521Y-92455995D01*
X160271521Y-92456004D01*
X160291405Y-92721357D01*
X160291405Y-92721359D01*
X160291407Y-92721367D01*
X160350623Y-92980805D01*
X160447844Y-93228521D01*
X160580899Y-93458980D01*
X160620160Y-93508211D01*
X160746820Y-93667037D01*
X160816551Y-93731737D01*
X160941890Y-93848035D01*
X161161761Y-93997940D01*
X161401514Y-94113399D01*
X161401515Y-94113399D01*
X161401518Y-94113401D01*
X161655806Y-94191839D01*
X161655807Y-94191839D01*
X161655810Y-94191840D01*
X161918937Y-94231499D01*
X161918942Y-94231499D01*
X161918945Y-94231500D01*
X161918946Y-94231500D01*
X162185054Y-94231500D01*
X162185055Y-94231500D01*
X162185062Y-94231499D01*
X162448189Y-94191840D01*
X162448190Y-94191839D01*
X162448194Y-94191839D01*
X162702482Y-94113401D01*
X162942240Y-93997940D01*
X163162110Y-93848035D01*
X163357183Y-93667033D01*
X163523101Y-93458980D01*
X163656156Y-93228521D01*
X163753377Y-92980805D01*
X163812593Y-92721367D01*
X163832479Y-92456000D01*
X163812593Y-92190633D01*
X163753377Y-91931195D01*
X163656156Y-91683479D01*
X163523101Y-91453020D01*
X163357183Y-91244967D01*
X163357182Y-91244966D01*
X163357179Y-91244962D01*
X163162110Y-91063965D01*
X163079631Y-91007732D01*
X162942240Y-90914060D01*
X162942236Y-90914058D01*
X162942233Y-90914056D01*
X162942232Y-90914055D01*
X162702484Y-90798600D01*
X162702486Y-90798600D01*
X162448195Y-90720161D01*
X162448189Y-90720159D01*
X162185062Y-90680500D01*
X162185055Y-90680500D01*
X161918945Y-90680500D01*
X161918937Y-90680500D01*
X161655810Y-90720159D01*
X161655804Y-90720161D01*
X161401514Y-90798600D01*
X161161769Y-90914055D01*
X161161760Y-90914060D01*
X161029716Y-91004086D01*
X160963237Y-91025586D01*
X160895687Y-91007732D01*
X160848513Y-90956191D01*
X160836693Y-90887329D01*
X160854138Y-90836842D01*
X160924695Y-90721703D01*
X160964809Y-90656243D01*
X160965477Y-90654632D01*
X161062720Y-90419864D01*
X161062722Y-90419860D01*
X161122452Y-90171070D01*
X161142526Y-89916000D01*
X161122452Y-89660930D01*
X161062722Y-89412140D01*
X161062720Y-89412135D01*
X160964811Y-89175760D01*
X160964809Y-89175757D01*
X160854138Y-88995157D01*
X160835893Y-88927711D01*
X160857009Y-88861108D01*
X160910781Y-88816495D01*
X160980137Y-88808035D01*
X161029712Y-88827911D01*
X161161761Y-88917940D01*
X161161766Y-88917942D01*
X161161767Y-88917943D01*
X161161769Y-88917944D01*
X161212060Y-88942162D01*
X161401514Y-89033399D01*
X161401515Y-89033399D01*
X161401518Y-89033401D01*
X161655806Y-89111839D01*
X161655807Y-89111839D01*
X161655810Y-89111840D01*
X161918937Y-89151499D01*
X161918942Y-89151499D01*
X161918945Y-89151500D01*
X161918946Y-89151500D01*
X162185054Y-89151500D01*
X162185055Y-89151500D01*
X162185062Y-89151499D01*
X162448189Y-89111840D01*
X162448190Y-89111839D01*
X162448194Y-89111839D01*
X162702482Y-89033401D01*
X162942240Y-88917940D01*
X163162110Y-88768035D01*
X163357183Y-88587033D01*
X163523101Y-88378980D01*
X163656156Y-88148521D01*
X163753377Y-87900805D01*
X163812593Y-87641367D01*
X163832479Y-87376000D01*
X163812593Y-87110633D01*
X163753377Y-86851195D01*
X163656156Y-86603479D01*
X163523101Y-86373020D01*
X163357183Y-86164967D01*
X163357182Y-86164966D01*
X163357179Y-86164962D01*
X163162110Y-85983965D01*
X163162107Y-85983963D01*
X162942240Y-85834060D01*
X162942236Y-85834058D01*
X162942233Y-85834056D01*
X162942232Y-85834055D01*
X162702484Y-85718600D01*
X162702486Y-85718600D01*
X162448195Y-85640161D01*
X162448189Y-85640159D01*
X162185062Y-85600500D01*
X162185055Y-85600500D01*
X161918945Y-85600500D01*
X161918937Y-85600500D01*
X161655810Y-85640159D01*
X161655804Y-85640161D01*
X161401514Y-85718600D01*
X161161769Y-85834055D01*
X161161760Y-85834060D01*
X160941892Y-85983963D01*
X160746820Y-86164962D01*
X160580899Y-86373020D01*
X160447844Y-86603478D01*
X160350625Y-86851189D01*
X160350620Y-86851206D01*
X160291405Y-87110640D01*
X160291405Y-87110642D01*
X160271521Y-87375995D01*
X160271521Y-87376004D01*
X160291405Y-87641357D01*
X160291405Y-87641359D01*
X160291407Y-87641367D01*
X160350623Y-87900805D01*
X160447844Y-88148521D01*
X160580899Y-88378980D01*
X160580900Y-88378981D01*
X160586295Y-88385746D01*
X160612702Y-88450433D01*
X160599944Y-88519129D01*
X160552073Y-88570021D01*
X160484286Y-88586954D01*
X160424556Y-88568784D01*
X160252242Y-88463190D01*
X160252239Y-88463188D01*
X160015864Y-88365279D01*
X160015860Y-88365278D01*
X159767070Y-88305548D01*
X159767067Y-88305547D01*
X159767064Y-88305547D01*
X159512000Y-88285474D01*
X159256935Y-88305547D01*
X159256931Y-88305547D01*
X159256930Y-88305548D01*
X159132535Y-88335413D01*
X159008135Y-88365279D01*
X158771763Y-88463187D01*
X158599443Y-88568785D01*
X158531997Y-88587029D01*
X158465394Y-88565912D01*
X158420781Y-88512140D01*
X158412321Y-88442785D01*
X158437709Y-88385741D01*
X158443101Y-88378980D01*
X158576156Y-88148521D01*
X158673377Y-87900805D01*
X158732593Y-87641367D01*
X158752479Y-87376000D01*
X158732593Y-87110633D01*
X158673377Y-86851195D01*
X158576156Y-86603479D01*
X158443101Y-86373020D01*
X158277183Y-86164967D01*
X158277182Y-86164966D01*
X158277179Y-86164962D01*
X158082110Y-85983965D01*
X158082107Y-85983963D01*
X157862240Y-85834060D01*
X157862236Y-85834058D01*
X157862233Y-85834056D01*
X157862232Y-85834055D01*
X157622484Y-85718600D01*
X157622486Y-85718600D01*
X157368195Y-85640161D01*
X157368189Y-85640159D01*
X157105062Y-85600500D01*
X157105055Y-85600500D01*
X156838945Y-85600500D01*
X156838937Y-85600500D01*
X156575810Y-85640159D01*
X156575804Y-85640161D01*
X156321514Y-85718600D01*
X156081769Y-85834055D01*
X156081760Y-85834060D01*
X155861892Y-85983963D01*
X155666820Y-86164962D01*
X155500899Y-86373020D01*
X155367844Y-86603478D01*
X155270625Y-86851189D01*
X155270620Y-86851206D01*
X155211405Y-87110640D01*
X155211405Y-87110642D01*
X155191521Y-87375995D01*
X155191521Y-87376004D01*
X155211405Y-87641357D01*
X155211405Y-87641359D01*
X155211407Y-87641367D01*
X155270623Y-87900805D01*
X155367844Y-88148521D01*
X155500899Y-88378980D01*
X155612665Y-88519129D01*
X155666820Y-88587037D01*
X155781332Y-88693288D01*
X155861890Y-88768035D01*
X156081761Y-88917940D01*
X156081767Y-88917942D01*
X156081769Y-88917944D01*
X156132060Y-88942162D01*
X156321514Y-89033399D01*
X156321515Y-89033399D01*
X156321518Y-89033401D01*
X156449924Y-89073009D01*
X156508183Y-89111580D01*
X156536341Y-89175524D01*
X156525457Y-89244541D01*
X156478988Y-89296718D01*
X156413374Y-89315500D01*
X150442412Y-89315500D01*
X150375373Y-89295815D01*
X150365097Y-89288445D01*
X150362263Y-89286185D01*
X150362262Y-89286184D01*
X150287091Y-89238951D01*
X150209523Y-89190211D01*
X150039254Y-89130631D01*
X150039249Y-89130630D01*
X149860004Y-89110435D01*
X149859996Y-89110435D01*
X149680750Y-89130630D01*
X149680745Y-89130631D01*
X149510476Y-89190211D01*
X149357737Y-89286184D01*
X149230184Y-89413737D01*
X149134211Y-89566476D01*
X149074631Y-89736745D01*
X149074630Y-89736750D01*
X149054435Y-89915996D01*
X149054435Y-89916003D01*
X143553565Y-89916003D01*
X143553565Y-89916000D01*
X143533368Y-89736745D01*
X143473789Y-89566478D01*
X143377816Y-89413738D01*
X143250262Y-89286184D01*
X143181553Y-89243011D01*
X143097523Y-89190211D01*
X142927254Y-89130631D01*
X142927249Y-89130630D01*
X142748004Y-89110435D01*
X142747996Y-89110435D01*
X142568750Y-89130630D01*
X142568745Y-89130631D01*
X142398476Y-89190211D01*
X142245736Y-89286185D01*
X142242903Y-89288445D01*
X142240724Y-89289334D01*
X142239842Y-89289889D01*
X142239744Y-89289734D01*
X142178217Y-89314855D01*
X142165588Y-89315500D01*
X136448626Y-89315500D01*
X136381587Y-89295815D01*
X136335832Y-89243011D01*
X136325888Y-89173853D01*
X136354913Y-89110297D01*
X136412075Y-89073009D01*
X136540482Y-89033401D01*
X136780240Y-88917940D01*
X137000110Y-88768035D01*
X137195183Y-88587033D01*
X137361101Y-88378980D01*
X137494156Y-88148521D01*
X137591377Y-87900805D01*
X137650593Y-87641367D01*
X137670479Y-87376000D01*
X137650593Y-87110633D01*
X137591377Y-86851195D01*
X137494156Y-86603479D01*
X137361101Y-86373020D01*
X137195183Y-86164967D01*
X137195182Y-86164966D01*
X137195179Y-86164962D01*
X137000110Y-85983965D01*
X137000107Y-85983963D01*
X136780240Y-85834060D01*
X136780236Y-85834058D01*
X136780233Y-85834056D01*
X136780232Y-85834055D01*
X136540484Y-85718600D01*
X136540486Y-85718600D01*
X136286195Y-85640161D01*
X136286189Y-85640159D01*
X136023062Y-85600500D01*
X136023055Y-85600500D01*
X135756945Y-85600500D01*
X135756937Y-85600500D01*
X135493810Y-85640159D01*
X135493804Y-85640161D01*
X135239514Y-85718600D01*
X134999769Y-85834055D01*
X134999760Y-85834060D01*
X134779892Y-85983963D01*
X134584820Y-86164962D01*
X134418899Y-86373020D01*
X134285844Y-86603478D01*
X134188625Y-86851189D01*
X134188620Y-86851206D01*
X134129405Y-87110640D01*
X134129405Y-87110642D01*
X134109521Y-87375995D01*
X134109521Y-87376004D01*
X134129405Y-87641357D01*
X134129405Y-87641359D01*
X134129407Y-87641367D01*
X134188623Y-87900805D01*
X134285844Y-88148521D01*
X134418899Y-88378980D01*
X134418900Y-88378981D01*
X134424295Y-88385746D01*
X134450702Y-88450433D01*
X134437944Y-88519129D01*
X134390073Y-88570021D01*
X134322286Y-88586954D01*
X134262556Y-88568784D01*
X134090242Y-88463190D01*
X134090239Y-88463188D01*
X133853864Y-88365279D01*
X133853860Y-88365278D01*
X133605070Y-88305548D01*
X133605067Y-88305547D01*
X133605064Y-88305547D01*
X133350000Y-88285474D01*
X133094935Y-88305547D01*
X133094931Y-88305547D01*
X133094930Y-88305548D01*
X132970535Y-88335413D01*
X132846135Y-88365279D01*
X132609763Y-88463187D01*
X132437443Y-88568785D01*
X132369997Y-88587029D01*
X132303394Y-88565912D01*
X132258781Y-88512140D01*
X132250321Y-88442785D01*
X132275709Y-88385741D01*
X132281101Y-88378980D01*
X132414156Y-88148521D01*
X132511377Y-87900805D01*
X132570593Y-87641367D01*
X132590479Y-87376000D01*
X132570593Y-87110633D01*
X132511377Y-86851195D01*
X132414156Y-86603479D01*
X132281101Y-86373020D01*
X132115183Y-86164967D01*
X132115182Y-86164966D01*
X132115179Y-86164962D01*
X131920110Y-85983965D01*
X131920107Y-85983963D01*
X131700240Y-85834060D01*
X131700236Y-85834058D01*
X131700233Y-85834056D01*
X131700232Y-85834055D01*
X131460484Y-85718600D01*
X131460486Y-85718600D01*
X131206195Y-85640161D01*
X131206189Y-85640159D01*
X130943062Y-85600500D01*
X130943055Y-85600500D01*
X130676945Y-85600500D01*
X130676937Y-85600500D01*
X130413810Y-85640159D01*
X130413804Y-85640161D01*
X130159514Y-85718600D01*
X129919769Y-85834055D01*
X129919760Y-85834060D01*
X129699892Y-85983963D01*
X129504820Y-86164962D01*
X129338899Y-86373020D01*
X129205844Y-86603478D01*
X129108625Y-86851189D01*
X129108620Y-86851206D01*
X129049405Y-87110640D01*
X129049405Y-87110642D01*
X129029521Y-87375995D01*
X129029521Y-87376004D01*
X129049405Y-87641357D01*
X129049405Y-87641359D01*
X129049407Y-87641367D01*
X129108623Y-87900805D01*
X129205844Y-88148521D01*
X129338899Y-88378980D01*
X129450665Y-88519129D01*
X129504820Y-88587037D01*
X129619332Y-88693288D01*
X129699890Y-88768035D01*
X129919761Y-88917940D01*
X129919767Y-88917942D01*
X129919769Y-88917944D01*
X129970060Y-88942162D01*
X130159514Y-89033399D01*
X130159515Y-89033399D01*
X130159518Y-89033401D01*
X130413806Y-89111839D01*
X130413807Y-89111839D01*
X130413810Y-89111840D01*
X130676937Y-89151499D01*
X130676942Y-89151499D01*
X130676945Y-89151500D01*
X130676946Y-89151500D01*
X130943054Y-89151500D01*
X130943055Y-89151500D01*
X130943062Y-89151499D01*
X131206189Y-89111840D01*
X131206190Y-89111839D01*
X131206194Y-89111839D01*
X131460482Y-89033401D01*
X131700240Y-88917940D01*
X131832282Y-88827914D01*
X131898761Y-88806414D01*
X131966311Y-88824268D01*
X132013486Y-88875808D01*
X132025306Y-88944670D01*
X132007862Y-88995157D01*
X131897188Y-89175760D01*
X131799279Y-89412135D01*
X131739547Y-89660935D01*
X131719474Y-89916000D01*
X131739547Y-90171064D01*
X131739547Y-90171067D01*
X131739548Y-90171070D01*
X131798894Y-90418262D01*
X131799279Y-90419864D01*
X131897188Y-90656239D01*
X131897190Y-90656242D01*
X132007861Y-90836841D01*
X132026106Y-90904287D01*
X132004990Y-90970889D01*
X131951218Y-91015503D01*
X131881862Y-91023963D01*
X131832283Y-91004085D01*
X131700240Y-90914060D01*
X131700232Y-90914055D01*
X131460484Y-90798600D01*
X131460486Y-90798600D01*
X131206195Y-90720161D01*
X131206189Y-90720159D01*
X130943062Y-90680500D01*
X130943055Y-90680500D01*
X130676945Y-90680500D01*
X130676937Y-90680500D01*
X130413810Y-90720159D01*
X130413804Y-90720161D01*
X130159514Y-90798600D01*
X129919769Y-90914055D01*
X129919760Y-90914060D01*
X129699892Y-91063963D01*
X129504820Y-91244962D01*
X129338899Y-91453020D01*
X129205844Y-91683478D01*
X129108625Y-91931189D01*
X129108620Y-91931206D01*
X129049405Y-92190640D01*
X129049405Y-92190642D01*
X129029521Y-92455995D01*
X129029521Y-92456004D01*
X127754500Y-92456004D01*
X127754500Y-81788004D01*
X142237521Y-81788004D01*
X142257405Y-82053357D01*
X142257405Y-82053359D01*
X142257407Y-82053367D01*
X142316623Y-82312805D01*
X142413844Y-82560521D01*
X142546899Y-82790980D01*
X142680906Y-82959018D01*
X142712820Y-82999037D01*
X142827332Y-83105288D01*
X142907890Y-83180035D01*
X143127761Y-83329940D01*
X143367514Y-83445399D01*
X143367515Y-83445399D01*
X143367518Y-83445401D01*
X143621806Y-83523839D01*
X143621807Y-83523839D01*
X143621810Y-83523840D01*
X143884937Y-83563499D01*
X143884942Y-83563499D01*
X143884945Y-83563500D01*
X143884946Y-83563500D01*
X144151054Y-83563500D01*
X144151055Y-83563500D01*
X144151062Y-83563499D01*
X144414189Y-83523840D01*
X144414190Y-83523839D01*
X144414194Y-83523839D01*
X144668482Y-83445401D01*
X144908240Y-83329940D01*
X145128110Y-83180035D01*
X145323183Y-82999033D01*
X145489101Y-82790980D01*
X145622156Y-82560521D01*
X145719377Y-82312805D01*
X145778593Y-82053367D01*
X145798479Y-81788000D01*
X145778593Y-81522633D01*
X145719377Y-81263195D01*
X145622156Y-81015479D01*
X145489101Y-80785020D01*
X145483704Y-80778253D01*
X145457297Y-80713567D01*
X145470054Y-80644872D01*
X145517925Y-80593978D01*
X145585712Y-80577045D01*
X145645443Y-80595215D01*
X145817757Y-80700809D01*
X145817760Y-80700811D01*
X146021060Y-80785020D01*
X146054140Y-80798722D01*
X146302930Y-80858452D01*
X146558000Y-80878526D01*
X146813070Y-80858452D01*
X147061860Y-80798722D01*
X147180051Y-80749765D01*
X147298239Y-80700811D01*
X147298240Y-80700810D01*
X147298243Y-80700809D01*
X147470557Y-80595214D01*
X147538001Y-80576970D01*
X147604604Y-80598086D01*
X147649218Y-80651858D01*
X147657678Y-80721213D01*
X147632298Y-80778248D01*
X147626901Y-80785015D01*
X147626901Y-80785016D01*
X147493844Y-81015478D01*
X147396625Y-81263189D01*
X147396620Y-81263206D01*
X147337405Y-81522640D01*
X147337405Y-81522642D01*
X147317521Y-81787995D01*
X147317521Y-81788004D01*
X147337405Y-82053357D01*
X147337405Y-82053359D01*
X147337407Y-82053367D01*
X147396623Y-82312805D01*
X147493844Y-82560521D01*
X147626899Y-82790980D01*
X147760906Y-82959018D01*
X147792820Y-82999037D01*
X147907332Y-83105288D01*
X147987890Y-83180035D01*
X148207761Y-83329940D01*
X148447514Y-83445399D01*
X148447515Y-83445399D01*
X148447518Y-83445401D01*
X148701806Y-83523839D01*
X148701807Y-83523839D01*
X148701810Y-83523840D01*
X148964937Y-83563499D01*
X148964942Y-83563499D01*
X148964945Y-83563500D01*
X148964946Y-83563500D01*
X149231054Y-83563500D01*
X149231055Y-83563500D01*
X149231062Y-83563499D01*
X149494189Y-83523840D01*
X149494190Y-83523839D01*
X149494194Y-83523839D01*
X149748482Y-83445401D01*
X149988240Y-83329940D01*
X150208110Y-83180035D01*
X150403183Y-82999033D01*
X150569101Y-82790980D01*
X150702156Y-82560521D01*
X150799377Y-82312805D01*
X150858593Y-82053367D01*
X150878479Y-81788000D01*
X150858593Y-81522633D01*
X150799377Y-81263195D01*
X150702156Y-81015479D01*
X150569101Y-80785020D01*
X150403183Y-80576967D01*
X150403182Y-80576966D01*
X150403179Y-80576962D01*
X150208110Y-80395965D01*
X150125631Y-80339732D01*
X149988240Y-80246060D01*
X149988236Y-80246058D01*
X149988233Y-80246056D01*
X149988232Y-80246055D01*
X149748484Y-80130600D01*
X149748486Y-80130600D01*
X149494195Y-80052161D01*
X149494189Y-80052159D01*
X149231062Y-80012500D01*
X149231055Y-80012500D01*
X148964945Y-80012500D01*
X148964937Y-80012500D01*
X148701810Y-80052159D01*
X148701804Y-80052161D01*
X148447514Y-80130600D01*
X148207769Y-80246055D01*
X148207760Y-80246060D01*
X148075716Y-80336086D01*
X148009237Y-80357586D01*
X147941687Y-80339732D01*
X147894513Y-80288191D01*
X147882693Y-80219329D01*
X147900138Y-80168842D01*
X147995944Y-80012500D01*
X148010809Y-79988243D01*
X148108722Y-79751860D01*
X148168452Y-79503070D01*
X148188526Y-79248000D01*
X148168452Y-78992930D01*
X148108722Y-78744140D01*
X148108720Y-78744135D01*
X148010811Y-78507760D01*
X148010809Y-78507757D01*
X147900138Y-78327157D01*
X147881893Y-78259711D01*
X147903009Y-78193108D01*
X147956781Y-78148495D01*
X148026137Y-78140035D01*
X148075712Y-78159911D01*
X148207761Y-78249940D01*
X148207766Y-78249942D01*
X148207767Y-78249943D01*
X148207769Y-78249944D01*
X148258060Y-78274162D01*
X148447514Y-78365399D01*
X148447515Y-78365399D01*
X148447518Y-78365401D01*
X148701806Y-78443839D01*
X148701807Y-78443839D01*
X148701810Y-78443840D01*
X148964937Y-78483499D01*
X148964942Y-78483499D01*
X148964945Y-78483500D01*
X148964946Y-78483500D01*
X149231054Y-78483500D01*
X149231055Y-78483500D01*
X149231062Y-78483499D01*
X149494189Y-78443840D01*
X149494190Y-78443839D01*
X149494194Y-78443839D01*
X149748482Y-78365401D01*
X149988240Y-78249940D01*
X150208110Y-78100035D01*
X150403183Y-77919033D01*
X150569101Y-77710980D01*
X150702156Y-77480521D01*
X150799377Y-77232805D01*
X150858593Y-76973367D01*
X150878479Y-76708000D01*
X150858593Y-76442633D01*
X150799377Y-76183195D01*
X150702156Y-75935479D01*
X150569101Y-75705020D01*
X150403183Y-75496967D01*
X150403182Y-75496966D01*
X150403179Y-75496962D01*
X150208110Y-75315965D01*
X150208107Y-75315963D01*
X149988240Y-75166060D01*
X149988236Y-75166058D01*
X149988233Y-75166056D01*
X149988232Y-75166055D01*
X149748484Y-75050600D01*
X149748486Y-75050600D01*
X149494195Y-74972161D01*
X149494189Y-74972159D01*
X149231062Y-74932500D01*
X149231055Y-74932500D01*
X148964945Y-74932500D01*
X148964937Y-74932500D01*
X148701810Y-74972159D01*
X148701804Y-74972161D01*
X148447514Y-75050600D01*
X148207769Y-75166055D01*
X148207760Y-75166060D01*
X147987892Y-75315963D01*
X147792820Y-75496962D01*
X147626899Y-75705020D01*
X147493844Y-75935478D01*
X147396625Y-76183189D01*
X147396620Y-76183206D01*
X147337405Y-76442640D01*
X147337405Y-76442642D01*
X147317521Y-76707995D01*
X147317521Y-76708004D01*
X147337405Y-76973357D01*
X147337405Y-76973359D01*
X147337407Y-76973367D01*
X147396623Y-77232805D01*
X147493844Y-77480521D01*
X147626899Y-77710980D01*
X147626900Y-77710981D01*
X147632295Y-77717746D01*
X147658702Y-77782433D01*
X147645944Y-77851129D01*
X147598073Y-77902021D01*
X147530286Y-77918954D01*
X147470556Y-77900784D01*
X147298242Y-77795190D01*
X147298239Y-77795188D01*
X147061864Y-77697279D01*
X147061860Y-77697278D01*
X146813070Y-77637548D01*
X146813067Y-77637547D01*
X146813064Y-77637547D01*
X146558000Y-77617474D01*
X146302935Y-77637547D01*
X146302931Y-77637547D01*
X146302930Y-77637548D01*
X146178535Y-77667413D01*
X146054135Y-77697279D01*
X145817763Y-77795187D01*
X145645443Y-77900785D01*
X145577997Y-77919029D01*
X145511394Y-77897912D01*
X145466781Y-77844140D01*
X145458321Y-77774785D01*
X145483709Y-77717741D01*
X145489101Y-77710980D01*
X145622156Y-77480521D01*
X145719377Y-77232805D01*
X145778593Y-76973367D01*
X145798479Y-76708000D01*
X145778593Y-76442633D01*
X145719377Y-76183195D01*
X145622156Y-75935479D01*
X145489101Y-75705020D01*
X145323183Y-75496967D01*
X145323182Y-75496966D01*
X145323179Y-75496962D01*
X145128110Y-75315965D01*
X145128107Y-75315963D01*
X144908240Y-75166060D01*
X144908236Y-75166058D01*
X144908233Y-75166056D01*
X144908232Y-75166055D01*
X144668484Y-75050600D01*
X144668486Y-75050600D01*
X144414195Y-74972161D01*
X144414189Y-74972159D01*
X144151062Y-74932500D01*
X144151055Y-74932500D01*
X143884945Y-74932500D01*
X143884937Y-74932500D01*
X143621810Y-74972159D01*
X143621804Y-74972161D01*
X143367514Y-75050600D01*
X143127769Y-75166055D01*
X143127760Y-75166060D01*
X142907892Y-75315963D01*
X142712820Y-75496962D01*
X142546899Y-75705020D01*
X142413844Y-75935478D01*
X142316625Y-76183189D01*
X142316620Y-76183206D01*
X142257405Y-76442640D01*
X142257405Y-76442642D01*
X142237521Y-76707995D01*
X142237521Y-76708004D01*
X142257405Y-76973357D01*
X142257405Y-76973359D01*
X142257407Y-76973367D01*
X142316623Y-77232805D01*
X142413844Y-77480521D01*
X142546899Y-77710980D01*
X142658665Y-77851129D01*
X142712820Y-77919037D01*
X142827332Y-78025288D01*
X142907890Y-78100035D01*
X143127761Y-78249940D01*
X143127767Y-78249942D01*
X143127769Y-78249944D01*
X143178060Y-78274162D01*
X143367514Y-78365399D01*
X143367515Y-78365399D01*
X143367518Y-78365401D01*
X143621806Y-78443839D01*
X143621807Y-78443839D01*
X143621810Y-78443840D01*
X143884937Y-78483499D01*
X143884942Y-78483499D01*
X143884945Y-78483500D01*
X143884946Y-78483500D01*
X144151054Y-78483500D01*
X144151055Y-78483500D01*
X144151062Y-78483499D01*
X144414189Y-78443840D01*
X144414190Y-78443839D01*
X144414194Y-78443839D01*
X144668482Y-78365401D01*
X144908240Y-78249940D01*
X145040282Y-78159914D01*
X145106761Y-78138414D01*
X145174311Y-78156268D01*
X145221486Y-78207808D01*
X145233306Y-78276670D01*
X145215862Y-78327157D01*
X145105188Y-78507760D01*
X145007279Y-78744135D01*
X144947547Y-78992935D01*
X144927474Y-79248000D01*
X144947547Y-79503064D01*
X145007279Y-79751864D01*
X145105188Y-79988239D01*
X145105190Y-79988242D01*
X145215861Y-80168841D01*
X145234106Y-80236287D01*
X145212990Y-80302889D01*
X145159218Y-80347503D01*
X145089862Y-80355963D01*
X145040283Y-80336085D01*
X144908240Y-80246060D01*
X144908232Y-80246055D01*
X144668484Y-80130600D01*
X144668486Y-80130600D01*
X144414195Y-80052161D01*
X144414189Y-80052159D01*
X144151062Y-80012500D01*
X144151055Y-80012500D01*
X143884945Y-80012500D01*
X143884937Y-80012500D01*
X143621810Y-80052159D01*
X143621804Y-80052161D01*
X143367514Y-80130600D01*
X143127769Y-80246055D01*
X143127760Y-80246060D01*
X142907892Y-80395963D01*
X142712820Y-80576962D01*
X142546899Y-80785020D01*
X142413844Y-81015478D01*
X142316625Y-81263189D01*
X142316620Y-81263206D01*
X142257405Y-81522640D01*
X142257405Y-81522642D01*
X142237521Y-81787995D01*
X142237521Y-81788004D01*
X127754500Y-81788004D01*
X127754500Y-74284500D01*
X127774185Y-74217461D01*
X127826989Y-74171706D01*
X127878500Y-74160500D01*
X164475500Y-74160500D01*
X164542539Y-74180185D01*
G37*
%TD.AperFunction*%
%TD*%
M02*
