%TF.GenerationSoftware,KiCad,Pcbnew,8.0.1*%
%TF.CreationDate,2024-03-25T18:19:42-05:00*%
%TF.ProjectId,TS3A5017-Mixer,54533341-3530-4313-972d-4d697865722e,rev?*%
%TF.SameCoordinates,Original*%
%TF.FileFunction,Soldermask,Top*%
%TF.FilePolarity,Negative*%
%FSLAX46Y46*%
G04 Gerber Fmt 4.6, Leading zero omitted, Abs format (unit mm)*
G04 Created by KiCad (PCBNEW 8.0.1) date 2024-03-25 18:19:42*
%MOMM*%
%LPD*%
G01*
G04 APERTURE LIST*
G04 Aperture macros list*
%AMRoundRect*
0 Rectangle with rounded corners*
0 $1 Rounding radius*
0 $2 $3 $4 $5 $6 $7 $8 $9 X,Y pos of 4 corners*
0 Add a 4 corners polygon primitive as box body*
4,1,4,$2,$3,$4,$5,$6,$7,$8,$9,$2,$3,0*
0 Add four circle primitives for the rounded corners*
1,1,$1+$1,$2,$3*
1,1,$1+$1,$4,$5*
1,1,$1+$1,$6,$7*
1,1,$1+$1,$8,$9*
0 Add four rect primitives between the rounded corners*
20,1,$1+$1,$2,$3,$4,$5,0*
20,1,$1+$1,$4,$5,$6,$7,0*
20,1,$1+$1,$6,$7,$8,$9,0*
20,1,$1+$1,$8,$9,$2,$3,0*%
%AMFreePoly0*
4,1,10,0.140000,-0.355000,0.121244,-0.425000,0.070000,-0.476244,0.000000,-0.495000,-0.070000,-0.476244,-0.121244,-0.425000,-0.140000,-0.355000,-0.140000,0.355000,0.140000,0.355000,0.140000,-0.355000,0.140000,-0.355000,$1*%
%AMFreePoly1*
4,1,10,0.355000,-0.140000,-0.355000,-0.140000,-0.425000,-0.121244,-0.476244,-0.070000,-0.495000,0.000000,-0.476244,0.070000,-0.425000,0.121244,-0.355000,0.140000,0.355000,0.140000,0.355000,-0.140000,0.355000,-0.140000,$1*%
%AMFreePoly2*
4,1,10,0.070000,0.476244,0.121244,0.425000,0.140000,0.355000,0.140000,-0.355000,-0.140000,-0.355000,-0.140000,0.355000,-0.121244,0.425000,-0.070000,0.476244,0.000000,0.495000,0.070000,0.476244,0.070000,0.476244,$1*%
%AMFreePoly3*
4,1,10,0.425000,0.121244,0.476244,0.070000,0.495000,0.000000,0.476244,-0.070000,0.425000,-0.121244,0.355000,-0.140000,-0.355000,-0.140000,-0.355000,0.140000,0.355000,0.140000,0.425000,0.121244,0.425000,0.121244,$1*%
G04 Aperture macros list end*
%ADD10C,2.454000*%
%ADD11C,2.754000*%
%ADD12R,1.700000X1.700000*%
%ADD13O,1.700000X1.700000*%
%ADD14R,2.050000X2.550000*%
%ADD15FreePoly0,180.000000*%
%ADD16FreePoly1,180.000000*%
%ADD17FreePoly2,180.000000*%
%ADD18FreePoly3,180.000000*%
%ADD19RoundRect,0.225000X-0.225000X-0.250000X0.225000X-0.250000X0.225000X0.250000X-0.225000X0.250000X0*%
%ADD20RoundRect,0.250000X-0.650000X0.325000X-0.650000X-0.325000X0.650000X-0.325000X0.650000X0.325000X0*%
G04 APERTURE END LIST*
D10*
%TO.C,J1*%
X146558000Y-79248000D03*
D11*
X149098000Y-81788000D03*
X144018000Y-81788000D03*
X149098000Y-76708000D03*
X144018000Y-76708000D03*
%TD*%
D10*
%TO.C,J2*%
X159512000Y-89916000D03*
D11*
X156972000Y-92456000D03*
X156972000Y-87376000D03*
X162052000Y-92456000D03*
X162052000Y-87376000D03*
%TD*%
D10*
%TO.C,J3*%
X133350000Y-89916000D03*
D11*
X135890000Y-87376000D03*
X135890000Y-92456000D03*
X130810000Y-87376000D03*
X130810000Y-92456000D03*
%TD*%
D12*
%TO.C,J4*%
X140208000Y-107188000D03*
D13*
X142748000Y-107188000D03*
X145288000Y-107188000D03*
X147828000Y-107188000D03*
X150368000Y-107188000D03*
X152908000Y-107188000D03*
%TD*%
D14*
%TO.C,U1*%
X146787000Y-87871000D03*
D15*
X146037000Y-89916000D03*
D16*
X144992000Y-89121000D03*
X144992000Y-88621000D03*
X144992000Y-88121000D03*
X144992000Y-87621000D03*
X144992000Y-87121000D03*
X144992000Y-86621000D03*
D17*
X146037000Y-85826000D03*
X147537000Y-85826000D03*
D18*
X148582000Y-86621000D03*
X148582000Y-87121000D03*
X148582000Y-87621000D03*
X148582000Y-88121000D03*
X148582000Y-88621000D03*
X148582000Y-89121000D03*
D15*
X147537000Y-89916000D03*
%TD*%
D19*
%TO.C,C1*%
X147574000Y-91440000D03*
X146024000Y-91440000D03*
%TD*%
D20*
%TO.C,C5*%
X152146000Y-101346000D03*
X152146000Y-98396000D03*
%TD*%
%TO.C,C4*%
X148505332Y-98396000D03*
X148505332Y-101346000D03*
%TD*%
%TO.C,C3*%
X141224000Y-101297000D03*
X141224000Y-98347000D03*
%TD*%
%TO.C,C2*%
X144864666Y-98347000D03*
X144864666Y-101297000D03*
%TD*%
M02*
