%TF.GenerationSoftware,KiCad,Pcbnew,8.0.1*%
%TF.CreationDate,2024-04-10T13:09:59-07:00*%
%TF.ProjectId,LowPassFilter,4c6f7750-6173-4734-9669-6c7465722e6b,rev?*%
%TF.SameCoordinates,Original*%
%TF.FileFunction,Copper,L2,Inr*%
%TF.FilePolarity,Positive*%
%FSLAX46Y46*%
G04 Gerber Fmt 4.6, Leading zero omitted, Abs format (unit mm)*
G04 Created by KiCad (PCBNEW 8.0.1) date 2024-04-10 13:09:59*
%MOMM*%
%LPD*%
G01*
G04 APERTURE LIST*
%TA.AperFunction,ComponentPad*%
%ADD10C,1.600000*%
%TD*%
%TA.AperFunction,ComponentPad*%
%ADD11O,1.600000X1.600000*%
%TD*%
%TA.AperFunction,ComponentPad*%
%ADD12C,2.500000*%
%TD*%
%TA.AperFunction,ComponentPad*%
%ADD13C,1.400000*%
%TD*%
%TA.AperFunction,ComponentPad*%
%ADD14O,1.400000X1.400000*%
%TD*%
%TA.AperFunction,ViaPad*%
%ADD15C,0.600000*%
%TD*%
G04 APERTURE END LIST*
D10*
%TO.N,Net-(RF-OUT1-In)*%
%TO.C,C2*%
X154178000Y-94802000D03*
D11*
%TO.N,GND*%
X154178000Y-102302000D03*
%TD*%
D12*
%TO.N,GND*%
%TO.C,RF-IN*%
X129834000Y-97536000D03*
X134914000Y-97536000D03*
X129834000Y-92456000D03*
X134914000Y-92456000D03*
%TD*%
%TO.N,GND*%
%TO.C,RF-OUT*%
X166624000Y-92456000D03*
X161544000Y-92456000D03*
X166624000Y-97536000D03*
X161544000Y-97536000D03*
%TD*%
D13*
%TO.N,Net-(RF-IN1-In)*%
%TO.C,R2*%
X142240000Y-90170000D03*
D14*
%TO.N,Net-(RF-OUT1-In)*%
X147320000Y-90170000D03*
%TD*%
D15*
%TO.N,GND*%
X149606000Y-99568000D03*
X151638000Y-97790000D03*
X147574000Y-97790000D03*
%TD*%
%TA.AperFunction,Conductor*%
%TO.N,GND*%
G36*
X168098539Y-86880185D02*
G01*
X168144294Y-86932989D01*
X168155500Y-86984500D01*
X168155500Y-90403957D01*
X168138888Y-90465956D01*
X168117608Y-90502813D01*
X168117608Y-90502814D01*
X168083500Y-90630108D01*
X168083500Y-91298690D01*
X168063815Y-91365729D01*
X168047181Y-91386371D01*
X167378114Y-92055437D01*
X167377260Y-92053374D01*
X167284238Y-91914156D01*
X167165844Y-91795762D01*
X167026626Y-91702740D01*
X167024562Y-91701885D01*
X167673168Y-91053278D01*
X167501454Y-90936206D01*
X167501445Y-90936201D01*
X167265142Y-90822404D01*
X167265144Y-90822404D01*
X167014505Y-90745092D01*
X167014499Y-90745090D01*
X166755151Y-90706000D01*
X166492848Y-90706000D01*
X166233500Y-90745090D01*
X166233494Y-90745092D01*
X165982858Y-90822404D01*
X165982854Y-90822405D01*
X165746547Y-90936205D01*
X165746539Y-90936210D01*
X165574830Y-91053277D01*
X166223438Y-91701885D01*
X166221374Y-91702740D01*
X166082156Y-91795762D01*
X165963762Y-91914156D01*
X165870740Y-92053374D01*
X165869885Y-92055437D01*
X165221875Y-91407427D01*
X165221874Y-91407427D01*
X165174028Y-91467425D01*
X165042883Y-91694573D01*
X164947058Y-91938729D01*
X164888693Y-92194449D01*
X164888692Y-92194454D01*
X164869093Y-92455995D01*
X164869093Y-92456004D01*
X164888692Y-92717545D01*
X164888693Y-92717550D01*
X164947058Y-92973270D01*
X165042883Y-93217426D01*
X165042882Y-93217426D01*
X165174027Y-93444573D01*
X165221874Y-93504571D01*
X165869884Y-92856561D01*
X165870740Y-92858626D01*
X165963762Y-92997844D01*
X166082156Y-93116238D01*
X166221374Y-93209260D01*
X166223437Y-93210114D01*
X165574830Y-93858720D01*
X165746546Y-93975793D01*
X165746550Y-93975795D01*
X165982854Y-94089594D01*
X165982858Y-94089595D01*
X166233494Y-94166907D01*
X166233500Y-94166909D01*
X166492848Y-94205999D01*
X166492857Y-94206000D01*
X166755143Y-94206000D01*
X166755151Y-94205999D01*
X167014499Y-94166909D01*
X167014505Y-94166907D01*
X167265143Y-94089595D01*
X167501445Y-93975798D01*
X167501447Y-93975797D01*
X167673168Y-93858720D01*
X167024562Y-93210114D01*
X167026626Y-93209260D01*
X167165844Y-93116238D01*
X167284238Y-92997844D01*
X167377260Y-92858626D01*
X167378114Y-92856561D01*
X168047181Y-93525628D01*
X168080666Y-93586951D01*
X168083500Y-93613309D01*
X168083500Y-96378690D01*
X168063815Y-96445729D01*
X168047181Y-96466371D01*
X167378114Y-97135437D01*
X167377260Y-97133374D01*
X167284238Y-96994156D01*
X167165844Y-96875762D01*
X167026626Y-96782740D01*
X167024562Y-96781885D01*
X167673168Y-96133278D01*
X167501454Y-96016206D01*
X167501445Y-96016201D01*
X167265142Y-95902404D01*
X167265144Y-95902404D01*
X167014505Y-95825092D01*
X167014499Y-95825090D01*
X166755151Y-95786000D01*
X166492848Y-95786000D01*
X166233500Y-95825090D01*
X166233494Y-95825092D01*
X165982858Y-95902404D01*
X165982854Y-95902405D01*
X165746547Y-96016205D01*
X165746539Y-96016210D01*
X165574830Y-96133277D01*
X166223438Y-96781885D01*
X166221374Y-96782740D01*
X166082156Y-96875762D01*
X165963762Y-96994156D01*
X165870740Y-97133374D01*
X165869885Y-97135437D01*
X165221875Y-96487427D01*
X165221874Y-96487427D01*
X165174028Y-96547425D01*
X165042883Y-96774573D01*
X164947058Y-97018729D01*
X164888693Y-97274449D01*
X164888692Y-97274454D01*
X164869093Y-97535995D01*
X164869093Y-97536004D01*
X164888692Y-97797545D01*
X164888693Y-97797550D01*
X164947058Y-98053270D01*
X165042883Y-98297426D01*
X165042882Y-98297426D01*
X165174027Y-98524573D01*
X165221874Y-98584571D01*
X165869884Y-97936561D01*
X165870740Y-97938626D01*
X165963762Y-98077844D01*
X166082156Y-98196238D01*
X166221374Y-98289260D01*
X166223437Y-98290114D01*
X165574830Y-98938720D01*
X165746546Y-99055793D01*
X165746550Y-99055795D01*
X165982854Y-99169594D01*
X165982858Y-99169595D01*
X166233494Y-99246907D01*
X166233500Y-99246909D01*
X166492848Y-99285999D01*
X166492857Y-99286000D01*
X166755143Y-99286000D01*
X166755151Y-99285999D01*
X167014499Y-99246909D01*
X167014505Y-99246907D01*
X167265143Y-99169595D01*
X167501445Y-99055798D01*
X167501447Y-99055797D01*
X167673168Y-98938720D01*
X167024562Y-98290114D01*
X167026626Y-98289260D01*
X167165844Y-98196238D01*
X167284238Y-98077844D01*
X167377260Y-97938626D01*
X167378114Y-97936561D01*
X168047181Y-98605628D01*
X168080666Y-98666951D01*
X168083500Y-98693309D01*
X168083500Y-99361891D01*
X168117609Y-99489188D01*
X168117610Y-99489191D01*
X168138886Y-99526041D01*
X168155500Y-99588042D01*
X168155500Y-103769500D01*
X168135815Y-103836539D01*
X168083011Y-103882294D01*
X168031500Y-103893500D01*
X128386500Y-103893500D01*
X128319461Y-103873815D01*
X128273706Y-103821011D01*
X128262500Y-103769500D01*
X128262500Y-102051999D01*
X152899127Y-102051999D01*
X152899128Y-102052000D01*
X153862314Y-102052000D01*
X153857920Y-102056394D01*
X153805259Y-102147606D01*
X153778000Y-102249339D01*
X153778000Y-102354661D01*
X153805259Y-102456394D01*
X153857920Y-102547606D01*
X153862314Y-102552000D01*
X152899128Y-102552000D01*
X152951730Y-102748317D01*
X152951734Y-102748326D01*
X153047865Y-102954482D01*
X153178342Y-103140820D01*
X153339179Y-103301657D01*
X153525517Y-103432134D01*
X153731673Y-103528265D01*
X153731682Y-103528269D01*
X153927999Y-103580872D01*
X153928000Y-103580871D01*
X153928000Y-102617686D01*
X153932394Y-102622080D01*
X154023606Y-102674741D01*
X154125339Y-102702000D01*
X154230661Y-102702000D01*
X154332394Y-102674741D01*
X154423606Y-102622080D01*
X154428000Y-102617686D01*
X154428000Y-103580872D01*
X154624317Y-103528269D01*
X154624326Y-103528265D01*
X154830482Y-103432134D01*
X155016820Y-103301657D01*
X155177657Y-103140820D01*
X155308134Y-102954482D01*
X155404265Y-102748326D01*
X155404269Y-102748317D01*
X155456872Y-102552000D01*
X154493686Y-102552000D01*
X154498080Y-102547606D01*
X154550741Y-102456394D01*
X154578000Y-102354661D01*
X154578000Y-102249339D01*
X154550741Y-102147606D01*
X154498080Y-102056394D01*
X154493686Y-102052000D01*
X155456872Y-102052000D01*
X155456872Y-102051999D01*
X155404269Y-101855682D01*
X155404265Y-101855673D01*
X155308134Y-101649517D01*
X155177657Y-101463179D01*
X155016820Y-101302342D01*
X154830482Y-101171865D01*
X154624328Y-101075734D01*
X154428000Y-101023127D01*
X154428000Y-101986314D01*
X154423606Y-101981920D01*
X154332394Y-101929259D01*
X154230661Y-101902000D01*
X154125339Y-101902000D01*
X154023606Y-101929259D01*
X153932394Y-101981920D01*
X153928000Y-101986314D01*
X153928000Y-101023127D01*
X153731671Y-101075734D01*
X153525517Y-101171865D01*
X153339179Y-101302342D01*
X153178342Y-101463179D01*
X153047865Y-101649517D01*
X152951734Y-101855673D01*
X152951730Y-101855682D01*
X152899127Y-102051999D01*
X128262500Y-102051999D01*
X128262500Y-99657324D01*
X128279112Y-99595324D01*
X128340392Y-99489186D01*
X128374500Y-99361892D01*
X128374500Y-98693308D01*
X128394185Y-98626269D01*
X128410819Y-98605627D01*
X129079884Y-97936561D01*
X129080740Y-97938626D01*
X129173762Y-98077844D01*
X129292156Y-98196238D01*
X129431374Y-98289260D01*
X129433437Y-98290114D01*
X128784830Y-98938720D01*
X128956546Y-99055793D01*
X128956550Y-99055795D01*
X129192854Y-99169594D01*
X129192858Y-99169595D01*
X129443494Y-99246907D01*
X129443500Y-99246909D01*
X129702848Y-99285999D01*
X129702857Y-99286000D01*
X129965143Y-99286000D01*
X129965151Y-99285999D01*
X130224499Y-99246909D01*
X130224505Y-99246907D01*
X130475143Y-99169595D01*
X130711445Y-99055798D01*
X130711447Y-99055797D01*
X130883168Y-98938720D01*
X130234562Y-98290114D01*
X130236626Y-98289260D01*
X130375844Y-98196238D01*
X130494238Y-98077844D01*
X130587260Y-97938626D01*
X130588114Y-97936561D01*
X131236125Y-98584572D01*
X131283971Y-98524573D01*
X131415116Y-98297426D01*
X131510941Y-98053270D01*
X131569306Y-97797550D01*
X131569307Y-97797545D01*
X131588907Y-97536004D01*
X133159093Y-97536004D01*
X133178692Y-97797545D01*
X133178693Y-97797550D01*
X133237058Y-98053270D01*
X133332883Y-98297426D01*
X133332882Y-98297426D01*
X133464027Y-98524573D01*
X133511874Y-98584571D01*
X134159884Y-97936561D01*
X134160740Y-97938626D01*
X134253762Y-98077844D01*
X134372156Y-98196238D01*
X134511374Y-98289260D01*
X134513437Y-98290114D01*
X133864830Y-98938720D01*
X134036546Y-99055793D01*
X134036550Y-99055795D01*
X134272854Y-99169594D01*
X134272858Y-99169595D01*
X134523494Y-99246907D01*
X134523500Y-99246909D01*
X134782848Y-99285999D01*
X134782857Y-99286000D01*
X135045143Y-99286000D01*
X135045151Y-99285999D01*
X135304499Y-99246909D01*
X135304505Y-99246907D01*
X135555143Y-99169595D01*
X135791445Y-99055798D01*
X135791447Y-99055797D01*
X135963168Y-98938720D01*
X135314562Y-98290114D01*
X135316626Y-98289260D01*
X135455844Y-98196238D01*
X135574238Y-98077844D01*
X135667260Y-97938626D01*
X135668114Y-97936561D01*
X136316125Y-98584572D01*
X136363971Y-98524573D01*
X136495116Y-98297426D01*
X136590941Y-98053270D01*
X136649306Y-97797550D01*
X136649307Y-97797545D01*
X136668907Y-97536004D01*
X159789093Y-97536004D01*
X159808692Y-97797545D01*
X159808693Y-97797550D01*
X159867058Y-98053270D01*
X159962883Y-98297426D01*
X159962882Y-98297426D01*
X160094027Y-98524573D01*
X160141874Y-98584571D01*
X160789884Y-97936561D01*
X160790740Y-97938626D01*
X160883762Y-98077844D01*
X161002156Y-98196238D01*
X161141374Y-98289260D01*
X161143437Y-98290114D01*
X160494830Y-98938720D01*
X160666546Y-99055793D01*
X160666550Y-99055795D01*
X160902854Y-99169594D01*
X160902858Y-99169595D01*
X161153494Y-99246907D01*
X161153500Y-99246909D01*
X161412848Y-99285999D01*
X161412857Y-99286000D01*
X161675143Y-99286000D01*
X161675151Y-99285999D01*
X161934499Y-99246909D01*
X161934505Y-99246907D01*
X162185143Y-99169595D01*
X162421445Y-99055798D01*
X162421447Y-99055797D01*
X162593168Y-98938720D01*
X161944562Y-98290114D01*
X161946626Y-98289260D01*
X162085844Y-98196238D01*
X162204238Y-98077844D01*
X162297260Y-97938626D01*
X162298114Y-97936561D01*
X162946125Y-98584572D01*
X162993971Y-98524573D01*
X163125116Y-98297426D01*
X163220941Y-98053270D01*
X163279306Y-97797550D01*
X163279307Y-97797545D01*
X163298907Y-97536004D01*
X163298907Y-97535995D01*
X163279307Y-97274454D01*
X163279306Y-97274449D01*
X163220941Y-97018729D01*
X163125116Y-96774573D01*
X163125117Y-96774573D01*
X162993972Y-96547426D01*
X162946124Y-96487427D01*
X162298114Y-97135437D01*
X162297260Y-97133374D01*
X162204238Y-96994156D01*
X162085844Y-96875762D01*
X161946626Y-96782740D01*
X161944562Y-96781885D01*
X162593168Y-96133278D01*
X162421454Y-96016206D01*
X162421445Y-96016201D01*
X162185142Y-95902404D01*
X162185144Y-95902404D01*
X161934505Y-95825092D01*
X161934499Y-95825090D01*
X161675151Y-95786000D01*
X161412848Y-95786000D01*
X161153500Y-95825090D01*
X161153494Y-95825092D01*
X160902858Y-95902404D01*
X160902854Y-95902405D01*
X160666547Y-96016205D01*
X160666539Y-96016210D01*
X160494830Y-96133277D01*
X161143438Y-96781885D01*
X161141374Y-96782740D01*
X161002156Y-96875762D01*
X160883762Y-96994156D01*
X160790740Y-97133374D01*
X160789885Y-97135437D01*
X160141874Y-96487427D01*
X160094028Y-96547425D01*
X159962883Y-96774573D01*
X159867058Y-97018729D01*
X159808693Y-97274449D01*
X159808692Y-97274454D01*
X159789093Y-97535995D01*
X159789093Y-97536004D01*
X136668907Y-97536004D01*
X136668907Y-97535995D01*
X136649307Y-97274454D01*
X136649306Y-97274449D01*
X136590941Y-97018729D01*
X136495116Y-96774573D01*
X136495117Y-96774573D01*
X136363972Y-96547426D01*
X136316124Y-96487427D01*
X135668114Y-97135437D01*
X135667260Y-97133374D01*
X135574238Y-96994156D01*
X135455844Y-96875762D01*
X135316626Y-96782740D01*
X135314562Y-96781885D01*
X135963168Y-96133278D01*
X135791454Y-96016206D01*
X135791445Y-96016201D01*
X135555142Y-95902404D01*
X135555144Y-95902404D01*
X135304505Y-95825092D01*
X135304499Y-95825090D01*
X135045151Y-95786000D01*
X134782848Y-95786000D01*
X134523500Y-95825090D01*
X134523494Y-95825092D01*
X134272858Y-95902404D01*
X134272854Y-95902405D01*
X134036547Y-96016205D01*
X134036539Y-96016210D01*
X133864830Y-96133277D01*
X134513438Y-96781885D01*
X134511374Y-96782740D01*
X134372156Y-96875762D01*
X134253762Y-96994156D01*
X134160740Y-97133374D01*
X134159885Y-97135437D01*
X133511874Y-96487427D01*
X133464028Y-96547425D01*
X133332883Y-96774573D01*
X133237058Y-97018729D01*
X133178693Y-97274449D01*
X133178692Y-97274454D01*
X133159093Y-97535995D01*
X133159093Y-97536004D01*
X131588907Y-97536004D01*
X131588907Y-97535995D01*
X131569307Y-97274454D01*
X131569306Y-97274449D01*
X131510941Y-97018729D01*
X131415116Y-96774573D01*
X131415117Y-96774573D01*
X131283972Y-96547426D01*
X131236124Y-96487427D01*
X130588114Y-97135437D01*
X130587260Y-97133374D01*
X130494238Y-96994156D01*
X130375844Y-96875762D01*
X130236626Y-96782740D01*
X130234562Y-96781885D01*
X130883168Y-96133278D01*
X130711454Y-96016206D01*
X130711445Y-96016201D01*
X130475142Y-95902404D01*
X130475144Y-95902404D01*
X130224505Y-95825092D01*
X130224499Y-95825090D01*
X129965151Y-95786000D01*
X129702848Y-95786000D01*
X129443500Y-95825090D01*
X129443494Y-95825092D01*
X129192858Y-95902404D01*
X129192854Y-95902405D01*
X128956547Y-96016205D01*
X128956539Y-96016210D01*
X128784830Y-96133277D01*
X129433438Y-96781885D01*
X129431374Y-96782740D01*
X129292156Y-96875762D01*
X129173762Y-96994156D01*
X129080740Y-97133374D01*
X129079885Y-97135437D01*
X128410819Y-96466371D01*
X128377334Y-96405048D01*
X128374500Y-96378690D01*
X128374500Y-95094422D01*
X131123500Y-95094422D01*
X131154290Y-95288826D01*
X131215117Y-95476029D01*
X131299245Y-95641139D01*
X131304476Y-95651405D01*
X131420172Y-95810646D01*
X131559354Y-95949828D01*
X131718595Y-96065524D01*
X131761987Y-96087633D01*
X131893970Y-96154882D01*
X131893972Y-96154882D01*
X131893975Y-96154884D01*
X131994317Y-96187487D01*
X132081173Y-96215709D01*
X132275578Y-96246500D01*
X132275583Y-96246500D01*
X132472422Y-96246500D01*
X132666826Y-96215709D01*
X132854025Y-96154884D01*
X133029405Y-96065524D01*
X133188646Y-95949828D01*
X133327828Y-95810646D01*
X133443524Y-95651405D01*
X133532884Y-95476025D01*
X133593709Y-95288826D01*
X133624500Y-95094422D01*
X133624500Y-94897577D01*
X133609362Y-94802001D01*
X152872532Y-94802001D01*
X152892364Y-95028686D01*
X152892366Y-95028697D01*
X152951258Y-95248488D01*
X152951261Y-95248497D01*
X153047431Y-95454732D01*
X153047432Y-95454734D01*
X153177954Y-95641141D01*
X153338858Y-95802045D01*
X153338861Y-95802047D01*
X153525266Y-95932568D01*
X153731504Y-96028739D01*
X153951308Y-96087635D01*
X154113230Y-96101801D01*
X154177998Y-96107468D01*
X154178000Y-96107468D01*
X154178002Y-96107468D01*
X154234673Y-96102509D01*
X154404692Y-96087635D01*
X154624496Y-96028739D01*
X154830734Y-95932568D01*
X155017139Y-95802047D01*
X155178047Y-95641139D01*
X155308568Y-95454734D01*
X155404739Y-95248496D01*
X155446023Y-95094422D01*
X162833500Y-95094422D01*
X162864290Y-95288826D01*
X162925117Y-95476029D01*
X163009245Y-95641139D01*
X163014476Y-95651405D01*
X163130172Y-95810646D01*
X163269354Y-95949828D01*
X163428595Y-96065524D01*
X163471987Y-96087633D01*
X163603970Y-96154882D01*
X163603972Y-96154882D01*
X163603975Y-96154884D01*
X163704317Y-96187487D01*
X163791173Y-96215709D01*
X163985578Y-96246500D01*
X163985583Y-96246500D01*
X164182422Y-96246500D01*
X164376826Y-96215709D01*
X164564025Y-96154884D01*
X164739405Y-96065524D01*
X164898646Y-95949828D01*
X165037828Y-95810646D01*
X165153524Y-95651405D01*
X165242884Y-95476025D01*
X165303709Y-95288826D01*
X165334500Y-95094422D01*
X165334500Y-94897577D01*
X165303709Y-94703173D01*
X165262164Y-94575313D01*
X165242884Y-94515975D01*
X165242882Y-94515972D01*
X165242882Y-94515970D01*
X165153523Y-94340594D01*
X165037828Y-94181354D01*
X164898646Y-94042172D01*
X164739405Y-93926476D01*
X164564029Y-93837117D01*
X164376826Y-93776290D01*
X164182422Y-93745500D01*
X164182417Y-93745500D01*
X163985583Y-93745500D01*
X163985578Y-93745500D01*
X163791173Y-93776290D01*
X163603970Y-93837117D01*
X163428594Y-93926476D01*
X163360711Y-93975797D01*
X163269354Y-94042172D01*
X163269352Y-94042174D01*
X163269351Y-94042174D01*
X163130174Y-94181351D01*
X163130174Y-94181352D01*
X163130172Y-94181354D01*
X163112266Y-94206000D01*
X163014476Y-94340594D01*
X162925117Y-94515970D01*
X162864290Y-94703173D01*
X162833500Y-94897577D01*
X162833500Y-95094422D01*
X155446023Y-95094422D01*
X155463635Y-95028692D01*
X155483468Y-94802000D01*
X155463635Y-94575308D01*
X155404739Y-94355504D01*
X155308568Y-94149266D01*
X155178047Y-93962861D01*
X155178045Y-93962858D01*
X155017141Y-93801954D01*
X154830734Y-93671432D01*
X154830732Y-93671431D01*
X154624497Y-93575261D01*
X154624488Y-93575258D01*
X154404697Y-93516366D01*
X154404693Y-93516365D01*
X154404692Y-93516365D01*
X154404691Y-93516364D01*
X154404686Y-93516364D01*
X154178002Y-93496532D01*
X154177998Y-93496532D01*
X153951313Y-93516364D01*
X153951302Y-93516366D01*
X153731511Y-93575258D01*
X153731502Y-93575261D01*
X153525267Y-93671431D01*
X153525265Y-93671432D01*
X153338858Y-93801954D01*
X153177954Y-93962858D01*
X153047432Y-94149265D01*
X153047431Y-94149267D01*
X152951261Y-94355502D01*
X152951258Y-94355511D01*
X152892366Y-94575302D01*
X152892364Y-94575313D01*
X152872532Y-94801998D01*
X152872532Y-94802001D01*
X133609362Y-94802001D01*
X133593709Y-94703173D01*
X133552164Y-94575313D01*
X133532884Y-94515975D01*
X133532882Y-94515972D01*
X133532882Y-94515970D01*
X133443523Y-94340594D01*
X133327828Y-94181354D01*
X133188646Y-94042172D01*
X133029405Y-93926476D01*
X132854029Y-93837117D01*
X132666826Y-93776290D01*
X132472422Y-93745500D01*
X132472417Y-93745500D01*
X132275583Y-93745500D01*
X132275578Y-93745500D01*
X132081173Y-93776290D01*
X131893970Y-93837117D01*
X131718594Y-93926476D01*
X131650711Y-93975797D01*
X131559354Y-94042172D01*
X131559352Y-94042174D01*
X131559351Y-94042174D01*
X131420174Y-94181351D01*
X131420174Y-94181352D01*
X131420172Y-94181354D01*
X131402266Y-94206000D01*
X131304476Y-94340594D01*
X131215117Y-94515970D01*
X131154290Y-94703173D01*
X131123500Y-94897577D01*
X131123500Y-95094422D01*
X128374500Y-95094422D01*
X128374500Y-93613308D01*
X128394185Y-93546269D01*
X128410819Y-93525627D01*
X129079884Y-92856561D01*
X129080740Y-92858626D01*
X129173762Y-92997844D01*
X129292156Y-93116238D01*
X129431374Y-93209260D01*
X129433437Y-93210114D01*
X128784830Y-93858720D01*
X128956546Y-93975793D01*
X128956550Y-93975795D01*
X129192854Y-94089594D01*
X129192858Y-94089595D01*
X129443494Y-94166907D01*
X129443500Y-94166909D01*
X129702848Y-94205999D01*
X129702857Y-94206000D01*
X129965143Y-94206000D01*
X129965151Y-94205999D01*
X130224499Y-94166909D01*
X130224505Y-94166907D01*
X130475143Y-94089595D01*
X130711445Y-93975798D01*
X130711447Y-93975797D01*
X130883168Y-93858720D01*
X130234562Y-93210114D01*
X130236626Y-93209260D01*
X130375844Y-93116238D01*
X130494238Y-92997844D01*
X130587260Y-92858626D01*
X130588114Y-92856561D01*
X131236125Y-93504572D01*
X131283971Y-93444573D01*
X131415116Y-93217426D01*
X131510941Y-92973270D01*
X131569306Y-92717550D01*
X131569307Y-92717545D01*
X131588907Y-92456004D01*
X133159093Y-92456004D01*
X133178692Y-92717545D01*
X133178693Y-92717550D01*
X133237058Y-92973270D01*
X133332883Y-93217426D01*
X133332882Y-93217426D01*
X133464027Y-93444573D01*
X133511874Y-93504571D01*
X134159884Y-92856561D01*
X134160740Y-92858626D01*
X134253762Y-92997844D01*
X134372156Y-93116238D01*
X134511374Y-93209260D01*
X134513437Y-93210114D01*
X133864830Y-93858720D01*
X134036546Y-93975793D01*
X134036550Y-93975795D01*
X134272854Y-94089594D01*
X134272858Y-94089595D01*
X134523494Y-94166907D01*
X134523500Y-94166909D01*
X134782848Y-94205999D01*
X134782857Y-94206000D01*
X135045143Y-94206000D01*
X135045151Y-94205999D01*
X135304499Y-94166909D01*
X135304505Y-94166907D01*
X135555143Y-94089595D01*
X135791445Y-93975798D01*
X135791447Y-93975797D01*
X135963168Y-93858720D01*
X135314562Y-93210114D01*
X135316626Y-93209260D01*
X135455844Y-93116238D01*
X135574238Y-92997844D01*
X135667260Y-92858626D01*
X135668114Y-92856561D01*
X136316125Y-93504572D01*
X136363971Y-93444573D01*
X136495116Y-93217426D01*
X136590941Y-92973270D01*
X136649306Y-92717550D01*
X136649307Y-92717545D01*
X136668907Y-92456004D01*
X159789093Y-92456004D01*
X159808692Y-92717545D01*
X159808693Y-92717550D01*
X159867058Y-92973270D01*
X159962883Y-93217426D01*
X159962882Y-93217426D01*
X160094027Y-93444573D01*
X160141874Y-93504571D01*
X160789884Y-92856561D01*
X160790740Y-92858626D01*
X160883762Y-92997844D01*
X161002156Y-93116238D01*
X161141374Y-93209260D01*
X161143437Y-93210114D01*
X160494830Y-93858720D01*
X160666546Y-93975793D01*
X160666550Y-93975795D01*
X160902854Y-94089594D01*
X160902858Y-94089595D01*
X161153494Y-94166907D01*
X161153500Y-94166909D01*
X161412848Y-94205999D01*
X161412857Y-94206000D01*
X161675143Y-94206000D01*
X161675151Y-94205999D01*
X161934499Y-94166909D01*
X161934505Y-94166907D01*
X162185143Y-94089595D01*
X162421445Y-93975798D01*
X162421447Y-93975797D01*
X162593168Y-93858720D01*
X161944562Y-93210114D01*
X161946626Y-93209260D01*
X162085844Y-93116238D01*
X162204238Y-92997844D01*
X162297260Y-92858626D01*
X162298114Y-92856561D01*
X162946125Y-93504572D01*
X162993971Y-93444573D01*
X163125116Y-93217426D01*
X163220941Y-92973270D01*
X163279306Y-92717550D01*
X163279307Y-92717545D01*
X163298907Y-92456004D01*
X163298907Y-92455995D01*
X163279307Y-92194454D01*
X163279306Y-92194449D01*
X163220941Y-91938729D01*
X163125116Y-91694573D01*
X163125117Y-91694573D01*
X162993972Y-91467426D01*
X162946124Y-91407427D01*
X162298114Y-92055437D01*
X162297260Y-92053374D01*
X162204238Y-91914156D01*
X162085844Y-91795762D01*
X161946626Y-91702740D01*
X161944562Y-91701885D01*
X162593168Y-91053278D01*
X162421454Y-90936206D01*
X162421445Y-90936201D01*
X162185142Y-90822404D01*
X162185144Y-90822404D01*
X161934505Y-90745092D01*
X161934499Y-90745090D01*
X161675151Y-90706000D01*
X161412848Y-90706000D01*
X161153500Y-90745090D01*
X161153494Y-90745092D01*
X160902858Y-90822404D01*
X160902854Y-90822405D01*
X160666547Y-90936205D01*
X160666539Y-90936210D01*
X160494830Y-91053277D01*
X161143438Y-91701885D01*
X161141374Y-91702740D01*
X161002156Y-91795762D01*
X160883762Y-91914156D01*
X160790740Y-92053374D01*
X160789885Y-92055437D01*
X160141874Y-91407427D01*
X160094028Y-91467425D01*
X159962883Y-91694573D01*
X159867058Y-91938729D01*
X159808693Y-92194449D01*
X159808692Y-92194454D01*
X159789093Y-92455995D01*
X159789093Y-92456004D01*
X136668907Y-92456004D01*
X136668907Y-92455995D01*
X136649307Y-92194454D01*
X136649306Y-92194449D01*
X136590941Y-91938729D01*
X136495116Y-91694573D01*
X136495117Y-91694573D01*
X136363972Y-91467426D01*
X136316124Y-91407427D01*
X135668114Y-92055437D01*
X135667260Y-92053374D01*
X135574238Y-91914156D01*
X135455844Y-91795762D01*
X135316626Y-91702740D01*
X135314562Y-91701885D01*
X135963168Y-91053278D01*
X135791454Y-90936206D01*
X135791445Y-90936201D01*
X135555142Y-90822404D01*
X135555144Y-90822404D01*
X135304505Y-90745092D01*
X135304499Y-90745090D01*
X135045151Y-90706000D01*
X134782848Y-90706000D01*
X134523500Y-90745090D01*
X134523494Y-90745092D01*
X134272858Y-90822404D01*
X134272854Y-90822405D01*
X134036547Y-90936205D01*
X134036539Y-90936210D01*
X133864830Y-91053277D01*
X134513438Y-91701885D01*
X134511374Y-91702740D01*
X134372156Y-91795762D01*
X134253762Y-91914156D01*
X134160740Y-92053374D01*
X134159885Y-92055437D01*
X133511874Y-91407427D01*
X133464028Y-91467425D01*
X133332883Y-91694573D01*
X133237058Y-91938729D01*
X133178693Y-92194449D01*
X133178692Y-92194454D01*
X133159093Y-92455995D01*
X133159093Y-92456004D01*
X131588907Y-92456004D01*
X131588907Y-92455995D01*
X131569307Y-92194454D01*
X131569306Y-92194449D01*
X131510941Y-91938729D01*
X131415116Y-91694573D01*
X131415117Y-91694573D01*
X131283972Y-91467426D01*
X131236124Y-91407427D01*
X130588114Y-92055437D01*
X130587260Y-92053374D01*
X130494238Y-91914156D01*
X130375844Y-91795762D01*
X130236626Y-91702740D01*
X130234562Y-91701885D01*
X130883168Y-91053278D01*
X130711454Y-90936206D01*
X130711445Y-90936201D01*
X130475142Y-90822404D01*
X130475144Y-90822404D01*
X130224505Y-90745092D01*
X130224499Y-90745090D01*
X129965151Y-90706000D01*
X129702848Y-90706000D01*
X129443500Y-90745090D01*
X129443494Y-90745092D01*
X129192858Y-90822404D01*
X129192854Y-90822405D01*
X128956547Y-90936205D01*
X128956539Y-90936210D01*
X128784830Y-91053277D01*
X129433438Y-91701885D01*
X129431374Y-91702740D01*
X129292156Y-91795762D01*
X129173762Y-91914156D01*
X129080740Y-92053374D01*
X129079885Y-92055437D01*
X128410819Y-91386371D01*
X128377334Y-91325048D01*
X128374500Y-91298690D01*
X128374500Y-90630110D01*
X128374500Y-90630108D01*
X128340392Y-90502814D01*
X128283317Y-90403957D01*
X128279113Y-90396675D01*
X128262500Y-90334675D01*
X128262500Y-90170000D01*
X141034357Y-90170000D01*
X141054884Y-90391535D01*
X141054885Y-90391537D01*
X141115769Y-90605523D01*
X141115775Y-90605538D01*
X141214938Y-90804683D01*
X141214943Y-90804691D01*
X141349020Y-90982238D01*
X141513437Y-91132123D01*
X141513439Y-91132125D01*
X141702595Y-91249245D01*
X141702596Y-91249245D01*
X141702599Y-91249247D01*
X141910060Y-91329618D01*
X142128757Y-91370500D01*
X142128759Y-91370500D01*
X142351241Y-91370500D01*
X142351243Y-91370500D01*
X142569940Y-91329618D01*
X142777401Y-91249247D01*
X142966562Y-91132124D01*
X143130981Y-90982236D01*
X143265058Y-90804689D01*
X143364229Y-90605528D01*
X143425115Y-90391536D01*
X143445643Y-90170000D01*
X146114357Y-90170000D01*
X146134884Y-90391535D01*
X146134885Y-90391537D01*
X146195769Y-90605523D01*
X146195775Y-90605538D01*
X146294938Y-90804683D01*
X146294943Y-90804691D01*
X146429020Y-90982238D01*
X146593437Y-91132123D01*
X146593439Y-91132125D01*
X146782595Y-91249245D01*
X146782596Y-91249245D01*
X146782599Y-91249247D01*
X146990060Y-91329618D01*
X147208757Y-91370500D01*
X147208759Y-91370500D01*
X147431241Y-91370500D01*
X147431243Y-91370500D01*
X147649940Y-91329618D01*
X147857401Y-91249247D01*
X148046562Y-91132124D01*
X148210981Y-90982236D01*
X148345058Y-90804689D01*
X148444229Y-90605528D01*
X148505115Y-90391536D01*
X148525643Y-90170000D01*
X148505115Y-89948464D01*
X148444229Y-89734472D01*
X148444224Y-89734461D01*
X148345061Y-89535316D01*
X148345056Y-89535308D01*
X148210979Y-89357761D01*
X148046562Y-89207876D01*
X148046560Y-89207874D01*
X147857404Y-89090754D01*
X147857398Y-89090752D01*
X147649940Y-89010382D01*
X147431243Y-88969500D01*
X147208757Y-88969500D01*
X146990060Y-89010382D01*
X146858864Y-89061207D01*
X146782601Y-89090752D01*
X146782595Y-89090754D01*
X146593439Y-89207874D01*
X146593437Y-89207876D01*
X146429020Y-89357761D01*
X146294943Y-89535308D01*
X146294938Y-89535316D01*
X146195775Y-89734461D01*
X146195769Y-89734476D01*
X146134885Y-89948462D01*
X146134884Y-89948464D01*
X146114357Y-90169999D01*
X146114357Y-90170000D01*
X143445643Y-90170000D01*
X143425115Y-89948464D01*
X143364229Y-89734472D01*
X143364224Y-89734461D01*
X143265061Y-89535316D01*
X143265056Y-89535308D01*
X143130979Y-89357761D01*
X142966562Y-89207876D01*
X142966560Y-89207874D01*
X142777404Y-89090754D01*
X142777398Y-89090752D01*
X142569940Y-89010382D01*
X142351243Y-88969500D01*
X142128757Y-88969500D01*
X141910060Y-89010382D01*
X141778864Y-89061207D01*
X141702601Y-89090752D01*
X141702595Y-89090754D01*
X141513439Y-89207874D01*
X141513437Y-89207876D01*
X141349020Y-89357761D01*
X141214943Y-89535308D01*
X141214938Y-89535316D01*
X141115775Y-89734461D01*
X141115769Y-89734476D01*
X141054885Y-89948462D01*
X141054884Y-89948464D01*
X141034357Y-90169999D01*
X141034357Y-90170000D01*
X128262500Y-90170000D01*
X128262500Y-86984500D01*
X128282185Y-86917461D01*
X128334989Y-86871706D01*
X128386500Y-86860500D01*
X168031500Y-86860500D01*
X168098539Y-86880185D01*
G37*
%TD.AperFunction*%
%TD*%
M02*
