%TF.GenerationSoftware,KiCad,Pcbnew,8.0.1*%
%TF.CreationDate,2024-04-10T12:00:33-07:00*%
%TF.ProjectId,LowPassFilter,4c6f7750-6173-4734-9669-6c7465722e6b,rev?*%
%TF.SameCoordinates,Original*%
%TF.FileFunction,Legend,Top*%
%TF.FilePolarity,Positive*%
%FSLAX46Y46*%
G04 Gerber Fmt 4.6, Leading zero omitted, Abs format (unit mm)*
G04 Created by KiCad (PCBNEW 8.0.1) date 2024-04-10 12:00:33*
%MOMM*%
%LPD*%
G01*
G04 APERTURE LIST*
%ADD10C,0.100000*%
%ADD11C,0.150000*%
%ADD12C,0.000000*%
%ADD13C,0.120000*%
G04 APERTURE END LIST*
D10*
X137432074Y-99776531D02*
X136955884Y-99776531D01*
X136955884Y-99776531D02*
X136955884Y-98776531D01*
X137908265Y-99776531D02*
X137813027Y-99728912D01*
X137813027Y-99728912D02*
X137765408Y-99681292D01*
X137765408Y-99681292D02*
X137717789Y-99586054D01*
X137717789Y-99586054D02*
X137717789Y-99300340D01*
X137717789Y-99300340D02*
X137765408Y-99205102D01*
X137765408Y-99205102D02*
X137813027Y-99157483D01*
X137813027Y-99157483D02*
X137908265Y-99109864D01*
X137908265Y-99109864D02*
X138051122Y-99109864D01*
X138051122Y-99109864D02*
X138146360Y-99157483D01*
X138146360Y-99157483D02*
X138193979Y-99205102D01*
X138193979Y-99205102D02*
X138241598Y-99300340D01*
X138241598Y-99300340D02*
X138241598Y-99586054D01*
X138241598Y-99586054D02*
X138193979Y-99681292D01*
X138193979Y-99681292D02*
X138146360Y-99728912D01*
X138146360Y-99728912D02*
X138051122Y-99776531D01*
X138051122Y-99776531D02*
X137908265Y-99776531D01*
X138574932Y-99109864D02*
X138765408Y-99776531D01*
X138765408Y-99776531D02*
X138955884Y-99300340D01*
X138955884Y-99300340D02*
X139146360Y-99776531D01*
X139146360Y-99776531D02*
X139336836Y-99109864D01*
X140432074Y-98728912D02*
X139574932Y-100014626D01*
X140765408Y-99776531D02*
X140765408Y-98776531D01*
X140765408Y-99252721D02*
X141336836Y-99252721D01*
X141336836Y-99776531D02*
X141336836Y-98776531D01*
X141813027Y-99776531D02*
X141813027Y-99109864D01*
X141813027Y-98776531D02*
X141765408Y-98824150D01*
X141765408Y-98824150D02*
X141813027Y-98871769D01*
X141813027Y-98871769D02*
X141860646Y-98824150D01*
X141860646Y-98824150D02*
X141813027Y-98776531D01*
X141813027Y-98776531D02*
X141813027Y-98871769D01*
X142717788Y-99109864D02*
X142717788Y-99919388D01*
X142717788Y-99919388D02*
X142670169Y-100014626D01*
X142670169Y-100014626D02*
X142622550Y-100062245D01*
X142622550Y-100062245D02*
X142527312Y-100109864D01*
X142527312Y-100109864D02*
X142384455Y-100109864D01*
X142384455Y-100109864D02*
X142289217Y-100062245D01*
X142717788Y-99728912D02*
X142622550Y-99776531D01*
X142622550Y-99776531D02*
X142432074Y-99776531D01*
X142432074Y-99776531D02*
X142336836Y-99728912D01*
X142336836Y-99728912D02*
X142289217Y-99681292D01*
X142289217Y-99681292D02*
X142241598Y-99586054D01*
X142241598Y-99586054D02*
X142241598Y-99300340D01*
X142241598Y-99300340D02*
X142289217Y-99205102D01*
X142289217Y-99205102D02*
X142336836Y-99157483D01*
X142336836Y-99157483D02*
X142432074Y-99109864D01*
X142432074Y-99109864D02*
X142622550Y-99109864D01*
X142622550Y-99109864D02*
X142717788Y-99157483D01*
X143193979Y-99776531D02*
X143193979Y-98776531D01*
X143622550Y-99776531D02*
X143622550Y-99252721D01*
X143622550Y-99252721D02*
X143574931Y-99157483D01*
X143574931Y-99157483D02*
X143479693Y-99109864D01*
X143479693Y-99109864D02*
X143336836Y-99109864D01*
X143336836Y-99109864D02*
X143241598Y-99157483D01*
X143241598Y-99157483D02*
X143193979Y-99205102D01*
X144860646Y-99776531D02*
X144860646Y-98776531D01*
X144860646Y-98776531D02*
X145241598Y-98776531D01*
X145241598Y-98776531D02*
X145336836Y-98824150D01*
X145336836Y-98824150D02*
X145384455Y-98871769D01*
X145384455Y-98871769D02*
X145432074Y-98967007D01*
X145432074Y-98967007D02*
X145432074Y-99109864D01*
X145432074Y-99109864D02*
X145384455Y-99205102D01*
X145384455Y-99205102D02*
X145336836Y-99252721D01*
X145336836Y-99252721D02*
X145241598Y-99300340D01*
X145241598Y-99300340D02*
X144860646Y-99300340D01*
X146289217Y-99776531D02*
X146289217Y-99252721D01*
X146289217Y-99252721D02*
X146241598Y-99157483D01*
X146241598Y-99157483D02*
X146146360Y-99109864D01*
X146146360Y-99109864D02*
X145955884Y-99109864D01*
X145955884Y-99109864D02*
X145860646Y-99157483D01*
X146289217Y-99728912D02*
X146193979Y-99776531D01*
X146193979Y-99776531D02*
X145955884Y-99776531D01*
X145955884Y-99776531D02*
X145860646Y-99728912D01*
X145860646Y-99728912D02*
X145813027Y-99633673D01*
X145813027Y-99633673D02*
X145813027Y-99538435D01*
X145813027Y-99538435D02*
X145860646Y-99443197D01*
X145860646Y-99443197D02*
X145955884Y-99395578D01*
X145955884Y-99395578D02*
X146193979Y-99395578D01*
X146193979Y-99395578D02*
X146289217Y-99347959D01*
X146717789Y-99728912D02*
X146813027Y-99776531D01*
X146813027Y-99776531D02*
X147003503Y-99776531D01*
X147003503Y-99776531D02*
X147098741Y-99728912D01*
X147098741Y-99728912D02*
X147146360Y-99633673D01*
X147146360Y-99633673D02*
X147146360Y-99586054D01*
X147146360Y-99586054D02*
X147098741Y-99490816D01*
X147098741Y-99490816D02*
X147003503Y-99443197D01*
X147003503Y-99443197D02*
X146860646Y-99443197D01*
X146860646Y-99443197D02*
X146765408Y-99395578D01*
X146765408Y-99395578D02*
X146717789Y-99300340D01*
X146717789Y-99300340D02*
X146717789Y-99252721D01*
X146717789Y-99252721D02*
X146765408Y-99157483D01*
X146765408Y-99157483D02*
X146860646Y-99109864D01*
X146860646Y-99109864D02*
X147003503Y-99109864D01*
X147003503Y-99109864D02*
X147098741Y-99157483D01*
X147527313Y-99728912D02*
X147622551Y-99776531D01*
X147622551Y-99776531D02*
X147813027Y-99776531D01*
X147813027Y-99776531D02*
X147908265Y-99728912D01*
X147908265Y-99728912D02*
X147955884Y-99633673D01*
X147955884Y-99633673D02*
X147955884Y-99586054D01*
X147955884Y-99586054D02*
X147908265Y-99490816D01*
X147908265Y-99490816D02*
X147813027Y-99443197D01*
X147813027Y-99443197D02*
X147670170Y-99443197D01*
X147670170Y-99443197D02*
X147574932Y-99395578D01*
X147574932Y-99395578D02*
X147527313Y-99300340D01*
X147527313Y-99300340D02*
X147527313Y-99252721D01*
X147527313Y-99252721D02*
X147574932Y-99157483D01*
X147574932Y-99157483D02*
X147670170Y-99109864D01*
X147670170Y-99109864D02*
X147813027Y-99109864D01*
X147813027Y-99109864D02*
X147908265Y-99157483D01*
X137527312Y-101386475D02*
X137193979Y-100910284D01*
X136955884Y-101386475D02*
X136955884Y-100386475D01*
X136955884Y-100386475D02*
X137336836Y-100386475D01*
X137336836Y-100386475D02*
X137432074Y-100434094D01*
X137432074Y-100434094D02*
X137479693Y-100481713D01*
X137479693Y-100481713D02*
X137527312Y-100576951D01*
X137527312Y-100576951D02*
X137527312Y-100719808D01*
X137527312Y-100719808D02*
X137479693Y-100815046D01*
X137479693Y-100815046D02*
X137432074Y-100862665D01*
X137432074Y-100862665D02*
X137336836Y-100910284D01*
X137336836Y-100910284D02*
X136955884Y-100910284D01*
X138527312Y-101291236D02*
X138479693Y-101338856D01*
X138479693Y-101338856D02*
X138336836Y-101386475D01*
X138336836Y-101386475D02*
X138241598Y-101386475D01*
X138241598Y-101386475D02*
X138098741Y-101338856D01*
X138098741Y-101338856D02*
X138003503Y-101243617D01*
X138003503Y-101243617D02*
X137955884Y-101148379D01*
X137955884Y-101148379D02*
X137908265Y-100957903D01*
X137908265Y-100957903D02*
X137908265Y-100815046D01*
X137908265Y-100815046D02*
X137955884Y-100624570D01*
X137955884Y-100624570D02*
X138003503Y-100529332D01*
X138003503Y-100529332D02*
X138098741Y-100434094D01*
X138098741Y-100434094D02*
X138241598Y-100386475D01*
X138241598Y-100386475D02*
X138336836Y-100386475D01*
X138336836Y-100386475D02*
X138479693Y-100434094D01*
X138479693Y-100434094D02*
X138527312Y-100481713D01*
X140051122Y-100862665D02*
X139717789Y-100862665D01*
X139717789Y-101386475D02*
X139717789Y-100386475D01*
X139717789Y-100386475D02*
X140193979Y-100386475D01*
X140574932Y-101386475D02*
X140574932Y-100719808D01*
X140574932Y-100386475D02*
X140527313Y-100434094D01*
X140527313Y-100434094D02*
X140574932Y-100481713D01*
X140574932Y-100481713D02*
X140622551Y-100434094D01*
X140622551Y-100434094D02*
X140574932Y-100386475D01*
X140574932Y-100386475D02*
X140574932Y-100481713D01*
X141193979Y-101386475D02*
X141098741Y-101338856D01*
X141098741Y-101338856D02*
X141051122Y-101243617D01*
X141051122Y-101243617D02*
X141051122Y-100386475D01*
X141432075Y-100719808D02*
X141813027Y-100719808D01*
X141574932Y-100386475D02*
X141574932Y-101243617D01*
X141574932Y-101243617D02*
X141622551Y-101338856D01*
X141622551Y-101338856D02*
X141717789Y-101386475D01*
X141717789Y-101386475D02*
X141813027Y-101386475D01*
X142527313Y-101338856D02*
X142432075Y-101386475D01*
X142432075Y-101386475D02*
X142241599Y-101386475D01*
X142241599Y-101386475D02*
X142146361Y-101338856D01*
X142146361Y-101338856D02*
X142098742Y-101243617D01*
X142098742Y-101243617D02*
X142098742Y-100862665D01*
X142098742Y-100862665D02*
X142146361Y-100767427D01*
X142146361Y-100767427D02*
X142241599Y-100719808D01*
X142241599Y-100719808D02*
X142432075Y-100719808D01*
X142432075Y-100719808D02*
X142527313Y-100767427D01*
X142527313Y-100767427D02*
X142574932Y-100862665D01*
X142574932Y-100862665D02*
X142574932Y-100957903D01*
X142574932Y-100957903D02*
X142098742Y-101053141D01*
X143003504Y-101386475D02*
X143003504Y-100719808D01*
X143003504Y-100910284D02*
X143051123Y-100815046D01*
X143051123Y-100815046D02*
X143098742Y-100767427D01*
X143098742Y-100767427D02*
X143193980Y-100719808D01*
X143193980Y-100719808D02*
X143289218Y-100719808D01*
X137146360Y-101996419D02*
X137241598Y-101996419D01*
X137241598Y-101996419D02*
X137336836Y-102044038D01*
X137336836Y-102044038D02*
X137384455Y-102091657D01*
X137384455Y-102091657D02*
X137432074Y-102186895D01*
X137432074Y-102186895D02*
X137479693Y-102377371D01*
X137479693Y-102377371D02*
X137479693Y-102615466D01*
X137479693Y-102615466D02*
X137432074Y-102805942D01*
X137432074Y-102805942D02*
X137384455Y-102901180D01*
X137384455Y-102901180D02*
X137336836Y-102948800D01*
X137336836Y-102948800D02*
X137241598Y-102996419D01*
X137241598Y-102996419D02*
X137146360Y-102996419D01*
X137146360Y-102996419D02*
X137051122Y-102948800D01*
X137051122Y-102948800D02*
X137003503Y-102901180D01*
X137003503Y-102901180D02*
X136955884Y-102805942D01*
X136955884Y-102805942D02*
X136908265Y-102615466D01*
X136908265Y-102615466D02*
X136908265Y-102377371D01*
X136908265Y-102377371D02*
X136955884Y-102186895D01*
X136955884Y-102186895D02*
X137003503Y-102091657D01*
X137003503Y-102091657D02*
X137051122Y-102044038D01*
X137051122Y-102044038D02*
X137146360Y-101996419D01*
X138336836Y-102329752D02*
X138336836Y-102996419D01*
X138098741Y-101948800D02*
X137860646Y-102663085D01*
X137860646Y-102663085D02*
X138479693Y-102663085D01*
X139574931Y-101948800D02*
X138717789Y-103234514D01*
X140432074Y-102996419D02*
X139860646Y-102996419D01*
X140146360Y-102996419D02*
X140146360Y-101996419D01*
X140146360Y-101996419D02*
X140051122Y-102139276D01*
X140051122Y-102139276D02*
X139955884Y-102234514D01*
X139955884Y-102234514D02*
X139860646Y-102282133D01*
X141051122Y-101996419D02*
X141146360Y-101996419D01*
X141146360Y-101996419D02*
X141241598Y-102044038D01*
X141241598Y-102044038D02*
X141289217Y-102091657D01*
X141289217Y-102091657D02*
X141336836Y-102186895D01*
X141336836Y-102186895D02*
X141384455Y-102377371D01*
X141384455Y-102377371D02*
X141384455Y-102615466D01*
X141384455Y-102615466D02*
X141336836Y-102805942D01*
X141336836Y-102805942D02*
X141289217Y-102901180D01*
X141289217Y-102901180D02*
X141241598Y-102948800D01*
X141241598Y-102948800D02*
X141146360Y-102996419D01*
X141146360Y-102996419D02*
X141051122Y-102996419D01*
X141051122Y-102996419D02*
X140955884Y-102948800D01*
X140955884Y-102948800D02*
X140908265Y-102901180D01*
X140908265Y-102901180D02*
X140860646Y-102805942D01*
X140860646Y-102805942D02*
X140813027Y-102615466D01*
X140813027Y-102615466D02*
X140813027Y-102377371D01*
X140813027Y-102377371D02*
X140860646Y-102186895D01*
X140860646Y-102186895D02*
X140908265Y-102091657D01*
X140908265Y-102091657D02*
X140955884Y-102044038D01*
X140955884Y-102044038D02*
X141051122Y-101996419D01*
X142527312Y-101948800D02*
X141670170Y-103234514D01*
X142813027Y-102091657D02*
X142860646Y-102044038D01*
X142860646Y-102044038D02*
X142955884Y-101996419D01*
X142955884Y-101996419D02*
X143193979Y-101996419D01*
X143193979Y-101996419D02*
X143289217Y-102044038D01*
X143289217Y-102044038D02*
X143336836Y-102091657D01*
X143336836Y-102091657D02*
X143384455Y-102186895D01*
X143384455Y-102186895D02*
X143384455Y-102282133D01*
X143384455Y-102282133D02*
X143336836Y-102424990D01*
X143336836Y-102424990D02*
X142765408Y-102996419D01*
X142765408Y-102996419D02*
X143384455Y-102996419D01*
X144241598Y-102329752D02*
X144241598Y-102996419D01*
X144003503Y-101948800D02*
X143765408Y-102663085D01*
X143765408Y-102663085D02*
X144384455Y-102663085D01*
X145432075Y-102329752D02*
X145670170Y-102996419D01*
X145670170Y-102996419D02*
X145908265Y-102329752D01*
X146479694Y-101996419D02*
X146574932Y-101996419D01*
X146574932Y-101996419D02*
X146670170Y-102044038D01*
X146670170Y-102044038D02*
X146717789Y-102091657D01*
X146717789Y-102091657D02*
X146765408Y-102186895D01*
X146765408Y-102186895D02*
X146813027Y-102377371D01*
X146813027Y-102377371D02*
X146813027Y-102615466D01*
X146813027Y-102615466D02*
X146765408Y-102805942D01*
X146765408Y-102805942D02*
X146717789Y-102901180D01*
X146717789Y-102901180D02*
X146670170Y-102948800D01*
X146670170Y-102948800D02*
X146574932Y-102996419D01*
X146574932Y-102996419D02*
X146479694Y-102996419D01*
X146479694Y-102996419D02*
X146384456Y-102948800D01*
X146384456Y-102948800D02*
X146336837Y-102901180D01*
X146336837Y-102901180D02*
X146289218Y-102805942D01*
X146289218Y-102805942D02*
X146241599Y-102615466D01*
X146241599Y-102615466D02*
X146241599Y-102377371D01*
X146241599Y-102377371D02*
X146289218Y-102186895D01*
X146289218Y-102186895D02*
X146336837Y-102091657D01*
X146336837Y-102091657D02*
X146384456Y-102044038D01*
X146384456Y-102044038D02*
X146479694Y-101996419D01*
X147241599Y-102901180D02*
X147289218Y-102948800D01*
X147289218Y-102948800D02*
X147241599Y-102996419D01*
X147241599Y-102996419D02*
X147193980Y-102948800D01*
X147193980Y-102948800D02*
X147241599Y-102901180D01*
X147241599Y-102901180D02*
X147241599Y-102996419D01*
X148241598Y-102996419D02*
X147670170Y-102996419D01*
X147955884Y-102996419D02*
X147955884Y-101996419D01*
X147955884Y-101996419D02*
X147860646Y-102139276D01*
X147860646Y-102139276D02*
X147765408Y-102234514D01*
X147765408Y-102234514D02*
X147670170Y-102282133D01*
D11*
X156957580Y-98718666D02*
X157005200Y-98766285D01*
X157005200Y-98766285D02*
X157052819Y-98909142D01*
X157052819Y-98909142D02*
X157052819Y-99004380D01*
X157052819Y-99004380D02*
X157005200Y-99147237D01*
X157005200Y-99147237D02*
X156909961Y-99242475D01*
X156909961Y-99242475D02*
X156814723Y-99290094D01*
X156814723Y-99290094D02*
X156624247Y-99337713D01*
X156624247Y-99337713D02*
X156481390Y-99337713D01*
X156481390Y-99337713D02*
X156290914Y-99290094D01*
X156290914Y-99290094D02*
X156195676Y-99242475D01*
X156195676Y-99242475D02*
X156100438Y-99147237D01*
X156100438Y-99147237D02*
X156052819Y-99004380D01*
X156052819Y-99004380D02*
X156052819Y-98909142D01*
X156052819Y-98909142D02*
X156100438Y-98766285D01*
X156100438Y-98766285D02*
X156148057Y-98718666D01*
X156148057Y-98337713D02*
X156100438Y-98290094D01*
X156100438Y-98290094D02*
X156052819Y-98194856D01*
X156052819Y-98194856D02*
X156052819Y-97956761D01*
X156052819Y-97956761D02*
X156100438Y-97861523D01*
X156100438Y-97861523D02*
X156148057Y-97813904D01*
X156148057Y-97813904D02*
X156243295Y-97766285D01*
X156243295Y-97766285D02*
X156338533Y-97766285D01*
X156338533Y-97766285D02*
X156481390Y-97813904D01*
X156481390Y-97813904D02*
X157052819Y-98385332D01*
X157052819Y-98385332D02*
X157052819Y-97766285D01*
X130874000Y-100650819D02*
X130540667Y-100174628D01*
X130302572Y-100650819D02*
X130302572Y-99650819D01*
X130302572Y-99650819D02*
X130683524Y-99650819D01*
X130683524Y-99650819D02*
X130778762Y-99698438D01*
X130778762Y-99698438D02*
X130826381Y-99746057D01*
X130826381Y-99746057D02*
X130874000Y-99841295D01*
X130874000Y-99841295D02*
X130874000Y-99984152D01*
X130874000Y-99984152D02*
X130826381Y-100079390D01*
X130826381Y-100079390D02*
X130778762Y-100127009D01*
X130778762Y-100127009D02*
X130683524Y-100174628D01*
X130683524Y-100174628D02*
X130302572Y-100174628D01*
X131635905Y-100127009D02*
X131302572Y-100127009D01*
X131302572Y-100650819D02*
X131302572Y-99650819D01*
X131302572Y-99650819D02*
X131778762Y-99650819D01*
X132159715Y-100269866D02*
X132921620Y-100269866D01*
X133397810Y-100650819D02*
X133397810Y-99650819D01*
X133874000Y-100650819D02*
X133874000Y-99650819D01*
X133874000Y-99650819D02*
X134445428Y-100650819D01*
X134445428Y-100650819D02*
X134445428Y-99650819D01*
X161917333Y-90250819D02*
X161584000Y-89774628D01*
X161345905Y-90250819D02*
X161345905Y-89250819D01*
X161345905Y-89250819D02*
X161726857Y-89250819D01*
X161726857Y-89250819D02*
X161822095Y-89298438D01*
X161822095Y-89298438D02*
X161869714Y-89346057D01*
X161869714Y-89346057D02*
X161917333Y-89441295D01*
X161917333Y-89441295D02*
X161917333Y-89584152D01*
X161917333Y-89584152D02*
X161869714Y-89679390D01*
X161869714Y-89679390D02*
X161822095Y-89727009D01*
X161822095Y-89727009D02*
X161726857Y-89774628D01*
X161726857Y-89774628D02*
X161345905Y-89774628D01*
X162679238Y-89727009D02*
X162345905Y-89727009D01*
X162345905Y-90250819D02*
X162345905Y-89250819D01*
X162345905Y-89250819D02*
X162822095Y-89250819D01*
X163203048Y-89869866D02*
X163964953Y-89869866D01*
X164631619Y-89250819D02*
X164822095Y-89250819D01*
X164822095Y-89250819D02*
X164917333Y-89298438D01*
X164917333Y-89298438D02*
X165012571Y-89393676D01*
X165012571Y-89393676D02*
X165060190Y-89584152D01*
X165060190Y-89584152D02*
X165060190Y-89917485D01*
X165060190Y-89917485D02*
X165012571Y-90107961D01*
X165012571Y-90107961D02*
X164917333Y-90203200D01*
X164917333Y-90203200D02*
X164822095Y-90250819D01*
X164822095Y-90250819D02*
X164631619Y-90250819D01*
X164631619Y-90250819D02*
X164536381Y-90203200D01*
X164536381Y-90203200D02*
X164441143Y-90107961D01*
X164441143Y-90107961D02*
X164393524Y-89917485D01*
X164393524Y-89917485D02*
X164393524Y-89584152D01*
X164393524Y-89584152D02*
X164441143Y-89393676D01*
X164441143Y-89393676D02*
X164536381Y-89298438D01*
X164536381Y-89298438D02*
X164631619Y-89250819D01*
X165488762Y-89250819D02*
X165488762Y-90060342D01*
X165488762Y-90060342D02*
X165536381Y-90155580D01*
X165536381Y-90155580D02*
X165584000Y-90203200D01*
X165584000Y-90203200D02*
X165679238Y-90250819D01*
X165679238Y-90250819D02*
X165869714Y-90250819D01*
X165869714Y-90250819D02*
X165964952Y-90203200D01*
X165964952Y-90203200D02*
X166012571Y-90155580D01*
X166012571Y-90155580D02*
X166060190Y-90060342D01*
X166060190Y-90060342D02*
X166060190Y-89250819D01*
X166393524Y-89250819D02*
X166964952Y-89250819D01*
X166679238Y-90250819D02*
X166679238Y-89250819D01*
X144613333Y-88704819D02*
X144280000Y-88228628D01*
X144041905Y-88704819D02*
X144041905Y-87704819D01*
X144041905Y-87704819D02*
X144422857Y-87704819D01*
X144422857Y-87704819D02*
X144518095Y-87752438D01*
X144518095Y-87752438D02*
X144565714Y-87800057D01*
X144565714Y-87800057D02*
X144613333Y-87895295D01*
X144613333Y-87895295D02*
X144613333Y-88038152D01*
X144613333Y-88038152D02*
X144565714Y-88133390D01*
X144565714Y-88133390D02*
X144518095Y-88181009D01*
X144518095Y-88181009D02*
X144422857Y-88228628D01*
X144422857Y-88228628D02*
X144041905Y-88228628D01*
X144994286Y-87800057D02*
X145041905Y-87752438D01*
X145041905Y-87752438D02*
X145137143Y-87704819D01*
X145137143Y-87704819D02*
X145375238Y-87704819D01*
X145375238Y-87704819D02*
X145470476Y-87752438D01*
X145470476Y-87752438D02*
X145518095Y-87800057D01*
X145518095Y-87800057D02*
X145565714Y-87895295D01*
X145565714Y-87895295D02*
X145565714Y-87990533D01*
X145565714Y-87990533D02*
X145518095Y-88133390D01*
X145518095Y-88133390D02*
X144946667Y-88704819D01*
X144946667Y-88704819D02*
X145565714Y-88704819D01*
X151815580Y-96432666D02*
X151863200Y-96480285D01*
X151863200Y-96480285D02*
X151910819Y-96623142D01*
X151910819Y-96623142D02*
X151910819Y-96718380D01*
X151910819Y-96718380D02*
X151863200Y-96861237D01*
X151863200Y-96861237D02*
X151767961Y-96956475D01*
X151767961Y-96956475D02*
X151672723Y-97004094D01*
X151672723Y-97004094D02*
X151482247Y-97051713D01*
X151482247Y-97051713D02*
X151339390Y-97051713D01*
X151339390Y-97051713D02*
X151148914Y-97004094D01*
X151148914Y-97004094D02*
X151053676Y-96956475D01*
X151053676Y-96956475D02*
X150958438Y-96861237D01*
X150958438Y-96861237D02*
X150910819Y-96718380D01*
X150910819Y-96718380D02*
X150910819Y-96623142D01*
X150910819Y-96623142D02*
X150958438Y-96480285D01*
X150958438Y-96480285D02*
X151006057Y-96432666D01*
X151910819Y-95480285D02*
X151910819Y-96051713D01*
X151910819Y-95765999D02*
X150910819Y-95765999D01*
X150910819Y-95765999D02*
X151053676Y-95861237D01*
X151053676Y-95861237D02*
X151148914Y-95956475D01*
X151148914Y-95956475D02*
X151196533Y-96051713D01*
X143404833Y-93630819D02*
X143071500Y-93154628D01*
X142833405Y-93630819D02*
X142833405Y-92630819D01*
X142833405Y-92630819D02*
X143214357Y-92630819D01*
X143214357Y-92630819D02*
X143309595Y-92678438D01*
X143309595Y-92678438D02*
X143357214Y-92726057D01*
X143357214Y-92726057D02*
X143404833Y-92821295D01*
X143404833Y-92821295D02*
X143404833Y-92964152D01*
X143404833Y-92964152D02*
X143357214Y-93059390D01*
X143357214Y-93059390D02*
X143309595Y-93107009D01*
X143309595Y-93107009D02*
X143214357Y-93154628D01*
X143214357Y-93154628D02*
X142833405Y-93154628D01*
X144357214Y-93630819D02*
X143785786Y-93630819D01*
X144071500Y-93630819D02*
X144071500Y-92630819D01*
X144071500Y-92630819D02*
X143976262Y-92773676D01*
X143976262Y-92773676D02*
X143881024Y-92868914D01*
X143881024Y-92868914D02*
X143785786Y-92916533D01*
D12*
%TO.C,G\u002A\u002A\u002A*%
G36*
X157942487Y-103105075D02*
G01*
X157980509Y-103108254D01*
X158010224Y-103115170D01*
X158033987Y-103126779D01*
X158054152Y-103144035D01*
X158062607Y-103153806D01*
X158070225Y-103164792D01*
X158076293Y-103177594D01*
X158080976Y-103193522D01*
X158084437Y-103213889D01*
X158086844Y-103240007D01*
X158088359Y-103273186D01*
X158089150Y-103314740D01*
X158089379Y-103365979D01*
X158089379Y-103366631D01*
X158089379Y-103500868D01*
X158050811Y-103500868D01*
X158012243Y-103500868D01*
X158012243Y-103484339D01*
X158011661Y-103472268D01*
X158008567Y-103468907D01*
X158000935Y-103473898D01*
X157993107Y-103480964D01*
X157970520Y-103495076D01*
X157941112Y-103503342D01*
X157907576Y-103505483D01*
X157872601Y-103501217D01*
X157852460Y-103495610D01*
X157821920Y-103480143D01*
X157798284Y-103458237D01*
X157781853Y-103431711D01*
X157772928Y-103402383D01*
X157772105Y-103380053D01*
X157846950Y-103380053D01*
X157851129Y-103402045D01*
X157863851Y-103417221D01*
X157885388Y-103425883D01*
X157889343Y-103426630D01*
X157904064Y-103429172D01*
X157913881Y-103431003D01*
X157914918Y-103431227D01*
X157922500Y-103431313D01*
X157937490Y-103430433D01*
X157952814Y-103429128D01*
X157974084Y-103426033D01*
X157987655Y-103420959D01*
X157996419Y-103413208D01*
X158004070Y-103399907D01*
X158006794Y-103388685D01*
X158007734Y-103375292D01*
X158009951Y-103358211D01*
X158010270Y-103356237D01*
X158013685Y-103335575D01*
X157944835Y-103335575D01*
X157915472Y-103335758D01*
X157894908Y-103336508D01*
X157880927Y-103338130D01*
X157871312Y-103340926D01*
X157863846Y-103345201D01*
X157861467Y-103346995D01*
X157851012Y-103358447D01*
X157847160Y-103373422D01*
X157846950Y-103380053D01*
X157772105Y-103380053D01*
X157771811Y-103372073D01*
X157778804Y-103342600D01*
X157794208Y-103315784D01*
X157818325Y-103293442D01*
X157818884Y-103293063D01*
X157835536Y-103283414D01*
X157853648Y-103276685D01*
X157875577Y-103272423D01*
X157903681Y-103270176D01*
X157940316Y-103269490D01*
X157941668Y-103269489D01*
X157971630Y-103268967D01*
X157993748Y-103267506D01*
X158006802Y-103265212D01*
X158009746Y-103263531D01*
X158011146Y-103255088D01*
X158010826Y-103239733D01*
X158009656Y-103227573D01*
X158005690Y-103207510D01*
X157998486Y-103193663D01*
X157986266Y-103184954D01*
X157967253Y-103180303D01*
X157939669Y-103178630D01*
X157928927Y-103178547D01*
X157905051Y-103178854D01*
X157889305Y-103180182D01*
X157878808Y-103183144D01*
X157870679Y-103188352D01*
X157866869Y-103191739D01*
X157852812Y-103204931D01*
X157821318Y-103181153D01*
X157789824Y-103157374D01*
X157810781Y-103139258D01*
X157833819Y-103122825D01*
X157859520Y-103111993D01*
X157890219Y-103106155D01*
X157928250Y-103104705D01*
X157942487Y-103105075D01*
G37*
G36*
X158721747Y-102945511D02*
G01*
X158758816Y-102947137D01*
X158760244Y-103224002D01*
X158761672Y-103500868D01*
X158723053Y-103500868D01*
X158684434Y-103500868D01*
X158684434Y-103481584D01*
X158683648Y-103468831D01*
X158681718Y-103462464D01*
X158681311Y-103462300D01*
X158675391Y-103465347D01*
X158664270Y-103472991D01*
X158659521Y-103476539D01*
X158638790Y-103488787D01*
X158613416Y-103498841D01*
X158588417Y-103504957D01*
X158574740Y-103505994D01*
X158560750Y-103504128D01*
X158542340Y-103499881D01*
X158534951Y-103497755D01*
X158506741Y-103483758D01*
X158481907Y-103461433D01*
X158462974Y-103433441D01*
X158455074Y-103413622D01*
X158451743Y-103399514D01*
X158449493Y-103382549D01*
X158448222Y-103360788D01*
X158447827Y-103332292D01*
X158448102Y-103305271D01*
X158524712Y-103305271D01*
X158525795Y-103341361D01*
X158529345Y-103368490D01*
X158535809Y-103388533D01*
X158545639Y-103403363D01*
X158549076Y-103406856D01*
X158570104Y-103419725D01*
X158596056Y-103425692D01*
X158623041Y-103424469D01*
X158647168Y-103415767D01*
X158649531Y-103414308D01*
X158662901Y-103400445D01*
X158672297Y-103378424D01*
X158677924Y-103347490D01*
X158679987Y-103306885D01*
X158680005Y-103302281D01*
X158678906Y-103265543D01*
X158675195Y-103237830D01*
X158668295Y-103217338D01*
X158657631Y-103202264D01*
X158644820Y-103192138D01*
X158623834Y-103183853D01*
X158599534Y-103181484D01*
X158575680Y-103184739D01*
X158556033Y-103193323D01*
X158548870Y-103199629D01*
X158537713Y-103216535D01*
X158530279Y-103237980D01*
X158526102Y-103266002D01*
X158524717Y-103302636D01*
X158524712Y-103305271D01*
X158448102Y-103305271D01*
X158448205Y-103295122D01*
X158448365Y-103286485D01*
X158449105Y-103251371D01*
X158449932Y-103225403D01*
X158451106Y-103206708D01*
X158452890Y-103193415D01*
X158455545Y-103183650D01*
X158459335Y-103175542D01*
X158464521Y-103167217D01*
X158465204Y-103166183D01*
X158490692Y-103136414D01*
X158521255Y-103116425D01*
X158556876Y-103106225D01*
X158591306Y-103105271D01*
X158613564Y-103108306D01*
X158632006Y-103115036D01*
X158652330Y-103127553D01*
X158652707Y-103127816D01*
X158681679Y-103148015D01*
X158683179Y-103045949D01*
X158684679Y-102943884D01*
X158721747Y-102945511D01*
G37*
G36*
X159546196Y-103104821D02*
G01*
X159574933Y-103107021D01*
X159597836Y-103111014D01*
X159600534Y-103111770D01*
X159632552Y-103125298D01*
X159656311Y-103144766D01*
X159673644Y-103171687D01*
X159674020Y-103172489D01*
X159677908Y-103181189D01*
X159680939Y-103189561D01*
X159683220Y-103199062D01*
X159684858Y-103211148D01*
X159685960Y-103227275D01*
X159686634Y-103248900D01*
X159686987Y-103277477D01*
X159687127Y-103314463D01*
X159687156Y-103350727D01*
X159687210Y-103500868D01*
X159648642Y-103500868D01*
X159610074Y-103500868D01*
X159610074Y-103483378D01*
X159610074Y-103465889D01*
X159596959Y-103478209D01*
X159574201Y-103492818D01*
X159544433Y-103501926D01*
X159510421Y-103505117D01*
X159474930Y-103501978D01*
X159460321Y-103498692D01*
X159426651Y-103484555D01*
X159400654Y-103462768D01*
X159382931Y-103434131D01*
X159374082Y-103399444D01*
X159373757Y-103393529D01*
X159446022Y-103393529D01*
X159450827Y-103404677D01*
X159457413Y-103411701D01*
X159474161Y-103421507D01*
X159497541Y-103427802D01*
X159524281Y-103430519D01*
X159551111Y-103429588D01*
X159574761Y-103424941D01*
X159591961Y-103416510D01*
X159594151Y-103414554D01*
X159602144Y-103401817D01*
X159607101Y-103381588D01*
X159608578Y-103368952D01*
X159611686Y-103334667D01*
X159539434Y-103336499D01*
X159506395Y-103337651D01*
X159482690Y-103339665D01*
X159466635Y-103343283D01*
X159456546Y-103349252D01*
X159450737Y-103358315D01*
X159447525Y-103371216D01*
X159446604Y-103377518D01*
X159446022Y-103393529D01*
X159373757Y-103393529D01*
X159373154Y-103382530D01*
X159377888Y-103347705D01*
X159392105Y-103318493D01*
X159415824Y-103294855D01*
X159427021Y-103287511D01*
X159437971Y-103281432D01*
X159448188Y-103277149D01*
X159459973Y-103274284D01*
X159475628Y-103272458D01*
X159497454Y-103271294D01*
X159527753Y-103270411D01*
X159531560Y-103270319D01*
X159610074Y-103268425D01*
X159610074Y-103238387D01*
X159609013Y-103218632D01*
X159604975Y-103205558D01*
X159596915Y-103195191D01*
X159579159Y-103184134D01*
X159554749Y-103177592D01*
X159527124Y-103175659D01*
X159499726Y-103178433D01*
X159475995Y-103186009D01*
X159466688Y-103191547D01*
X159450369Y-103203613D01*
X159422781Y-103183017D01*
X159408310Y-103171135D01*
X159398321Y-103160870D01*
X159395193Y-103155210D01*
X159399775Y-103148021D01*
X159411660Y-103138193D01*
X159428058Y-103127504D01*
X159446178Y-103117737D01*
X159463230Y-103110671D01*
X159466630Y-103109637D01*
X159487879Y-103106062D01*
X159515790Y-103104479D01*
X159546196Y-103104821D01*
G37*
G36*
X160250344Y-103109182D02*
G01*
X160287518Y-103123696D01*
X160318903Y-103147490D01*
X160343995Y-103180242D01*
X160352946Y-103197481D01*
X160360381Y-103216588D01*
X160365214Y-103237168D01*
X160368166Y-103262917D01*
X160369292Y-103281538D01*
X160371894Y-103335575D01*
X160246575Y-103335575D01*
X160121255Y-103335575D01*
X160125129Y-103356237D01*
X160130168Y-103374460D01*
X160137145Y-103390666D01*
X160137643Y-103391531D01*
X160154679Y-103410234D01*
X160178420Y-103422704D01*
X160206360Y-103428753D01*
X160235994Y-103428198D01*
X160264816Y-103420852D01*
X160290318Y-103406530D01*
X160294431Y-103403137D01*
X160300981Y-103398909D01*
X160307971Y-103399788D01*
X160318597Y-103406677D01*
X160325265Y-103411858D01*
X160342831Y-103426228D01*
X160352413Y-103436150D01*
X160354875Y-103443745D01*
X160351080Y-103451136D01*
X160344149Y-103458299D01*
X160317522Y-103477342D01*
X160283829Y-103491891D01*
X160246369Y-103501187D01*
X160208443Y-103504469D01*
X160173353Y-103500980D01*
X160166287Y-103499212D01*
X160127816Y-103483334D01*
X160096728Y-103459428D01*
X160072689Y-103427169D01*
X160058052Y-103394407D01*
X160053133Y-103376558D01*
X160050040Y-103355195D01*
X160048494Y-103327646D01*
X160048184Y-103299762D01*
X160048428Y-103270746D01*
X160048487Y-103269458D01*
X160121606Y-103269458D01*
X160204365Y-103269458D01*
X160233433Y-103269164D01*
X160258426Y-103268355D01*
X160277353Y-103267137D01*
X160288222Y-103265621D01*
X160289997Y-103264809D01*
X160290801Y-103255245D01*
X160287339Y-103240089D01*
X160280938Y-103223245D01*
X160272924Y-103208615D01*
X160269339Y-103204008D01*
X160247741Y-103187036D01*
X160222681Y-103178058D01*
X160196634Y-103176889D01*
X160172070Y-103183344D01*
X160151463Y-103197238D01*
X160139408Y-103213741D01*
X160131603Y-103231865D01*
X160125882Y-103249768D01*
X160125471Y-103251551D01*
X160121606Y-103269458D01*
X160048487Y-103269458D01*
X160049379Y-103249817D01*
X160051494Y-103234046D01*
X160055227Y-103220502D01*
X160061037Y-103206255D01*
X160063634Y-103200586D01*
X160086077Y-103162402D01*
X160113514Y-103133983D01*
X160146261Y-103115120D01*
X160184634Y-103105602D01*
X160207883Y-103104273D01*
X160250344Y-103109182D01*
G37*
G36*
X157619132Y-102483702D02*
G01*
X157644615Y-102494325D01*
X157665655Y-102508288D01*
X157681954Y-102523560D01*
X157694071Y-102541705D01*
X157702563Y-102564284D01*
X157707989Y-102592862D01*
X157710906Y-102629001D01*
X157711874Y-102674263D01*
X157711884Y-102682668D01*
X157711569Y-102722784D01*
X157710422Y-102753747D01*
X157708030Y-102777417D01*
X157703983Y-102795653D01*
X157697868Y-102810314D01*
X157689272Y-102823258D01*
X157677828Y-102836300D01*
X157648577Y-102859778D01*
X157615418Y-102873962D01*
X157580301Y-102878776D01*
X157545176Y-102874143D01*
X157511993Y-102859987D01*
X157490193Y-102843666D01*
X157477796Y-102832266D01*
X157477796Y-102990514D01*
X157477796Y-103148763D01*
X157498795Y-103131887D01*
X157529823Y-103113581D01*
X157564020Y-103104691D01*
X157599160Y-103105073D01*
X157633016Y-103114580D01*
X157663360Y-103133065D01*
X157674491Y-103143438D01*
X157684938Y-103154927D01*
X157693240Y-103165872D01*
X157699663Y-103177695D01*
X157704472Y-103191820D01*
X157707932Y-103209669D01*
X157710309Y-103232666D01*
X157711869Y-103262233D01*
X157712877Y-103299793D01*
X157713598Y-103346769D01*
X157713682Y-103353482D01*
X157715515Y-103500868D01*
X157676984Y-103500868D01*
X157638453Y-103500868D01*
X157636639Y-103370011D01*
X157635892Y-103324961D01*
X157634869Y-103289518D01*
X157633300Y-103262268D01*
X157630917Y-103241798D01*
X157627451Y-103226695D01*
X157622631Y-103215546D01*
X157616191Y-103206938D01*
X157607860Y-103199458D01*
X157603553Y-103196180D01*
X157589006Y-103189019D01*
X157569682Y-103183794D01*
X157561765Y-103182674D01*
X157532613Y-103183811D01*
X157509944Y-103193703D01*
X157493149Y-103212677D01*
X157488504Y-103221613D01*
X157485108Y-103230116D01*
X157482525Y-103239765D01*
X157480644Y-103252135D01*
X157479354Y-103268799D01*
X157478546Y-103291329D01*
X157478110Y-103321300D01*
X157477934Y-103360285D01*
X157477917Y-103372766D01*
X157477796Y-103500868D01*
X157439228Y-103500868D01*
X157400659Y-103500868D01*
X157400659Y-102991215D01*
X157400659Y-102691761D01*
X157479784Y-102691761D01*
X157481279Y-102721074D01*
X157484416Y-102746237D01*
X157489190Y-102764241D01*
X157490550Y-102767108D01*
X157505887Y-102784595D01*
X157527684Y-102796210D01*
X157552739Y-102801386D01*
X157577854Y-102799556D01*
X157599828Y-102790152D01*
X157603730Y-102787174D01*
X157616491Y-102773458D01*
X157625368Y-102756062D01*
X157630876Y-102733068D01*
X157633529Y-102702553D01*
X157633958Y-102674404D01*
X157632137Y-102634341D01*
X157626583Y-102603856D01*
X157616604Y-102581936D01*
X157601506Y-102567567D01*
X157580598Y-102559736D01*
X157553980Y-102557427D01*
X157526468Y-102561180D01*
X157505651Y-102573056D01*
X157490308Y-102593187D01*
X157485193Y-102609012D01*
X157481737Y-102632722D01*
X157479936Y-102661308D01*
X157479784Y-102691761D01*
X157400659Y-102691761D01*
X157400659Y-102481562D01*
X157439228Y-102481562D01*
X157477796Y-102481562D01*
X157477796Y-102501700D01*
X157478252Y-102514482D01*
X157480621Y-102518066D01*
X157486401Y-102514266D01*
X157487438Y-102513362D01*
X157516578Y-102494199D01*
X157550128Y-102482640D01*
X157585256Y-102479027D01*
X157619132Y-102483702D01*
G37*
G36*
X158254672Y-103127165D02*
G01*
X158254672Y-103150164D01*
X158267069Y-103138526D01*
X158292936Y-103120786D01*
X158324291Y-103109249D01*
X158357810Y-103104444D01*
X158390168Y-103106901D01*
X158414301Y-103115106D01*
X158428042Y-103122743D01*
X158437027Y-103128901D01*
X158438412Y-103130360D01*
X158436279Y-103136209D01*
X158428226Y-103147837D01*
X158415866Y-103162975D01*
X158412615Y-103166680D01*
X158384152Y-103198687D01*
X158367622Y-103190028D01*
X158341167Y-103181528D01*
X158314849Y-103182466D01*
X158291094Y-103192095D01*
X158272327Y-103209666D01*
X158265380Y-103221613D01*
X158261985Y-103230116D01*
X158259401Y-103239765D01*
X158257520Y-103252135D01*
X158256231Y-103268799D01*
X158255423Y-103291329D01*
X158254986Y-103321300D01*
X158254810Y-103360285D01*
X158254793Y-103372766D01*
X158254672Y-103500868D01*
X158216104Y-103500868D01*
X158177536Y-103500868D01*
X158177536Y-103302517D01*
X158177536Y-103104165D01*
X158216104Y-103104165D01*
X158254672Y-103104165D01*
X158254672Y-103127165D01*
G37*
G36*
X158920900Y-103231846D02*
G01*
X158930810Y-103268244D01*
X158939986Y-103301569D01*
X158947968Y-103330187D01*
X158954300Y-103352465D01*
X158958523Y-103366769D01*
X158959901Y-103370967D01*
X158961337Y-103375028D01*
X158962570Y-103377849D01*
X158964014Y-103378380D01*
X158966082Y-103375570D01*
X158969190Y-103368369D01*
X158973750Y-103355725D01*
X158980176Y-103336587D01*
X158988883Y-103309906D01*
X159000284Y-103274629D01*
X159011393Y-103240224D01*
X159023006Y-103204757D01*
X159033789Y-103172703D01*
X159043208Y-103145585D01*
X159050726Y-103124928D01*
X159055806Y-103112256D01*
X159057554Y-103109014D01*
X159066104Y-103105964D01*
X159080939Y-103104933D01*
X159087180Y-103105189D01*
X159111249Y-103106920D01*
X159155423Y-103243281D01*
X159167382Y-103279877D01*
X159178329Y-103312762D01*
X159187787Y-103340557D01*
X159195282Y-103361883D01*
X159200339Y-103375363D01*
X159202431Y-103379648D01*
X159204622Y-103374575D01*
X159209201Y-103360356D01*
X159215727Y-103338492D01*
X159223756Y-103310487D01*
X159232844Y-103277842D01*
X159237765Y-103259816D01*
X159247463Y-103224059D01*
X159256453Y-103190917D01*
X159264243Y-103162202D01*
X159270341Y-103139728D01*
X159274256Y-103125308D01*
X159275135Y-103122072D01*
X159280006Y-103104165D01*
X159321474Y-103104165D01*
X159343136Y-103104577D01*
X159355648Y-103106057D01*
X159360859Y-103108969D01*
X159361161Y-103112012D01*
X159359131Y-103118914D01*
X159354141Y-103135084D01*
X159346579Y-103159291D01*
X159336832Y-103190304D01*
X159325286Y-103226893D01*
X159312328Y-103267826D01*
X159298772Y-103310530D01*
X159238165Y-103501202D01*
X159202637Y-103499657D01*
X159167109Y-103498113D01*
X159127168Y-103363873D01*
X159116202Y-103327268D01*
X159106167Y-103294245D01*
X159097514Y-103266247D01*
X159090692Y-103244719D01*
X159086152Y-103231104D01*
X159084430Y-103226836D01*
X159081557Y-103229875D01*
X159077463Y-103240767D01*
X159075376Y-103248126D01*
X159071906Y-103260638D01*
X159065819Y-103281704D01*
X159057701Y-103309334D01*
X159048137Y-103341539D01*
X159037713Y-103376329D01*
X159035052Y-103385163D01*
X159000984Y-103498113D01*
X158967158Y-103499741D01*
X158948989Y-103499938D01*
X158935715Y-103498815D01*
X158930718Y-103496986D01*
X158928661Y-103491198D01*
X158923726Y-103476345D01*
X158916375Y-103453864D01*
X158907067Y-103425193D01*
X158896265Y-103391767D01*
X158884429Y-103355025D01*
X158872022Y-103316401D01*
X158859503Y-103277335D01*
X158847334Y-103239261D01*
X158835976Y-103203617D01*
X158825890Y-103171840D01*
X158817539Y-103145367D01*
X158811382Y-103125634D01*
X158808613Y-103116562D01*
X158807258Y-103110225D01*
X158809325Y-103106526D01*
X158816931Y-103104756D01*
X158832192Y-103104205D01*
X158845616Y-103104165D01*
X158886326Y-103104165D01*
X158920900Y-103231846D01*
G37*
G36*
X159852503Y-103126204D02*
G01*
X159853748Y-103141997D01*
X159858015Y-103147411D01*
X159866106Y-103142860D01*
X159872311Y-103136446D01*
X159894300Y-103119438D01*
X159922645Y-103108718D01*
X159954516Y-103104478D01*
X159987089Y-103106911D01*
X160017536Y-103116209D01*
X160033961Y-103125407D01*
X160037182Y-103129941D01*
X160035005Y-103137200D01*
X160026515Y-103149296D01*
X160020186Y-103157127D01*
X160007642Y-103172439D01*
X159997374Y-103185168D01*
X159992603Y-103191259D01*
X159987220Y-103195760D01*
X159979357Y-103194774D01*
X159968274Y-103189600D01*
X159947807Y-103183376D01*
X159924177Y-103182502D01*
X159901793Y-103186659D01*
X159885064Y-103195527D01*
X159884942Y-103195637D01*
X159876076Y-103204225D01*
X159869157Y-103212997D01*
X159863922Y-103223420D01*
X159860104Y-103236961D01*
X159857440Y-103255089D01*
X159855662Y-103279269D01*
X159854508Y-103310970D01*
X159853711Y-103351659D01*
X159853444Y-103370011D01*
X159851629Y-103500868D01*
X159813498Y-103500868D01*
X159775366Y-103500868D01*
X159775366Y-103302517D01*
X159775366Y-103104165D01*
X159813935Y-103104165D01*
X159852503Y-103104165D01*
X159852503Y-103126204D01*
G37*
G36*
X157194128Y-102478950D02*
G01*
X157231265Y-102490160D01*
X157264816Y-102510191D01*
X157292930Y-102537947D01*
X157313288Y-102571295D01*
X157318389Y-102583509D01*
X157321956Y-102595341D01*
X157324259Y-102609099D01*
X157325568Y-102627091D01*
X157326151Y-102651627D01*
X157326278Y-102682668D01*
X157326160Y-102715049D01*
X157325619Y-102738652D01*
X157324374Y-102755718D01*
X157322145Y-102768488D01*
X157318651Y-102779203D01*
X157313610Y-102790104D01*
X157312555Y-102792185D01*
X157293050Y-102820981D01*
X157267031Y-102846134D01*
X157237874Y-102864632D01*
X157225815Y-102869587D01*
X157191472Y-102877131D01*
X157154573Y-102878289D01*
X157119261Y-102873237D01*
X157093135Y-102863968D01*
X157062610Y-102843173D01*
X157036693Y-102814688D01*
X157018224Y-102781697D01*
X157017022Y-102778610D01*
X157012548Y-102760031D01*
X157009354Y-102733491D01*
X157007480Y-102701979D01*
X157007227Y-102685423D01*
X157083938Y-102685423D01*
X157084288Y-102713381D01*
X157085627Y-102733030D01*
X157088341Y-102747066D01*
X157092815Y-102758184D01*
X157094899Y-102761937D01*
X157112590Y-102781864D01*
X157136546Y-102795142D01*
X157163735Y-102801031D01*
X157191122Y-102798795D01*
X157211683Y-102790332D01*
X157228883Y-102775684D01*
X157240674Y-102755160D01*
X157247856Y-102726993D01*
X157250349Y-102704865D01*
X157251669Y-102660874D01*
X157248146Y-102626003D01*
X157239633Y-102599403D01*
X157229427Y-102583845D01*
X157208403Y-102567355D01*
X157182740Y-102558298D01*
X157155518Y-102556889D01*
X157129815Y-102563343D01*
X157111024Y-102575578D01*
X157099320Y-102590030D01*
X157091245Y-102608932D01*
X157086343Y-102634136D01*
X157084157Y-102667492D01*
X157083938Y-102685423D01*
X157007227Y-102685423D01*
X157006969Y-102668482D01*
X157007859Y-102635991D01*
X157010191Y-102607493D01*
X157014006Y-102585977D01*
X157014396Y-102584579D01*
X157029202Y-102552483D01*
X157052871Y-102524293D01*
X157083531Y-102501431D01*
X157119310Y-102485316D01*
X157155260Y-102477661D01*
X157194128Y-102478950D01*
G37*
G36*
X157957351Y-102479590D02*
G01*
X157997809Y-102491737D01*
X157998748Y-102492149D01*
X158033161Y-102513042D01*
X158060053Y-102541920D01*
X158079353Y-102578645D01*
X158090989Y-102623082D01*
X158094889Y-102675093D01*
X158094889Y-102675156D01*
X158094889Y-102707462D01*
X157970920Y-102707462D01*
X157929793Y-102707427D01*
X157898478Y-102707586D01*
X157875769Y-102708333D01*
X157860461Y-102710066D01*
X157851348Y-102713179D01*
X157847225Y-102718069D01*
X157846885Y-102725131D01*
X157849124Y-102734760D01*
X157852456Y-102746344D01*
X157864530Y-102770253D01*
X157884998Y-102789102D01*
X157911909Y-102801637D01*
X157943316Y-102806605D01*
X157946174Y-102806638D01*
X157964127Y-102803655D01*
X157986836Y-102795606D01*
X158000253Y-102789290D01*
X158033890Y-102771943D01*
X158057502Y-102793275D01*
X158070265Y-102805410D01*
X158078839Y-102814721D01*
X158081115Y-102818395D01*
X158076588Y-102825376D01*
X158064752Y-102835382D01*
X158048223Y-102846655D01*
X158029618Y-102857433D01*
X158011555Y-102865959D01*
X158008791Y-102867033D01*
X157974018Y-102875913D01*
X157936270Y-102878676D01*
X157899543Y-102875371D01*
X157867827Y-102866049D01*
X157866024Y-102865231D01*
X157837272Y-102846760D01*
X157811159Y-102820676D01*
X157790722Y-102790379D01*
X157782508Y-102771764D01*
X157777762Y-102754708D01*
X157774697Y-102734350D01*
X157773053Y-102708122D01*
X157772568Y-102673840D01*
X157772674Y-102644872D01*
X157773272Y-102625847D01*
X157847033Y-102625847D01*
X157847938Y-102633287D01*
X157854554Y-102637860D01*
X157868121Y-102640265D01*
X157889877Y-102641195D01*
X157921063Y-102641347D01*
X157931766Y-102641345D01*
X158016581Y-102641345D01*
X158011469Y-102618591D01*
X158000868Y-102589350D01*
X157983907Y-102568993D01*
X157960048Y-102557094D01*
X157928962Y-102553225D01*
X157901001Y-102556530D01*
X157879953Y-102567411D01*
X157863752Y-102587208D01*
X157857398Y-102599589D01*
X157850599Y-102614847D01*
X157847033Y-102625847D01*
X157773272Y-102625847D01*
X157773326Y-102624126D01*
X157775028Y-102608804D01*
X157778282Y-102596108D01*
X157783594Y-102583240D01*
X157791465Y-102567402D01*
X157791852Y-102566644D01*
X157815557Y-102531144D01*
X157845306Y-102504204D01*
X157879753Y-102486308D01*
X157917550Y-102477941D01*
X157957351Y-102479590D01*
G37*
G36*
X158397600Y-102487056D02*
G01*
X158403430Y-102489824D01*
X158426122Y-102505876D01*
X158447450Y-102528382D01*
X158463458Y-102553088D01*
X158464754Y-102555822D01*
X158467791Y-102563511D01*
X158470159Y-102572545D01*
X158471940Y-102584327D01*
X158473218Y-102600259D01*
X158474074Y-102621743D01*
X158474592Y-102650180D01*
X158474855Y-102686972D01*
X158474942Y-102728376D01*
X158475063Y-102878768D01*
X158437872Y-102877139D01*
X158400681Y-102875510D01*
X158397926Y-102739532D01*
X158397013Y-102697065D01*
X158396118Y-102664182D01*
X158395106Y-102639451D01*
X158393841Y-102621438D01*
X158392190Y-102608708D01*
X158390016Y-102599829D01*
X158387186Y-102593367D01*
X158383656Y-102588013D01*
X158363588Y-102569144D01*
X158339310Y-102558732D01*
X158313331Y-102556737D01*
X158288164Y-102563113D01*
X158266318Y-102577819D01*
X158256127Y-102590195D01*
X158253014Y-102596155D01*
X158250552Y-102604373D01*
X158248622Y-102616249D01*
X158247108Y-102633186D01*
X158245894Y-102656585D01*
X158244863Y-102687846D01*
X158243900Y-102728370D01*
X158243653Y-102740260D01*
X158240898Y-102875510D01*
X158204851Y-102877113D01*
X158185810Y-102877380D01*
X158171357Y-102876507D01*
X158164905Y-102874817D01*
X158164001Y-102868587D01*
X158163170Y-102852611D01*
X158162439Y-102828164D01*
X158161832Y-102796521D01*
X158161375Y-102758955D01*
X158161091Y-102716741D01*
X158161006Y-102676240D01*
X158161006Y-102481562D01*
X158202330Y-102481562D01*
X158243653Y-102481562D01*
X158243653Y-102500881D01*
X158243653Y-102520200D01*
X158265794Y-102504161D01*
X158296811Y-102487520D01*
X158331116Y-102478914D01*
X158365712Y-102478656D01*
X158397600Y-102487056D01*
G37*
G36*
X158929885Y-102484338D02*
G01*
X158967834Y-102496789D01*
X159002516Y-102515816D01*
X159011692Y-102522571D01*
X159017141Y-102527703D01*
X159017765Y-102532978D01*
X159012687Y-102541072D01*
X159001274Y-102554385D01*
X158989209Y-102568032D01*
X158980024Y-102578422D01*
X158976631Y-102582262D01*
X158970177Y-102582149D01*
X158957483Y-102577375D01*
X158946083Y-102571578D01*
X158928510Y-102563145D01*
X158910219Y-102557979D01*
X158887013Y-102555071D01*
X158873919Y-102554234D01*
X158851260Y-102553279D01*
X158836626Y-102553709D01*
X158827051Y-102556112D01*
X158819568Y-102561075D01*
X158814332Y-102566044D01*
X158803480Y-102582640D01*
X158800267Y-102600883D01*
X158805074Y-102617085D01*
X158808580Y-102621451D01*
X158814551Y-102626084D01*
X158823227Y-102629792D01*
X158836420Y-102632950D01*
X158855943Y-102635934D01*
X158883607Y-102639117D01*
X158903839Y-102641177D01*
X158946239Y-102648366D01*
X158979269Y-102660891D01*
X159003456Y-102679246D01*
X159019325Y-102703923D01*
X159027404Y-102735415D01*
X159028732Y-102757953D01*
X159028075Y-102779584D01*
X159025165Y-102794864D01*
X159018728Y-102808418D01*
X159012051Y-102818491D01*
X158988090Y-102843142D01*
X158963069Y-102858801D01*
X158946677Y-102866598D01*
X158932071Y-102871589D01*
X158915768Y-102874477D01*
X158894280Y-102875965D01*
X158875126Y-102876530D01*
X158841318Y-102876267D01*
X158814003Y-102873984D01*
X158797084Y-102870415D01*
X158757651Y-102853976D01*
X158723009Y-102832849D01*
X158713040Y-102824958D01*
X158694814Y-102809393D01*
X158721305Y-102783447D01*
X158747796Y-102757500D01*
X158775345Y-102775583D01*
X158806591Y-102792178D01*
X158838922Y-102802497D01*
X158870471Y-102806578D01*
X158899371Y-102804459D01*
X158923756Y-102796177D01*
X158941758Y-102781769D01*
X158947862Y-102772113D01*
X158953161Y-102754574D01*
X158950215Y-102740531D01*
X158938434Y-102729555D01*
X158917227Y-102721219D01*
X158886004Y-102715095D01*
X158865934Y-102712675D01*
X158824055Y-102706750D01*
X158791581Y-102698313D01*
X158767084Y-102686880D01*
X158750759Y-102673715D01*
X158733532Y-102648242D01*
X158723931Y-102617648D01*
X158722332Y-102585115D01*
X158729114Y-102553821D01*
X158735005Y-102540983D01*
X158754523Y-102516508D01*
X158781640Y-102497885D01*
X158814546Y-102485237D01*
X158851430Y-102478682D01*
X158890479Y-102478342D01*
X158929885Y-102484338D01*
G37*
G36*
X159262310Y-102479103D02*
G01*
X159297249Y-102487692D01*
X159329471Y-102503656D01*
X159357402Y-102526808D01*
X159379467Y-102556958D01*
X159392474Y-102588087D01*
X159397019Y-102611244D01*
X159399792Y-102641800D01*
X159400799Y-102676280D01*
X159400048Y-102711207D01*
X159397548Y-102743106D01*
X159393304Y-102768501D01*
X159392069Y-102773103D01*
X159378705Y-102802186D01*
X159357517Y-102830093D01*
X159331457Y-102853345D01*
X159315549Y-102863187D01*
X159296984Y-102869540D01*
X159271394Y-102874163D01*
X159242679Y-102876769D01*
X159214738Y-102877069D01*
X159191471Y-102874777D01*
X159183803Y-102872900D01*
X159155425Y-102858850D01*
X159128646Y-102836680D01*
X159106108Y-102809237D01*
X159090451Y-102779372D01*
X159086961Y-102768396D01*
X159080058Y-102730999D01*
X159077216Y-102690483D01*
X159077838Y-102665699D01*
X159158675Y-102665699D01*
X159159199Y-102690943D01*
X159160146Y-102719066D01*
X159161421Y-102738484D01*
X159163477Y-102751510D01*
X159166763Y-102760458D01*
X159171729Y-102767641D01*
X159174802Y-102771100D01*
X159198044Y-102789196D01*
X159225160Y-102799102D01*
X159253315Y-102800325D01*
X159279673Y-102792376D01*
X159283941Y-102789974D01*
X159300683Y-102775987D01*
X159312418Y-102756699D01*
X159319674Y-102730591D01*
X159322982Y-102696144D01*
X159323324Y-102677159D01*
X159321973Y-102639961D01*
X159317509Y-102611869D01*
X159309315Y-102591256D01*
X159296774Y-102576493D01*
X159281564Y-102567007D01*
X159251749Y-102557706D01*
X159223381Y-102557863D01*
X159198268Y-102566938D01*
X159178217Y-102584391D01*
X159168358Y-102600851D01*
X159163514Y-102613443D01*
X159160469Y-102626640D01*
X159158948Y-102643155D01*
X159158675Y-102665699D01*
X159077838Y-102665699D01*
X159078241Y-102649610D01*
X159082939Y-102611143D01*
X159091118Y-102577845D01*
X159102019Y-102553379D01*
X159126906Y-102522267D01*
X159156954Y-102499472D01*
X159190587Y-102484805D01*
X159226231Y-102478078D01*
X159262310Y-102479103D01*
G37*
G36*
X159549475Y-102609664D02*
G01*
X159549630Y-102655181D01*
X159550294Y-102691105D01*
X159551772Y-102718861D01*
X159554370Y-102739873D01*
X159558395Y-102755567D01*
X159564152Y-102767367D01*
X159571949Y-102776698D01*
X159582091Y-102784984D01*
X159588035Y-102789112D01*
X159602685Y-102797193D01*
X159617689Y-102800294D01*
X159636367Y-102799778D01*
X159664819Y-102792765D01*
X159686747Y-102777278D01*
X159701185Y-102754083D01*
X159703744Y-102746344D01*
X159705345Y-102735146D01*
X159706763Y-102714844D01*
X159707924Y-102687353D01*
X159708754Y-102654587D01*
X159709179Y-102618461D01*
X159709219Y-102604154D01*
X159709249Y-102481562D01*
X159747818Y-102481562D01*
X159786386Y-102481562D01*
X159786386Y-102679914D01*
X159786386Y-102878265D01*
X159747818Y-102878265D01*
X159709249Y-102878265D01*
X159709249Y-102855265D01*
X159709249Y-102832266D01*
X159696852Y-102843904D01*
X159670997Y-102861571D01*
X159638817Y-102873408D01*
X159604053Y-102878070D01*
X159601809Y-102878092D01*
X159578164Y-102876684D01*
X159558714Y-102871186D01*
X159540323Y-102861857D01*
X159522391Y-102849903D01*
X159506916Y-102836741D01*
X159500261Y-102829214D01*
X159492205Y-102817093D01*
X159485854Y-102804956D01*
X159481008Y-102791340D01*
X159477466Y-102774779D01*
X159475031Y-102753805D01*
X159473501Y-102726955D01*
X159472677Y-102692762D01*
X159472360Y-102649760D01*
X159472330Y-102624123D01*
X159472330Y-102481562D01*
X159510898Y-102481562D01*
X159549466Y-102481562D01*
X159549475Y-102609664D01*
G37*
G36*
X160078968Y-102478233D02*
G01*
X160096173Y-102483648D01*
X160113097Y-102491019D01*
X160126970Y-102499016D01*
X160135022Y-102506308D01*
X160135643Y-102510408D01*
X160130139Y-102517983D01*
X160119739Y-102531032D01*
X160107221Y-102546102D01*
X160094239Y-102561138D01*
X160085868Y-102569005D01*
X160079634Y-102570970D01*
X160073062Y-102568303D01*
X160068990Y-102565704D01*
X160050134Y-102558626D01*
X160026638Y-102556836D01*
X160003493Y-102560271D01*
X159988588Y-102566734D01*
X159978637Y-102573849D01*
X159970817Y-102581526D01*
X159964849Y-102591145D01*
X159960455Y-102604085D01*
X159957356Y-102621724D01*
X159955273Y-102645440D01*
X159953928Y-102676613D01*
X159953042Y-102716621D01*
X159952626Y-102744653D01*
X159950818Y-102878265D01*
X159912680Y-102878265D01*
X159874542Y-102878265D01*
X159874542Y-102679914D01*
X159874542Y-102481562D01*
X159913111Y-102481562D01*
X159951679Y-102481562D01*
X159951679Y-102500846D01*
X159952518Y-102513599D01*
X159954581Y-102519966D01*
X159955016Y-102520130D01*
X159960996Y-102516907D01*
X159971626Y-102508917D01*
X159974561Y-102506492D01*
X159993101Y-102495050D01*
X160017842Y-102485093D01*
X160043966Y-102478252D01*
X160064252Y-102476106D01*
X160078968Y-102478233D01*
G37*
G36*
X160348239Y-102481463D02*
G01*
X160378378Y-102489723D01*
X160406754Y-102505265D01*
X160430358Y-102523590D01*
X160453650Y-102543527D01*
X160424432Y-102569896D01*
X160395215Y-102596265D01*
X160380811Y-102582677D01*
X160358181Y-102567861D01*
X160329980Y-102558864D01*
X160300642Y-102556890D01*
X160290496Y-102558160D01*
X160262008Y-102567062D01*
X160240601Y-102582297D01*
X160225753Y-102604713D01*
X160216941Y-102635156D01*
X160213644Y-102674469D01*
X160213596Y-102682668D01*
X160214618Y-102712811D01*
X160217601Y-102734245D01*
X160222854Y-102749155D01*
X160223040Y-102749507D01*
X160241894Y-102773910D01*
X160266916Y-102790863D01*
X160295750Y-102799899D01*
X160326041Y-102800552D01*
X160355433Y-102792356D01*
X160375903Y-102779774D01*
X160396119Y-102763528D01*
X160421838Y-102785511D01*
X160435431Y-102798112D01*
X160444752Y-102808632D01*
X160447557Y-102813954D01*
X160442960Y-102822276D01*
X160430680Y-102833635D01*
X160412982Y-102846327D01*
X160392132Y-102858650D01*
X160380007Y-102864716D01*
X160360110Y-102872556D01*
X160340261Y-102876597D01*
X160315470Y-102877764D01*
X160309813Y-102877738D01*
X160287549Y-102876976D01*
X160267987Y-102875370D01*
X160255160Y-102873256D01*
X160254680Y-102873117D01*
X160219022Y-102856610D01*
X160187782Y-102830514D01*
X160161871Y-102795687D01*
X160151696Y-102776334D01*
X160145039Y-102761218D01*
X160140623Y-102747871D01*
X160137993Y-102733376D01*
X160136696Y-102714815D01*
X160136279Y-102689272D01*
X160136256Y-102677043D01*
X160136405Y-102648566D01*
X160137198Y-102628163D01*
X160139152Y-102612888D01*
X160142783Y-102599796D01*
X160148610Y-102585942D01*
X160154340Y-102574075D01*
X160177841Y-102537032D01*
X160207413Y-102509150D01*
X160243164Y-102490363D01*
X160285203Y-102480607D01*
X160312568Y-102479061D01*
X160348239Y-102481463D01*
G37*
G36*
X160682658Y-102484389D02*
G01*
X160718924Y-102500227D01*
X160750562Y-102524349D01*
X160765335Y-102541049D01*
X160777899Y-102559728D01*
X160786777Y-102579143D01*
X160792772Y-102602078D01*
X160796685Y-102631313D01*
X160798582Y-102656497D01*
X160801684Y-102707462D01*
X160676259Y-102707462D01*
X160550834Y-102707462D01*
X160554447Y-102730879D01*
X160562214Y-102757466D01*
X160577280Y-102777704D01*
X160601438Y-102793982D01*
X160601943Y-102794241D01*
X160630006Y-102804494D01*
X160657870Y-102805603D01*
X160687868Y-102797458D01*
X160705546Y-102789290D01*
X160739182Y-102771943D01*
X160762795Y-102793275D01*
X160775592Y-102805658D01*
X160784167Y-102815529D01*
X160786408Y-102819722D01*
X160781880Y-102826326D01*
X160770060Y-102836022D01*
X160753596Y-102847145D01*
X160735134Y-102858028D01*
X160717321Y-102867003D01*
X160702805Y-102872405D01*
X160702699Y-102872432D01*
X160682698Y-102875680D01*
X160657278Y-102877372D01*
X160630585Y-102877483D01*
X160606766Y-102875987D01*
X160590775Y-102873117D01*
X160554415Y-102856613D01*
X160524521Y-102831475D01*
X160501456Y-102798246D01*
X160485582Y-102757466D01*
X160477262Y-102709677D01*
X160476744Y-102702826D01*
X160476957Y-102648172D01*
X160478101Y-102641345D01*
X160551367Y-102641345D01*
X160637069Y-102641345D01*
X160722770Y-102641345D01*
X160719366Y-102623438D01*
X160709565Y-102593070D01*
X160693159Y-102571468D01*
X160669759Y-102558312D01*
X160638980Y-102553283D01*
X160634255Y-102553210D01*
X160605166Y-102557152D01*
X160582788Y-102569365D01*
X160566540Y-102590365D01*
X160555842Y-102620666D01*
X160555224Y-102623438D01*
X160551367Y-102641345D01*
X160478101Y-102641345D01*
X160484966Y-102600367D01*
X160500566Y-102559767D01*
X160523551Y-102526729D01*
X160553714Y-102501609D01*
X160590850Y-102484762D01*
X160605234Y-102480935D01*
X160644012Y-102477677D01*
X160682658Y-102484389D01*
G37*
G36*
X158956563Y-99517402D02*
G01*
X159000902Y-99517697D01*
X159035946Y-99518225D01*
X159062560Y-99519016D01*
X159081605Y-99520099D01*
X159093944Y-99521505D01*
X159100439Y-99523263D01*
X159101702Y-99524198D01*
X159103931Y-99531067D01*
X159107846Y-99547494D01*
X159113181Y-99572189D01*
X159119672Y-99603865D01*
X159127053Y-99641233D01*
X159135059Y-99683005D01*
X159142080Y-99720586D01*
X159152438Y-99775616D01*
X159161701Y-99822654D01*
X159169744Y-99861132D01*
X159176445Y-99890484D01*
X159181678Y-99910141D01*
X159185320Y-99919537D01*
X159185580Y-99919876D01*
X159192683Y-99924362D01*
X159208346Y-99932152D01*
X159230866Y-99942533D01*
X159258540Y-99954792D01*
X159289665Y-99968219D01*
X159322540Y-99982100D01*
X159355462Y-99995722D01*
X159386727Y-100008374D01*
X159414635Y-100019344D01*
X159437482Y-100027918D01*
X159453566Y-100033385D01*
X159460871Y-100035060D01*
X159467302Y-100031989D01*
X159481682Y-100023336D01*
X159502917Y-100009815D01*
X159529915Y-99992140D01*
X159561581Y-99971027D01*
X159596822Y-99947190D01*
X159629358Y-99924918D01*
X159666919Y-99899276D01*
X159701970Y-99875751D01*
X159733396Y-99855060D01*
X159760086Y-99837918D01*
X159780924Y-99825041D01*
X159794799Y-99817148D01*
X159800307Y-99814891D01*
X159807227Y-99818656D01*
X159820471Y-99829263D01*
X159838964Y-99845633D01*
X159861634Y-99866684D01*
X159887407Y-99891337D01*
X159915209Y-99918512D01*
X159943967Y-99947128D01*
X159972607Y-99976105D01*
X160000056Y-100004363D01*
X160025241Y-100030821D01*
X160047088Y-100054400D01*
X160064523Y-100074019D01*
X160076474Y-100088598D01*
X160081865Y-100097057D01*
X160082008Y-100098362D01*
X160078176Y-100104851D01*
X160068821Y-100119290D01*
X160054691Y-100140567D01*
X160036531Y-100167572D01*
X160015089Y-100199193D01*
X159991112Y-100234317D01*
X159971076Y-100263510D01*
X159945765Y-100300539D01*
X159922574Y-100334918D01*
X159902224Y-100365545D01*
X159885437Y-100391315D01*
X159872933Y-100411124D01*
X159865434Y-100423867D01*
X159863523Y-100428214D01*
X159865686Y-100436250D01*
X159871696Y-100452646D01*
X159880831Y-100475732D01*
X159892371Y-100503840D01*
X159905596Y-100535301D01*
X159919784Y-100568446D01*
X159934214Y-100601606D01*
X159948167Y-100633113D01*
X159960921Y-100661296D01*
X159971756Y-100684488D01*
X159979950Y-100701020D01*
X159984784Y-100709222D01*
X159984963Y-100709426D01*
X159990159Y-100712813D01*
X160000321Y-100716654D01*
X160016376Y-100721163D01*
X160039251Y-100726551D01*
X160069871Y-100733033D01*
X160109164Y-100740821D01*
X160158055Y-100750128D01*
X160178871Y-100754020D01*
X160222686Y-100762258D01*
X160263148Y-100770016D01*
X160298957Y-100777033D01*
X160328808Y-100783047D01*
X160351401Y-100787798D01*
X160365432Y-100791024D01*
X160369553Y-100792284D01*
X160371391Y-100796885D01*
X160372886Y-100808633D01*
X160374057Y-100828183D01*
X160374925Y-100856195D01*
X160375513Y-100893323D01*
X160375840Y-100940226D01*
X160375930Y-100990822D01*
X160375866Y-101043682D01*
X160375646Y-101086546D01*
X160375231Y-101120438D01*
X160374581Y-101146383D01*
X160373656Y-101165403D01*
X160372416Y-101178522D01*
X160370822Y-101186765D01*
X160368833Y-101191154D01*
X160368100Y-101191918D01*
X160360949Y-101194455D01*
X160344292Y-101198640D01*
X160319472Y-101204189D01*
X160287832Y-101210818D01*
X160250714Y-101218242D01*
X160209462Y-101226176D01*
X160182193Y-101231266D01*
X160128425Y-101241337D01*
X160084821Y-101249859D01*
X160050661Y-101256995D01*
X160025226Y-101262908D01*
X160007794Y-101267761D01*
X159997644Y-101271716D01*
X159994820Y-101273652D01*
X159990417Y-101281148D01*
X159982764Y-101297286D01*
X159972532Y-101320412D01*
X159960390Y-101348867D01*
X159947006Y-101380996D01*
X159933050Y-101415143D01*
X159919191Y-101449650D01*
X159906098Y-101482861D01*
X159894441Y-101513121D01*
X159884888Y-101538772D01*
X159878109Y-101558158D01*
X159874773Y-101569622D01*
X159874542Y-101571383D01*
X159877562Y-101578201D01*
X159886123Y-101592900D01*
X159899476Y-101614313D01*
X159916873Y-101641274D01*
X159937566Y-101672614D01*
X159960806Y-101707166D01*
X159974071Y-101726631D01*
X159998605Y-101762542D01*
X160021302Y-101795901D01*
X160041365Y-101825524D01*
X160057995Y-101850228D01*
X160070395Y-101868831D01*
X160077767Y-101880150D01*
X160079349Y-101882765D01*
X160080135Y-101886354D01*
X160078666Y-101891363D01*
X160074244Y-101898577D01*
X160066170Y-101908780D01*
X160053745Y-101922758D01*
X160036271Y-101941295D01*
X160013051Y-101965177D01*
X159983384Y-101995187D01*
X159946573Y-102032112D01*
X159945425Y-102033261D01*
X159913077Y-102065466D01*
X159883046Y-102095052D01*
X159856247Y-102121143D01*
X159833594Y-102142861D01*
X159816003Y-102159329D01*
X159804389Y-102169668D01*
X159799735Y-102173015D01*
X159793881Y-102170002D01*
X159780097Y-102161457D01*
X159759514Y-102148126D01*
X159733261Y-102130753D01*
X159702468Y-102110083D01*
X159668263Y-102086859D01*
X159648177Y-102073111D01*
X159612307Y-102048620D01*
X159578991Y-102026125D01*
X159549402Y-102006397D01*
X159524718Y-101990212D01*
X159506112Y-101978343D01*
X159494760Y-101971565D01*
X159492076Y-101970298D01*
X159482600Y-101971700D01*
X159464728Y-101978323D01*
X159439514Y-101989726D01*
X159408024Y-102005463D01*
X159377878Y-102020759D01*
X159356114Y-102030980D01*
X159341584Y-102036580D01*
X159333139Y-102038016D01*
X159329966Y-102036433D01*
X159325924Y-102028318D01*
X159318354Y-102011326D01*
X159307687Y-101986514D01*
X159294352Y-101954940D01*
X159278779Y-101917658D01*
X159261398Y-101875728D01*
X159242638Y-101830204D01*
X159222929Y-101782145D01*
X159202701Y-101732606D01*
X159182383Y-101682645D01*
X159162406Y-101633319D01*
X159143199Y-101585684D01*
X159125192Y-101540798D01*
X159108814Y-101499716D01*
X159094496Y-101463496D01*
X159082667Y-101433195D01*
X159073757Y-101409870D01*
X159068196Y-101394577D01*
X159066412Y-101388373D01*
X159066422Y-101388337D01*
X159072085Y-101382064D01*
X159084738Y-101371740D01*
X159102057Y-101359205D01*
X159109649Y-101354065D01*
X159145247Y-101327568D01*
X159180817Y-101295984D01*
X159213701Y-101261997D01*
X159241243Y-101228296D01*
X159256075Y-101206052D01*
X159281418Y-101156873D01*
X159298450Y-101107993D01*
X159308228Y-101055759D01*
X159311329Y-101015076D01*
X159311217Y-100962066D01*
X159305835Y-100915339D01*
X159294426Y-100871128D01*
X159276233Y-100825663D01*
X159271120Y-100814859D01*
X159236984Y-100756771D01*
X159194620Y-100705625D01*
X159144891Y-100662133D01*
X159088659Y-100627005D01*
X159026786Y-100600955D01*
X159003668Y-100594035D01*
X158973496Y-100588396D01*
X158936322Y-100585151D01*
X158895900Y-100584302D01*
X158855984Y-100585851D01*
X158820329Y-100589800D01*
X158800139Y-100593934D01*
X158737396Y-100616013D01*
X158679689Y-100647400D01*
X158627906Y-100687194D01*
X158582937Y-100734493D01*
X158545671Y-100788395D01*
X158516997Y-100848000D01*
X158501430Y-100896826D01*
X158496450Y-100918940D01*
X158493447Y-100939711D01*
X158492159Y-100962619D01*
X158492325Y-100991146D01*
X158492922Y-101009991D01*
X158497483Y-101065847D01*
X158507250Y-101114743D01*
X158523079Y-101159846D01*
X158545171Y-101203202D01*
X158564362Y-101231125D01*
X158590512Y-101262127D01*
X158621104Y-101293660D01*
X158653622Y-101323179D01*
X158685549Y-101348137D01*
X158694489Y-101354259D01*
X158713029Y-101367087D01*
X158727806Y-101378448D01*
X158736490Y-101386503D01*
X158737722Y-101388352D01*
X158736073Y-101394294D01*
X158730622Y-101409355D01*
X158721798Y-101432483D01*
X158710031Y-101462624D01*
X158695751Y-101498721D01*
X158679387Y-101539723D01*
X158661370Y-101584574D01*
X158642129Y-101632221D01*
X158622093Y-101681609D01*
X158601693Y-101731684D01*
X158581358Y-101781392D01*
X158561517Y-101829679D01*
X158542601Y-101875490D01*
X158525039Y-101917772D01*
X158509261Y-101955470D01*
X158495696Y-101987531D01*
X158484775Y-102012899D01*
X158476926Y-102030521D01*
X158472580Y-102039343D01*
X158472061Y-102040081D01*
X158466224Y-102038878D01*
X158452465Y-102033261D01*
X158432569Y-102024039D01*
X158408318Y-102012019D01*
X158395599Y-102005463D01*
X158364133Y-101989631D01*
X158339016Y-101978207D01*
X158321281Y-101971628D01*
X158312062Y-101970298D01*
X158305064Y-101974042D01*
X158290184Y-101983290D01*
X158268598Y-101997267D01*
X158241482Y-102015200D01*
X158210009Y-102036314D01*
X158175357Y-102059836D01*
X158155962Y-102073111D01*
X158120349Y-102097432D01*
X158087518Y-102119615D01*
X158058600Y-102138914D01*
X158034724Y-102154585D01*
X158017019Y-102165884D01*
X158006614Y-102172066D01*
X158004403Y-102173015D01*
X157999250Y-102169246D01*
X157987259Y-102158522D01*
X157969345Y-102141722D01*
X157946424Y-102119723D01*
X157919410Y-102093403D01*
X157889217Y-102063638D01*
X157858714Y-102033261D01*
X157821692Y-101996130D01*
X157791833Y-101965936D01*
X157768440Y-101941892D01*
X157750814Y-101923215D01*
X157738257Y-101909119D01*
X157730069Y-101898820D01*
X157725553Y-101891533D01*
X157724011Y-101886472D01*
X157724743Y-101882854D01*
X157724790Y-101882765D01*
X157729232Y-101875702D01*
X157739116Y-101860740D01*
X157753646Y-101839061D01*
X157772022Y-101811849D01*
X157793449Y-101780286D01*
X157817127Y-101745554D01*
X157830068Y-101726631D01*
X157854367Y-101690836D01*
X157876521Y-101657626D01*
X157895780Y-101628170D01*
X157911397Y-101603634D01*
X157922623Y-101585185D01*
X157928710Y-101573992D01*
X157929596Y-101571383D01*
X157927542Y-101562892D01*
X157921823Y-101545933D01*
X157913111Y-101522164D01*
X157902073Y-101493240D01*
X157889380Y-101460819D01*
X157875699Y-101426556D01*
X157861701Y-101392107D01*
X157848055Y-101359130D01*
X157835430Y-101329281D01*
X157824494Y-101304217D01*
X157815918Y-101285592D01*
X157810369Y-101275065D01*
X157809318Y-101273652D01*
X157803040Y-101270140D01*
X157789894Y-101265825D01*
X157769161Y-101260543D01*
X157740120Y-101254133D01*
X157702049Y-101246430D01*
X157654229Y-101237271D01*
X157621945Y-101231266D01*
X157578792Y-101223156D01*
X157538934Y-101215380D01*
X157503715Y-101208221D01*
X157474478Y-101201964D01*
X157452565Y-101196894D01*
X157439319Y-101193294D01*
X157436039Y-101191918D01*
X157433914Y-101188554D01*
X157432196Y-101181667D01*
X157430846Y-101170234D01*
X157429824Y-101153231D01*
X157429090Y-101129633D01*
X157428603Y-101098419D01*
X157428325Y-101058563D01*
X157428214Y-101009042D01*
X157428208Y-100990822D01*
X157428316Y-100935067D01*
X157428656Y-100889621D01*
X157429084Y-100863819D01*
X157505160Y-100863819D01*
X157506630Y-101001725D01*
X157508100Y-101139631D01*
X157659618Y-101167736D01*
X157708197Y-101176736D01*
X157747166Y-101184007D01*
X157777739Y-101189884D01*
X157801131Y-101194705D01*
X157818556Y-101198808D01*
X157831228Y-101202528D01*
X157840361Y-101206204D01*
X157847170Y-101210171D01*
X157852868Y-101214767D01*
X157858670Y-101220328D01*
X157862451Y-101224023D01*
X157869070Y-101231104D01*
X157875571Y-101239893D01*
X157882525Y-101251601D01*
X157890502Y-101267439D01*
X157900074Y-101288618D01*
X157911813Y-101316348D01*
X157926290Y-101351840D01*
X157944075Y-101396305D01*
X157945882Y-101400852D01*
X157965333Y-101449340D01*
X157981114Y-101489031D01*
X157993082Y-101521570D01*
X158001092Y-101548598D01*
X158004999Y-101571762D01*
X158004659Y-101592703D01*
X157999927Y-101613067D01*
X157990658Y-101634497D01*
X157976708Y-101658636D01*
X157957933Y-101687129D01*
X157934187Y-101721620D01*
X157915241Y-101749171D01*
X157892262Y-101782838D01*
X157871195Y-101813760D01*
X157852876Y-101840705D01*
X157838143Y-101862438D01*
X157827833Y-101877728D01*
X157822782Y-101885341D01*
X157822529Y-101885745D01*
X157823685Y-101891034D01*
X157830927Y-101901484D01*
X157844695Y-101917597D01*
X157865433Y-101939874D01*
X157893582Y-101968814D01*
X157913681Y-101989053D01*
X157940149Y-102015482D01*
X157963959Y-102039120D01*
X157984033Y-102058908D01*
X157999298Y-102073792D01*
X158008678Y-102082714D01*
X158011207Y-102084859D01*
X158016056Y-102081876D01*
X158028782Y-102073470D01*
X158048175Y-102060455D01*
X158073027Y-102043646D01*
X158102130Y-102023856D01*
X158132853Y-102002874D01*
X158165969Y-101980328D01*
X158197004Y-101959414D01*
X158224523Y-101941084D01*
X158247090Y-101926287D01*
X158263271Y-101915974D01*
X158271036Y-101911388D01*
X158296525Y-101902370D01*
X158323873Y-101901439D01*
X158354852Y-101908756D01*
X158386193Y-101921986D01*
X158406084Y-101931316D01*
X158421928Y-101938066D01*
X158431386Y-101941271D01*
X158432969Y-101941271D01*
X158435451Y-101935855D01*
X158441729Y-101921227D01*
X158451397Y-101898361D01*
X158464047Y-101868231D01*
X158479270Y-101831810D01*
X158496659Y-101790072D01*
X158515807Y-101743992D01*
X158536305Y-101694544D01*
X158541150Y-101682840D01*
X158647099Y-101426830D01*
X158632635Y-101415617D01*
X158586855Y-101378380D01*
X158549411Y-101343681D01*
X158518590Y-101309538D01*
X158492675Y-101273971D01*
X158469954Y-101234998D01*
X158461066Y-101217375D01*
X158433785Y-101148948D01*
X158417118Y-101078620D01*
X158411036Y-101007340D01*
X158415507Y-100936055D01*
X158430503Y-100865716D01*
X158455993Y-100797270D01*
X158475623Y-100758727D01*
X158495759Y-100728268D01*
X158522835Y-100694820D01*
X158554344Y-100660931D01*
X158587777Y-100629146D01*
X158620624Y-100602012D01*
X158648620Y-100583085D01*
X158710594Y-100551756D01*
X158772445Y-100530386D01*
X158836814Y-100518265D01*
X158903214Y-100514673D01*
X158977643Y-100519881D01*
X159047803Y-100535247D01*
X159113659Y-100560756D01*
X159175175Y-100596392D01*
X159232315Y-100642138D01*
X159264061Y-100673975D01*
X159309029Y-100730657D01*
X159344301Y-100792473D01*
X159369754Y-100859095D01*
X159385264Y-100930195D01*
X159390704Y-101005446D01*
X159390711Y-101007701D01*
X159385399Y-101079715D01*
X159369661Y-101149248D01*
X159343983Y-101215348D01*
X159308851Y-101277062D01*
X159264752Y-101333437D01*
X159212173Y-101383521D01*
X159189954Y-101400790D01*
X159174400Y-101412578D01*
X159163098Y-101421856D01*
X159158308Y-101426761D01*
X159158273Y-101426921D01*
X159160313Y-101432476D01*
X159166105Y-101447021D01*
X159175161Y-101469374D01*
X159186993Y-101498354D01*
X159201111Y-101532781D01*
X159217026Y-101571474D01*
X159234251Y-101613251D01*
X159252295Y-101656932D01*
X159270670Y-101701335D01*
X159288888Y-101745280D01*
X159306460Y-101787586D01*
X159322895Y-101827072D01*
X159337707Y-101862556D01*
X159350406Y-101892858D01*
X159360503Y-101916797D01*
X159367509Y-101933192D01*
X159370936Y-101940862D01*
X159371170Y-101941271D01*
X159376758Y-101940096D01*
X159389846Y-101934918D01*
X159408098Y-101926699D01*
X159417946Y-101921986D01*
X159453534Y-101907348D01*
X159483946Y-101901100D01*
X159510957Y-101903080D01*
X159533103Y-101911388D01*
X159542542Y-101917019D01*
X159559624Y-101927965D01*
X159582923Y-101943280D01*
X159611010Y-101962020D01*
X159642460Y-101983241D01*
X159672307Y-102003573D01*
X159793137Y-102086257D01*
X159888997Y-101990515D01*
X159915370Y-101963839D01*
X159938776Y-101939522D01*
X159958180Y-101918689D01*
X159972550Y-101902467D01*
X159980853Y-101891984D01*
X159982477Y-101888567D01*
X159978859Y-101882578D01*
X159969807Y-101868711D01*
X159956129Y-101848169D01*
X159938631Y-101822157D01*
X159918120Y-101791877D01*
X159895404Y-101758536D01*
X159890410Y-101751230D01*
X159862781Y-101711157D01*
X159840298Y-101678301D01*
X159822809Y-101651008D01*
X159810163Y-101627627D01*
X159802209Y-101606504D01*
X159798794Y-101585988D01*
X159799769Y-101564427D01*
X159804981Y-101540167D01*
X159814279Y-101511556D01*
X159827512Y-101476942D01*
X159844528Y-101434674D01*
X159858286Y-101400458D01*
X159876472Y-101355119D01*
X159891290Y-101318862D01*
X159903311Y-101290476D01*
X159913107Y-101268751D01*
X159921251Y-101252477D01*
X159928314Y-101240446D01*
X159934870Y-101231447D01*
X159941490Y-101224271D01*
X159941746Y-101224023D01*
X159948125Y-101217767D01*
X159953718Y-101212668D01*
X159959739Y-101208387D01*
X159967401Y-101204589D01*
X159977919Y-101200936D01*
X159992506Y-101197091D01*
X160012377Y-101192717D01*
X160038744Y-101187477D01*
X160072821Y-101181035D01*
X160115824Y-101173053D01*
X160144520Y-101167736D01*
X160296039Y-101139631D01*
X160297509Y-101001725D01*
X160298979Y-100863819D01*
X160140775Y-100834729D01*
X160099317Y-100826953D01*
X160060459Y-100819376D01*
X160025794Y-100812331D01*
X159996914Y-100806151D01*
X159975410Y-100801169D01*
X159962875Y-100797718D01*
X159961685Y-100797282D01*
X159943836Y-100787238D01*
X159927379Y-100773536D01*
X159925463Y-100771458D01*
X159919058Y-100761499D01*
X159909156Y-100742636D01*
X159896378Y-100716188D01*
X159881345Y-100683473D01*
X159864677Y-100645809D01*
X159848257Y-100607503D01*
X159828714Y-100560855D01*
X159813330Y-100523005D01*
X159801760Y-100492693D01*
X159793659Y-100468657D01*
X159788681Y-100449639D01*
X159786482Y-100434378D01*
X159786717Y-100421614D01*
X159789040Y-100410089D01*
X159791885Y-100401656D01*
X159796315Y-100393570D01*
X159806193Y-100377681D01*
X159820692Y-100355248D01*
X159838987Y-100327529D01*
X159860253Y-100295782D01*
X159883665Y-100261264D01*
X159891883Y-100249243D01*
X159986382Y-100111293D01*
X159889560Y-100014471D01*
X159792738Y-99917650D01*
X159713803Y-99971496D01*
X159663657Y-100005702D01*
X159621754Y-100034227D01*
X159587224Y-100057586D01*
X159559195Y-100076292D01*
X159536798Y-100090859D01*
X159519160Y-100101800D01*
X159505413Y-100109629D01*
X159494684Y-100114861D01*
X159486104Y-100118009D01*
X159478802Y-100119586D01*
X159471906Y-100120107D01*
X159464546Y-100120085D01*
X159462045Y-100120049D01*
X159451083Y-100119362D01*
X159438770Y-100117267D01*
X159423722Y-100113295D01*
X159404554Y-100106977D01*
X159379882Y-100097848D01*
X159348320Y-100085438D01*
X159308486Y-100069281D01*
X159293262Y-100063036D01*
X159255987Y-100047555D01*
X159221428Y-100032898D01*
X159191098Y-100019731D01*
X159166509Y-100008718D01*
X159149173Y-100000527D01*
X159140755Y-99995932D01*
X159131906Y-99989012D01*
X159124334Y-99981128D01*
X159117669Y-99971103D01*
X159111538Y-99957761D01*
X159105570Y-99939928D01*
X159099394Y-99916427D01*
X159092637Y-99886082D01*
X159084928Y-99847718D01*
X159075897Y-99800159D01*
X159071633Y-99777236D01*
X159039813Y-99605496D01*
X158902069Y-99605490D01*
X158764325Y-99605483D01*
X158732434Y-99777344D01*
X158722728Y-99829083D01*
X158714505Y-99871137D01*
X158707393Y-99904681D01*
X158701021Y-99930892D01*
X158695017Y-99950946D01*
X158689008Y-99966019D01*
X158682622Y-99977287D01*
X158675487Y-99985928D01*
X158667232Y-99993117D01*
X158663265Y-99996040D01*
X158654287Y-100000926D01*
X158636605Y-100009270D01*
X158611734Y-100020404D01*
X158581188Y-100033662D01*
X158546483Y-100048375D01*
X158510758Y-100063211D01*
X158467966Y-100080680D01*
X158433904Y-100094251D01*
X158407184Y-100104391D01*
X158386419Y-100111569D01*
X158370220Y-100116253D01*
X158357200Y-100118911D01*
X158345972Y-100120010D01*
X158342093Y-100120115D01*
X158334410Y-100120183D01*
X158327455Y-100119865D01*
X158320356Y-100118648D01*
X158312243Y-100116018D01*
X158302245Y-100111461D01*
X158289492Y-100104462D01*
X158273111Y-100094507D01*
X158252233Y-100081083D01*
X158225987Y-100063675D01*
X158193502Y-100041769D01*
X158153906Y-100014851D01*
X158106330Y-99982408D01*
X158090336Y-99971496D01*
X158011400Y-99917650D01*
X157914578Y-100014471D01*
X157817757Y-100111293D01*
X157912256Y-100249243D01*
X157936204Y-100284411D01*
X157958285Y-100317231D01*
X157977672Y-100346446D01*
X157993541Y-100370799D01*
X158005066Y-100389031D01*
X158011422Y-100399884D01*
X158012254Y-100401656D01*
X158015949Y-100413253D01*
X158017772Y-100425135D01*
X158017372Y-100438579D01*
X158014401Y-100454857D01*
X158008510Y-100475246D01*
X157999351Y-100501017D01*
X157986575Y-100533447D01*
X157969833Y-100573810D01*
X157956581Y-100605088D01*
X157940096Y-100643301D01*
X157924283Y-100679027D01*
X157909842Y-100710756D01*
X157897474Y-100736976D01*
X157887879Y-100756173D01*
X157881757Y-100766838D01*
X157881419Y-100767304D01*
X157866954Y-100781686D01*
X157848823Y-100793837D01*
X157844793Y-100795782D01*
X157833589Y-100799322D01*
X157813143Y-100804414D01*
X157785069Y-100810712D01*
X157750978Y-100817869D01*
X157712484Y-100825537D01*
X157671198Y-100833369D01*
X157663658Y-100834758D01*
X157505160Y-100863819D01*
X157429084Y-100863819D01*
X157429251Y-100853777D01*
X157430124Y-100826826D01*
X157431298Y-100808060D01*
X157432796Y-100796771D01*
X157434641Y-100792251D01*
X157434679Y-100792226D01*
X157441464Y-100790301D01*
X157457786Y-100786656D01*
X157482340Y-100781552D01*
X157513822Y-100775253D01*
X157550931Y-100768019D01*
X157592360Y-100760112D01*
X157625357Y-100753923D01*
X157675543Y-100744389D01*
X157719574Y-100735645D01*
X157756559Y-100727888D01*
X157785607Y-100721312D01*
X157805826Y-100716113D01*
X157816325Y-100712487D01*
X157817417Y-100711764D01*
X157821725Y-100704640D01*
X157829509Y-100689028D01*
X157840051Y-100666580D01*
X157852632Y-100638947D01*
X157866535Y-100607781D01*
X157881041Y-100574733D01*
X157895431Y-100541454D01*
X157908988Y-100509595D01*
X157920993Y-100480808D01*
X157930729Y-100456744D01*
X157937475Y-100439054D01*
X157940516Y-100429390D01*
X157940616Y-100428533D01*
X157937587Y-100422087D01*
X157928981Y-100407705D01*
X157915520Y-100386495D01*
X157897925Y-100359564D01*
X157876918Y-100328018D01*
X157853219Y-100292964D01*
X157833063Y-100263510D01*
X157807623Y-100226421D01*
X157784135Y-100191965D01*
X157763345Y-100161256D01*
X157746000Y-100135404D01*
X157732846Y-100115522D01*
X157724631Y-100102721D01*
X157722130Y-100098362D01*
X157725001Y-100092274D01*
X157734802Y-100079692D01*
X157750460Y-100061696D01*
X157770901Y-100039366D01*
X157795051Y-100013782D01*
X157821838Y-99986025D01*
X157850187Y-99957175D01*
X157879026Y-99928312D01*
X157907281Y-99900516D01*
X157933877Y-99874867D01*
X157957743Y-99852447D01*
X157977804Y-99834334D01*
X157992987Y-99821609D01*
X158002218Y-99815353D01*
X158003832Y-99814891D01*
X158010849Y-99817941D01*
X158025784Y-99826588D01*
X158047524Y-99840116D01*
X158074957Y-99857808D01*
X158106968Y-99878947D01*
X158142444Y-99902817D01*
X158174781Y-99924918D01*
X158212233Y-99950534D01*
X158247057Y-99974046D01*
X158278157Y-99994738D01*
X158304443Y-100011894D01*
X158324818Y-100024802D01*
X158338191Y-100032744D01*
X158343268Y-100035060D01*
X158351763Y-100033019D01*
X158368561Y-100027227D01*
X158391962Y-100018394D01*
X158420261Y-100007235D01*
X158451757Y-99994460D01*
X158484748Y-99980782D01*
X158517530Y-99966914D01*
X158548401Y-99953568D01*
X158575658Y-99941455D01*
X158597600Y-99931290D01*
X158612524Y-99923783D01*
X158618559Y-99919876D01*
X158622043Y-99911489D01*
X158627129Y-99892787D01*
X158633695Y-99864336D01*
X158641616Y-99826704D01*
X158650768Y-99780458D01*
X158661027Y-99726166D01*
X158662059Y-99720586D01*
X158670386Y-99676108D01*
X158678311Y-99634952D01*
X158685567Y-99598404D01*
X158691892Y-99567754D01*
X158697018Y-99544289D01*
X158700682Y-99529299D01*
X158702437Y-99524198D01*
X158706533Y-99522268D01*
X158716075Y-99520704D01*
X158731928Y-99519476D01*
X158754952Y-99518555D01*
X158786010Y-99517909D01*
X158825965Y-99517511D01*
X158875679Y-99517329D01*
X158902069Y-99517311D01*
X158956563Y-99517402D01*
G37*
G36*
X151787118Y-92225161D02*
G01*
X151804820Y-92225314D01*
X151840825Y-92225716D01*
X151870154Y-92226199D01*
X151893632Y-92226887D01*
X151912085Y-92227906D01*
X151926339Y-92229380D01*
X151937220Y-92231433D01*
X151945554Y-92234190D01*
X151952166Y-92237777D01*
X151957883Y-92242316D01*
X151963530Y-92247934D01*
X151964989Y-92249480D01*
X151974780Y-92262169D01*
X151981729Y-92277043D01*
X151986310Y-92295652D01*
X151988999Y-92319549D01*
X151989596Y-92329753D01*
X151989864Y-92361777D01*
X151987157Y-92387865D01*
X151981298Y-92409042D01*
X151973207Y-92424714D01*
X151967604Y-92433880D01*
X151966043Y-92439458D01*
X151968084Y-92443881D01*
X151969457Y-92445483D01*
X151979601Y-92461443D01*
X151987050Y-92483269D01*
X151991603Y-92509751D01*
X151993059Y-92539680D01*
X151991218Y-92571847D01*
X151990910Y-92574581D01*
X151986186Y-92601909D01*
X151978836Y-92623034D01*
X151968317Y-92638961D01*
X151954085Y-92650696D01*
X151947941Y-92654091D01*
X151929015Y-92663522D01*
X151791892Y-92663422D01*
X151755598Y-92663362D01*
X151726054Y-92663221D01*
X151702506Y-92662965D01*
X151684202Y-92662563D01*
X151670390Y-92661984D01*
X151660315Y-92661195D01*
X151653226Y-92660165D01*
X151648369Y-92658862D01*
X151644991Y-92657254D01*
X151644913Y-92657206D01*
X151640106Y-92654206D01*
X151636055Y-92651249D01*
X151632694Y-92647705D01*
X151629959Y-92642944D01*
X151627786Y-92636338D01*
X151626110Y-92627256D01*
X151624867Y-92615069D01*
X151623992Y-92599147D01*
X151623587Y-92584745D01*
X151701660Y-92584745D01*
X151800352Y-92584745D01*
X151831520Y-92584671D01*
X151856003Y-92584422D01*
X151874617Y-92583957D01*
X151888179Y-92583235D01*
X151897504Y-92582215D01*
X151903409Y-92580855D01*
X151906326Y-92579420D01*
X151909706Y-92576075D01*
X151911857Y-92570971D01*
X151913045Y-92562546D01*
X151913536Y-92549241D01*
X151913608Y-92536674D01*
X151913539Y-92518784D01*
X151912694Y-92505431D01*
X151910117Y-92495952D01*
X151904852Y-92489683D01*
X151895942Y-92485963D01*
X151882430Y-92484128D01*
X151863360Y-92483514D01*
X151837776Y-92483460D01*
X151836842Y-92483460D01*
X151811623Y-92483291D01*
X151792966Y-92482737D01*
X151779935Y-92481730D01*
X151771598Y-92480199D01*
X151767293Y-92478286D01*
X151762552Y-92471010D01*
X151759406Y-92458858D01*
X151758019Y-92444321D01*
X151758558Y-92429890D01*
X151761186Y-92418054D01*
X151763047Y-92414311D01*
X151765423Y-92411017D01*
X151768339Y-92408605D01*
X151772928Y-92406911D01*
X151780322Y-92405773D01*
X151791652Y-92405027D01*
X151808050Y-92404510D01*
X151830649Y-92404059D01*
X151834634Y-92403987D01*
X151860860Y-92403494D01*
X151880531Y-92402685D01*
X151894588Y-92400961D01*
X151903972Y-92397720D01*
X151909625Y-92392362D01*
X151912488Y-92384285D01*
X151913503Y-92372890D01*
X151913612Y-92357574D01*
X151913608Y-92353585D01*
X151913653Y-92339439D01*
X151913271Y-92328230D01*
X151911680Y-92319617D01*
X151908100Y-92313260D01*
X151901752Y-92308818D01*
X151891856Y-92305950D01*
X151877631Y-92304315D01*
X151858298Y-92303571D01*
X151833076Y-92303379D01*
X151801186Y-92303397D01*
X151798778Y-92303398D01*
X151701660Y-92303398D01*
X151701660Y-92444071D01*
X151701660Y-92584745D01*
X151623587Y-92584745D01*
X151623421Y-92578862D01*
X151623089Y-92553582D01*
X151622931Y-92522680D01*
X151622884Y-92485525D01*
X151622882Y-92442179D01*
X151622882Y-92253881D01*
X151635300Y-92241463D01*
X151649580Y-92230940D01*
X151664373Y-92226550D01*
X151672131Y-92225983D01*
X151686352Y-92225537D01*
X151706000Y-92225223D01*
X151730035Y-92225050D01*
X151757421Y-92225026D01*
X151787118Y-92225161D01*
G37*
G36*
X152225907Y-92225015D02*
G01*
X152259823Y-92225244D01*
X152273269Y-92225351D01*
X152311533Y-92225695D01*
X152343075Y-92226106D01*
X152368676Y-92226692D01*
X152389117Y-92227559D01*
X152405179Y-92228811D01*
X152417643Y-92230554D01*
X152427290Y-92232895D01*
X152434900Y-92235939D01*
X152441254Y-92239792D01*
X152447133Y-92244560D01*
X152452584Y-92249644D01*
X152464766Y-92265889D01*
X152474059Y-92287589D01*
X152480328Y-92313221D01*
X152483438Y-92341260D01*
X152483254Y-92370184D01*
X152479641Y-92398469D01*
X152472465Y-92424591D01*
X152468839Y-92433495D01*
X152457568Y-92451313D01*
X152442104Y-92465963D01*
X152424492Y-92475718D01*
X152415838Y-92478163D01*
X152407373Y-92480150D01*
X152403233Y-92481905D01*
X152403151Y-92482098D01*
X152404965Y-92485628D01*
X152410066Y-92494738D01*
X152417944Y-92508540D01*
X152428090Y-92526142D01*
X152439992Y-92546655D01*
X152450289Y-92564314D01*
X152466699Y-92592829D01*
X152479659Y-92616284D01*
X152489010Y-92634374D01*
X152494594Y-92646792D01*
X152496253Y-92653232D01*
X152496243Y-92653311D01*
X152495266Y-92657088D01*
X152492696Y-92659570D01*
X152487135Y-92661090D01*
X152477186Y-92661983D01*
X152461453Y-92662581D01*
X152456875Y-92662712D01*
X152437091Y-92662910D01*
X152423852Y-92662148D01*
X152416249Y-92660344D01*
X152414215Y-92658961D01*
X152411211Y-92654488D01*
X152405084Y-92644399D01*
X152396376Y-92629625D01*
X152385630Y-92611094D01*
X152373391Y-92589737D01*
X152362041Y-92569739D01*
X152314345Y-92485335D01*
X152257463Y-92484300D01*
X152200581Y-92483264D01*
X152200581Y-92568891D01*
X152200446Y-92599518D01*
X152200023Y-92623193D01*
X152199285Y-92640462D01*
X152198203Y-92651871D01*
X152196752Y-92657966D01*
X152196080Y-92659020D01*
X152189747Y-92661457D01*
X152177271Y-92663014D01*
X152161193Y-92663522D01*
X152144167Y-92662944D01*
X152132041Y-92661327D01*
X152126306Y-92659020D01*
X152124988Y-92654031D01*
X152123879Y-92642648D01*
X152122980Y-92625973D01*
X152122291Y-92605113D01*
X152121811Y-92581170D01*
X152121540Y-92555251D01*
X152121480Y-92528459D01*
X152121628Y-92501899D01*
X152121987Y-92476676D01*
X152122555Y-92453893D01*
X152123332Y-92434656D01*
X152124319Y-92420068D01*
X152125516Y-92411235D01*
X152126306Y-92409184D01*
X152129849Y-92407848D01*
X152137881Y-92406774D01*
X152150924Y-92405944D01*
X152169503Y-92405338D01*
X152194141Y-92404939D01*
X152225360Y-92404728D01*
X152253673Y-92404682D01*
X152294437Y-92404547D01*
X152327721Y-92404139D01*
X152353543Y-92403459D01*
X152371922Y-92402507D01*
X152382876Y-92401280D01*
X152385682Y-92400517D01*
X152396130Y-92392296D01*
X152402437Y-92378730D01*
X152404860Y-92359234D01*
X152404901Y-92356521D01*
X152403083Y-92335041D01*
X152397500Y-92319005D01*
X152388381Y-92309005D01*
X152385840Y-92307635D01*
X152379174Y-92306264D01*
X152365703Y-92305166D01*
X152345278Y-92304336D01*
X152317754Y-92303769D01*
X152282984Y-92303462D01*
X152253673Y-92303398D01*
X152217127Y-92303317D01*
X152187558Y-92303062D01*
X152164443Y-92302614D01*
X152147260Y-92301956D01*
X152135484Y-92301068D01*
X152128593Y-92299932D01*
X152126306Y-92298896D01*
X152123467Y-92292106D01*
X152121907Y-92280322D01*
X152121569Y-92265930D01*
X152122397Y-92251319D01*
X152124336Y-92238876D01*
X152127330Y-92230991D01*
X152127906Y-92230308D01*
X152130119Y-92228722D01*
X152133739Y-92227449D01*
X152139497Y-92226466D01*
X152148123Y-92225747D01*
X152160347Y-92225267D01*
X152176899Y-92225002D01*
X152198509Y-92224926D01*
X152225907Y-92225015D01*
G37*
G36*
X152875015Y-92225492D02*
G01*
X152900883Y-92226804D01*
X152921804Y-92229073D01*
X152938620Y-92232377D01*
X152952170Y-92236793D01*
X152958250Y-92239578D01*
X152977127Y-92253193D01*
X152993170Y-92272823D01*
X153005430Y-92297221D01*
X153008198Y-92305187D01*
X153010575Y-92313143D01*
X153012451Y-92320839D01*
X153013883Y-92329269D01*
X153014931Y-92339424D01*
X153015654Y-92352300D01*
X153016112Y-92368888D01*
X153016364Y-92390183D01*
X153016469Y-92417178D01*
X153016488Y-92444071D01*
X153016425Y-92477741D01*
X153016208Y-92504840D01*
X153015794Y-92526297D01*
X153015141Y-92543042D01*
X153014203Y-92556005D01*
X153012940Y-92566116D01*
X153011308Y-92574305D01*
X153010279Y-92578181D01*
X152999590Y-92606357D01*
X152985302Y-92628257D01*
X152966875Y-92644457D01*
X152943770Y-92655529D01*
X152935294Y-92658085D01*
X152924519Y-92659849D01*
X152907658Y-92661266D01*
X152886093Y-92662335D01*
X152861199Y-92663053D01*
X152834357Y-92663420D01*
X152806944Y-92663432D01*
X152780338Y-92663088D01*
X152755918Y-92662386D01*
X152735062Y-92661324D01*
X152719148Y-92659900D01*
X152710530Y-92658402D01*
X152684942Y-92648311D01*
X152664438Y-92633008D01*
X152648594Y-92612072D01*
X152637387Y-92586332D01*
X152635360Y-92579581D01*
X152633745Y-92572439D01*
X152632496Y-92563997D01*
X152631566Y-92553342D01*
X152630911Y-92539567D01*
X152630483Y-92521759D01*
X152630236Y-92499010D01*
X152630126Y-92470410D01*
X152630110Y-92450184D01*
X152706472Y-92450184D01*
X152706684Y-92476800D01*
X152707256Y-92501916D01*
X152708189Y-92524253D01*
X152709484Y-92542531D01*
X152711143Y-92555473D01*
X152712492Y-92560604D01*
X152715974Y-92567760D01*
X152720329Y-92573342D01*
X152726456Y-92577530D01*
X152735252Y-92580505D01*
X152747614Y-92582447D01*
X152764442Y-92583537D01*
X152786632Y-92583955D01*
X152815083Y-92583881D01*
X152827691Y-92583762D01*
X152855072Y-92583453D01*
X152875965Y-92583107D01*
X152891383Y-92582617D01*
X152902339Y-92581879D01*
X152909847Y-92580786D01*
X152914921Y-92579235D01*
X152918574Y-92577118D01*
X152921819Y-92574330D01*
X152922256Y-92573920D01*
X152927419Y-92568001D01*
X152931508Y-92560471D01*
X152934619Y-92550494D01*
X152936854Y-92537238D01*
X152938309Y-92519867D01*
X152939083Y-92497547D01*
X152939277Y-92469445D01*
X152938988Y-92434725D01*
X152938963Y-92432817D01*
X152938499Y-92398102D01*
X152937664Y-92370160D01*
X152935757Y-92348269D01*
X152932075Y-92331707D01*
X152925918Y-92319751D01*
X152916583Y-92311680D01*
X152903369Y-92306771D01*
X152885574Y-92304301D01*
X152862497Y-92303549D01*
X152833436Y-92303793D01*
X152813918Y-92304101D01*
X152785388Y-92304604D01*
X152763381Y-92305330D01*
X152746917Y-92306534D01*
X152735017Y-92308474D01*
X152726701Y-92311404D01*
X152720989Y-92315583D01*
X152716901Y-92321265D01*
X152713458Y-92328709D01*
X152712695Y-92330596D01*
X152710771Y-92339358D01*
X152709200Y-92354293D01*
X152707983Y-92374122D01*
X152707123Y-92397566D01*
X152706618Y-92423346D01*
X152706472Y-92450184D01*
X152630110Y-92450184D01*
X152630104Y-92442195D01*
X152630124Y-92408586D01*
X152630219Y-92381587D01*
X152630440Y-92360305D01*
X152630839Y-92343849D01*
X152631467Y-92331327D01*
X152632377Y-92321845D01*
X152633620Y-92314512D01*
X152635248Y-92308435D01*
X152637313Y-92302722D01*
X152638338Y-92300181D01*
X152649827Y-92276363D01*
X152662446Y-92258827D01*
X152675588Y-92247334D01*
X152685224Y-92241158D01*
X152694684Y-92236340D01*
X152705091Y-92232691D01*
X152717566Y-92230021D01*
X152733232Y-92228140D01*
X152753211Y-92226858D01*
X152778625Y-92225986D01*
X152805078Y-92225430D01*
X152843360Y-92225060D01*
X152875015Y-92225492D01*
G37*
G36*
X153177206Y-92224136D02*
G01*
X153185012Y-92224517D01*
X153190408Y-92224620D01*
X153202011Y-92224629D01*
X153210979Y-92225223D01*
X153217651Y-92227258D01*
X153222365Y-92231589D01*
X153225461Y-92239070D01*
X153227277Y-92250556D01*
X153228152Y-92266902D01*
X153228426Y-92288963D01*
X153228436Y-92317594D01*
X153228436Y-92320546D01*
X153228436Y-92404682D01*
X153253757Y-92404593D01*
X153280215Y-92403168D01*
X153299694Y-92399106D01*
X153312173Y-92392415D01*
X153314722Y-92389669D01*
X153318292Y-92384134D01*
X153324900Y-92373131D01*
X153333917Y-92357737D01*
X153344714Y-92339029D01*
X153356663Y-92318084D01*
X153361393Y-92309728D01*
X153373578Y-92288315D01*
X153384830Y-92268829D01*
X153394529Y-92252324D01*
X153402052Y-92239852D01*
X153406780Y-92232464D01*
X153407735Y-92231185D01*
X153412021Y-92227882D01*
X153418976Y-92225871D01*
X153430231Y-92224876D01*
X153446460Y-92224620D01*
X153462861Y-92224850D01*
X153473309Y-92225724D01*
X153479345Y-92227519D01*
X153482509Y-92230514D01*
X153482885Y-92231185D01*
X153484881Y-92239464D01*
X153484419Y-92243377D01*
X153482197Y-92247821D01*
X153476815Y-92257733D01*
X153468860Y-92272082D01*
X153458918Y-92289834D01*
X153447576Y-92309958D01*
X153435419Y-92331422D01*
X153423035Y-92353192D01*
X153411009Y-92374238D01*
X153399928Y-92393526D01*
X153390378Y-92410025D01*
X153382945Y-92422702D01*
X153378217Y-92430526D01*
X153377341Y-92431879D01*
X153375011Y-92439946D01*
X153376631Y-92443623D01*
X153386253Y-92457175D01*
X153395075Y-92470131D01*
X153403930Y-92483822D01*
X153413648Y-92499579D01*
X153425061Y-92518730D01*
X153439003Y-92542607D01*
X153444941Y-92552859D01*
X153460678Y-92580101D01*
X153473024Y-92601622D01*
X153482363Y-92618186D01*
X153489074Y-92630555D01*
X153493540Y-92639494D01*
X153496143Y-92645766D01*
X153497264Y-92650136D01*
X153497285Y-92653367D01*
X153496593Y-92656207D01*
X153494828Y-92659590D01*
X153491157Y-92661739D01*
X153484122Y-92662928D01*
X153472265Y-92663431D01*
X153457593Y-92663522D01*
X153439846Y-92663292D01*
X153428046Y-92662445D01*
X153420648Y-92660740D01*
X153416105Y-92657939D01*
X153415161Y-92656957D01*
X153411720Y-92651915D01*
X153405197Y-92641343D01*
X153396190Y-92626249D01*
X153385296Y-92607640D01*
X153373113Y-92586525D01*
X153365671Y-92573491D01*
X153352914Y-92551354D01*
X153340950Y-92531145D01*
X153330404Y-92513873D01*
X153321900Y-92500551D01*
X153316063Y-92492191D01*
X153314158Y-92490024D01*
X153309067Y-92486922D01*
X153301608Y-92484943D01*
X153290218Y-92483867D01*
X153273336Y-92483476D01*
X153267409Y-92483460D01*
X153228436Y-92483460D01*
X153228436Y-92568989D01*
X153228300Y-92599599D01*
X153227876Y-92623258D01*
X153227137Y-92640510D01*
X153226053Y-92651902D01*
X153224600Y-92657980D01*
X153223934Y-92659020D01*
X153217601Y-92661457D01*
X153205125Y-92663014D01*
X153189047Y-92663522D01*
X153172021Y-92662944D01*
X153159896Y-92661327D01*
X153154160Y-92659020D01*
X153153134Y-92656089D01*
X153152261Y-92649218D01*
X153151531Y-92637972D01*
X153150936Y-92621919D01*
X153150466Y-92600625D01*
X153150113Y-92573655D01*
X153149867Y-92540578D01*
X153149719Y-92500957D01*
X153149660Y-92454361D01*
X153149658Y-92443453D01*
X153149613Y-92397244D01*
X153149546Y-92357977D01*
X153149562Y-92325092D01*
X153149765Y-92298030D01*
X153150259Y-92276231D01*
X153151149Y-92259134D01*
X153152539Y-92246182D01*
X153154532Y-92236813D01*
X153157234Y-92230468D01*
X153160748Y-92226587D01*
X153165178Y-92224612D01*
X153170630Y-92223981D01*
X153177206Y-92224136D01*
G37*
G36*
X153843252Y-92404746D02*
G01*
X153876364Y-92404946D01*
X153902966Y-92405297D01*
X153923553Y-92405814D01*
X153938620Y-92406511D01*
X153948662Y-92407403D01*
X153954176Y-92408505D01*
X153955436Y-92409184D01*
X153957880Y-92415485D01*
X153959446Y-92427752D01*
X153959938Y-92442733D01*
X153960008Y-92453381D01*
X153959743Y-92461996D01*
X153958424Y-92468792D01*
X153955336Y-92473984D01*
X153949761Y-92477786D01*
X153940984Y-92480415D01*
X153928286Y-92482083D01*
X153910952Y-92483008D01*
X153888264Y-92483402D01*
X153859507Y-92483481D01*
X153824056Y-92483460D01*
X153704850Y-92483460D01*
X153705061Y-92505030D01*
X153707226Y-92528777D01*
X153713328Y-92546593D01*
X153723577Y-92559055D01*
X153724812Y-92560010D01*
X153728187Y-92562272D01*
X153732113Y-92564067D01*
X153737469Y-92565463D01*
X153745133Y-92566525D01*
X153755982Y-92567319D01*
X153770894Y-92567911D01*
X153790749Y-92568366D01*
X153816422Y-92568751D01*
X153845819Y-92569099D01*
X153877506Y-92569473D01*
X153902519Y-92569846D01*
X153921685Y-92570284D01*
X153935832Y-92570849D01*
X153945788Y-92571606D01*
X153952380Y-92572619D01*
X153956437Y-92573951D01*
X153958785Y-92575667D01*
X153960253Y-92577831D01*
X153960313Y-92577944D01*
X153962424Y-92585916D01*
X153963467Y-92598483D01*
X153963543Y-92613633D01*
X153962754Y-92629355D01*
X153961201Y-92643637D01*
X153958986Y-92654469D01*
X153956209Y-92659839D01*
X153956186Y-92659854D01*
X153951013Y-92660789D01*
X153939483Y-92661560D01*
X153922740Y-92662166D01*
X153901929Y-92662607D01*
X153878193Y-92662886D01*
X153852677Y-92663001D01*
X153826524Y-92662955D01*
X153800878Y-92662747D01*
X153776884Y-92662379D01*
X153755686Y-92661851D01*
X153738427Y-92661164D01*
X153726252Y-92660319D01*
X153721730Y-92659710D01*
X153695567Y-92652064D01*
X153674297Y-92640215D01*
X153657502Y-92623615D01*
X153644765Y-92601714D01*
X153635667Y-92573963D01*
X153629790Y-92539813D01*
X153629665Y-92538730D01*
X153628016Y-92516693D01*
X153627498Y-92491716D01*
X153628196Y-92468292D01*
X153628308Y-92466593D01*
X153629641Y-92449309D01*
X153631119Y-92437666D01*
X153633295Y-92429814D01*
X153636719Y-92423901D01*
X153641944Y-92418078D01*
X153643127Y-92416888D01*
X153655333Y-92404682D01*
X153803134Y-92404682D01*
X153843252Y-92404746D01*
G37*
G36*
X154289928Y-92224811D02*
G01*
X154321161Y-92225171D01*
X154348067Y-92225760D01*
X154369850Y-92226555D01*
X154385712Y-92227533D01*
X154394766Y-92228653D01*
X154416795Y-92236046D01*
X154433576Y-92248097D01*
X154446378Y-92265746D01*
X154447383Y-92267650D01*
X154451461Y-92276303D01*
X154454281Y-92284785D01*
X154456132Y-92294866D01*
X154457304Y-92308315D01*
X154458083Y-92326903D01*
X154458308Y-92334598D01*
X154458471Y-92363199D01*
X154457069Y-92385603D01*
X154453902Y-92402988D01*
X154448771Y-92416533D01*
X154442896Y-92425681D01*
X154435509Y-92435072D01*
X154448122Y-92458328D01*
X154460735Y-92481584D01*
X154460735Y-92539729D01*
X154460665Y-92562130D01*
X154460324Y-92578573D01*
X154459518Y-92590604D01*
X154458054Y-92599766D01*
X154455738Y-92607606D01*
X154452374Y-92615666D01*
X154450752Y-92619171D01*
X154440695Y-92636324D01*
X154428309Y-92648571D01*
X154424773Y-92651057D01*
X154408777Y-92661646D01*
X154267824Y-92662643D01*
X154231531Y-92662886D01*
X154201969Y-92663027D01*
X154178367Y-92663033D01*
X154159954Y-92662871D01*
X154145960Y-92662507D01*
X154135612Y-92661909D01*
X154128140Y-92661041D01*
X154122773Y-92659872D01*
X154118740Y-92658367D01*
X154115270Y-92656493D01*
X154114453Y-92655996D01*
X154109343Y-92652741D01*
X154105044Y-92649368D01*
X154101486Y-92645237D01*
X154098598Y-92639709D01*
X154096311Y-92632143D01*
X154094554Y-92621901D01*
X154093258Y-92608342D01*
X154092352Y-92590826D01*
X154091767Y-92568715D01*
X154091433Y-92541369D01*
X154091279Y-92508147D01*
X154091235Y-92468411D01*
X154091233Y-92443821D01*
X154091238Y-92400108D01*
X154091310Y-92363268D01*
X154091531Y-92332669D01*
X154091984Y-92307681D01*
X154092162Y-92303053D01*
X154170010Y-92303053D01*
X154170010Y-92443899D01*
X154170010Y-92584745D01*
X154268584Y-92584745D01*
X154299205Y-92584685D01*
X154323203Y-92584474D01*
X154341457Y-92584064D01*
X154354846Y-92583406D01*
X154364249Y-92582454D01*
X154370545Y-92581158D01*
X154374613Y-92579470D01*
X154375496Y-92578905D01*
X154379329Y-92575624D01*
X154381768Y-92571199D01*
X154383126Y-92564027D01*
X154383711Y-92552505D01*
X154383834Y-92535765D01*
X154383752Y-92518112D01*
X154382865Y-92504956D01*
X154380213Y-92495637D01*
X154374835Y-92489494D01*
X154365768Y-92485865D01*
X154352052Y-92484091D01*
X154332726Y-92483509D01*
X154307767Y-92483460D01*
X154281782Y-92483377D01*
X154262348Y-92482795D01*
X154248514Y-92481210D01*
X154239327Y-92478122D01*
X154233837Y-92473027D01*
X154231092Y-92465425D01*
X154230140Y-92454812D01*
X154230031Y-92442442D01*
X154230702Y-92424362D01*
X154232674Y-92412944D01*
X154234794Y-92409151D01*
X154240213Y-92407659D01*
X154252067Y-92406302D01*
X154269289Y-92405159D01*
X154290811Y-92404310D01*
X154303810Y-92404002D01*
X154330224Y-92403455D01*
X154350076Y-92402540D01*
X154364301Y-92400675D01*
X154373838Y-92397276D01*
X154379623Y-92391760D01*
X154382593Y-92383543D01*
X154383684Y-92372043D01*
X154383834Y-92356675D01*
X154383834Y-92354176D01*
X154383946Y-92340269D01*
X154383759Y-92329277D01*
X154382488Y-92320848D01*
X154379346Y-92314633D01*
X154373548Y-92310282D01*
X154364308Y-92307444D01*
X154350839Y-92305769D01*
X154332357Y-92304907D01*
X154308076Y-92304508D01*
X154277209Y-92304222D01*
X154271602Y-92304163D01*
X154170010Y-92303053D01*
X154092162Y-92303053D01*
X154092752Y-92287674D01*
X154093917Y-92272016D01*
X154095562Y-92260077D01*
X154097771Y-92251227D01*
X154100626Y-92244836D01*
X154104209Y-92240272D01*
X154108604Y-92236904D01*
X154113893Y-92234104D01*
X154119083Y-92231730D01*
X154123912Y-92229794D01*
X154129522Y-92228251D01*
X154136774Y-92227055D01*
X154146532Y-92226164D01*
X154159658Y-92225531D01*
X154177015Y-92225113D01*
X154199465Y-92224864D01*
X154227873Y-92224741D01*
X154255167Y-92224703D01*
X154289928Y-92224811D01*
G37*
G36*
X154633779Y-92225394D02*
G01*
X154648707Y-92226150D01*
X154657951Y-92227408D01*
X154663327Y-92229730D01*
X154666654Y-92233672D01*
X154667841Y-92235874D01*
X154668813Y-92241504D01*
X154669687Y-92253779D01*
X154670461Y-92271840D01*
X154671133Y-92294831D01*
X154671700Y-92321894D01*
X154672159Y-92352172D01*
X154672509Y-92384808D01*
X154672746Y-92418943D01*
X154672869Y-92453720D01*
X154672874Y-92488283D01*
X154672760Y-92521773D01*
X154672524Y-92553333D01*
X154672164Y-92582106D01*
X154671677Y-92607233D01*
X154671060Y-92627859D01*
X154670312Y-92643125D01*
X154669430Y-92652173D01*
X154669025Y-92653899D01*
X154666841Y-92658615D01*
X154663580Y-92661448D01*
X154657553Y-92662851D01*
X154647067Y-92663279D01*
X154634325Y-92663225D01*
X154619366Y-92662870D01*
X154607074Y-92662187D01*
X154599566Y-92661307D01*
X154598595Y-92661037D01*
X154597462Y-92656937D01*
X154596468Y-92646150D01*
X154595615Y-92629492D01*
X154594899Y-92607779D01*
X154594321Y-92581825D01*
X154593878Y-92552445D01*
X154593571Y-92520455D01*
X154593397Y-92486670D01*
X154593356Y-92451905D01*
X154593447Y-92416975D01*
X154593668Y-92382695D01*
X154594019Y-92349881D01*
X154594498Y-92319347D01*
X154595104Y-92291909D01*
X154595836Y-92268382D01*
X154596694Y-92249581D01*
X154597675Y-92236321D01*
X154598779Y-92229417D01*
X154599177Y-92228667D01*
X154606250Y-92226320D01*
X154619597Y-92225257D01*
X154633779Y-92225394D01*
G37*
G36*
X155036938Y-92224705D02*
G01*
X155077234Y-92224954D01*
X155110897Y-92225366D01*
X155137749Y-92225936D01*
X155157617Y-92226661D01*
X155170325Y-92227537D01*
X155175603Y-92228504D01*
X155179239Y-92231408D01*
X155181427Y-92236445D01*
X155182515Y-92245288D01*
X155182851Y-92259609D01*
X155182859Y-92263391D01*
X155182291Y-92280717D01*
X155180692Y-92293010D01*
X155178357Y-92298896D01*
X155173720Y-92300672D01*
X155163506Y-92301978D01*
X155147201Y-92302845D01*
X155124290Y-92303303D01*
X155103331Y-92303398D01*
X155032807Y-92303398D01*
X155032807Y-92473837D01*
X155032726Y-92513805D01*
X155032492Y-92549939D01*
X155032115Y-92581660D01*
X155031609Y-92608386D01*
X155030984Y-92629536D01*
X155030253Y-92644530D01*
X155029427Y-92652785D01*
X155029149Y-92653899D01*
X155026955Y-92658610D01*
X155023658Y-92661462D01*
X155017572Y-92662922D01*
X155007013Y-92663453D01*
X154994262Y-92663522D01*
X154976827Y-92662957D01*
X154964473Y-92661364D01*
X154958532Y-92659020D01*
X154957410Y-92655912D01*
X154956471Y-92648710D01*
X154955704Y-92636950D01*
X154955097Y-92620164D01*
X154954638Y-92597887D01*
X154954316Y-92569652D01*
X154954119Y-92534993D01*
X154954035Y-92493445D01*
X154954030Y-92478958D01*
X154954030Y-92303398D01*
X154881630Y-92303398D01*
X154853293Y-92303222D01*
X154831928Y-92302677D01*
X154817012Y-92301730D01*
X154808024Y-92300351D01*
X154804729Y-92298896D01*
X154801942Y-92292179D01*
X154800388Y-92280457D01*
X154800016Y-92266116D01*
X154800779Y-92251543D01*
X154802628Y-92239125D01*
X154805514Y-92231249D01*
X154806122Y-92230515D01*
X154808190Y-92229138D01*
X154811820Y-92227989D01*
X154817642Y-92227050D01*
X154826290Y-92226299D01*
X154838396Y-92225717D01*
X154854593Y-92225283D01*
X154875514Y-92224977D01*
X154901790Y-92224778D01*
X154934056Y-92224667D01*
X154972942Y-92224624D01*
X154990182Y-92224620D01*
X155036938Y-92224705D01*
G37*
G36*
X153960030Y-92234243D02*
G01*
X153962154Y-92243594D01*
X153963474Y-92256656D01*
X153963689Y-92264009D01*
X153963005Y-92277500D01*
X153961263Y-92289349D01*
X153960030Y-92293775D01*
X153956372Y-92303398D01*
X153797117Y-92303398D01*
X153757876Y-92303371D01*
X153725467Y-92303275D01*
X153699219Y-92303086D01*
X153678460Y-92302780D01*
X153662521Y-92302333D01*
X153650731Y-92301721D01*
X153642418Y-92300920D01*
X153636912Y-92299907D01*
X153633543Y-92298656D01*
X153631967Y-92297503D01*
X153628673Y-92290311D01*
X153626638Y-92278164D01*
X153625950Y-92263516D01*
X153626696Y-92248821D01*
X153628962Y-92236534D01*
X153629731Y-92234243D01*
X153633389Y-92224620D01*
X153794881Y-92224620D01*
X153956372Y-92224620D01*
X153960030Y-92234243D01*
G37*
G36*
X155209118Y-88189046D02*
G01*
X155240584Y-88194191D01*
X155267926Y-88205497D01*
X155290796Y-88222691D01*
X155308849Y-88245504D01*
X155321739Y-88273665D01*
X155323216Y-88278366D01*
X155326642Y-88291978D01*
X155328813Y-88304590D01*
X155329207Y-88309890D01*
X155328657Y-88314685D01*
X155327030Y-88326543D01*
X155324379Y-88345109D01*
X155320759Y-88370029D01*
X155316221Y-88400948D01*
X155310819Y-88437513D01*
X155304605Y-88479368D01*
X155297633Y-88526159D01*
X155289955Y-88577532D01*
X155281625Y-88633133D01*
X155272695Y-88692606D01*
X155263218Y-88755599D01*
X155253248Y-88821755D01*
X155242836Y-88890721D01*
X155232037Y-88962142D01*
X155220902Y-89035665D01*
X155214307Y-89079162D01*
X155099358Y-89836923D01*
X155109257Y-89900695D01*
X155115062Y-89939263D01*
X155119607Y-89972537D01*
X155123093Y-90002578D01*
X155125726Y-90031452D01*
X155127708Y-90061220D01*
X155129242Y-90093946D01*
X155129797Y-90108892D01*
X155130841Y-90163288D01*
X155130327Y-90219127D01*
X155128345Y-90274788D01*
X155124984Y-90328655D01*
X155120333Y-90379109D01*
X155114483Y-90424532D01*
X155111273Y-90444084D01*
X155109474Y-90456075D01*
X155108797Y-90464783D01*
X155109207Y-90467889D01*
X155113355Y-90467906D01*
X155123521Y-90466708D01*
X155138353Y-90464489D01*
X155156499Y-90461440D01*
X155164774Y-90459961D01*
X155222065Y-90450266D01*
X155284636Y-90440998D01*
X155350267Y-90432460D01*
X155416737Y-90424956D01*
X155434122Y-90423188D01*
X155460123Y-90420771D01*
X155484935Y-90418856D01*
X155509964Y-90417390D01*
X155536619Y-90416317D01*
X155566308Y-90415584D01*
X155600439Y-90415135D01*
X155640419Y-90414916D01*
X155648019Y-90414898D01*
X155679542Y-90414917D01*
X155709213Y-90415097D01*
X155736066Y-90415419D01*
X155759133Y-90415864D01*
X155777445Y-90416416D01*
X155790035Y-90417056D01*
X155795481Y-90417647D01*
X155807022Y-90422127D01*
X155819585Y-90429964D01*
X155824518Y-90433995D01*
X155837991Y-90450670D01*
X155844912Y-90469594D01*
X155845138Y-90489378D01*
X155838521Y-90508631D01*
X155833198Y-90516849D01*
X155827844Y-90523656D01*
X155822649Y-90529096D01*
X155816743Y-90533313D01*
X155809259Y-90536450D01*
X155799329Y-90538653D01*
X155786085Y-90540066D01*
X155768659Y-90540832D01*
X155746183Y-90541096D01*
X155717790Y-90541002D01*
X155689283Y-90540757D01*
X155633696Y-90540609D01*
X155583353Y-90541356D01*
X155536038Y-90543121D01*
X155489532Y-90546030D01*
X155441619Y-90550205D01*
X155390079Y-90555772D01*
X155362921Y-90559034D01*
X155342226Y-90561757D01*
X155317539Y-90565282D01*
X155289911Y-90569432D01*
X155260392Y-90574034D01*
X155230032Y-90578911D01*
X155199882Y-90583887D01*
X155170992Y-90588788D01*
X155144412Y-90593438D01*
X155121193Y-90597662D01*
X155102386Y-90601284D01*
X155089040Y-90604129D01*
X155082708Y-90605828D01*
X155079114Y-90610159D01*
X155075359Y-90619175D01*
X155074086Y-90623563D01*
X155063448Y-90661531D01*
X155049911Y-90704170D01*
X155034169Y-90749566D01*
X155016917Y-90795806D01*
X154998850Y-90840975D01*
X154980663Y-90883160D01*
X154976542Y-90892226D01*
X154969234Y-90908417D01*
X154963388Y-90921918D01*
X154959562Y-90931404D01*
X154958310Y-90935550D01*
X154958346Y-90935619D01*
X154962279Y-90936282D01*
X154972644Y-90937650D01*
X154988417Y-90939598D01*
X155008572Y-90942002D01*
X155032086Y-90944736D01*
X155051564Y-90946959D01*
X155157250Y-90960416D01*
X155258044Y-90976282D01*
X155353652Y-90994477D01*
X155443785Y-91014922D01*
X155528151Y-91037536D01*
X155606460Y-91062240D01*
X155678419Y-91088955D01*
X155743738Y-91117600D01*
X155802126Y-91148097D01*
X155815649Y-91156027D01*
X155838646Y-91172115D01*
X155854354Y-91188571D01*
X155862987Y-91205819D01*
X155864759Y-91224286D01*
X155859998Y-91244098D01*
X155849324Y-91262513D01*
X155833865Y-91275351D01*
X155814367Y-91282106D01*
X155802718Y-91283046D01*
X155792167Y-91282578D01*
X155782888Y-91280655D01*
X155772764Y-91276503D01*
X155759675Y-91269345D01*
X155750700Y-91264000D01*
X155697743Y-91234935D01*
X155638372Y-91207866D01*
X155572480Y-91182764D01*
X155499960Y-91159600D01*
X155420704Y-91138348D01*
X155334606Y-91118978D01*
X155241558Y-91101462D01*
X155141454Y-91085772D01*
X155034185Y-91071880D01*
X155012175Y-91069350D01*
X154978383Y-91065578D01*
X154951281Y-91062664D01*
X154930111Y-91060576D01*
X154914113Y-91059283D01*
X154902529Y-91058753D01*
X154894599Y-91058954D01*
X154889565Y-91059854D01*
X154886668Y-91061421D01*
X154885148Y-91063624D01*
X154884989Y-91064015D01*
X154881373Y-91070873D01*
X154874077Y-91082743D01*
X154863829Y-91098565D01*
X154851354Y-91117279D01*
X154837379Y-91137822D01*
X154822631Y-91159136D01*
X154807835Y-91180160D01*
X154793720Y-91199833D01*
X154781010Y-91217094D01*
X154772309Y-91228498D01*
X154760688Y-91243557D01*
X154750941Y-91256522D01*
X154743909Y-91266250D01*
X154740431Y-91271599D01*
X154740206Y-91272193D01*
X154743005Y-91275304D01*
X154750696Y-91282094D01*
X154762221Y-91291672D01*
X154776524Y-91303147D01*
X154782408Y-91307772D01*
X154843966Y-91356811D01*
X154900927Y-91404044D01*
X154953060Y-91449246D01*
X155000134Y-91492191D01*
X155041918Y-91532652D01*
X155078182Y-91570403D01*
X155108695Y-91605217D01*
X155133225Y-91636869D01*
X155151542Y-91665132D01*
X155156631Y-91674553D01*
X155165173Y-91692598D01*
X155169818Y-91706411D01*
X155170811Y-91718016D01*
X155168399Y-91729436D01*
X155164491Y-91739123D01*
X155152853Y-91757188D01*
X155137818Y-91769347D01*
X155120539Y-91775660D01*
X155102172Y-91776184D01*
X155083870Y-91770978D01*
X155066788Y-91760101D01*
X155052080Y-91743612D01*
X155045886Y-91733102D01*
X155033851Y-91713407D01*
X155015926Y-91689937D01*
X154992486Y-91663041D01*
X154963906Y-91633070D01*
X154930562Y-91600374D01*
X154892830Y-91565303D01*
X154851085Y-91528208D01*
X154805704Y-91489438D01*
X154757060Y-91449344D01*
X154705531Y-91408277D01*
X154658787Y-91372137D01*
X154654863Y-91372862D01*
X154646803Y-91378160D01*
X154634333Y-91388249D01*
X154617178Y-91403350D01*
X154599031Y-91419990D01*
X154510793Y-91497086D01*
X154419429Y-91567415D01*
X154325014Y-91630939D01*
X154227622Y-91687621D01*
X154127328Y-91737424D01*
X154024205Y-91780312D01*
X153918329Y-91816248D01*
X153809775Y-91845195D01*
X153698615Y-91867117D01*
X153692606Y-91868089D01*
X153641911Y-91875163D01*
X153587125Y-91880946D01*
X153530112Y-91885347D01*
X153472736Y-91888273D01*
X153416859Y-91889630D01*
X153364345Y-91889327D01*
X153317057Y-91887270D01*
X153312840Y-91886976D01*
X153196741Y-91874961D01*
X153083371Y-91855961D01*
X152972802Y-91830010D01*
X152865107Y-91797138D01*
X152760358Y-91757379D01*
X152658629Y-91710765D01*
X152559993Y-91657329D01*
X152464521Y-91597102D01*
X152372287Y-91530118D01*
X152283364Y-91456407D01*
X152225941Y-91403532D01*
X152189258Y-91368339D01*
X152160399Y-91390402D01*
X152101771Y-91436109D01*
X152046895Y-91480670D01*
X151996092Y-91523780D01*
X151949685Y-91565131D01*
X151907995Y-91604413D01*
X151871343Y-91641320D01*
X151840051Y-91675543D01*
X151814442Y-91706775D01*
X151794835Y-91734708D01*
X151787221Y-91747640D01*
X151776033Y-91761032D01*
X151759738Y-91771189D01*
X151742553Y-91776404D01*
X151724182Y-91775950D01*
X151706630Y-91769177D01*
X151691340Y-91757242D01*
X151679753Y-91741303D01*
X151673311Y-91722517D01*
X151673012Y-91720573D01*
X151673517Y-91704175D01*
X151679282Y-91685072D01*
X151690463Y-91663036D01*
X151707215Y-91637841D01*
X151729694Y-91609262D01*
X151758058Y-91577071D01*
X151792461Y-91541042D01*
X151806564Y-91526880D01*
X151840444Y-91494252D01*
X151879406Y-91458585D01*
X151922244Y-91420927D01*
X151967748Y-91382327D01*
X152014711Y-91343833D01*
X152048654Y-91316845D01*
X152065210Y-91303824D01*
X152079792Y-91292290D01*
X152091331Y-91283095D01*
X152098758Y-91277089D01*
X152100917Y-91275259D01*
X152100828Y-91270478D01*
X152095947Y-91261780D01*
X152091616Y-91256004D01*
X152067572Y-91225058D01*
X152041431Y-91189615D01*
X152014676Y-91151771D01*
X151988791Y-91113621D01*
X151966427Y-91079119D01*
X151952552Y-91057129D01*
X151923702Y-91059639D01*
X151844136Y-91067416D01*
X151764114Y-91076874D01*
X151685241Y-91087775D01*
X151609119Y-91099882D01*
X151537356Y-91112958D01*
X151474706Y-91126055D01*
X151408172Y-91141868D01*
X151347733Y-91158197D01*
X151291980Y-91175554D01*
X151239506Y-91194451D01*
X151188901Y-91215403D01*
X151138759Y-91238921D01*
X151087672Y-91265518D01*
X151079566Y-91269956D01*
X151056741Y-91279892D01*
X151036534Y-91282924D01*
X151018514Y-91279002D01*
X151002253Y-91268080D01*
X150995088Y-91260504D01*
X150983621Y-91241737D01*
X150979109Y-91221729D01*
X150981589Y-91201684D01*
X150991096Y-91182809D01*
X150992649Y-91180759D01*
X151001599Y-91172432D01*
X151016619Y-91161994D01*
X151036739Y-91149930D01*
X151060989Y-91136726D01*
X151088400Y-91122868D01*
X151118003Y-91108841D01*
X151148828Y-91095129D01*
X151179905Y-91082220D01*
X151210265Y-91070597D01*
X151218689Y-91067575D01*
X151285761Y-91045703D01*
X151359399Y-91025029D01*
X151438736Y-91005739D01*
X151522903Y-90988016D01*
X151611033Y-90972045D01*
X151702258Y-90958010D01*
X151784258Y-90947424D01*
X151808660Y-90944608D01*
X151831071Y-90942123D01*
X151850233Y-90940102D01*
X151864885Y-90938676D01*
X151873768Y-90937976D01*
X151875227Y-90937927D01*
X151882688Y-90937294D01*
X151885473Y-90935927D01*
X151883913Y-90931723D01*
X151879910Y-90923097D01*
X151876508Y-90916233D01*
X151862544Y-90886890D01*
X151847419Y-90851976D01*
X151831787Y-90813199D01*
X151816299Y-90772269D01*
X151801607Y-90730895D01*
X151788366Y-90690785D01*
X151780224Y-90664083D01*
X151774420Y-90644935D01*
X151769031Y-90628394D01*
X151764517Y-90615787D01*
X151761340Y-90608437D01*
X151760418Y-90607161D01*
X151755442Y-90605596D01*
X151744209Y-90602960D01*
X151727851Y-90599472D01*
X151707502Y-90595352D01*
X151684296Y-90590817D01*
X151659365Y-90586088D01*
X151633844Y-90581382D01*
X151608864Y-90576920D01*
X151585561Y-90572919D01*
X151570364Y-90570434D01*
X151526637Y-90563967D01*
X151478696Y-90557734D01*
X151429511Y-90552078D01*
X151382048Y-90547344D01*
X151343611Y-90544180D01*
X151327720Y-90543276D01*
X151307170Y-90542472D01*
X151282974Y-90541774D01*
X151256149Y-90541191D01*
X151227708Y-90540728D01*
X151198667Y-90540394D01*
X151170041Y-90540194D01*
X151142844Y-90540137D01*
X151118092Y-90540230D01*
X151096800Y-90540479D01*
X151079982Y-90540891D01*
X151068653Y-90541474D01*
X151063853Y-90542220D01*
X151055967Y-90543302D01*
X151044528Y-90540536D01*
X151035240Y-90536398D01*
X153113193Y-90536398D01*
X153114341Y-90542748D01*
X153117496Y-90550276D01*
X153123012Y-90559489D01*
X153131246Y-90570897D01*
X153142553Y-90585007D01*
X153157291Y-90602329D01*
X153175814Y-90623370D01*
X153198478Y-90648639D01*
X153225640Y-90678645D01*
X153243593Y-90698417D01*
X153268492Y-90725737D01*
X153292194Y-90751574D01*
X153314158Y-90775349D01*
X153333843Y-90796484D01*
X153350708Y-90814402D01*
X153364210Y-90828524D01*
X153373810Y-90838272D01*
X153378966Y-90843067D01*
X153379153Y-90843207D01*
X153394124Y-90850133D01*
X153408003Y-90851647D01*
X153425155Y-90851647D01*
X153570736Y-90706285D01*
X153603861Y-90673192D01*
X153632037Y-90644938D01*
X153655625Y-90621062D01*
X153674987Y-90601104D01*
X153690485Y-90584604D01*
X153702480Y-90571101D01*
X153711334Y-90560133D01*
X153717409Y-90551242D01*
X153721065Y-90543966D01*
X153722666Y-90537844D01*
X153722571Y-90532416D01*
X153721143Y-90527222D01*
X153718744Y-90521801D01*
X153717525Y-90519329D01*
X153710262Y-90508074D01*
X153701444Y-90498622D01*
X153699885Y-90497392D01*
X153697743Y-90495920D01*
X153695276Y-90494646D01*
X153691956Y-90493558D01*
X153687253Y-90492641D01*
X153680638Y-90491879D01*
X153671581Y-90491259D01*
X153659554Y-90490766D01*
X153644027Y-90490386D01*
X153624470Y-90490103D01*
X153600354Y-90489904D01*
X153571150Y-90489773D01*
X153536328Y-90489697D01*
X153495359Y-90489660D01*
X153447714Y-90489649D01*
X153417876Y-90489648D01*
X153366255Y-90489651D01*
X153321607Y-90489672D01*
X153283404Y-90489724D01*
X153251114Y-90489823D01*
X153224210Y-90489982D01*
X153202162Y-90490216D01*
X153184440Y-90490540D01*
X153170515Y-90490968D01*
X153159858Y-90491515D01*
X153151939Y-90492196D01*
X153146229Y-90493024D01*
X153142199Y-90494014D01*
X153139318Y-90495182D01*
X153137059Y-90496541D01*
X153135866Y-90497392D01*
X153127152Y-90506007D01*
X153119322Y-90517257D01*
X153118226Y-90519329D01*
X153115492Y-90525197D01*
X153113695Y-90530717D01*
X153113193Y-90536398D01*
X151035240Y-90536398D01*
X151031766Y-90534850D01*
X151019916Y-90527171D01*
X151013554Y-90521323D01*
X151002010Y-90503621D01*
X150997000Y-90484456D01*
X150998260Y-90465265D01*
X151005524Y-90447485D01*
X151018529Y-90432550D01*
X151031446Y-90424295D01*
X151037269Y-90421710D01*
X151043459Y-90419685D01*
X151051060Y-90418122D01*
X151061113Y-90416924D01*
X151074660Y-90415991D01*
X151092743Y-90415226D01*
X151116405Y-90414531D01*
X151141537Y-90413925D01*
X151253718Y-90414267D01*
X151370283Y-90420315D01*
X151490792Y-90432031D01*
X151614799Y-90449377D01*
X151667225Y-90458227D01*
X151688307Y-90461879D01*
X151706675Y-90464906D01*
X151721122Y-90467120D01*
X151730440Y-90468335D01*
X151733432Y-90468438D01*
X151733553Y-90464339D01*
X151732572Y-90455125D01*
X151731293Y-90446508D01*
X151726049Y-90409754D01*
X151721364Y-90367880D01*
X151717356Y-90322746D01*
X151714139Y-90276214D01*
X151711831Y-90230143D01*
X151710547Y-90186396D01*
X151710402Y-90146832D01*
X151711068Y-90122021D01*
X151715990Y-90045804D01*
X151724004Y-89967930D01*
X151733995Y-89896944D01*
X151739090Y-89865353D01*
X152284646Y-89865353D01*
X152286674Y-89913901D01*
X152296072Y-89971248D01*
X152312205Y-90025547D01*
X152334934Y-90076505D01*
X152364121Y-90123827D01*
X152399627Y-90167221D01*
X152411707Y-90179642D01*
X152454536Y-90217340D01*
X152499888Y-90248101D01*
X152548325Y-90272230D01*
X152600411Y-90290034D01*
X152627238Y-90296500D01*
X152649408Y-90299956D01*
X152676548Y-90302335D01*
X152706196Y-90303582D01*
X152735892Y-90303642D01*
X152763172Y-90302459D01*
X152785269Y-90300029D01*
X152814089Y-90293788D01*
X152845985Y-90284286D01*
X152877891Y-90272569D01*
X152906743Y-90259685D01*
X152913327Y-90256293D01*
X152963018Y-90225757D01*
X153007341Y-90190080D01*
X153046063Y-90149576D01*
X153078950Y-90104558D01*
X153105768Y-90055343D01*
X153126284Y-90002243D01*
X153138808Y-89953213D01*
X153141820Y-89931413D01*
X153143513Y-89904580D01*
X153143916Y-89875059D01*
X153143596Y-89863931D01*
X153652570Y-89863931D01*
X153653435Y-89903960D01*
X153657123Y-89942723D01*
X153663561Y-89977535D01*
X153664690Y-89981984D01*
X153682728Y-90036034D01*
X153707253Y-90086682D01*
X153737851Y-90133426D01*
X153774108Y-90175764D01*
X153815610Y-90213196D01*
X153861944Y-90245219D01*
X153898041Y-90264635D01*
X153943421Y-90282628D01*
X153992621Y-90295375D01*
X154043943Y-90302710D01*
X154095689Y-90304471D01*
X154146160Y-90300493D01*
X154186578Y-90292531D01*
X154239930Y-90275090D01*
X154289266Y-90251762D01*
X154334339Y-90223089D01*
X154374899Y-90189610D01*
X154410699Y-90151868D01*
X154441490Y-90110403D01*
X154467025Y-90065755D01*
X154487054Y-90018466D01*
X154501329Y-89969077D01*
X154509603Y-89918129D01*
X154511627Y-89866163D01*
X154507152Y-89813719D01*
X154495930Y-89761339D01*
X154477714Y-89709563D01*
X154465886Y-89684035D01*
X154449361Y-89653433D01*
X154432220Y-89626917D01*
X154412560Y-89601822D01*
X154388476Y-89575485D01*
X154387888Y-89574878D01*
X154346664Y-89537521D01*
X154301840Y-89506422D01*
X154254056Y-89481646D01*
X154203950Y-89463261D01*
X154152161Y-89451333D01*
X154099328Y-89445928D01*
X154046089Y-89447113D01*
X153993083Y-89454954D01*
X153940949Y-89469518D01*
X153890325Y-89490871D01*
X153843168Y-89518198D01*
X153797560Y-89552917D01*
X153757652Y-89592434D01*
X153723660Y-89636431D01*
X153695799Y-89684589D01*
X153674283Y-89736589D01*
X153659594Y-89790803D01*
X153654599Y-89825318D01*
X153652570Y-89863931D01*
X153143596Y-89863931D01*
X153143056Y-89845199D01*
X153140961Y-89817345D01*
X153137658Y-89793846D01*
X153136888Y-89790032D01*
X153121302Y-89734531D01*
X153099371Y-89682684D01*
X153071500Y-89634878D01*
X153038095Y-89591503D01*
X152999562Y-89552946D01*
X152956307Y-89519596D01*
X152908737Y-89491840D01*
X152857256Y-89470069D01*
X152802272Y-89454668D01*
X152782309Y-89450861D01*
X152729206Y-89445574D01*
X152675716Y-89447218D01*
X152622753Y-89455505D01*
X152571231Y-89470144D01*
X152522065Y-89490847D01*
X152476171Y-89517325D01*
X152434463Y-89549289D01*
X152416134Y-89566560D01*
X152377543Y-89610371D01*
X152345379Y-89657229D01*
X152319825Y-89706645D01*
X152301064Y-89758131D01*
X152289276Y-89811196D01*
X152284646Y-89865353D01*
X151739090Y-89865353D01*
X151743675Y-89836923D01*
X151628538Y-89079162D01*
X151614150Y-88984386D01*
X151600884Y-88896810D01*
X151588708Y-88816219D01*
X151577590Y-88742398D01*
X151567501Y-88675133D01*
X151558407Y-88614211D01*
X151550279Y-88559416D01*
X151543086Y-88510534D01*
X151536794Y-88467352D01*
X151531375Y-88429654D01*
X151526796Y-88397226D01*
X151523027Y-88369855D01*
X151520035Y-88347325D01*
X151517791Y-88329423D01*
X151516262Y-88315934D01*
X151515418Y-88306644D01*
X151515227Y-88301338D01*
X151515262Y-88300769D01*
X151521457Y-88271785D01*
X151534136Y-88245714D01*
X151552585Y-88223563D01*
X151576091Y-88206336D01*
X151585555Y-88201578D01*
X151613831Y-88192110D01*
X151641832Y-88188843D01*
X151666736Y-88191691D01*
X151672256Y-88193507D01*
X151684398Y-88197828D01*
X151702763Y-88204507D01*
X151726957Y-88213396D01*
X151756582Y-88224346D01*
X151791242Y-88237211D01*
X151830540Y-88251841D01*
X151874079Y-88268089D01*
X151921463Y-88285807D01*
X151972296Y-88304848D01*
X152026180Y-88325063D01*
X152082719Y-88346304D01*
X152141517Y-88368424D01*
X152202176Y-88391275D01*
X152222592Y-88398972D01*
X152760406Y-88601789D01*
X152794664Y-88588250D01*
X152898130Y-88551352D01*
X153004317Y-88521257D01*
X153112631Y-88498038D01*
X153222482Y-88481767D01*
X153333276Y-88472516D01*
X153444422Y-88470355D01*
X153555327Y-88475359D01*
X153645494Y-88484834D01*
X153749661Y-88501726D01*
X153850981Y-88524527D01*
X153951146Y-88553669D01*
X154046824Y-88587641D01*
X154083067Y-88601610D01*
X154632025Y-88394497D01*
X155180983Y-88187383D01*
X155209118Y-88189046D01*
G37*
G36*
X154133258Y-89682548D02*
G01*
X154167938Y-89695963D01*
X154168134Y-89696061D01*
X154201965Y-89716260D01*
X154229560Y-89740316D01*
X154251412Y-89768771D01*
X154268016Y-89802165D01*
X154270191Y-89807926D01*
X154279306Y-89843355D01*
X154281551Y-89879076D01*
X154277392Y-89914241D01*
X154267291Y-89948006D01*
X154251716Y-89979525D01*
X154231128Y-90007950D01*
X154205994Y-90032436D01*
X154176779Y-90052137D01*
X154143945Y-90066206D01*
X154125748Y-90070984D01*
X154103831Y-90073893D01*
X154078797Y-90074636D01*
X154054089Y-90073258D01*
X154033149Y-90069803D01*
X154033088Y-90069788D01*
X153997581Y-90057135D01*
X153965450Y-90038218D01*
X153937443Y-90013798D01*
X153914308Y-89984638D01*
X153896796Y-89951502D01*
X153886928Y-89920940D01*
X153881677Y-89883951D01*
X153883204Y-89848403D01*
X153890883Y-89814798D01*
X153903946Y-89783965D01*
X153984946Y-89783965D01*
X153988137Y-89802444D01*
X153996784Y-89817283D01*
X154009500Y-89827919D01*
X154024897Y-89833786D01*
X154041588Y-89834320D01*
X154058184Y-89828956D01*
X154071368Y-89819150D01*
X154082224Y-89803798D01*
X154086633Y-89787202D01*
X154085182Y-89770720D01*
X154078461Y-89755714D01*
X154067058Y-89743541D01*
X154051561Y-89735563D01*
X154034123Y-89733097D01*
X154016268Y-89736799D01*
X154001296Y-89746479D01*
X153990522Y-89760781D01*
X153985256Y-89778346D01*
X153984946Y-89783965D01*
X153903946Y-89783965D01*
X153904085Y-89783636D01*
X153922183Y-89755421D01*
X153944550Y-89730653D01*
X153970558Y-89709835D01*
X153999580Y-89693468D01*
X154030988Y-89682054D01*
X154064156Y-89676095D01*
X154098455Y-89676092D01*
X154133258Y-89682548D01*
G37*
G36*
X152751751Y-89679748D02*
G01*
X152788213Y-89689639D01*
X152821413Y-89705925D01*
X152850748Y-89728235D01*
X152875612Y-89756200D01*
X152894837Y-89788272D01*
X152908248Y-89823976D01*
X152914621Y-89860126D01*
X152914317Y-89895942D01*
X152907699Y-89930641D01*
X152895130Y-89963442D01*
X152876973Y-89993563D01*
X152853589Y-90020222D01*
X152825341Y-90042639D01*
X152792593Y-90060030D01*
X152764389Y-90069544D01*
X152741066Y-90073467D01*
X152714145Y-90074637D01*
X152686990Y-90073101D01*
X152662964Y-90068904D01*
X152660115Y-90068128D01*
X152625299Y-90054624D01*
X152594221Y-90034968D01*
X152573885Y-90016984D01*
X152549766Y-89987975D01*
X152532090Y-89956152D01*
X152520765Y-89922384D01*
X152515697Y-89887541D01*
X152516795Y-89852493D01*
X152523965Y-89818109D01*
X152537115Y-89785259D01*
X152540608Y-89779672D01*
X152617996Y-89779672D01*
X152619776Y-89796265D01*
X152626820Y-89811158D01*
X152638021Y-89823277D01*
X152652269Y-89831549D01*
X152668456Y-89834900D01*
X152685473Y-89832257D01*
X152691856Y-89829495D01*
X152706773Y-89817968D01*
X152717153Y-89802157D01*
X152720431Y-89791650D01*
X152719908Y-89777236D01*
X152714416Y-89761730D01*
X152705328Y-89748045D01*
X152696191Y-89740245D01*
X152679223Y-89734222D01*
X152661249Y-89734444D01*
X152644225Y-89740320D01*
X152630106Y-89751261D01*
X152622591Y-89762451D01*
X152617996Y-89779672D01*
X152540608Y-89779672D01*
X152556152Y-89754813D01*
X152580983Y-89727639D01*
X152606861Y-89707577D01*
X152636933Y-89691252D01*
X152668513Y-89681189D01*
X152703384Y-89676866D01*
X152712633Y-89676623D01*
X152751751Y-89679748D01*
G37*
D13*
%TO.C,C2*%
X152758000Y-96532000D02*
X152758000Y-100572000D01*
X152758000Y-100572000D02*
X155598000Y-100572000D01*
X154178000Y-95842000D02*
X154178000Y-96532000D01*
X154178000Y-101262000D02*
X154178000Y-100572000D01*
X155598000Y-96532000D02*
X152758000Y-96532000D01*
X155598000Y-100572000D02*
X155598000Y-96532000D01*
%TO.C,RF-IN*%
X128274000Y-90896000D02*
X136474000Y-90896000D01*
X128274000Y-99096000D02*
X128274000Y-90896000D01*
X128274000Y-99096000D02*
X136474000Y-99096000D01*
X132374000Y-98596000D02*
X131874000Y-99096000D01*
X132874000Y-99096000D02*
X132374000Y-98596000D01*
X136474000Y-99096000D02*
X136474000Y-90896000D01*
%TO.C,RF-OUT*%
X159984000Y-90896000D02*
X159984000Y-99096000D01*
X163584000Y-90896000D02*
X164084000Y-91396000D01*
X164084000Y-91396000D02*
X164584000Y-90896000D01*
X168184000Y-90896000D02*
X159984000Y-90896000D01*
X168184000Y-90896000D02*
X168184000Y-99096000D01*
X168184000Y-99096000D02*
X159984000Y-99096000D01*
%TO.C,R2*%
X142860000Y-89250000D02*
X146700000Y-89250000D01*
X142860000Y-91090000D02*
X146700000Y-91090000D01*
%TO.C,C1*%
X148696000Y-95554748D02*
X148696000Y-96977252D01*
X150516000Y-95554748D02*
X150516000Y-96977252D01*
%TO.C,R1*%
X142844436Y-94086000D02*
X144298564Y-94086000D01*
X142844436Y-95906000D02*
X144298564Y-95906000D01*
%TD*%
M02*
