%TF.GenerationSoftware,KiCad,Pcbnew,8.0.1*%
%TF.CreationDate,2024-04-10T13:09:59-07:00*%
%TF.ProjectId,LowPassFilter,4c6f7750-6173-4734-9669-6c7465722e6b,rev?*%
%TF.SameCoordinates,Original*%
%TF.FileFunction,Copper,L1,Top*%
%TF.FilePolarity,Positive*%
%FSLAX46Y46*%
G04 Gerber Fmt 4.6, Leading zero omitted, Abs format (unit mm)*
G04 Created by KiCad (PCBNEW 8.0.1) date 2024-04-10 13:09:59*
%MOMM*%
%LPD*%
G01*
G04 APERTURE LIST*
G04 Aperture macros list*
%AMRoundRect*
0 Rectangle with rounded corners*
0 $1 Rounding radius*
0 $2 $3 $4 $5 $6 $7 $8 $9 X,Y pos of 4 corners*
0 Add a 4 corners polygon primitive as box body*
4,1,4,$2,$3,$4,$5,$6,$7,$8,$9,$2,$3,0*
0 Add four circle primitives for the rounded corners*
1,1,$1+$1,$2,$3*
1,1,$1+$1,$4,$5*
1,1,$1+$1,$6,$7*
1,1,$1+$1,$8,$9*
0 Add four rect primitives between the rounded corners*
20,1,$1+$1,$2,$3,$4,$5,0*
20,1,$1+$1,$4,$5,$6,$7,0*
20,1,$1+$1,$6,$7,$8,$9,0*
20,1,$1+$1,$8,$9,$2,$3,0*%
G04 Aperture macros list end*
%TA.AperFunction,ComponentPad*%
%ADD10C,1.600000*%
%TD*%
%TA.AperFunction,ComponentPad*%
%ADD11O,1.600000X1.600000*%
%TD*%
%TA.AperFunction,ComponentPad*%
%ADD12RoundRect,0.200100X0.949900X-0.949900X0.949900X0.949900X-0.949900X0.949900X-0.949900X-0.949900X0*%
%TD*%
%TA.AperFunction,ComponentPad*%
%ADD13C,2.500000*%
%TD*%
%TA.AperFunction,ComponentPad*%
%ADD14RoundRect,0.200100X-0.949900X0.949900X-0.949900X-0.949900X0.949900X-0.949900X0.949900X0.949900X0*%
%TD*%
%TA.AperFunction,ComponentPad*%
%ADD15C,1.400000*%
%TD*%
%TA.AperFunction,ComponentPad*%
%ADD16O,1.400000X1.400000*%
%TD*%
%TA.AperFunction,SMDPad,CuDef*%
%ADD17RoundRect,0.250000X-0.650000X0.325000X-0.650000X-0.325000X0.650000X-0.325000X0.650000X0.325000X0*%
%TD*%
%TA.AperFunction,SMDPad,CuDef*%
%ADD18RoundRect,0.250000X-0.312500X-0.625000X0.312500X-0.625000X0.312500X0.625000X-0.312500X0.625000X0*%
%TD*%
%TA.AperFunction,ViaPad*%
%ADD19C,0.600000*%
%TD*%
%TA.AperFunction,Conductor*%
%ADD20C,0.300000*%
%TD*%
%TA.AperFunction,Conductor*%
%ADD21C,0.200000*%
%TD*%
%TA.AperFunction,Conductor*%
%ADD22C,1.000000*%
%TD*%
G04 APERTURE END LIST*
D10*
%TO.P,C2,1*%
%TO.N,Net-(RF-OUT1-In)*%
X154178000Y-94802000D03*
D11*
%TO.P,C2,2*%
%TO.N,GND*%
X154178000Y-102302000D03*
%TD*%
D12*
%TO.P,RF-IN,1,In*%
%TO.N,Net-(RF-IN1-In)*%
X132374000Y-94996000D03*
D13*
%TO.P,RF-IN,2,Ext*%
%TO.N,GND*%
X129834000Y-97536000D03*
X134914000Y-97536000D03*
X129834000Y-92456000D03*
X134914000Y-92456000D03*
%TD*%
D14*
%TO.P,RF-OUT,1,In*%
%TO.N,Net-(RF-OUT1-In)*%
X164084000Y-94996000D03*
D13*
%TO.P,RF-OUT,2,Ext*%
%TO.N,GND*%
X166624000Y-92456000D03*
X161544000Y-92456000D03*
X166624000Y-97536000D03*
X161544000Y-97536000D03*
%TD*%
D15*
%TO.P,R2,1*%
%TO.N,Net-(RF-IN1-In)*%
X142240000Y-90170000D03*
D16*
%TO.P,R2,2*%
%TO.N,Net-(RF-OUT1-In)*%
X147320000Y-90170000D03*
%TD*%
D17*
%TO.P,C1,1*%
%TO.N,Net-(RF-OUT1-In)*%
X149606000Y-94791000D03*
%TO.P,C1,2*%
%TO.N,GND*%
X149606000Y-97741000D03*
%TD*%
D18*
%TO.P,R1,1*%
%TO.N,Net-(RF-IN1-In)*%
X142109000Y-94996000D03*
%TO.P,R1,2*%
%TO.N,Net-(RF-OUT1-In)*%
X145034000Y-94996000D03*
%TD*%
D19*
%TO.N,GND*%
X149606000Y-99568000D03*
X151638000Y-97790000D03*
X147574000Y-97790000D03*
%TD*%
D20*
%TO.N,Net-(RF-OUT1-In)*%
X154178000Y-94802000D02*
X149617000Y-94802000D01*
X145034000Y-94996000D02*
X145034000Y-92456000D01*
X154372000Y-94996000D02*
X154178000Y-94802000D01*
X145239000Y-94791000D02*
X145034000Y-94996000D01*
X164084000Y-94996000D02*
X154372000Y-94996000D01*
X154167000Y-94791000D02*
X154178000Y-94802000D01*
X149617000Y-94802000D02*
X149606000Y-94791000D01*
X145288000Y-94742000D02*
X145337000Y-94791000D01*
X145034000Y-94742000D02*
X145288000Y-94742000D01*
X149606000Y-94791000D02*
X145239000Y-94791000D01*
X145034000Y-92456000D02*
X147320000Y-90170000D01*
D21*
%TO.N,GND*%
X149606000Y-97741000D02*
X147623000Y-97741000D01*
X149606000Y-97741000D02*
X151589000Y-97741000D01*
X147623000Y-97741000D02*
X147574000Y-97790000D01*
X149606000Y-97741000D02*
X149606000Y-99568000D01*
X151589000Y-97741000D02*
X151638000Y-97790000D01*
D20*
%TO.N,Net-(RF-IN1-In)*%
X142109000Y-94619000D02*
X142240000Y-94488000D01*
X142109000Y-94996000D02*
X132374000Y-94996000D01*
X142109000Y-94996000D02*
X142109000Y-94619000D01*
D22*
X142109000Y-90301000D02*
X142240000Y-90170000D01*
D20*
X142240000Y-94488000D02*
X142240000Y-90170000D01*
%TD*%
M02*
